<svg xmlns="http://www.w3.org/2000/svg">
<defs>
<font id="ScotchDeckComp-Md" horiz-adv-x="0" >
  <font-face 
    font-family="Scotch Deck Comp Md"
    font-weight="500"
    font-stretch="ultra-condensed"
    units-per-em="2048"
    panose-1="2 0 0 0 0 0 0 0 0 0"
    ascent="1536"
    descent="-512"
    x-height="1020"
    cap-height="1434"
    bbox="-567 -508 2050 1933"
    underline-thickness="102"
    underline-position="-409"
    unicode-range="U+0020-2665"
  />
<missing-glyph horiz-adv-x="1024" 
d="M20 1532h984v-2040h-984v2040zM655 207q115 33 180.5 116.5t65.5 186.5q0 52 -18.5 130.5t-39 148t-34 169.5t-4.5 195q0 54 -81.5 85.5t-211.5 31.5q-132 0 -213.5 -31.5t-81.5 -85.5q9 -94 -4 -193.5t-33.5 -169.5t-38.5 -148.5t-18 -131.5q0 -103 65.5 -186.5
t180.5 -116.5q0 -4 -1 -12.5t-1 -12.5q-72 -12 -103 -45t-31 -74q0 -62 77 -106.5t202 -44.5t202 44.5t77 106.5q0 41 -31 74t-103 45q0 4 -1 12.5t-1 12.5zM512 1071q-110 0 -185 24.5t-75 57.5q0 34 74.5 58t185.5 24q109 0 183.5 -24t74.5 -58q0 -33 -75 -57.5
t-183 -24.5zM766 1092q-1 -104 24.5 -220t51.5 -212t26 -150q0 -126 -100.5 -208.5t-255.5 -82.5t-255.5 82.5t-100.5 208.5q0 54 25.5 150t50.5 212t24 220q76 -54 256 -54q178 0 254 54zM512 844q-98 0 -163.5 -19.5t-65.5 -46.5q0 -23 66.5 -42t162.5 -19q95 0 162 19
t67 42q0 27 -66 46.5t-163 19.5zM772 770q0 -34 -74.5 -58t-185.5 -24t-185.5 24t-74.5 58q-45 -128 -45 -219q0 -63 20 -111.5t51 -76.5t73 -46t80.5 -24t80.5 -6q37 0 92 10q27 69 31 162.5t-19 185.5l54 8q22 -86 21 -175t-23 -163q147 63 147 238q0 98 -43 217zM651 70
q22 18 11 84q44 -12 69 -36t25 -55q0 -48 -70 -82t-174 -34t-174 34t-70 82q0 31 25 55t69 36q-11 -66 11 -84q40 -31 139 -31q8 1 8 14t-8 15q-34 3 -49.5 5t-35 8.5t-28.5 18.5q-3 12 -3 20.5t3 35.5t4 41q60 -11 109 -11q48 0 109 11q1 -14 4 -40.5t3 -35t-3 -21.5
q-9 -13 -31 -24q-4 -3 -4.5 -10.5t3 -13t9.5 -3.5q35 12 49 21z" />
    <glyph glyph-name="T_h.liga" unicode="Th" horiz-adv-x="1851" 
d="M1741 219q0 -43 0.5 -62t3 -44t7 -34t14.5 -19t24 -12.5t35 -2.5v-45h-393v45q61 0 73.5 30.5t12.5 143.5v520q0 100 -23 153.5t-80 53.5q-53 0 -105.5 -75t-92.5 -207v-445q0 -113 10 -138q12 -33 58 -36h15v-45h-391v45q57 0 68.5 30.5t11.5 143.5v993q0 47 -1.5 71
t-11 52.5t-28.5 40.5h-307v-1134v-45.5t1 -37.5t4 -32.5t7 -24.5t11 -21t17 -14.5t23.5 -11.5t31 -6t40.5 -4v-45h-522v45q25 1 43.5 4t33.5 6t25.5 11.5t18 14.5t12 21t7 24.5t4 32.5t1.5 37.5v45.5v1134h-77q-101 0 -171.5 -115t-80.5 -356h-33l8 529h856l301 26l19 -14
l-4 -254l-9 -449q47 135 126.5 216t176.5 81q106 0 168 -88.5t62 -246.5v-486z" />
    <glyph glyph-name="f_b.liga" unicode="fb" horiz-adv-x="1488" 
d="M1126 1040q144 0 228 -140.5t84 -364.5q0 -112 -25.5 -211.5t-74 -176.5t-125.5 -122t-173 -45q-85 0 -149.5 56t-95.5 134l-107 -188h-26l2 317v1020q-39 154 -144 154q-49 0 -83 -27t-51 -77.5t-23.5 -107.5t-6.5 -133v-108l222 4v-66l-222 7v-746q0 -113 13 -143.5
t77 -30.5v-45h-399v45q21 0 35 2.5t24 12.5t14.5 19t7 34t3 44t0.5 62v746h-88v55h88v78q0 191 108 307.5t287 116.5q126 0 242 -88l109 67l16 -12l-4 -246l-8 -469q72 266 245 266zM1032 29q37 0 64 20.5t51 73t36.5 155.5t12.5 254q0 84 -2.5 144t-10 121.5t-20.5 99.5
t-36.5 62t-55.5 24q-54 0 -102.5 -76.5t-79.5 -220.5l-2 -313q-2 -162 36 -253t109 -91z" />
    <glyph glyph-name="f_f.liga" unicode="ff" horiz-adv-x="1087" 
d="M993 1532q90 0 153.5 -59.5t63.5 -155.5q0 -70 -32 -116t-82 -46q-69 0 -90 82q65 72 65 149q0 41 -20 69t-56 28q-33 0 -55 -24t-32.5 -69t-14.5 -91.5t-4 -108.5v-170l172 6v-68l-172 7v-746v-48t1.5 -37.5t4 -31t7.5 -22t12.5 -17.5t18.5 -9.5t25.5 -7t34.5 -1.5v-45
h-426v45q25 0 41 2.5t27 12.5t16.5 19t8.5 34t3.5 44.5t0.5 61.5v746h-308v-746v-48t1.5 -37.5t4 -31t7 -22t11 -17.5t17 -10t23.5 -6.5t31 -1.5v-45h-404v45q21 0 35 2.5t24 12.5t14.5 19t7 34t3 44t0.5 62v746h-88v55h88v78q0 190 106 300.5t285 110.5q116 0 238 -86
q88 109 233 109zM356 1020h308v80q0 94 20 164q-22 96 -65.5 145t-98.5 49q-48 0 -81 -24t-50.5 -70.5t-25 -103t-7.5 -132.5v-108z" />
    <glyph glyph-name="f_f_b.liga" unicode="ffb" horiz-adv-x="2021" 
d="M1659 1040q144 0 227.5 -140.5t83.5 -364.5q0 -112 -25.5 -211.5t-73.5 -176.5t-124.5 -122t-171.5 -45q-88 0 -152 55.5t-96 134.5l-104 -188h-31l4 317v1006l-2 16q-36 152 -143 152q-49 0 -82 -27t-50 -77.5t-23.5 -107.5t-6.5 -133v-108l221 4v-66l-221 7v-746
q0 -113 13 -143.5t77 -30.5v-45h-401v45q61 0 73.5 30.5t12.5 143.5v746h-308v-746v-48t1.5 -37.5t4 -31t7 -22t11 -17.5t17 -10t23.5 -6.5t31 -1.5v-45h-404v45q21 0 35 2.5t24 12.5t14.5 19t7 34t3 44t0.5 62v746h-88v55h88v67q0 190 106 300t285 110q123 0 248 -92
q111 117 289 117q125 0 241 -88l109 67l16 -12l-6 -246l-8 -477q35 137 98.5 205.5t149.5 68.5zM356 1020h308v78q0 85 20 149q-21 99 -65 150t-99 51q-48 0 -81 -24.5t-50.5 -71t-25 -103.5t-7.5 -133v-96zM1565 29q37 0 64 20.5t51 73t36.5 155.5t12.5 254q0 85 -2.5 145
t-10 121.5t-20.5 99t-36.5 61.5t-55.5 24q-54 0 -104 -79t-81 -226l-2 -305q0 -162 38.5 -253t109.5 -91z" />
    <glyph glyph-name="f_f_f.liga" unicode="fff" horiz-adv-x="1617" 
d="M1526 1532q92 0 154.5 -59.5t62.5 -155.5q0 -70 -32 -116t-83 -46q-66 0 -92 82q68 75 68 149q0 42 -20.5 69.5t-55.5 27.5q-109 0 -109 -293v-170l174 6v-68l-174 7v-746v-43t1 -34.5t3 -29.5t5.5 -22.5t9.5 -18.5t13.5 -11.5t18.5 -9t24.5 -4t31.5 -1.5v-45h-426v45
q25 0 40.5 2.5t27 12.5t17 19t8 34t3 44t0.5 62v746h-307v-746q0 -43 0.5 -62t3 -44t8 -34t16.5 -19t26.5 -12.5t39.5 -2.5v-45h-405v45q61 0 73.5 30.5t12.5 143.5v746h-308v-746v-48t1.5 -37.5t4 -31t7 -22t11 -17.5t17 -10t23.5 -6.5t31 -1.5v-45h-404v45q21 0 35 2.5
t24 12.5t14.5 19t7 34t3 44t0.5 62v746h-88v55h88v67q0 190 106 300t285 110q123 0 248 -92q111 117 289 117q125 0 241 -88q92 98 226 98zM889 1020h307v80q0 81 21 170q-49 203 -166 203q-49 0 -82 -27t-50 -77.5t-23.5 -107.5t-6.5 -133v-108zM356 1020h308v78
q0 85 20 149q-21 99 -65 150t-99 51q-48 0 -81 -24.5t-50.5 -71t-25 -103.5t-7.5 -133v-96z" />
    <glyph glyph-name="f_f_h.liga" unicode="ffh" horiz-adv-x="2056" 
d="M1944 219q0 -43 0.5 -62t3 -44t7 -34t14.5 -19t24 -12.5t35 -2.5v-45h-394v45q61 0 73.5 30.5t12.5 143.5v520q0 106 -22 156.5t-78 50.5q-53 0 -105 -71t-94 -205v-451q0 -43 0.5 -62t3 -44t7 -34t14.5 -19t24 -12.5t35 -2.5v-45h-401v45q18 0 30.5 1.5t22.5 7t16.5 9.5
t11 17.5t6.5 22t3.5 31t1.5 37.5v48v1086l-2 16q-36 152 -143 152q-49 0 -82 -27t-50 -77.5t-23.5 -107.5t-6.5 -133v-108l221 4v-66l-221 7v-746q0 -113 13 -143.5t77 -30.5v-45h-404v45q17 0 29 1.5t22 6.5t16 10t10.5 17.5t6.5 22t3.5 31t1.5 37.5v48v746h-308v-746
q0 -42 0.5 -61.5t3.5 -44.5t8 -34t16 -19t26 -12.5t39 -2.5v-45h-402v45q21 0 35 2.5t24 12.5t14.5 19t7 34t3 44t0.5 62v746h-88v55h88v67q0 190 106 300t285 110q123 0 248 -92q111 117 289 117q125 0 241 -88l109 67l16 -12l-4 -246l-10 -504q47 137 127 219t178 82
q104 0 166 -88.5t62 -246.5v-486zM356 1020h308v78q0 85 20 149q-21 99 -65 150t-99 51q-48 0 -81 -24.5t-50.5 -71t-25 -103.5t-7.5 -133v-96z" />
    <glyph glyph-name="f_f_i.liga" unicode="ffi" horiz-adv-x="1531" 
d="M1411 219q0 -114 12.5 -144t73.5 -30v-45h-395v45q61 0 73.5 30t12.5 144v582q0 30 -0.5 44.5t-3 37t-8 33.5t-15 23t-25.5 17t-38 5l-209 4v-746q0 -43 0.5 -62t3 -44t8 -34t16.5 -19t26.5 -12.5t39.5 -2.5v-45h-405v45q61 0 73.5 30.5t12.5 143.5v746h-308v-746
q0 -42 0.5 -61.5t3.5 -44.5t8 -34t16 -19t26 -12.5t39 -2.5v-45h-402v45q21 0 35 2.5t24 12.5t14.5 19t7 34t3 44t0.5 62v746h-88v55h88v67q0 190 106 300t285 110q58 0 124.5 -24.5t125.5 -69.5q117 133 307 133q140 0 223.5 -66t83.5 -170q0 -75 -38 -123.5t-97 -48.5
q-39 0 -68 24.5t-42 61.5q65 65 65 152q0 52 -33.5 86.5t-93.5 34.5q-58 0 -97.5 -29t-58.5 -84.5t-26.5 -116t-7.5 -143.5v-94h227l285 12l16 -12l-6 -301v-500zM356 1020h308v65q0 79 22 156q-21 102 -65.5 154.5t-100.5 52.5q-48 0 -81 -24.5t-50.5 -71t-25 -103.5
t-7.5 -133v-96z" />
    <glyph glyph-name="f_f_j.liga" unicode="ffj" horiz-adv-x="1509" 
d="M1397 1032l20 -12l-6 -307v-752q0 -190 -83.5 -306t-223.5 -116q-97 0 -157 56.5t-60 152.5q0 69 30.5 114.5t81.5 45.5q69 0 93 -80q-66 -77 -66 -145q0 -42 19 -68.5t51 -26.5q53 0 72.5 74.5t19.5 204.5v934q0 30 -0.5 44.5t-3 37t-8 33.5t-15 23t-25.5 17t-38 5
l-209 4v-746q0 -43 0.5 -62t3 -44t8 -34t16.5 -19t26.5 -12.5t39.5 -2.5v-45h-405v45q61 0 73.5 30.5t12.5 143.5v746h-308v-746q0 -42 0.5 -61.5t3.5 -44.5t8 -34t16 -19t26 -12.5t39 -2.5v-45h-402v45q21 0 35 2.5t24 12.5t14.5 19t7 34t3 44t0.5 62v746h-88v55h88v67
q0 190 106 300t285 110q58 0 124.5 -24.5t125.5 -69.5q117 133 307 133q140 0 223.5 -66t83.5 -170q0 -75 -38 -123.5t-97 -48.5q-39 0 -68 24.5t-42 61.5q65 65 65 152q0 52 -33.5 86.5t-93.5 34.5q-58 0 -97.5 -29t-58.5 -84.5t-26.5 -116t-7.5 -143.5v-94h254zM356 1020
h308v65q0 79 22 156q-21 102 -65.5 154.5t-100.5 52.5q-48 0 -81 -24.5t-50.5 -71t-25 -103.5t-7.5 -133v-96z" />
    <glyph glyph-name="f_f_k.liga" unicode="ffk" horiz-adv-x="2013" 
d="M1878 236q46 -108 79.5 -149.5t92.5 -41.5v-45h-444v45q73 0 76.5 38.5t-37.5 134.5q-5 12 -7 18l-118 309q-47 -47 -101 -88v-238q0 -43 0.5 -62t3 -44t7 -34t14.5 -19t24 -12.5t35 -2.5v-45h-399v45q64 0 77 30.5t13 143.5v1100q-38 154 -143 154q-49 0 -82 -27
t-50 -77.5t-23.5 -107.5t-6.5 -133v-108l221 4v-66l-221 7v-746q0 -113 13 -143.5t77 -30.5v-45h-404v45q17 0 29 1.5t22 6.5t16 10t10.5 17.5t6.5 22t3.5 31t1.5 37.5v48v746h-308v-746q0 -42 0.5 -61.5t3.5 -44.5t8 -34t16 -19t26 -12.5t39 -2.5v-45h-402v45q21 0 35 2.5
t24 12.5t14.5 19t7 34t3 44t0.5 62v746h-88v55h88v67q0 190 106 300t285 110q123 0 248 -92q111 117 289 117q125 0 241 -88l109 67l16 -12l-6 -242l-8 -737q115 84 223.5 218.5t108.5 195.5q0 19 -8.5 30t-30.5 15.5t-35 5t-47 0.5v45h346v-45q-71 0 -113 -29
q-43 -28 -129 -162q-12 -18 -55 -73zM356 1020h308v78q0 85 20 149q-21 99 -65 150t-99 51q-48 0 -81 -24.5t-50.5 -71t-25 -103.5t-7.5 -133v-96z" />
    <glyph glyph-name="f_f_l.liga" unicode="ffl" horiz-adv-x="1540" 
d="M1421 219q0 -114 12 -144t70 -30v-45h-399v45q20 0 34 3t24.5 6.5t16.5 15.5t9.5 20.5t5 33t2 41t0.5 54.5v1071l-2 33q-39 150 -143 150q-49 0 -82 -27t-50 -77.5t-23.5 -107.5t-6.5 -133v-108l221 4v-66l-221 7v-746q0 -113 13 -143.5t77 -30.5v-45h-404v45
q17 0 29 1.5t22 6.5t16 10t10.5 17.5t6.5 22t3.5 31t1.5 37.5v48v746h-308v-746q0 -42 0.5 -61.5t3.5 -44.5t8 -34t16 -19t26 -12.5t39 -2.5v-45h-402v45q21 0 35 2.5t24 12.5t14.5 19t7 34t3 44t0.5 62v746h-88v55h88v67q0 190 106 300t285 110q123 0 248 -92
q111 117 289 117q125 0 241 -88l109 67l16 -12l-4 -289v-981zM356 1020h308v78q0 85 20 149q-21 99 -65 150t-99 51q-48 0 -81 -24.5t-50.5 -71t-25 -103.5t-7.5 -133v-96z" />
    <glyph glyph-name="f_h.liga" unicode="fh" horiz-adv-x="1523" 
d="M1411 219q0 -43 0.5 -62t3 -44t7 -34t14.5 -19t24 -12.5t35 -2.5v-45h-391v45q21 0 35 2.5t24 12.5t14.5 19t7 34t3 44t0.5 62v520q0 105 -22.5 156t-78.5 51q-53 0 -104 -71.5t-94 -204.5v-451q0 -43 0.5 -62t3 -44t7 -34t14.5 -19t24 -12.5t35 -2.5v-45h-402v45
q24 0 39 2.5t26 12.5t16 19t8 34t3.5 44.5t0.5 61.5v1100q-39 154 -144 154q-49 0 -83 -27t-51 -77.5t-23.5 -107.5t-6.5 -133v-108l222 4v-66l-222 7v-746q0 -113 13 -143.5t77 -30.5v-45h-399v45q21 0 35 2.5t24 12.5t14.5 19t7 34t3 44t0.5 62v746h-88v55h88v78
q0 191 108 307.5t287 116.5q126 0 242 -88l109 67l16 -12l-4 -246l-8 -500q47 135 126.5 216t176.5 81q104 0 165.5 -88.5t61.5 -246.5v-486z" />
    <glyph glyph-name="f_i.liga" unicode="fi" horiz-adv-x="999" 
d="M879 219q0 -114 12.5 -144t73.5 -30v-45h-396v45q61 0 73.5 30t12.5 144v582q0 30 -0.5 44.5t-3 37t-8 33.5t-15 23t-25.5 17t-38 5l-209 4v-746v-48t1.5 -37.5t4 -31t7 -22t11 -17.5t17 -10t23.5 -6.5t31 -1.5v-45h-404v45q21 0 35 2.5t24 12.5t14.5 19t7 34t3 44
t0.5 62v746h-88v55h88v65q0 194 114 322.5t302 128.5q141 0 225 -66t84 -170q0 -74 -39 -123t-96 -49q-40 0 -70 24.5t-43 61.5q68 65 68 152q0 52 -34 86.5t-95 34.5q-58 0 -97.5 -29t-59 -84.5t-27 -116t-7.5 -143.5v-94h228l284 12l17 -12l-6 -301v-500z" />
    <glyph glyph-name="f_j.liga" unicode="fj" horiz-adv-x="976" 
d="M864 1032l21 -12l-6 -307v-752q0 -191 -83.5 -306.5t-224.5 -115.5q-96 0 -156.5 57.5t-60.5 151.5q0 70 30.5 115t82.5 45q69 0 94 -80q-65 -72 -65 -145q0 -42 17.5 -68.5t49.5 -26.5q29 0 48.5 24t28.5 68t12 87t3 100v934q0 30 -0.5 44.5t-3 37t-8 33.5t-15 23
t-25.5 17t-38 5l-209 4v-746v-48t1.5 -37.5t4 -31t7 -22t11 -17.5t17 -10t23.5 -6.5t31 -1.5v-45h-404v45q21 0 35 2.5t24 12.5t14.5 19t7 34t3 44t0.5 62v746h-88v55h88v65q0 194 114 322.5t302 128.5q141 0 225 -66t84 -170q0 -74 -39 -123t-96 -49q-40 0 -70 24.5
t-43 61.5q68 65 68 152q0 52 -34 86.5t-95 34.5q-58 0 -97.5 -29t-59 -84.5t-27 -116t-7.5 -143.5v-94h254z" />
    <glyph glyph-name="f_k.liga" unicode="fk" horiz-adv-x="1480" 
d="M1346 236q48 -109 80 -150t90 -41v-45h-443v45q32 0 50 6t25 18.5t3.5 34t-13 49.5t-24.5 68l-6 15l-121 311q-53 -56 -98 -90v-238q0 -113 12 -143.5t70 -30.5v-45h-400v45q64 0 77.5 31t13.5 143v1108q-20 73 -56.5 109.5t-85.5 36.5t-83 -27t-51 -77.5t-23.5 -107.5
t-6.5 -133v-108l222 4v-66l-222 7v-746q0 -113 13 -143.5t77 -30.5v-45h-399v45q21 0 35 2.5t24 12.5t14.5 19t7 34t3 44t0.5 62v746h-88v55h88v78q0 191 108 307.5t287 116.5q126 0 242 -88l109 67l16 -12l-6 -242l-8 -739q115 84 223 219.5t108 196.5q0 18 -8.5 29.5
t-27.5 15.5t-33.5 5t-44.5 1h-6v45h346v-45q-69 0 -113 -29q-19 -14 -42 -40.5t-37 -46.5t-50 -73q-27 -40 -55 -75z" />
    <glyph glyph-name="f_l.liga" unicode="fl" horiz-adv-x="1007" 
d="M889 219q0 -114 12 -144t70 -30v-45h-400v45q66 0 79.5 30.5t13.5 143.5v1100q-39 154 -144 154q-49 0 -83 -27t-51 -77.5t-23.5 -107.5t-6.5 -133v-108l222 4v-66l-222 7v-746q0 -113 13 -143.5t77 -30.5v-45h-399v45q21 0 35 2.5t24 12.5t14.5 19t7 34t3 44t0.5 62v746
h-88v55h88v78q0 191 108 307.5t287 116.5q126 0 242 -88l109 67l16 -12l-4 -289v-981z" />
    <glyph glyph-name=".notdef" horiz-adv-x="1024" 
d="M20 1532h984v-2040h-984v2040zM655 207q115 33 180.5 116.5t65.5 186.5q0 52 -18.5 130.5t-39 148t-34 169.5t-4.5 195q0 54 -81.5 85.5t-211.5 31.5q-132 0 -213.5 -31.5t-81.5 -85.5q9 -94 -4 -193.5t-33.5 -169.5t-38.5 -148.5t-18 -131.5q0 -103 65.5 -186.5
t180.5 -116.5q0 -4 -1 -12.5t-1 -12.5q-72 -12 -103 -45t-31 -74q0 -62 77 -106.5t202 -44.5t202 44.5t77 106.5q0 41 -31 74t-103 45q0 4 -1 12.5t-1 12.5zM512 1071q-110 0 -185 24.5t-75 57.5q0 34 74.5 58t185.5 24q109 0 183.5 -24t74.5 -58q0 -33 -75 -57.5
t-183 -24.5zM766 1092q-1 -104 24.5 -220t51.5 -212t26 -150q0 -126 -100.5 -208.5t-255.5 -82.5t-255.5 82.5t-100.5 208.5q0 54 25.5 150t50.5 212t24 220q76 -54 256 -54q178 0 254 54zM512 844q-98 0 -163.5 -19.5t-65.5 -46.5q0 -23 66.5 -42t162.5 -19q95 0 162 19
t67 42q0 27 -66 46.5t-163 19.5zM772 770q0 -34 -74.5 -58t-185.5 -24t-185.5 24t-74.5 58q-45 -128 -45 -219q0 -63 20 -111.5t51 -76.5t73 -46t80.5 -24t80.5 -6q37 0 92 10q27 69 31 162.5t-19 185.5l54 8q22 -86 21 -175t-23 -163q147 63 147 238q0 98 -43 217zM651 70
q22 18 11 84q44 -12 69 -36t25 -55q0 -48 -70 -82t-174 -34t-174 34t-70 82q0 31 25 55t69 36q-11 -66 11 -84q40 -31 139 -31q8 1 8 14t-8 15q-34 3 -49.5 5t-35 8.5t-28.5 18.5q-3 12 -3 20.5t3 35.5t4 41q60 -11 109 -11q48 0 109 11q1 -14 4 -40.5t3 -35t-3 -21.5
q-9 -13 -31 -24q-4 -3 -4.5 -10.5t3 -13t9.5 -3.5q35 12 49 21z" />
    <glyph glyph-name=".null" 
 />
    <glyph glyph-name="nonmarkingreturn" horiz-adv-x="682" 
 />
    <glyph glyph-name="space" unicode=" " horiz-adv-x="499" 
 />
    <glyph glyph-name="exclam" unicode="!" horiz-adv-x="446" 
d="M211 446q-21 194 -51.5 369.5t-48 276t-17.5 168.5q0 77 35 135.5t96 58.5q57 0 92 -59t35 -135q0 -69 -18 -170t-48 -276t-50 -368h-25zM225 -23q-59 0 -98 43.5t-39 104.5t39 105t98 44q58 0 95.5 -43.5t37.5 -105.5t-37.5 -105t-95.5 -43z" />
    <glyph glyph-name="quotedbl" unicode="&#x22;" horiz-adv-x="681" 
d="M203 799q-19 124 -42 249.5t-33.5 188.5t-10.5 104q0 52 27 93t71 41q43 0 69.5 -41.5t26.5 -92.5q0 -41 -10 -100.5t-34 -187.5t-44 -254h-20zM459 799q-20 124 -44 253.5t-34 189.5t-10 99q0 50 27 92t71 42q43 0 70.5 -42t27.5 -92q0 -41 -11 -104t-34.5 -187
t-42.5 -251h-20z" />
    <glyph glyph-name="numbersign" unicode="#" horiz-adv-x="927" 
d="M862 846l-200 12l-50 -360l203 10l-8 -70l-201 13l-55 -451h-49l71 451h-282l-58 -451h-47l70 451l-205 -13l8 70l203 -10l49 360l-202 -12l8 69l200 -10l56 451h49l-72 -451h285l57 451h47l-71 -451l202 10zM580 498l49 360h-285l-47 -360h283z" />
    <glyph glyph-name="dollar" unicode="$" horiz-adv-x="892" 
d="M104 125l-12 14l101 129q-97 131 -97 312.5t97 310.5l-101 131l12 14l99 -131q103 126 243.5 126t241.5 -126l103 131l12 -14l-105 -131q100 -130 100 -311t-100 -312l105 -129l-12 -14l-103 131q-101 -124 -242.5 -124t-242.5 124zM268 340q72 -97 179 -96.5t182 98.5
q74 97 74.5 237.5t-72.5 237.5q-79 102 -184.5 101t-182.5 -101q-74 -96 -73 -237.5t77 -239.5z" />
    <glyph glyph-name="percent" unicode="%" horiz-adv-x="1099" 
d="M229 -23l-61 37q415 749 709 1409l59 -37q-435 -801 -707 -1409zM307 707q-98 0 -176 100.5t-78 253.5t78 253.5t176 100.5q100 0 177 -100t77 -254q0 -153 -77 -253.5t-177 -100.5zM307 752q62 0 85.5 77.5t23.5 231.5t-23.5 231.5t-85.5 77.5q-61 0 -84.5 -78
t-23.5 -231q0 -154 23.5 -231.5t84.5 -77.5zM793 -23q-98 0 -176 101.5t-78 255.5q0 152 77.5 252t176.5 100t175 -99.5t76 -252.5q0 -154 -76.5 -255.5t-174.5 -101.5zM793 25q61 0 84.5 77.5t23.5 231.5q0 153 -23.5 230t-84.5 77t-85 -77.5t-24 -229.5q0 -154 24 -231.5
t85 -77.5z" />
    <glyph glyph-name="ampersand" unicode="&#x26;" horiz-adv-x="1175" 
d="M1004 745q-25 -25 -80 -153q-60 -164 -125 -277q67 -114 117.5 -165.5t93.5 -51.5q34 0 55.5 39t21.5 121v104h25v-104q0 -80 -20 -137t-54.5 -86.5t-73 -42t-83.5 -12.5q-82 0 -137.5 40t-106.5 119q-67 -82 -145 -120.5t-154 -38.5q-130 0 -208.5 102t-78.5 264
q0 138 65.5 257.5t202.5 205.5q-70 193 -75 319q-6 145 73.5 235.5t204.5 90.5q98 0 163 -73t65 -173q0 -183 -211 -342q114 -264 241 -520q69 121 110.5 245t24.5 163q-10 23 -38.5 30t-81.5 7v38h331v-38q-79 0 -122 -46zM539 1403q-51 0 -80 -45.5t-29 -114.5
q0 -113 92 -338q150 123 150 303q0 81 -35.5 138t-97.5 57zM475 74q75 0 146 92q-149 236 -287 600q-52 -47 -80 -111t-27 -161q2 -88 38.5 -186t94.5 -166t115 -68z" />
    <glyph glyph-name="quotesingle" unicode="'" horiz-adv-x="329" 
d="M156 799q-20 127 -45 252.5t-36.5 187.5t-11.5 102q0 51 28 92.5t75 41.5q45 0 73.5 -41.5t28.5 -92.5q0 -40 -11 -102t-36 -188t-45 -252h-20z" />
    <glyph glyph-name="parenleft" unicode="(" horiz-adv-x="516" 
d="M504 -504q-129 118 -220.5 251t-140 265t-69.5 251t-21 241t21 240.5t69.5 250.5t140 265t220.5 251l14 -22q-183 -182 -261.5 -429.5t-78.5 -555.5q0 -648 340 -985z" />
    <glyph glyph-name="parenright" unicode=")" horiz-adv-x="516" 
d="M14 -504l-16 23q344 336 344 985t-344 985l16 22q128 -118 219.5 -251t139.5 -265t69 -250.5t21 -240.5q0 -594 -449 -1008z" />
    <glyph glyph-name="asterisk" unicode="*" horiz-adv-x="761" 
d="M647 928q39 -24 39 -74q0 -26 -17.5 -48t-43.5 -22q-18 0 -39 17q-21 16 -42.5 47t-60 79t-98.5 99q7 -122 32 -218t25 -118q0 -35 -16 -60.5t-45 -25.5q-30 0 -47 26t-17 60q0 25 12 65t27 109t19 160q-78 -68 -130 -139.5t-67 -83.5q-24 -17 -43 -17q-26 0 -42.5 23
t-16.5 49q0 47 39 72q17 10 51.5 18t87 29t115.5 63q-62 40 -114 59t-84 27.5t-54 26.5q-41 26 -41 72q0 26 17.5 46.5t41.5 20.5q23 0 41 -12q20 -14 41 -44.5t60 -80t98 -100.5q-5 92 -19.5 161.5t-26.5 109t-12 65.5q0 33 17 59.5t47 26.5q29 0 45 -26.5t16 -59.5
q0 -26 -11.5 -66t-26 -109.5t-19.5 -162.5q59 52 98.5 102.5t60 81t42.5 43.5q20 12 39 12q27 0 44 -22t17 -47q0 -43 -39 -70q-19 -14 -52.5 -22.5t-86 -28.5t-115.5 -62q63 -42 115.5 -61.5t86 -27.5t52.5 -21z" />
    <glyph glyph-name="plus" unicode="+" horiz-adv-x="880" 
d="M399 104v426h-323v82h323v426h82v-426h324v-82h-324v-426h-82z" />
    <glyph glyph-name="comma" unicode="," horiz-adv-x="489" 
d="M127 -371l-23 29q100 75 146.5 164t13.5 133q-7 21 -38 36t-62 25t-56.5 40t-25.5 79q0 61 43.5 103.5t107.5 42.5q75 0 122.5 -63.5t47.5 -156.5q0 -119 -72 -232.5t-204 -199.5z" />
    <glyph glyph-name="hyphen" unicode="-" horiz-adv-x="587" 
d="M92 498v129h404v-129h-404z" />
    <glyph glyph-name="period" unicode="." horiz-adv-x="460" 
d="M231 -23q-65 0 -107 43.5t-42 106.5q0 64 42.5 109t106.5 45q63 0 104.5 -45t41.5 -109t-41 -107t-105 -43z" />
    <glyph glyph-name="slash" unicode="/" horiz-adv-x="657" 
d="M127 -186l-76 28q286 943 477 1684l76 -29q-275 -909 -477 -1683z" />
    <glyph glyph-name="zero" unicode="0" horiz-adv-x="983" 
d="M489 -20q-111 0 -210 97.5t-159.5 268.5t-60.5 371t60.5 371t159.5 268.5t210 97.5q113 0 212.5 -97t160 -268t60.5 -372t-60.5 -372t-160 -268t-212.5 -97zM489 31q90 0 133.5 169t43.5 517q0 351 -43 518.5t-134 167.5q-174 0 -174 -686t174 -686z" />
    <glyph glyph-name="one" unicode="1" horiz-adv-x="614" 
d="M438 242q0 -35 0.5 -50.5t2 -40t5.5 -34.5t12 -25t19 -20.5t28.5 -13t40 -10t52.5 -3.5v-45h-549v45q31 1 53.5 3.5t40 10t29 13t19 20.5t11.5 25t6 34.5t2.5 40t0.5 50.5v1020q-78 -40 -160 -52l-4 41q80 17 164 58q125 58 199 145h28v-1212z" />
    <glyph glyph-name="two" unicode="2" horiz-adv-x="921" 
d="M825 473l29 -2q-6 -78 -13 -134.5t-19 -117t-29 -100.5t-41.5 -73.5t-59 -49.5t-78.5 -16q-46 0 -92 22.5t-82 54.5t-70.5 63.5t-71 54t-69.5 22.5q-61 0 -118 -72q-10 -65 -5 -125h-38q0 63 8.5 120.5t19 99.5t34 87.5t39 71.5t50.5 66t50.5 56t55.5 56l25 25
q64 65 100 108.5t70.5 102t49 124t14.5 148.5q0 336 -191 336q-74 0 -134 -61t-60 -140q0 -68 46 -130.5t109 -106.5q-6 -67 -41 -104.5t-86 -37.5q-66 0 -112.5 71t-46.5 175q0 52 14 105t45.5 104t75.5 90.5t109.5 63.5t142.5 24q172 0 277.5 -101t105.5 -284
q0 -53 -10.5 -100.5t-26.5 -83.5t-43.5 -71.5t-53 -60t-64.5 -53.5t-68 -47.5t-73 -47t-71 -46.5q-106 -75 -184.5 -171.5t-114.5 -192.5q50 50 128 81t153 31q56 0 146 -31.5t136 -31.5q70 0 95 47.5t38 181.5z" />
    <glyph glyph-name="three" unicode="3" horiz-adv-x="907" 
d="M487 756q53 -13 100.5 -33t96 -53t83.5 -74t57 -100.5t22 -128.5q0 -179 -120 -283t-316 -104q-90 0 -160.5 32t-110.5 84t-60 113t-20 125q0 82 42.5 145.5t107.5 63.5q50 0 82 -35t41 -92q-48 -39 -89.5 -96.5t-41.5 -110.5q0 -87 58.5 -133.5t133.5 -46.5
q207 0 207 362q0 212 -69 287.5t-222 28.5v71q52 0 109 -8q90 17 131 99t41 243q0 156 -44.5 224.5t-131.5 68.5q-73 0 -134 -49t-61 -121q0 -34 21 -75.5t41.5 -67.5t54.5 -64q-8 -48 -40.5 -81.5t-78.5 -33.5q-60 0 -97.5 56t-37.5 141q0 160 99.5 252t254.5 92
q67 0 133 -20.5t123.5 -60t93 -107.5t35.5 -154q0 -72 -22 -131t-55.5 -96t-80.5 -64.5t-88 -41.5t-88 -23z" />
    <glyph glyph-name="four" unicode="4" horiz-adv-x="880" 
d="M840 369h-156v-127q0 -121 21 -157t120 -40v-45h-522v45q24 1 42.5 4t33 6t25 11.5t18 14.5t12 21t7 24.5t4 32.5t1.5 37.5v45.5v127h-438v47l645 1038h31v-1040l156 12v-57zM72 426l374 -12v645z" />
    <glyph glyph-name="five" unicode="5" horiz-adv-x="894" 
d="M440 877q168 0 283 -122t115 -313q0 -84 -27 -159t-72.5 -129.5t-103.5 -94.5t-121.5 -59.5t-126.5 -19.5q-85 0 -151.5 32t-105 84t-58 113t-19.5 125q0 82 43 145.5t109 63.5q46 0 79 -35t42 -92q-48 -39 -89.5 -96.5t-41.5 -110.5q0 -86 57.5 -133t126.5 -47
q109 0 161 109t52 304q0 381 -209 381q-47 0 -92 -17.5t-87 -60.5t-63 -106l-35 18q3 7 10.5 21.5t10.5 21.5l74 734h26q93 -48 206 -85.5t200 -37.5q73 0 106 31t45 110h25q-8 -88 -20 -147t-29.5 -99.5t-46.5 -61.5t-64.5 -29.5t-89.5 -8.5q-138 0 -352 57l-37 -403
q99 117 270 117z" />
    <glyph glyph-name="six" unicode="6" horiz-adv-x="921" 
d="M547 872q132 0 218.5 -114.5t86.5 -308.5q0 -213 -112 -341t-281 -128q-174 0 -285 196t-111 524q0 205 57 375t169 274.5t260 104.5q71 0 135.5 -34t109 -104.5t44.5 -162.5q0 -85 -37.5 -135.5t-98.5 -50.5q-46 0 -78.5 30t-39.5 82q123 96 123 181q0 64 -50 104.5
t-114 40.5q-61 0 -105.5 -40t-70 -105t-40.5 -166.5t-19 -205.5t-3 -241q28 103 93 164t149 61zM463 29q69 0 110 96.5t41 310.5q0 208 -32.5 292.5t-94.5 84.5q-78 0 -128 -106t-48 -265q0 -219 39 -316t113 -97z" />
    <glyph glyph-name="seven" unicode="7" horiz-adv-x="847" 
d="M852 1434q-104 -239 -156.5 -367.5t-107 -281.5t-75.5 -263.5t-21 -216.5q0 -149 57 -246q-22 -38 -62.5 -58.5t-83.5 -20.5q-70 2 -111.5 55.5t-41.5 146.5q0 76 28 160.5t81 182t112 198t139 249.5t144 296q-51 -52 -119.5 -87.5t-138.5 -35.5q-61 0 -160 26.5
t-143 26.5q-65 0 -95 -45q-15 -20 -24 -66.5t-21 -160.5l-24 2l47 506h26l-24 -250h4q27 139 76 204.5t135 65.5q46 0 89.5 -19.5t77 -47.5t65.5 -56t68.5 -47.5t72.5 -19.5q59 0 118 75l31 95h37z" />
    <glyph glyph-name="eight" unicode="8" horiz-adv-x="907" 
d="M571 834q49 -32 84 -59t74 -67t62.5 -81.5t39 -98.5t15.5 -122q0 -133 -58 -231.5t-150.5 -146.5t-205.5 -48q-72 0 -137 22t-118.5 64.5t-85.5 113t-32 160.5q0 122 65 221.5t183 149.5q-94 66 -146 150.5t-52 211.5q0 176 102.5 278.5t257.5 102.5q135 0 231.5 -82.5
t96.5 -228.5q0 -108 -65 -185.5t-161 -123.5zM465 1405q-96 0 -159.5 -60.5t-63.5 -162.5q0 -43 12 -78t31.5 -62t55 -55.5t71.5 -52t92 -58.5q13 -8 20 -12l19 -12q58 55 92.5 136t34.5 171q0 114 -51.5 180t-153.5 66zM444 29q111 0 187 71t76 199q0 47 -13 86t-33.5 69
t-60.5 63.5t-78 58.5t-102 63q-32 18 -82 51q-65 -45 -104 -140.5t-39 -205.5q0 -151 63 -233t186 -82z" />
    <glyph glyph-name="nine" unicode="9" horiz-adv-x="919" 
d="M461 1454q175 0 285 -195.5t110 -525.5q0 -206 -56.5 -375.5t-168 -273.5t-258.5 -104q-112 0 -201.5 82.5t-89.5 218.5q0 84 37.5 135t99.5 51q45 0 78 -31t39 -82q-123 -96 -123 -180q0 -64 50.5 -104.5t113.5 -40.5q52 0 91 26t65 78t43 116t25.5 154t11 177.5
t1.5 199.5q-30 -101 -93.5 -160t-147.5 -59q-132 0 -218.5 115t-86.5 309q0 212 112.5 340.5t280.5 128.5zM434 625q77 0 125.5 102t48.5 264q0 414 -151 414q-44 0 -76.5 -37.5t-53 -131t-20.5 -239.5q0 -107 9 -181t26.5 -115t39.5 -58.5t52 -17.5z" />
    <glyph glyph-name="colon" unicode=":" horiz-adv-x="575" 
d="M240 733q-65 0 -106.5 43t-41.5 107t42 107.5t106 43.5t104.5 -43.5t40.5 -107.5t-40.5 -107t-104.5 -43zM240 -23q-65 0 -106.5 43.5t-41.5 106.5q0 64 42 109t106 45q63 0 104 -45t41 -109t-40.5 -107t-104.5 -43z" />
    <glyph glyph-name="semicolon" unicode=";" horiz-adv-x="614" 
d="M248 733q-64 0 -106 43t-42 107q0 63 42.5 107t105.5 44q65 0 106 -43.5t41 -107.5t-41 -107t-106 -43zM137 -371l-20 29q100 75 146 164t13 133q-7 21 -38 36t-62 25t-56.5 40t-25.5 79q0 60 44 103t108 43q75 0 122.5 -63.5t47.5 -156.5q0 -119 -73 -232.5t-206 -199.5
z" />
    <glyph glyph-name="less" unicode="&#x3c;" horiz-adv-x="886" 
d="M745 113l-661 397v100l661 379l25 -76l-616 -354l618 -371z" />
    <glyph glyph-name="equal" unicode="=" horiz-adv-x="880" 
d="M76 756v82h729v-82h-729zM76 305v82h729v-82h-729z" />
    <glyph glyph-name="greater" unicode="&#x3e;" horiz-adv-x="886" 
d="M141 113l-26 75l618 371l-616 354l24 76l664 -379v-100z" />
    <glyph glyph-name="question" unicode="?" horiz-adv-x="759" 
d="M371 375q-96 0 -152.5 63t-56.5 164q0 81 33 153t80 125.5t93.5 104.5t79.5 112.5t33 127.5q0 74 -37 126t-110 52q-90 0 -160 -78t-70 -195q0 -60 18.5 -114t51.5 -84l-29 -31q-36 37 -56.5 98t-20.5 131q0 138 85 231t224 93q138 0 234 -87t96 -230q0 -66 -20.5 -124.5
t-53.5 -102t-73 -83t-79.5 -74.5t-72.5 -69.5t-53.5 -75.5t-20.5 -84q0 -50 17 -77t46 -27q35 0 65 33.5t30 83.5q0 54 -19 88l25 18q22 -52 22 -104q0 -71 -41 -117.5t-108 -46.5zM362 -23q-57 0 -96 43t-39 105t39 105.5t96 43.5q59 0 97.5 -43t38.5 -106
q0 -62 -38.5 -105t-97.5 -43z" />
    <glyph glyph-name="at" unicode="@" horiz-adv-x="1310" 
d="M891 100q-73 0 -117.5 57t-44.5 154q-36 -100 -90.5 -155.5t-110.5 -55.5q-78 0 -118.5 71.5t-40.5 186.5q0 97 26.5 197t72 181.5t112.5 133.5t141 52q41 0 67 -21t50 -65l96 71h10l-80 -542q-7 -52 -8.5 -85.5t2.5 -65.5t20.5 -47t45.5 -15q67 0 128 69.5t98.5 190.5
t37.5 260q0 155 -48 284.5t-148.5 212t-237.5 82.5q-135 0 -247.5 -73t-184 -193t-111 -269t-39.5 -306q0 -130 26.5 -244t77 -202.5t132 -139.5t184.5 -51q160 0 309 123l17 -31q-172 -166 -361 -166q-152 0 -266 93.5t-171.5 250t-56.5 352.5q1 185 60.5 354t155.5 290
t224.5 192.5t264.5 71.5q142 0 249.5 -81.5t162.5 -217.5t55 -304q0 -154 -42 -290t-122 -223t-180 -87zM582 176q41 0 82.5 72.5t74.5 210.5l47 274q26 144 -61 144q-57 0 -109.5 -88.5t-81 -207.5t-28.5 -221q0 -184 76 -184z" />
    <glyph glyph-name="A" unicode="A" horiz-adv-x="1101" 
d="M922 293q15 -48 23 -72t19.5 -55t21 -45t23 -31t29 -23.5t35.5 -12.5t47 -9v-45h-551v45q51 4 80.5 15.5t43 28t13 48.5t-7.5 64t-22 86q-1 4 -2 6l-41 149h-350l-25 -80q-16 -51 -24.5 -80t-16.5 -64.5t-8.5 -54.5t2 -41t13.5 -33t28.5 -21.5t43 -15.5t60.5 -7v-45h-385
v45q35 3 59.5 10t46 25.5t35 36.5t30.5 60t28.5 78t32.5 107l241 803l91 281h34zM299 500h319l-116 436l-27 125h-4z" />
    <glyph glyph-name="B" unicode="B" horiz-adv-x="1087" 
d="M584 774q50 -2 92.5 -7.5t98 -19t97.5 -40t79.5 -66t58 -102t20.5 -142.5q0 -397 -485 -397h-502v45q24 1 41.5 3t31 9t22 12.5t14.5 21t9 25.5t5 34.5t2 40.5v51v950v51t-2 40.5t-5 34.5t-9 25.5t-14.5 21t-22 12.5t-31 9t-41.5 3v45h500q436 0 436 -330
q0 -309 -395 -326v-4zM494 1380q-52 0 -69 -27.5t-17 -107.5v-440h79q66 0 107.5 11t74.5 42t47.5 90.5t14.5 153.5q0 88 -13.5 144.5t-42 85t-61.5 38.5t-84 10h-36zM545 53q37 0 62.5 4t59.5 23.5t55.5 54t36.5 101.5t15 161q0 93 -13 157.5t-34 102.5t-58.5 58.5
t-76.5 26.5t-98 6h-86v-560q0 -30 1 -46t5.5 -36t13 -29.5t25 -16.5t41.5 -7h51z" />
    <glyph glyph-name="C" unicode="C" horiz-adv-x="1050" 
d="M578 -20q-100 0 -193.5 51.5t-167 143.5t-118 233.5t-44.5 308.5q0 164 48.5 306t126.5 234.5t173.5 144.5t192.5 52q94 0 182 -51q23 -13 48.5 -33t41.5 -31.5t27 -11.5q23 0 34 26.5t11 100.5h29l6 -575h-33q-5 87 -26.5 174t-60.5 167.5t-104 130.5t-147 50t-139 -52
t-87.5 -150t-43 -213.5t-12.5 -268.5q0 -102 4.5 -183t15.5 -161t31 -138.5t50 -104.5t74 -69.5t101 -23.5q83 0 147.5 43t104.5 116.5t62.5 161t27.5 187.5h37q-3 -77 -16.5 -151t-44 -150.5t-74 -133.5t-112 -93.5t-152.5 -36.5z" />
    <glyph glyph-name="D" unicode="D" horiz-adv-x="1157" 
d="M43 0v45q24 1 41.5 3.5t31 9.5t22 12.5t14.5 20.5t9 25t5 34.5t2 40.5v51v950v51t-2 40.5t-5 34.5t-9 25t-14.5 20.5t-22 12.5t-31 9.5t-41.5 3.5v45h510q104 0 202 -49.5t175 -138.5t123.5 -227t46.5 -302q0 -132 -30.5 -248t-83.5 -200.5t-123 -146t-149.5 -92
t-162.5 -30.5h-508zM494 53h61q75 0 129 45t86.5 133t48 208t15.5 278t-15 278t-47.5 207.5t-86.5 132.5t-128 45h-63q-52 0 -69 -27.5t-17 -107.5v-1057q0 -30 1 -46t5.5 -36t13 -29.5t25 -16.5t41.5 -7z" />
    <glyph glyph-name="E" unicode="E" horiz-adv-x="1046" 
d="M926 559h30l-8 -559h-905v45q24 1 41.5 3.5t31 9.5t22 12.5t14.5 20.5t9 25t5 34.5t2 40.5v51v946q0 40 -0.5 57.5t-2.5 44t-7 37t-13.5 24.5t-22 19.5t-33 10t-46.5 5.5v48h891l8 -486h-35q-10 218 -85 323t-191 105h-125q-67 0 -82.5 -31t-15.5 -151v-410h84
q132 0 176.5 58.5t50.5 234.5h31v-645h-31q-6 178 -50 236.5t-177 58.5h-84v-489v-49t1.5 -38.5t4 -32.5t7 -23t11.5 -18.5t17.5 -10.5t24 -7.5t32.5 -1.5h96q301 0 324 502z" />
    <glyph glyph-name="F" unicode="F" horiz-adv-x="978" 
d="M934 1434l8 -508h-35q-11 235 -85.5 342.5t-190.5 107.5h-125q-67 0 -82.5 -31t-15.5 -151v-410h84q132 0 176.5 58.5t50.5 234.5h31v-645h-31q-6 178 -50 236.5t-177 58.5h-84v-485q0 -107 11 -137q17 -43 79 -54q24 -5 59 -6v-45h-514v45q24 1 41.5 3.5t31 9.5t22 12.5
t14.5 20.5t9 25t5 34.5t2 40.5v51v946q0 40 -0.5 57.5t-2.5 44t-7 37t-13.5 24.5t-22 19.5t-33 10t-46.5 5.5v48h891z" />
    <glyph glyph-name="G" unicode="G" horiz-adv-x="1126" 
d="M553 -20q-73 0 -145 32t-135.5 95.5t-112 150.5t-77 206t-28.5 253q0 164 48.5 306t126.5 234.5t173.5 144.5t192.5 52q98 0 180 -51q20 -12 47.5 -33t45 -32t30.5 -11q21 0 31.5 26.5t11.5 100.5h27l8 -575h-35q-3 68 -16.5 137.5t-40.5 139.5t-64.5 124t-94 87.5
t-122.5 33.5q-82 0 -138.5 -52t-87 -149.5t-43.5 -214t-13 -268.5q0 -126 6 -223t21.5 -186.5t41.5 -147.5t68.5 -92.5t99.5 -34.5q99 0 154 89.5t55 231.5v131q0 29 -0.5 42.5t-2 34.5t-5.5 29.5t-11.5 22t-18.5 19t-27 12t-38 9t-51 3.5v43h486v-43q-22 -1 -38 -3.5
t-28.5 -9t-20.5 -12t-13.5 -19t-8.5 -22t-4.5 -29.5t-1.5 -34.5v-42.5v-200l2 -305h-29l-118 266q-25 -57 -51.5 -101t-61.5 -83.5t-79 -60.5t-95 -21z" />
    <glyph glyph-name="H" unicode="H" horiz-adv-x="1234" 
d="M1190 1389q-26 -1 -44.5 -5.5t-32 -10t-22 -19.5t-13 -24.5t-6.5 -36.5t-2.5 -44t-0.5 -57v-950v-51t1.5 -40.5t4.5 -34.5t9 -25t14.5 -20.5t21.5 -12.5t30 -9.5t40 -3.5v-45h-481v45q20 1 36 4t28 6t21 11.5t15 14t10 21.5t6 24.5t3 32.5t1 37v46v481h-421v-481v-41.5
t1 -34.5t2 -31t4 -24t7.5 -21t11 -15t14.5 -13t20 -8t26 -6.5t32 -2.5v-45h-483v45q24 1 41.5 3.5t31 9.5t22 12.5t14.5 20.5t9 25t5 34.5t2 40.5v51v950q0 39 -0.5 57t-2.5 44t-7 36.5t-13.5 24.5t-22 19.5t-33 10t-46.5 5.5v45h483v-45q-20 -1 -35 -4t-27.5 -6t-21 -11.5
l-14.5 -14.5t-9.5 -21t-6 -24t-3.5 -31.5t-1 -36.5v-44v-4v-412h421v412v45t-1 37t-3 32.5t-6 24.5t-10 21.5t-15 14.5t-21 12t-28 6t-36 4v45h481v-45z" />
    <glyph glyph-name="I" unicode="I" horiz-adv-x="573" 
d="M45 0v45q26 1 44.5 5.5t32 10t22 19.5t13 24.5t6.5 36.5t2.5 44t0.5 57v950q0 39 -0.5 57t-2.5 44t-6.5 36.5t-13 24.5t-22 19.5t-32 10t-44.5 5.5v45h483v-45q-23 -1 -40.5 -3.5t-30.5 -10t-21.5 -12.5t-14.5 -21t-9 -25t-4.5 -34.5t-1.5 -40v-50.5v-950v-50.5t1.5 -40
t4.5 -34.5t9 -25t14.5 -21t21.5 -12.5t30.5 -10t40.5 -3.5v-45h-483z" />
    <glyph glyph-name="J" unicode="J" horiz-adv-x="833" 
d="M297 -20q-131 0 -212 80.5t-81 222.5q0 90 37.5 147t97.5 57q40 0 69 -29t40 -75q-36 -43 -62 -102t-26 -105q0 -68 39.5 -107.5t97.5 -39.5q31 0 54.5 12t45.5 43.5t33.5 95.5t11.5 158v854v45t-1.5 37t-4 32.5t-6.5 25t-11 21t-17 14.5t-23.5 12t-31 6t-40.5 4v45h496
v-45q-26 -1 -44.5 -5.5t-32 -10t-22 -19.5t-13 -24.5t-6.5 -36.5t-2.5 -44t-0.5 -57v-715q0 -110 -23.5 -200t-70 -156.5t-121 -103.5t-170.5 -37z" />
    <glyph glyph-name="K" unicode="K" horiz-adv-x="1130" 
d="M963 252q22 -53 38.5 -84t40.5 -61.5t55 -45t72 -16.5v-45h-524v45q30 1 51 8t33 15.5t16 26t4 31t-8 39t-13.5 41t-18.5 46.5l-205 500q-30 -32 -96 -90v-420v-45.5t1 -37.5t3.5 -32.5t6.5 -24.5t11 -21t16 -14.5t22.5 -11.5t30 -6t38.5 -4v-45h-494v45q24 1 41.5 3.5
t31 9.5t22 12.5t14.5 20.5t9 25t5 34.5t2 40.5v51v950v51t-2 40.5t-5 34.5t-9 25t-14.5 20.5t-22 12.5t-31 9.5t-41.5 3.5v45h494v-45q-22 -1 -38.5 -4t-30 -6t-22.5 -11.5t-16 -14.5t-11 -21t-6.5 -24.5t-3.5 -32.5t-1 -37.5v-45.5v-463q149 132 279 316t130 270
q0 20 -7 34.5t-17 22t-29 11.5t-34.5 5t-41.5 1v45h397v-45q-81 0 -131 -41q-37 -28 -73 -76.5t-101 -155.5q-32 -54 -112 -166z" />
    <glyph glyph-name="L" unicode="L" horiz-adv-x="985" 
d="M43 0v45q24 1 41.5 3.5t31 9.5t22 12.5t14.5 20.5t9 25t5 34.5t2 40.5v51v946q0 40 -0.5 57.5t-2.5 44t-7 37t-13.5 24.5t-22 19.5t-33 10t-46.5 5.5v48h522v-48q-27 -1 -47 -4t-36 -6t-27.5 -11.5t-19.5 -14.5t-13 -21t-8 -24.5t-4.5 -32t-1.5 -36.5v-45v-1.5v-1.5v-950
v-49t1.5 -38.5t4 -32.5t7 -23t11.5 -18.5t17.5 -10.5t24 -7.5t32.5 -1.5h78q102 0 169 52t107.5 175.5t48.5 325.5h33l-6 -610h-893z" />
    <glyph glyph-name="M" unicode="M" horiz-adv-x="1417" 
d="M602 -4l-319 1051l-50 176h-2v-854v-58t1 -51.5t3.5 -48t6.5 -40.5t10.5 -37t15.5 -29t21.5 -25.5t28.5 -17.5t37 -12.5t46 -4.5v-45h-370v45q27 1 49 6.5t38 13t28.5 23t20.5 28t13.5 37.5t8.5 41.5t4.5 51t1.5 54.5v62v7v788q0 31 -0.5 47.5t-3.5 44.5t-9 43.5t-18 36
t-29.5 31.5t-44 19.5t-61.5 9.5v45h379l258 -924l34 -121h5l292 1045h389v-45q-22 -1 -39 -2.5t-31 -7t-24 -9.5t-18 -16t-13 -19t-8.5 -27.5t-5.5 -33t-3 -42.5t-1 -48.5v-59.5v-815q0 -171 20.5 -215.5t122.5 -48.5v-45h-530v45q103 4 124 48.5t21 215.5v991h-2
l-368 -1304h-29z" />
    <glyph glyph-name="N" unicode="N" horiz-adv-x="1128" 
d="M31 0v45q27 1 48.5 6t38 11.5t29 21.5t20.5 26t13.5 35.5t8.5 40.5t4.5 50t1.5 54.5v63.5v801q0 32 -0.5 48.5t-3.5 45t-9 44t-18 36t-29.5 31.5t-44 19.5t-61.5 9.5v45h356l457 -897l71 -134v676v6q0 74 -1.5 107.5t-10 79.5t-27 65t-52.5 34.5t-87 17.5v45h381v-45
q-50 -2 -82 -17.5t-49.5 -35t-25.5 -66.5t-9.5 -81t-1.5 -110v-1087h-35l-591 1063l-89 153h-2v-854v-57.5t1.5 -50t4 -46t6.5 -39t11 -35t17 -27t23.5 -23t30.5 -15.5t39.5 -11.5t49.5 -4.5v-45h-383z" />
    <glyph glyph-name="O" unicode="O" horiz-adv-x="1157" 
d="M580 -20q-77 0 -153 32t-142.5 95.5t-118 150.5t-81.5 206t-30 253t30 253t81.5 206t118 150.5t142.5 95.5t153 32q76 0 150.5 -32t140.5 -95.5t117 -150.5t80.5 -206t29.5 -253t-29.5 -253t-80.5 -206t-117 -150.5t-140.5 -95.5t-150.5 -32zM580 33q61 0 106.5 33.5
t73.5 91t45 147t23 187t6 225.5t-6 225.5t-23 187t-45 147t-73.5 91t-106.5 33.5q-77 0 -129.5 -49.5t-79.5 -146.5t-38 -212.5t-11 -275.5t11 -275.5t38 -212.5t79.5 -146.5t129.5 -49.5z" />
    <glyph glyph-name="P" unicode="P" horiz-adv-x="1017" 
d="M535 594h-127v-352v-3q0 -105 12 -135q18 -44 85 -54q22 -4 52 -5v-45h-514v45q27 1 46.5 5.5t33 10t22 19.5t13.5 24.5t7 36.5t2.5 44t0.5 57v950v51t-2 40.5t-5 34.5t-9 25t-14.5 20.5t-22 12.5t-31 9.5t-41.5 3.5v45h492q79 0 143 -10.5t125 -38.5t102.5 -73
t66.5 -118t25 -170t-25 -172.5t-66.5 -123.5t-102 -78.5t-126 -43t-142.5 -12.5zM494 1380q-53 0 -69.5 -28t-16.5 -107v-596h127q37 0 65.5 7.5t56.5 31.5t46 64t29 109t11 163q0 103 -15 174.5t-44 110t-65 55t-84 16.5h-41z" />
    <glyph glyph-name="Q" unicode="Q" horiz-adv-x="1191" 
d="M1100 -2h26v-37q0 -145 -59.5 -216t-144.5 -71q-76 0 -132 89.5t-85 238.5q-64 -22 -125 -22q-77 0 -153 32t-142.5 95.5t-118 150.5t-81.5 206t-30 253t30 253t81.5 206t118 150.5t142.5 95.5t153 32q76 0 150.5 -32t140.5 -95.5t117 -150.5t80.5 -206t29.5 -253
q0 -209 -68 -371t-180 -258q48 -130 88.5 -193t87.5 -63q74 0 74 131v35zM322 717q0 -143 8.5 -249.5t29.5 -199.5t60.5 -150.5t97.5 -76.5q-42 29 -66 83.5t-24 119.5q0 96 46.5 164.5t113.5 68.5q65 0 112.5 -61t92.5 -176q41 160 41 477q0 128 -6 225.5t-23 187t-45 147
t-73.5 91t-106.5 33.5q-77 0 -129.5 -49.5t-79.5 -146.5t-38 -212.5t-11 -275.5zM475 242q0 -87 37 -149t96 -58q46 6 86 31q-6 40 -9.5 100t-6.5 99t-11.5 78.5t-29 59t-55.5 19.5q-45 0 -76 -53.5t-31 -126.5z" />
    <glyph glyph-name="R" unicode="R" horiz-adv-x="1110" 
d="M1057 371h24v-166q0 -113 -45 -166q-56 -59 -157 -59q-105 0 -150 71q-35 51 -35 172v164q0 157 -46 216t-150 59h-90v-420v-45t1.5 -37t4 -32.5t6.5 -25t11 -21t17 -14.5t23.5 -12t31 -6t40.5 -4v-45h-500v45q27 1 46.5 5.5t33 10t22 19.5t13.5 24.5t7 36.5t2.5 44
t0.5 57v950v51t-2 40.5t-5 34.5t-9 25t-14.5 20.5t-22 12.5t-31 9.5t-41.5 3.5v45h496q440 0 440 -379q0 -74 -25 -137t-62.5 -105t-85.5 -73.5t-90 -47.5t-79 -22q149 -31 228 -114.5t79 -211.5v-127q0 -68 12 -96q15 -37 43 -37q36 0 48 39q10 38 10 94v154zM408 717h131
q91 0 137.5 77.5t46.5 260.5q0 124 -23 197t-61.5 100.5t-99.5 27.5h-45q-53 0 -69.5 -28t-16.5 -107v-528z" />
    <glyph glyph-name="S" unicode="S" horiz-adv-x="983" 
d="M88 -20l-6 577h33q7 -140 53 -256t135.5 -191t206.5 -75q114 0 188 72.5t74 199.5q0 34 -9.5 64.5t-22.5 54.5t-40 48.5t-49 41.5t-63 40t-68.5 37t-77.5 38q-44 21 -60 28.5t-55.5 28t-55.5 32t-47 34.5t-45 41.5t-34 47t-28.5 58t-15.5 67t-7 79.5q0 177 107 280
q55 64 128 95.5t150 31.5q92 0 176 -43q27 -14 58 -35t49.5 -33t30.5 -12q22 0 33 26.5t14 96.5h26l8 -530h-32q-5 93 -30.5 176t-69 151t-111.5 108t-152 40q-99 0 -166 -66t-67 -166q0 -52 17.5 -92t63 -74t77.5 -52t106 -53q20 -10 31 -15q54 -26 84.5 -41t76.5 -42
t72.5 -50t58 -57.5t48 -71t28 -85.5t11.5 -106q0 -193 -121 -317q-128 -131 -291 -131q-97 0 -197 51q-24 13 -60 35t-54.5 31t-30.5 9q-47 0 -47 -126h-31z" />
    <glyph glyph-name="T" unicode="T" horiz-adv-x="1038" 
d="M254 0v45q25 1 43.5 4t33.5 6t25.5 11.5t18 14.5t12 21t7 24.5t4 32.5t1.5 37.5v45.5v1134h-77q-101 0 -171.5 -115t-80.5 -356h-31l6 529h948l6 -529h-30q-4 127 -27.5 222t-60 147.5t-77 77t-85.5 24.5h-78v-1134v-45.5t1.5 -37.5t4 -32.5t7 -24.5t12 -21t18 -14.5
t25 -11.5t33 -6t42.5 -4v-45h-530z" />
    <glyph glyph-name="U" unicode="U" horiz-adv-x="1097" 
d="M555 -20q-219 0 -314.5 139.5t-95.5 429.5v643v45t-1 37t-3 32.5t-6 24.5t-10 21.5t-15 14.5t-21 12t-28 6t-36 4v45h487v-45q-28 -1 -48 -5.5t-34 -10t-23 -19.5t-14 -24.5t-7 -36.5t-2.5 -44t-0.5 -57v-668q0 -69 3 -121t11.5 -110.5t26 -99.5t44.5 -76t68.5 -52.5
t96.5 -17.5q116 0 190 118.5t74 360.5v553v63.5t-1.5 54.5t-4.5 50t-9 40.5t-14.5 36t-21.5 26.5t-30 21t-39.5 11.5t-51.5 6.5v45h369v-45q-24 -1 -43.5 -4.5t-34.5 -11.5t-27 -15.5t-20.5 -23.5t-14.5 -27t-10 -35t-6 -39t-3 -46.5t-1 -50v-57.5v-553q0 -101 -10.5 -181
t-37 -150t-69 -116t-108.5 -72.5t-154 -26.5z" />
    <glyph glyph-name="V" unicode="V" horiz-adv-x="1105" 
d="M530 -18l-352 1159q-15 50 -22.5 72t-19.5 54.5t-21 45.5t-22.5 30.5t-29 24t-36 12.5t-47.5 9v45h550v-45q-115 -8 -131.5 -63t23.5 -169q3 -11 4 -16l172 -647l31 -127h2l223 743q52 142 39.5 206.5t-133.5 72.5v45h377v-45q-96 -9 -137.5 -64t-88.5 -215l-344 -1128
h-37z" />
    <glyph glyph-name="W" unicode="W" horiz-adv-x="1607" 
d="M1260 1434h374v-45q-54 -5 -87.5 -18.5t-59 -49t-41 -79t-37.5 -126.5l-303 -1134h-37l-268 960l-264 -960h-37l-322 1159q-15 54 -23 81.5t-21 60t-24.5 47t-30 29.5t-41.5 21t-56 9v45h512v-45q-38 -3 -59.5 -13.5t-31.5 -27t-8.5 -45t8 -61t18.5 -82.5q3 -13 5 -19
l143 -625l25 -125h4l174 651l-27 99q-38 137 -57 173q-30 56 -91 70q-13 3 -28 5v45h529v-45q-35 -2 -59 -8.5t-40.5 -14.5t-24 -24t-11 -30t0 -41t7.5 -48t13 -60q3 -14 5 -22l146 -623l26 -125h4l189 721q37 140 37 179q1 61 -52 81q-29 11 -79 15v45z" />
    <glyph glyph-name="X" unicode="X" horiz-adv-x="1107" 
d="M887 287q22 -48 33.5 -72t27.5 -55t27.5 -44.5t27.5 -30t32.5 -23t37 -11.5t47.5 -6v-45h-563v45q33 1 57.5 5.5t39.5 14.5t24 20.5t9 29t-1.5 33t-11.5 41t-18 45t-23 51.5l-144 311l-145 -272q-21 -39 -34 -66.5t-26 -62t-13 -58.5t7.5 -45.5t32.5 -33.5t66 -13v-45
h-377v45q34 1 63 10.5t53.5 29t44 39.5t41 54t36 60t37.5 69q2 4 3 6.5t3 6t4 6.5l178 329l-225 496q-62 131 -86 164q-43 59 -111 70q-16 3 -35 4v45h559v-45q-33 -1 -57 -5t-38 -13.5t-23.5 -19t-9.5 -27t1.5 -31.5t11.5 -40t18 -44t24 -52l129 -283l141 259
q66 120 76 160q16 67 -49 86q-28 9 -72 10v45h377v-45q-38 -2 -71 -16t-56 -31.5t-50.5 -55.5t-44 -65.5t-47.5 -83.5l-178 -322z" />
    <glyph glyph-name="Y" unicode="Y" horiz-adv-x="1091" 
d="M739 1434h363v-45q-30 -2 -53 -8t-41.5 -14.5t-34.5 -27t-28 -36.5t-26.5 -51.5t-25.5 -63.5t-29 -82l-200 -567v-297q0 -39 0.5 -57t2.5 -44t7.5 -36.5t15 -24.5t24.5 -19.5t36 -10t51 -5.5v-45h-516v45q26 1 45.5 3.5t34.5 10t25 13t16.5 20.5t10 25t5.5 34.5t2 40
v50.5v295l-221 606q-20 56 -30.5 83t-26 60.5t-27.5 47.5t-30.5 28.5t-39.5 19.5t-51 7v45h532v-45q-110 -4 -120 -62t40 -180q1 -3 1 -4l112 -338l66 -199h2l174 500q18 51 27 77.5t18.5 62t9 52.5t-5 37.5t-19.5 29.5t-38 16t-58 8v45z" />
    <glyph glyph-name="Z" unicode="Z" horiz-adv-x="980" 
d="M59 0l-8 39l592 1337h-260q-113 0 -185.5 -115.5t-82.5 -355.5h-31l6 529h803l8 -39l-590 -1338h242q99 0 166 50.5t109 175t49 327.5h34l-8 -610h-844z" />
    <glyph glyph-name="bracketleft" unicode="[" horiz-adv-x="481" 
d="M123 -479v1964l344 -12v-33h-217q-17 -446 -17 -936q0 -489 17 -938h217v-33z" />
    <glyph glyph-name="backslash" unicode="\" horiz-adv-x="657" 
d="M528 -186q-192 734 -477 1683l76 29q226 -853 477 -1684z" />
    <glyph glyph-name="bracketright" unicode="]" horiz-adv-x="481" 
d="M358 -479l-344 12v33h217q19 489 19 938q0 450 -19 936h-217v33l344 12v-1964z" />
    <glyph glyph-name="asciicircum" unicode="^" horiz-adv-x="874" 
d="M678 956h-72l-168 422l-170 -422h-71l211 521h63z" />
    <glyph glyph-name="underscore" unicode="_" horiz-adv-x="634" 
d="M0 -197v52h635v-52h-635z" />
    <glyph glyph-name="a" unicode="a" horiz-adv-x="899" 
d="M854 340h27v-141q0 -114 -41 -162q-50 -57 -148 -57q-90 0 -131 71q-33 51 -33 156v33q-7 -29 -16.5 -57.5t-31.5 -67t-49.5 -67t-72.5 -48.5t-98 -20q-99 0 -158 72t-59 190q0 132 80 215q58 58 155 92.5t250 66.5v129q0 130 -32 188t-101 58q-70 0 -106 -55
q-21 -37 -21 -72q0 -80 76 -162q-12 -43 -48.5 -69.5t-82.5 -26.5q-61 0 -93 48.5t-32 117.5q0 124 92 196t232 72q155 0 246.5 -83.5t91.5 -268.5v-483q0 -63 8 -94q18 -35 43 -35q31 0 45 39q8 23 8 92v133zM369 94q65 0 107 86.5t52 208.5v180q-133 -30 -198 -114
q-56 -70 -56 -181q0 -79 25 -129.5t70 -50.5z" />
    <glyph glyph-name="b" unicode="b" horiz-adv-x="927" 
d="M565 1040q95 0 166.5 -65.5t108.5 -179.5t37 -260q0 -151 -43 -274.5t-135 -202t-218 -78.5q-86 0 -151.5 56t-96.5 134l-106 -188h-27l2 315v971q0 30 -0.5 45.5t-3 40t-8 37.5t-15 26.5t-25.5 19t-38 5.5v47l307 12l15 -12l-8 -256l-7 -461q36 135 99 201.5t147 66.5z
M471 29q37 0 64 21t51 73.5t36.5 155.5t12.5 253q0 85 -2.5 145.5t-10 122t-20.5 99t-36.5 61t-55.5 23.5q-54 0 -103.5 -79t-80.5 -226l-2 -305q0 -162 38 -253t109 -91z" />
    <glyph glyph-name="c" unicode="c" horiz-adv-x="831" 
d="M444 -20q-181 0 -288 145t-107 385t112.5 385t307.5 145q130 0 218.5 -77.5t88.5 -210.5q0 -85 -36.5 -139t-96.5 -54q-40 0 -69.5 28t-41.5 72q37 39 63 94.5t26 100.5q0 64 -39 100.5t-97 36.5q-192 0 -192 -481q0 -109 8.5 -187.5t31 -147t66.5 -103.5t109 -35
q110 0 175.5 90.5t70.5 224.5h30q-2 -75 -23.5 -140t-61.5 -118t-105.5 -83.5t-149.5 -30.5z" />
    <glyph glyph-name="d" unicode="d" horiz-adv-x="946" 
d="M825 219q0 -43 0.5 -62t3 -44t7 -34t14.5 -19t24 -12.5t35 -2.5v-45h-288l-13 16v222q-30 -132 -88 -195t-147 -63q-150 0 -236 139.5t-86 363.5q0 152 38.5 276t120 202.5t193.5 78.5q150 0 203 -143l-4 379q-2 88 -14 116q-24 54 -107 50v47l338 12l12 -12l-6 -238
v-1032zM432 39q54 0 99.5 76.5t70.5 226.5v324q0 138 -39.5 227.5t-109.5 89.5q-27 0 -49 -12t-43.5 -45t-35.5 -87t-23 -144t-9 -210q0 -446 139 -446z" />
    <glyph glyph-name="e" unicode="e" horiz-adv-x="841" 
d="M762 342h31q-2 -71 -23 -134t-61 -115t-105.5 -82.5t-148.5 -30.5q-184 0 -295 145t-111 385q0 243 110 386.5t277 143.5q177 0 266 -132t89 -373h-498v-25q0 -107 9 -186t32.5 -147.5t69 -104t112.5 -35.5q110 0 175.5 88t70.5 217zM436 991q-131 0 -143 -407h262
q1 94 -3 161.5t-16.5 126.5t-37 89t-62.5 30z" />
    <glyph glyph-name="f" unicode="f" horiz-adv-x="557" 
d="M461 1532q93 0 156 -59.5t63 -155.5q0 -70 -32.5 -116t-84.5 -46q-64 0 -92 82q70 74 70 149q0 41 -20 69t-58 28q-107 0 -107 -293v-170l172 6v-68l-172 7v-746v-43t1 -34.5t3 -29.5t5.5 -22.5t9.5 -18.5t13.5 -11.5t18.5 -9t24.5 -4t31.5 -1.5v-45h-416v45
q61 0 73.5 30.5t12.5 143.5v746h-88v55h88v80q0 193 88 312.5t240 119.5z" />
    <glyph glyph-name="g" unicode="g" horiz-adv-x="858" 
d="M788 766q-54 0 -69 59q37 57 37 103q0 28 -11.5 45.5t-31.5 17.5q-25 0 -45 -26t-21 -68q45 -77 45 -195q0 -157 -82 -248.5t-237 -91.5h-121q-44 0 -70 -23t-26 -60q0 -72 73 -72h314q130 0 195 -68t65 -223q0 -184 -114.5 -279.5t-340.5 -95.5q-180 0 -271 72t-91 174
q0 53 16 95t63.5 77.5t124.5 44.5v4q-69 16 -99 69t-30 118q0 80 47.5 138t137.5 58h8v2q-97 25 -147 104t-50 205q0 156 81.5 247t234.5 91q176 0 256 -116q6 54 36 87t83 33q59 0 94 -45t35 -110q0 -52 -24 -87.5t-65 -35.5zM373 412q58 0 84 71.5t26 218.5
q0 291 -110 291q-107 0 -107 -291q0 -290 107 -290zM580 -16h-322q-75 0 -126.5 -44t-51.5 -141q0 -106 74 -156.5t194 -50.5q173 0 278 66.5t105 191.5q0 45 -12 73.5t-36 41t-46.5 16t-56.5 3.5z" />
    <glyph glyph-name="h" unicode="h" horiz-adv-x="976" 
d="M864 219q0 -43 0.5 -62t3 -44t7 -34t14.5 -19t24 -12.5t35 -2.5v-45h-391v45q21 0 35 2.5t24 12.5t14.5 19t7 34t3 44t0.5 62v520q0 101 -21 153t-75 52q-57 0 -109.5 -72t-95.5 -208v-445q0 -113 12.5 -143.5t73.5 -30.5v-45h-393v45q21 0 35 2.5t24 12.5t14.5 19t7 34
t3 44t0.5 62v1049q0 30 -0.5 45.5t-3 40t-8 37.5t-15 26.5t-25.5 19t-38 5.5v47l307 12l12 -12l-6 -262l-6 -477q48 134 127.5 212t175.5 78q104 0 165.5 -88.5t61.5 -246.5v-486z" />
    <glyph glyph-name="i" unicode="i" horiz-adv-x="475" 
d="M242 1206q-59 0 -99.5 45t-40.5 109q0 63 40 107t100 44q62 0 101.5 -43t39.5 -108q0 -64 -39.5 -109t-101.5 -45zM45 0v45q61 0 73.5 30t12.5 144v582q0 30 -0.5 45.5t-3 40t-8.5 37t-16.5 26.5t-27.5 19t-40 4v47l313 12l12 -12l-6 -295v-506q0 -114 12 -144t72 -30
v-45h-393z" />
    <glyph glyph-name="j" unicode="j" horiz-adv-x="464" 
d="M254 1206q-59 0 -99 45t-40 109t39 107.5t100 43.5q63 0 102 -43.5t39 -107.5q0 -65 -39 -109.5t-102 -44.5zM61 -461q-98 0 -158.5 56.5t-60.5 152.5q0 70 30.5 115t82.5 45q67 0 92 -80q-65 -76 -65 -145q0 -42 18.5 -68.5t50.5 -26.5q29 0 48.5 23t28.5 67t12 87
t3 102v934q0 36 -1 54.5t-7.5 46t-19.5 40.5t-38.5 22.5t-62.5 8.5v47l344 12l15 -12l-4 -297v-762q0 -190 -84 -306t-224 -116z" />
    <glyph glyph-name="k" unicode="k" horiz-adv-x="935" 
d="M799 236q41 -104 76.5 -147.5t95.5 -43.5v-45h-445v45q32 0 49 6t24 18.5t3.5 34t-13 49.5t-24.5 68l-6 15l-119 309q-50 -51 -100 -88v-238q0 -113 12.5 -143.5t73.5 -30.5v-45h-393v45q21 0 35 2.5t24 12.5t14.5 19t7 34t3 44t0.5 62v1049q0 30 -0.5 45.5t-3 40
t-8 37.5t-15 26.5t-25.5 19t-38 5.5v47l305 12l14 -12l-6 -252l-6 -727q114 84 221 218.5t107 195.5q0 19 -8.5 30t-30 15.5t-34.5 5t-46 0.5v45h346v-45q-69 0 -111 -29q-20 -14 -43.5 -40.5t-39.5 -48.5t-50 -73q-20 -30 -41 -57z" />
    <glyph glyph-name="l" unicode="l" horiz-adv-x="462" 
d="M37 0v45q60 0 72 30t12 144v1049q0 30 -0.5 45.5t-3 40t-9 37t-16.5 26.5t-27.5 19t-41.5 4v49l313 12l14 -12l-6 -313v-957q0 -114 12 -144t70 -30v-45h-389z" />
    <glyph glyph-name="m" unicode="m" horiz-adv-x="1470" 
d="M1360 219q0 -113 11.5 -143.5t68.5 -30.5v-45h-389v45q21 0 35 2.5t24 12.5t14.5 19t7 34t3 44t0.5 62v520q0 101 -20.5 148t-70.5 47q-52 0 -100.5 -69.5t-85.5 -194.5v-451q0 -43 0.5 -62t3 -44t7 -34t14.5 -19t24 -12.5t35 -2.5v-45h-393v45q21 0 35 2.5t24 12.5
t14.5 19t7 34t3 44t0.5 62v520q0 104 -21.5 149.5t-68.5 45.5q-52 0 -101.5 -70.5t-87.5 -199.5v-445q0 -113 12 -143.5t70 -30.5v-45h-391v45q21 0 35 2.5t24 12.5t14.5 19t7 34t3 44t0.5 62v582q0 36 -0.5 54.5t-5.5 46t-14.5 40.5t-28.5 23.5t-47 9.5v45l305 12l14 -12
l-8 -287q45 135 125.5 221t169.5 86q91 0 149 -73t68 -203q47 125 123 200.5t162 75.5q102 0 160.5 -87t58.5 -240v-494z" />
    <glyph glyph-name="n" unicode="n" horiz-adv-x="991" 
d="M879 219q0 -113 12 -143.5t70 -30.5v-45h-394v45q23 0 37.5 2.5t24.5 12.5t15 19t7.5 34t3 44t0.5 62v520q0 100 -21.5 152.5t-74.5 52.5q-57 0 -110.5 -72.5t-94.5 -207.5v-445q0 -113 12.5 -143.5t73.5 -30.5v-45h-395v45q21 0 35 2.5t24 12.5t14.5 19t7 34t3 44
t0.5 62v582q0 36 -0.5 54.5t-5.5 46t-14.5 40.5t-28.5 23.5t-47 9.5v45l303 12l16 -12l-8 -281q47 136 127.5 218.5t177.5 82.5q106 0 168 -88.5t62 -246.5v-486z" />
    <glyph glyph-name="o" unicode="o" horiz-adv-x="909" 
d="M455 -20q-171 0 -288.5 146t-117.5 384t117.5 384t288.5 146t287 -146t116 -384t-116 -384t-287 -146zM455 29q161 0 161 481t-161 481q-162 0 -162 -481t162 -481z" />
    <glyph glyph-name="p" unicode="p" horiz-adv-x="948" 
d="M586 1040q144 0 227.5 -140.5t83.5 -364.5q0 -113 -22.5 -211.5t-65 -176t-110.5 -122.5t-154 -45q-83 0 -129.5 33.5t-71.5 97.5l2 -336v-39t1 -32t3.5 -28t6.5 -21.5t10.5 -18.5t15 -12t21 -9.5t28.5 -5t37 -2.5v-45h-438v45q28 1 45 8.5t27 17t14 35.5t5 46t1 67v1020
q0 36 -0.5 54.5t-5.5 46t-14.5 40.5t-28.5 23.5t-47 9.5v45l303 12l16 -12l-6 -242q34 131 98.5 196.5t147.5 65.5zM498 35q34 0 60.5 21t49 73.5t35 154t12.5 248.5q0 107 -4.5 180t-17 139.5t-38.5 99t-65 32.5q-55 0 -105.5 -79.5t-78.5 -225.5v-324q0 -138 41 -228.5
t111 -90.5z" />
    <glyph glyph-name="q" unicode="q" horiz-adv-x="927" 
d="M825 -219q0 -46 1 -67t5.5 -46t14.5 -35t27 -17.5t45 -8.5v-45h-439v45q26 0 44.5 4t32 8t22 16.5t13 21t6.5 31.5t2.5 38t0.5 49v225l8 248q-32 -135 -97 -201.5t-149 -66.5q-144 0 -227.5 139.5t-83.5 363.5q0 112 25 211.5t72.5 177t122.5 123t167 45.5
q91 0 155.5 -54.5t102.5 -135.5l113 197h27l-11 -291v-975zM418 37q53 0 103.5 77t78.5 218l2 315q2 162 -35.5 253t-107.5 91q-37 0 -64.5 -20.5t-52 -73t-37 -156.5t-12.5 -256q0 -106 4.5 -178.5t17 -138.5t38.5 -98.5t65 -32.5z" />
    <glyph glyph-name="r" unicode="r" horiz-adv-x="790" 
d="M602 1040q78 0 127 -61.5t49 -161.5q0 -85 -39.5 -142t-101.5 -57q-34 0 -66 26t-43 61q70 103 70 190q-3 76 -53 76q-59 0 -112 -113t-79 -295v-344q0 -42 0.5 -61.5t3.5 -44.5t8.5 -34t16.5 -19t27 -12.5t41 -2.5v-45h-406v45q21 0 35 2.5t24 12.5t14.5 19t7 34t3 44
t0.5 62v582q0 36 -0.5 54.5t-5.5 46t-14.5 40.5t-28.5 23.5t-47 9.5v45l303 12l16 -12l-6 -348q33 177 94 272.5t162 95.5z" />
    <glyph glyph-name="s" unicode="s" horiz-adv-x="763" 
d="M68 -20l8 428h28q2 -84 23 -151t51.5 -108.5t70.5 -69.5t78 -39t76 -11q70 0 123.5 47t53.5 127q0 45 -18 79t-56.5 59t-76.5 40.5t-99 34.5q-59 19 -101.5 41.5t-80 58.5t-56.5 90.5t-18 126.5q0 166 112 246q80 61 191 61q84 0 160 -41q17 -10 36 -24.5t30 -22.5t18 -8
q13 0 16.5 17.5t5.5 78.5h27l4 -368h-29q-12 148 -85.5 232.5t-180.5 84.5q-80 0 -136.5 -43t-56.5 -125q0 -33 11 -59t27 -43.5t46.5 -33.5t57.5 -26t71 -24q61 -19 99 -34t83.5 -42t71 -59t43 -82.5t17.5 -114.5q0 -171 -129 -264q-88 -59 -181 -59q-104 0 -192 55
q-14 9 -29 19.5t-23 16t-15.5 9.5t-12.5 4q-19 0 -27.5 -23t-11.5 -81h-24z" />
    <glyph glyph-name="t" unicode="t" horiz-adv-x="555" 
d="M518 958l-176 7v-719q0 -89 14 -127q17 -47 62 -47q47 0 61 57q13 45 13 119v166h26v-183q0 -131 -47 -182q-32 -36 -75.5 -52.5t-82.5 -16.5q-111 0 -157 90q-33 62 -33 180v715h-111v55h62q208 0 243 375h25v-375l176 6v-68z" />
    <glyph glyph-name="u" unicode="u" horiz-adv-x="980" 
d="M856 219q0 -35 0.5 -51.5t3 -41.5t8 -36t15 -23.5t25.5 -17t38 -4.5v-45h-297l-12 23v247q-47 -131 -123 -210.5t-172 -79.5q-102 0 -164.5 89t-62.5 248v484q0 113 -12.5 143.5t-73.5 30.5v45h313l-4 -277v-458q0 -108 22 -160.5t74 -52.5q55 0 106.5 72t92.5 206v457
q0 38 -0.5 56t-3.5 42t-9.5 33t-18.5 19.5t-30 13.5t-45 4v45h332l-2 -277v-524z" />
    <glyph glyph-name="v" unicode="v" horiz-adv-x="847" 
d="M414 -18l-250 753q-49 149 -69 184q-29 49 -79 55q-10 1 -22 1v45h440v-45q-79 0 -83 -55.5t40 -186.5l78 -258l41 -153h4l131 413q16 49 23.5 75.5t13.5 59t2 48t-15.5 31t-34.5 21t-59 5.5v45h283v-45q-68 0 -99 -45.5t-79 -192.5l-244 -755h-22z" />
    <glyph glyph-name="w" unicode="w" horiz-adv-x="1269" 
d="M397 -18l-237 753q-15 49 -23 73.5t-19.5 56.5t-19.5 45t-19 29.5t-22.5 22t-26.5 9.5t-34 4v45h412v-45q-22 0 -36 -5t-20.5 -18.5t-8 -27.5t3 -41t10 -49.5t16.5 -61.5l80 -285l32 -151h2l187 684h92l143 -541l39 -145h2l121 401q39 129 39 167q0 56 -55 69
q-20 4 -49 4v45h274v-45q-28 0 -48.5 -8.5t-35.5 -22t-30 -47t-26 -65.5t-30 -95l-238 -755h-24l-162 589l-47 185h-2l-215 -774h-25z" />
    <glyph glyph-name="x" unicode="x" horiz-adv-x="841" 
d="M682 240q50 -110 85.5 -152.5t90.5 -42.5v-45h-438v45q27 0 44.5 4.5t24.5 15.5t8 24t-7 35.5t-17 43.5t-24 55q-1 3 -2 4t-2 3.5t-1.5 4t-1.5 3.5l-84 180l-94 -168q-58 -100 -67 -129q-18 -60 44 -72q20 -4 48 -4v-45h-301v45q40 0 71.5 13t60 43.5t49.5 61.5t54 87
l117 209l-150 323q-50 109 -86.5 151t-97.5 42v45h440v-45q-39 0 -56.5 -10.5t-13.5 -40.5t14.5 -57t37.5 -87l59 -127l72 125q3 6 9 16q56 96 60 126q5 44 -52 52l-39 3v45h292v-45q-78 0 -120.5 -41t-108.5 -154l-96 -162z" />
    <glyph glyph-name="y" unicode="y" horiz-adv-x="845" 
d="M573 1020h285v-45q-24 0 -42 -4.5t-34 -18.5t-26.5 -28.5t-24 -46.5t-23 -60t-26.5 -80l-317 -973q-38 -115 -87 -169t-100 -54q-69 0 -120.5 58t-51.5 147q0 75 32.5 125.5t84.5 50.5q45 1 71 -25.5t35 -66.5q-108 -92 -108 -168q0 -33 17 -52.5t44 -19.5q90 0 148 181
l76 237l-240 727q-51 155 -79 197.5t-93 42.5v45h438v-45q-72 0 -76.5 -48.5t33.5 -164.5q5 -19 8 -29l68 -250l43 -170h2l133 422l18 58.5t13.5 48.5t8 42.5t-0.5 32t-9 27t-20.5 17t-32.5 11.5t-47 3v45z" />
    <glyph glyph-name="z" unicode="z" horiz-adv-x="792" 
d="M41 0l-2 33l385 829l55 107h-149q-82 0 -128 -29t-70 -100t-32 -205h-28l16 385h635l2 -33l-375 -827l-55 -109h141q55 0 91 4.5t67.5 20t49.5 40t32.5 68.5t22 101t12.5 143h28l-20 -428h-678z" />
    <glyph glyph-name="braceleft" unicode="{" horiz-adv-x="481" 
d="M287 805q0 -133 -38.5 -209t-98.5 -92q57 -16 93.5 -93t37.5 -208l6 -455q0 -40 5.5 -68t21 -55.5t49.5 -42t86 -14.5v-33q-79 0 -139.5 29.5t-93.5 77.5t-49.5 102t-16.5 111q0 62 36.5 234.5t36.5 266.5q0 64 -37.5 96.5t-79.5 32.5l-73 -12v59l73 -10q42 0 79.5 32.5
t37.5 96.5q0 94 -36.5 266.5t-36.5 235.5q0 57 16.5 111t49.5 102t93.5 77.5t139.5 29.5v-35q-44 0 -75 -11t-47.5 -26.5t-26 -41.5t-11.5 -47t-2 -52v-455z" />
    <glyph glyph-name="bar" unicode="|" horiz-adv-x="290" 
d="M123 -176v1704h43v-1704h-43z" />
    <glyph glyph-name="braceright" unicode="}" horiz-adv-x="481" 
d="M377 522l72 10v-59l-72 12q-43 0 -80 -32.5t-37 -96.5q0 -94 37 -266.5t37 -234.5q0 -56 -16.5 -110t-50.5 -102.5t-94.5 -78t-139.5 -29.5v33q43 0 74 11t48 27t26.5 42t12 47.5t3.5 52.5l4 455q1 131 38 208t93 93q-60 16 -97.5 91.5t-37.5 209.5v455q0 39 -4.5 65
t-20 55t-50.5 43.5t-89 14.5v35q79 0 139.5 -29.5t94.5 -78t50.5 -102.5t16.5 -110q0 -63 -37 -235.5t-37 -266.5q0 -64 37 -96.5t80 -32.5z" />
    <glyph glyph-name="asciitilde" unicode="~" horiz-adv-x="862" 
d="M604 436q-41 0 -91.5 29t-91 64.5t-88 64.5t-81.5 29q-62 0 -113 -125l-51 24q39 97 82 141t96 44q33 0 72 -19.5t74.5 -46.5t70 -54.5t69.5 -47t62 -19.5q64 0 111 113l47 -31q-38 -88 -78 -127t-90 -39z" />
    <glyph glyph-name="uni00A0" unicode="&#xa0;" horiz-adv-x="499" 
 />
    <glyph glyph-name="exclamdown" unicode="&#xa1;" horiz-adv-x="561" 
d="M348 1055q59 0 98 -43.5t39 -104.5q0 -62 -39 -105.5t-98 -43.5q-58 0 -95.5 43.5t-37.5 105.5q0 61 38 104.5t95 43.5zM362 584q21 -193 51.5 -368t48 -275.5t17.5 -169.5q0 -75 -35 -134t-96 -59q-57 0 -92 59.5t-35 133.5q0 70 18 171t48.5 275t50.5 367h24z" />
    <glyph glyph-name="cent" unicode="&#xa2;" horiz-adv-x="901" 
d="M557 33q57 0 100.5 41.5t69 112.5t38.5 155.5t15 181.5h31q0 -74 -7.5 -145t-27 -145t-49.5 -129t-78.5 -90t-109.5 -35q-145 0 -257 158t-135 425h-92v43h90q-2 23 -2 70q0 46 2 69h-90v43h92q24 267 142.5 426.5t275.5 159.5q61 0 110.5 -27t79.5 -70t46 -93t16 -101
q0 -79 -34.5 -133.5t-86.5 -54.5q-75 0 -94 88q49 48 84 105.5t35 97.5q0 28 -10 55q-17 36 -55.5 60t-77.5 24q-202 0 -216 -537l261 7v-54l-263 4v-69v-70l263 6v-55l-261 6q2 -124 12.5 -215.5t32 -165t59 -111.5t91.5 -38z" />
    <glyph glyph-name="sterling" unicode="&#xa3;" horiz-adv-x="851" 
d="M758 422h24q-2 -98 -11.5 -174t-30 -138.5t-57 -96t-87.5 -33.5q-38 0 -75 23t-67.5 56t-60 65.5t-62 55.5t-63.5 23q-59 0 -104 -94v4q-13 -45 -49 -131l-31 28q141 249 141 402q0 89 -47 258h-112v41h102q-37 148 -37 252q0 173 101 292t243 119q79 0 139.5 -49.5
t88.5 -118t28 -139.5q0 -84 -34 -140.5t-85 -56.5q-74 0 -98 93q51 49 86 107t35 106q0 35 -14 63q-18 37 -57.5 61.5t-86.5 24.5q-64 0 -108.5 -47.5t-44.5 -165.5q0 -82 23 -229t26 -172l231 6v-53l-227 6q2 -18 2 -52q0 -46 -17.5 -100t-38.5 -94.5t-61 -113t-63 -117.5
q41 51 104 83.5t121 32.5q48 0 91.5 -26.5t82 -53t72.5 -26.5q25 0 42.5 16.5t26.5 48.5t13 67.5t6 86.5z" />
    <glyph glyph-name="currency" unicode="&#xa4;" horiz-adv-x="776" 
d="M678 440h29q-2 -76 -20.5 -141t-54 -117.5t-93.5 -83t-133 -30.5q-21 0 -31 2l-21 -220h-35l29 222q-136 26 -211.5 166t-75.5 358q0 238 101 383t282 145q21 0 31 -2l21 224h36l-30 -228q87 -18 143.5 -89t56.5 -183q0 -72 -29.5 -118t-76.5 -46q-35 0 -58.5 27
t-23.5 67q84 88 84 158q0 54 -27.5 91t-74.5 46l-111 -915q39 -25 86 -25q91 0 146.5 89t60.5 220zM463 1075q-195 0 -195 -479q0 -321 94 -418l107 897h-6z" />
    <glyph glyph-name="yen" unicode="&#xa5;" horiz-adv-x="993" 
d="M655 1352h291v-45q-22 -1 -39 -4t-32 -13.5t-25.5 -18.5t-23 -30.5t-19.5 -36.5t-19 -49t-18.5 -56.5t-21.5 -70.5l-140 -455l207 7v-56l-213 6v-135l213 6v-53l-213 6v-123q0 -44 0.5 -63t4 -46t10.5 -36.5t21 -21t35 -15t52 -4.5v-45h-451v45q26 1 44.5 5t32 8.5t22 18
t13 23t6.5 34.5t2.5 42t0.5 55v123l-209 -6v53l209 -6v135l-209 -6v56l205 -7l-174 531q-41 126 -69 163t-99 40v45h463v-45q-25 -1 -43.5 -3.5t-31 -9.5t-20 -14t-10 -21.5t-2.5 -26.5t5.5 -35t10.5 -41.5t15 -51.5l150 -502l127 424q45 150 48 192q4 63 -47 80
q-22 8 -59 9v45z" />
    <glyph glyph-name="brokenbar" unicode="&#xa6;" horiz-adv-x="290" 
d="M123 743v785h43v-785h-43zM123 -176v784h43v-784h-43z" />
    <glyph glyph-name="section" unicode="&#xa7;" horiz-adv-x="747" 
d="M469 289q41 -22 70.5 -44.5t56.5 -55t41 -77t14 -100.5q0 -77 -27.5 -134.5t-72 -88.5t-93.5 -46t-100 -15q-121 0 -189.5 70.5t-68.5 158.5q0 60 25 96.5t65 36.5q26 0 45 -22t19 -54q-64 -82 -64 -127q0 -39 46 -73.5t129 -34.5q93 0 155 52.5t62 131.5
q0 45 -17.5 81.5t-47 62t-67.5 47.5t-80.5 41.5t-85 41t-80.5 50.5t-67.5 64.5t-47 87.5t-17.5 116q0 119 57 202.5t154 116.5q-87 44 -136 107.5t-49 169.5q0 77 27.5 134.5t72 89t93.5 46.5t100 15q81 0 141.5 -37t87.5 -88.5t27 -106.5q0 -59 -25 -95t-63 -36
q-28 0 -47.5 21.5t-19.5 54.5q65 79 65 125q0 41 -45 75.5t-127 34.5q-101 0 -159 -54.5t-58 -135.5q0 -55 28 -97t73 -69.5t99 -53t108 -55.5t99 -68t73 -100t28 -143q0 -118 -56 -202t-151 -117zM150 600q0 -59 19 -103t57.5 -76t73.5 -51t91 -45q6 -2 9.5 -3.5t8.5 -4
l9 -4.5q87 19 133.5 90t46.5 160q0 47 -15 86.5t-34.5 64.5t-57 50.5t-64 39t-73.5 35.5q-16 7 -24 11q-85 -19 -132.5 -91t-47.5 -159z" />
    <glyph glyph-name="copyright" unicode="&#xa9;" horiz-adv-x="1523" 
d="M762 39q-137 0 -262.5 53.5t-216.5 144.5t-145 216.5t-54 263.5t54 263.5t145 216.5t216.5 144.5t262.5 53.5q138 0 263.5 -53.5t216.5 -144.5t144.5 -216.5t53.5 -263.5t-53.5 -263.5t-144.5 -216.5t-216.5 -144.5t-263.5 -53.5zM762 88q171 0 316 84.5t229 229.5
t84 315t-84 315t-229 229.5t-316 84.5q-170 0 -315 -84.5t-229.5 -229.5t-84.5 -315t84.5 -315t229.5 -229.5t315 -84.5zM772 274q-79 0 -152 30.5t-130 86t-91 140.5t-34 186q0 132 62.5 235t158 155t202.5 52q83 0 166 -45q6 -4 17 -10.5t16 -9.5t12.5 -6.5t12.5 -5
t10 -1.5q15 0 22 16t7 62h30l4 -350h-34q-3 43 -12.5 84.5t-29.5 84t-48 73.5t-71.5 51t-96.5 20q-54 0 -95 -20t-67 -55t-42.5 -87t-23 -111t-6.5 -132q0 -75 6 -133t21.5 -110t40.5 -86t65.5 -53.5t95.5 -19.5q64 0 114 25t81 68.5t48 95.5t22 112h34q-2 -45 -12.5 -90
t-34.5 -91t-58 -81t-88.5 -57.5t-121.5 -22.5z" />
    <glyph glyph-name="ordfeminine" unicode="&#xaa;" horiz-adv-x="878" 
d="M586 993h18v-69q0 -60 -26 -90q-32 -37 -89 -37q-54 0 -79 41q-19 32 -19 94v2q-35 -137 -153 -137q-55 0 -88 37.5t-33 101.5q0 74 47 115q36 31 89.5 47.5t135.5 31.5v80q0 119 -70 119q-27 0 -46 -15t-19 -44q0 -43 41 -84q-8 -28 -30.5 -45t-51.5 -17
q-35 0 -54.5 27.5t-19.5 65.5q0 66 53 103.5t138 37.5q194 0 194 -189v-241q0 -15 0.5 -24t3 -21.5t9.5 -18.5t18 -6q31 0 31 70v65zM307 872q36 0 58 46t24 108v76q-65 -10 -102 -47q-29 -29 -29 -94q0 -89 49 -89zM-428 664q111 -9 225 -9q117 0 228 9v-89q-108 9 -228 9
q-117 0 -225 -9v89z" />
    <glyph glyph-name="guillemotleft" unicode="&#xab;" horiz-adv-x="606" 
d="M311 150l-243 385l243 385l19 -15l-146 -370l146 -371zM487 217l-192 318l192 317l19 -14l-96 -303l96 -304z" />
    <glyph glyph-name="logicalnot" unicode="&#xac;" horiz-adv-x="878" 
d="M705 281v337h-615v82h696v-419h-81z" />
    <glyph glyph-name="registered" unicode="&#xae;" horiz-adv-x="1163" 
d="M580 1395q132 0 243.5 -65t176.5 -176.5t65 -242.5q0 -132 -65 -243.5t-176.5 -176.5t-243.5 -65q-131 0 -242.5 65t-176.5 176.5t-65 243.5q0 131 65 242.5t176.5 176.5t242.5 65zM580 475q181 0 308.5 128t127.5 308t-127.5 307.5t-308.5 127.5q-178 0 -306.5 -128
t-128.5 -307q0 -180 127.5 -308t307.5 -128zM842 717v61h20v-61q0 -55 -19 -78t-73 -23q-51 0 -68.5 21.5t-17.5 75.5v69q0 58 -33 83.5t-80 25.5h-73v-170q0 -25 1 -35t8 -21.5t23 -15t45 -4.5v-20h-239v20q23 1 35.5 4.5t18 15t6.5 21.5t1 35v377q0 25 -1 35.5t-6.5 22.5
t-18 15.5t-35.5 4.5v22h246q225 0 225 -151q0 -132 -166 -152v-2q64 -9 105.5 -44.5t41.5 -88.5v-45q0 -58 27 -58q17 0 22 15t5 45zM498 913h84q65 0 89.5 26.5t24.5 107.5q0 80 -24 104.5t-90 24.5h-27q-40 0 -48.5 -14.5t-8.5 -59.5v-189z" />
    <glyph glyph-name="degree" unicode="&#xb0;" horiz-adv-x="688" 
d="M344 928q-109 0 -185.5 76.5t-76.5 185.5t76.5 185.5t185.5 76.5t185.5 -76.5t76.5 -185.5t-76.5 -185.5t-185.5 -76.5zM344 991q83 0 142 58t59 141t-59 142t-142 59q-84 0 -142.5 -58.5t-58.5 -142.5q0 -83 58 -141t143 -58z" />
    <glyph glyph-name="plusminus" unicode="&#xb1;" horiz-adv-x="880" 
d="M399 145v385h-323v82h323v426h82v-426h324v-82h-324v-385h-82zM76 0v82h729v-82h-729z" />
    <glyph glyph-name="uni00B2" unicode="&#xb2;" horiz-adv-x="534" 
d="M477 1300l19 -2q-6 -67 -14 -112t-23 -87.5t-40.5 -63.5t-62.5 -21q-33 0 -66 20t-55.5 44.5t-50 44.5t-51.5 20q-33 0 -57 -33q-8 -39 -8 -86h-25q0 60 12 107t40 86t47 59t61 57q36 34 55 55t40.5 52.5t30.5 67.5t9 81q0 174 -107 174q-43 0 -75.5 -29t-32.5 -67
q0 -35 24.5 -69t59.5 -58q-4 -39 -24.5 -60.5t-49.5 -21.5q-38 0 -64 38.5t-26 92.5q0 77 57 141t164 64q100 0 160.5 -52t60.5 -149q0 -27 -6 -51.5t-14 -43.5t-24.5 -38t-29.5 -31t-37 -28.5t-39.5 -26t-43.5 -26t-43 -25.5q-117 -71 -162 -174q29 30 71.5 47.5t84.5 17.5
q30 0 82.5 -16t78.5 -16q36 0 51 26t23 92z" />
    <glyph glyph-name="uni00B3" unicode="&#xb3;" horiz-adv-x="528" 
d="M285 1425q84 -18 144 -69t60 -139q0 -94 -68.5 -148.5t-182.5 -54.5q-101 0 -151 58t-50 130q0 47 23.5 83t60.5 36q27 0 46.5 -21t25.5 -57q-29 -21 -52.5 -50.5t-23.5 -57.5q0 -44 34 -67.5t78 -23.5q57 0 86 44t29 141q0 116 -39 154t-125 14v39q13 2 58 -2
q55 9 78.5 52.5t23.5 125.5q0 151 -98 151q-43 0 -78 -23t-35 -61q0 -40 64 -104q-3 -30 -22.5 -51t-47.5 -21q-33 0 -53.5 31t-20.5 78q0 83 57.5 132.5t145.5 49.5q38 0 75.5 -10t71.5 -30t55 -56t21 -82t-17.5 -81.5t-48 -57t-60.5 -33.5t-64 -19z" />
    <glyph glyph-name="paragraph" unicode="&#xb6;" horiz-adv-x="768" 
d="M356 -213v842q-98 0 -170 48.5t-105.5 121.5t-33.5 159t34.5 162t108.5 127t175 51h352v-63h-135v-1448h-39v1448h-148v-1448h-39z" />
    <glyph glyph-name="periodcentered" unicode="&#xb7;" horiz-adv-x="561" 
d="M231 641q-64 0 -105.5 44t-41.5 108t41.5 107.5t105.5 43.5t106 -43.5t42 -107.5t-41.5 -108t-106.5 -44z" />
    <glyph glyph-name="uni00B9" unicode="&#xb9;" horiz-adv-x="374" 
d="M266 1153q0 -31 2 -44.5t11 -28.5t29.5 -20.5t56.5 -6.5v-29h-334v29q36 1 56.5 6.5t29.5 20.5t10.5 28.5t1.5 44.5v535q-58 -17 -96 -23l-4 25q69 13 127.5 42t89.5 62h20v-641z" />
    <glyph glyph-name="ordmasculine" unicode="&#xba;" horiz-adv-x="876" 
d="M348 797q-99 0 -165 76.5t-66 203.5q0 128 66 204.5t165 76.5q100 0 167 -77t67 -204t-67 -203.5t-167 -76.5zM348 825q86 0 86 252t-86 252q-84 0 -84 -252t84 -252zM-436 575v89q111 -9 225 -9q116 0 227 9v-89q-108 9 -227 9q-117 0 -225 -9z" />
    <glyph glyph-name="guillemotright" unicode="&#xbb;" horiz-adv-x="606" 
d="M295 150l-21 14l148 371l-148 370l21 15l244 -385zM119 217l-19 14l97 304l-97 303l19 14l192 -317z" />
    <glyph glyph-name="onequarter" unicode="&#xbc;" horiz-adv-x="1404" 
d="M1008 1473l61 -37q-352 -659 -709 -1475l-61 37q371 692 709 1475zM63 713q37 1 58 6.5t30 20.5t11 28.5t2 44.5v535q-65 -18 -98 -23l-5 25q69 13 128 42t90 62h20v-641q0 -31 1.5 -44.5t10.5 -28.5t29.5 -20.5t56.5 -6.5v-29h-334v29zM1178 190h-84v-59q0 -26 0.5 -37
t4 -26.5t11.5 -21t23 -11t38 -6.5v-29h-299v29q31 1 48.5 7t25 21t9 28.5t1.5 45.5v59h-251v31l370 549h19v-551l84 8v-37zM743 227l213 -8v334z" />
    <glyph glyph-name="onehalf" unicode="&#xbd;" horiz-adv-x="1507" 
d="M1006 1473l61 -37q-352 -659 -709 -1475l-61 37q371 692 709 1475zM61 713q37 1 58 6.5t30 20.5t11 28.5t2 44.5v535q-64 -18 -99 -23l-4 25q69 13 127.5 42t89.5 62h21v-641q0 -31 1.5 -44.5t10.5 -28.5t29.5 -20.5t56.5 -6.5v-29h-334v29zM1253 276l19 -2
q-6 -69 -13.5 -113t-22 -87t-39.5 -63.5t-62 -20.5q-34 0 -67 20t-55.5 44.5t-51 44.5t-52.5 20q-29 0 -59 -35q-6 -42 -4 -84h-27q0 60 12 107t40 85.5t48.5 59.5t61.5 57q36 34 55 55t40.5 52.5t30.5 67.5t9 81q0 174 -106 174q-43 0 -77 -29t-34 -67q0 -35 24.5 -69
t59.5 -58q-3 -39 -23.5 -60.5t-50.5 -21.5q-38 0 -64 38.5t-26 92.5q0 77 57 141t164 64q101 0 161.5 -52t60.5 -149q0 -31 -6 -57.5t-21 -49.5t-28 -39t-40 -35.5t-42 -29.5t-50 -30t-49 -29q-117 -71 -162 -174q29 30 70.5 47.5t83.5 17.5q32 0 84 -16t78 -16
q38 0 52.5 26t20.5 92z" />
    <glyph glyph-name="threequarters" unicode="&#xbe;" horiz-adv-x="1536" 
d="M1126 1473l62 -37q-352 -659 -709 -1475l-61 37q366 682 708 1475zM504 877q0 -94 -70 -148.5t-184 -54.5q-101 0 -151 58t-50 130q0 46 24 82.5t60 36.5q29 0 48.5 -21t25.5 -57q-29 -21 -52.5 -50.5t-23.5 -57.5q0 -44 34 -67t77 -23q59 0 87.5 43.5t28.5 140.5
q0 116 -39 154t-124 14v39q14 2 55 -2q56 9 79 52t23 126q0 81 -24.5 116t-73.5 35q-43 0 -78 -23t-35 -61q0 -18 12 -39t22.5 -32.5t31.5 -32.5q-3 -30 -22.5 -51t-47.5 -21q-33 0 -53.5 31t-20.5 78q0 83 57 132.5t144 49.5q53 0 102 -16.5t86 -58.5t37 -103
q0 -46 -18 -81.5t-48.5 -57t-61 -33.5t-64.5 -19q86 -18 146.5 -69t60.5 -139zM1309 190h-84v-59q0 -32 1.5 -45.5t8.5 -28.5t23.5 -21t46.5 -7v-29h-301v29q25 1 41 6.5t24.5 11t12.5 21t4.5 26.5t0.5 37v59h-251v31l370 549h19v-551l84 8v-37zM874 227l213 -8v334z" />
    <glyph glyph-name="questiondown" unicode="&#xbf;" horiz-adv-x="921" 
d="M563 1055q57 0 96 -43t39 -105q0 -63 -39 -106t-96 -43q-59 0 -97 42.5t-38 106.5q0 63 38 105.5t97 42.5zM555 655q96 0 152.5 -62t56.5 -163q0 -60 -17.5 -114.5t-46 -96.5t-62.5 -82t-68 -77.5t-62.5 -75t-46 -83.5t-17.5 -94q0 -74 37.5 -126t110.5 -52
q90 0 159.5 78t69.5 195q0 60 -18 114t-51 84l28 31q36 -37 57 -98t21 -131q0 -140 -84.5 -232t-224.5 -92q-138 0 -234 87.5t-96 230.5q0 65 20.5 123t53.5 101.5t72.5 83t79.5 74.5t73 69.5t53.5 75.5t20.5 85q0 50 -17.5 77t-46.5 27q-35 0 -64.5 -33.5t-29.5 -84.5
q0 -46 19 -86l-25 -19q-22 52 -22 105q0 71 41 116t108 45z" />
    <glyph glyph-name="Agrave" unicode="&#xc0;" horiz-adv-x="1101" 
d="M623 1563q-117 53 -189 112.5t-72 108.5q0 30 24 48.5t63 18.5q37 0 67 -12q5 -62 36.5 -136.5t90.5 -139.5h-20zM922 293q15 -48 23 -72t19.5 -55t21 -45t23 -31t29 -23.5t35.5 -12.5t47 -9v-45h-551v45q51 4 80.5 15.5t43 28t13 48.5t-7.5 64t-22 86q-1 4 -2 6l-41 149
h-350l-25 -80q-16 -51 -24.5 -80t-16.5 -64.5t-8.5 -54.5t2 -41t13.5 -33t28.5 -21.5t43 -15.5t60.5 -7v-45h-385v45q35 3 59.5 10t46 25.5t35 36.5t30.5 60t28.5 78t32.5 107l241 803l91 281h34zM299 500h319l-116 436l-27 125h-4z" />
    <glyph glyph-name="Aacute" unicode="&#xc1;" horiz-adv-x="1101" 
d="M739 1784q0 -49 -71 -107t-187 -114h-22q114 125 127 276q30 12 67 12q40 0 63 -18.5t23 -48.5zM922 293q15 -48 23 -72t19.5 -55t21 -45t23 -31t29 -23.5t35.5 -12.5t47 -9v-45h-551v45q51 4 80.5 15.5t43 28t13 48.5t-7.5 64t-22 86q-1 4 -2 6l-41 149h-350l-25 -80
q-16 -51 -24.5 -80t-16.5 -64.5t-8.5 -54.5t2 -41t13.5 -33t28.5 -21.5t43 -15.5t60.5 -7v-45h-385v45q35 3 59.5 10t46 25.5t35 36.5t30.5 60t28.5 78t32.5 107l241 803l91 281h34zM299 500h319l-116 436l-27 125h-4z" />
    <glyph glyph-name="Acircumflex" unicode="&#xc2;" horiz-adv-x="1101" 
d="M528 1733q-93 -101 -174 -166h-26q114 135 182 264h86q90 -162 180 -264h-26q-99 59 -222 166zM922 293q15 -48 23 -72t19.5 -55t21 -45t23 -31t29 -23.5t35.5 -12.5t47 -9v-45h-551v45q51 4 80.5 15.5t43 28t13 48.5t-7.5 64t-22 86q-1 4 -2 6l-41 149h-350l-25 -80
q-16 -51 -24.5 -80t-16.5 -64.5t-8.5 -54.5t2 -41t13.5 -33t28.5 -21.5t43 -15.5t60.5 -7v-45h-385v45q35 3 59.5 10t46 25.5t35 36.5t30.5 60t28.5 78t32.5 107l241 803l91 281h34zM299 500h319l-116 436l-27 125h-4z" />
    <glyph glyph-name="Atilde" unicode="&#xc3;" horiz-adv-x="1101" 
d="M430 1653q-55 0 -63 -84h-21q3 209 117 209q34 0 71 -22t71.5 -44t62.5 -22q58 0 65 84h23q-7 -207 -119 -207q-41 0 -110 43t-97 43zM922 293q15 -48 23 -72t19.5 -55t21 -45t23 -31t29 -23.5t35.5 -12.5t47 -9v-45h-551v45q51 4 80.5 15.5t43 28t13 48.5t-7.5 64
t-22 86q-1 4 -2 6l-41 149h-350l-25 -80q-16 -51 -24.5 -80t-16.5 -64.5t-8.5 -54.5t2 -41t13.5 -33t28.5 -21.5t43 -15.5t60.5 -7v-45h-385v45q35 3 59.5 10t46 25.5t35 36.5t30.5 60t28.5 78t32.5 107l241 803l91 281h34zM299 500h319l-116 436l-27 125h-4z" />
    <glyph glyph-name="Adieresis" unicode="&#xc4;" horiz-adv-x="1101" 
d="M483 1567q-36 0 -63 30t-27 72t27 72.5t63 30.5q40 0 68 -35q28 35 67 35q37 0 63 -30t26 -73t-26 -72.5t-63 -29.5q-39 0 -67 35q-28 -35 -68 -35zM922 293q15 -48 23 -72t19.5 -55t21 -45t23 -31t29 -23.5t35.5 -12.5t47 -9v-45h-551v45q51 4 80.5 15.5t43 28t13 48.5
t-7.5 64t-22 86q-1 4 -2 6l-41 149h-350l-25 -80q-16 -51 -24.5 -80t-16.5 -64.5t-8.5 -54.5t2 -41t13.5 -33t28.5 -21.5t43 -15.5t60.5 -7v-45h-385v45q35 3 59.5 10t46 25.5t35 36.5t30.5 60t28.5 78t32.5 107l241 803l91 281h34zM299 500h319l-116 436l-27 125h-4z" />
    <glyph glyph-name="Aring" unicode="&#xc5;" horiz-adv-x="1101" 
d="M553 1532q-60 0 -106 52.5t-46 121.5q0 67 46 118.5t106 51.5q57 0 102 -51.5t45 -118.5q0 -69 -45 -121.5t-102 -52.5zM553 1829q-43 0 -69.5 -36t-26.5 -87q0 -55 26.5 -91t69.5 -36q41 0 66.5 36.5t25.5 90.5q0 49 -26 86t-66 37zM922 293q15 -48 23 -72t19.5 -55
t21 -45t23 -31t29 -23.5t35.5 -12.5t47 -9v-45h-551v45q51 4 80.5 15.5t43 28t13 48.5t-7.5 64t-22 86q-1 4 -2 6l-41 149h-350l-25 -80q-16 -51 -24.5 -80t-16.5 -64.5t-8.5 -54.5t2 -41t13.5 -33t28.5 -21.5t43 -15.5t60.5 -7v-45h-385v45q35 3 59.5 10t46 25.5t35 36.5
t30.5 60t28.5 78t32.5 107l241 803l91 281h34zM299 500h319l-116 436l-27 125h-4z" />
    <glyph glyph-name="AE" unicode="&#xc6;" horiz-adv-x="1601" 
d="M1481 559h32l-6 -559h-913v45q22 1 38.5 4t30 6t22.5 11.5t16 14.5t11 21t6.5 24.5t3.5 32.5t1 37.5v45.5v473h-268l-154 -369q-65 -154 -74 -195q-15 -67 30 -89q32 -15 101 -17v-45h-391v45q52 2 86.5 15t66.5 51.5t57 88.5t65 144l432 1024q-36 15 -150 18v48h967
l6 -486h-35q-9 219 -84 323.5t-190 104.5h-125q-67 0 -82.5 -31.5t-15.5 -150.5v-422h82q91 0 136.5 23.5t67 84t25.5 183.5h29v-643h-29q-5 127 -28 189.5t-67.5 84t-133.5 21.5h-82v-477v-49t1.5 -38.5t4 -32.5t7 -23t11.5 -18.5t17.5 -10.5t24 -7.5t32.5 -1.5h94
q304 0 324 502zM479 772h244v463q0 69 -10 94z" />
    <glyph glyph-name="Ccedilla" unicode="&#xc7;" horiz-adv-x="1050" 
d="M659 -102q67 0 113.5 -45.5t46.5 -126.5q0 -86 -51 -134.5t-127 -48.5q-49 0 -97 20.5t-81 57.5l8 31q57 -47 113 -47q45 0 73.5 34.5t28.5 96.5q0 54 -24 84t-60 30q-19 0 -37 -6l-18 31l39 105h-8q-100 0 -193.5 51.5t-167 143.5t-118 233.5t-44.5 308.5
q0 164 48.5 306t126.5 234.5t173.5 144.5t192.5 52q94 0 182 -51q23 -13 48.5 -33t41.5 -31.5t27 -11.5q23 0 34 26.5t11 100.5h29l6 -575h-33q-5 87 -26.5 174t-60.5 167.5t-104 130.5t-147 50t-139 -52t-87.5 -150t-43 -213.5t-12.5 -268.5q0 -102 4.5 -183t15.5 -161
t31 -138.5t50 -104.5t74 -69.5t101 -23.5q83 0 147.5 43t104.5 116.5t62.5 161t27.5 187.5h37q-3 -73 -16 -144t-41 -145.5t-68 -131.5t-102.5 -96t-139.5 -46l-28 -99q38 15 77 15z" />
    <glyph glyph-name="Egrave" unicode="&#xc8;" horiz-adv-x="1046" 
d="M594 1563q-116 53 -188 112t-72 109q0 30 23.5 48.5t62.5 18.5q37 0 67 -12q5 -62 36.5 -136.5t90.5 -139.5h-20zM926 559h30l-8 -559h-905v45q24 1 41.5 3.5t31 9.5t22 12.5t14.5 20.5t9 25t5 34.5t2 40.5v51v946q0 40 -0.5 57.5t-2.5 44t-7 37t-13.5 24.5t-22 19.5
t-33 10t-46.5 5.5v48h891l8 -486h-35q-10 218 -85 323t-191 105h-125q-67 0 -82.5 -31t-15.5 -151v-410h84q132 0 176.5 58.5t50.5 234.5h31v-645h-31q-6 178 -50 236.5t-177 58.5h-84v-489v-49t1.5 -38.5t4 -32.5t7 -23t11.5 -18.5t17.5 -10.5t24 -7.5t32.5 -1.5h96
q301 0 324 502z" />
    <glyph glyph-name="Eacute" unicode="&#xc9;" horiz-adv-x="1046" 
d="M711 1784q0 -49 -71 -107t-187 -114h-23q114 125 127 276q30 12 68 12q40 0 63 -18.5t23 -48.5zM926 559h30l-8 -559h-905v45q24 1 41.5 3.5t31 9.5t22 12.5t14.5 20.5t9 25t5 34.5t2 40.5v51v946q0 40 -0.5 57.5t-2.5 44t-7 37t-13.5 24.5t-22 19.5t-33 10t-46.5 5.5v48
h891l8 -486h-35q-10 218 -85 323t-191 105h-125q-67 0 -82.5 -31t-15.5 -151v-410h84q132 0 176.5 58.5t50.5 234.5h31v-645h-31q-6 178 -50 236.5t-177 58.5h-84v-489v-49t1.5 -38.5t4 -32.5t7 -23t11.5 -18.5t17.5 -10.5t24 -7.5t32.5 -1.5h96q301 0 324 502z" />
    <glyph glyph-name="Ecircumflex" unicode="&#xca;" horiz-adv-x="1046" 
d="M502 1733q-93 -101 -174 -166h-27q114 135 182 264h86q88 -159 181 -264h-27q-96 57 -221 166zM926 559h30l-8 -559h-905v45q24 1 41.5 3.5t31 9.5t22 12.5t14.5 20.5t9 25t5 34.5t2 40.5v51v946q0 40 -0.5 57.5t-2.5 44t-7 37t-13.5 24.5t-22 19.5t-33 10t-46.5 5.5v48
h891l8 -486h-35q-10 218 -85 323t-191 105h-125q-67 0 -82.5 -31t-15.5 -151v-410h84q132 0 176.5 58.5t50.5 234.5h31v-645h-31q-6 178 -50 236.5t-177 58.5h-84v-489v-49t1.5 -38.5t4 -32.5t7 -23t11.5 -18.5t17.5 -10.5t24 -7.5t32.5 -1.5h96q301 0 324 502z" />
    <glyph glyph-name="Edieresis" unicode="&#xcb;" horiz-adv-x="1046" 
d="M457 1567q-36 0 -63 30t-27 72t27 72.5t63 30.5q39 0 67 -35q28 35 68 35q37 0 62.5 -30t25.5 -73t-25.5 -72.5t-62.5 -29.5q-40 0 -68 35q-28 -35 -67 -35zM926 559h30l-8 -559h-905v45q24 1 41.5 3.5t31 9.5t22 12.5t14.5 20.5t9 25t5 34.5t2 40.5v51v946
q0 40 -0.5 57.5t-2.5 44t-7 37t-13.5 24.5t-22 19.5t-33 10t-46.5 5.5v48h891l8 -486h-35q-10 218 -85 323t-191 105h-125q-67 0 -82.5 -31t-15.5 -151v-410h84q132 0 176.5 58.5t50.5 234.5h31v-645h-31q-6 178 -50 236.5t-177 58.5h-84v-489v-49t1.5 -38.5t4 -32.5t7 -23
t11.5 -18.5t17.5 -10.5t24 -7.5t32.5 -1.5h96q301 0 324 502z" />
    <glyph glyph-name="Igrave" unicode="&#xcc;" horiz-adv-x="573" 
d="M358 1563q-116 53 -188 112t-72 109q0 30 23.5 48.5t62.5 18.5q38 0 68 -12q5 -62 36.5 -136.5t90.5 -139.5h-21zM45 0v45q26 1 44.5 5.5t32 10t22 19.5t13 24.5t6.5 36.5t2.5 44t0.5 57v950q0 39 -0.5 57t-2.5 44t-6.5 36.5t-13 24.5t-22 19.5t-32 10t-44.5 5.5v45h483
v-45q-23 -1 -40.5 -3.5t-30.5 -10t-21.5 -12.5t-14.5 -21t-9 -25t-4.5 -34.5t-1.5 -40v-50.5v-950v-50.5t1.5 -40t4.5 -34.5t9 -25t14.5 -21t21.5 -12.5t30.5 -10t40.5 -3.5v-45h-483z" />
    <glyph glyph-name="Iacute" unicode="&#xcd;" horiz-adv-x="573" 
d="M195 1563q114 125 127 276q30 12 67 12q40 0 63 -18.5t23 -48.5q0 -49 -71 -107t-187 -114h-22zM45 0v45q26 1 44.5 5.5t32 10t22 19.5t13 24.5t6.5 36.5t2.5 44t0.5 57v950q0 39 -0.5 57t-2.5 44t-6.5 36.5t-13 24.5t-22 19.5t-32 10t-44.5 5.5v45h483v-45
q-23 -1 -40.5 -3.5t-30.5 -10t-21.5 -12.5t-14.5 -21t-9 -25t-4.5 -34.5t-1.5 -40v-50.5v-950v-50.5t1.5 -40t4.5 -34.5t9 -25t14.5 -21t21.5 -12.5t30.5 -10t40.5 -3.5v-45h-483z" />
    <glyph glyph-name="Icircumflex" unicode="&#xce;" horiz-adv-x="573" 
d="M66 1567q114 135 182 264h86q90 -162 180 -264h-27q-96 57 -221 166q-93 -101 -174 -166h-26zM45 0v45q26 1 44.5 5.5t32 10t22 19.5t13 24.5t6.5 36.5t2.5 44t0.5 57v950q0 39 -0.5 57t-2.5 44t-6.5 36.5t-13 24.5t-22 19.5t-32 10t-44.5 5.5v45h483v-45
q-23 -1 -40.5 -3.5t-30.5 -10t-21.5 -12.5t-14.5 -21t-9 -25t-4.5 -34.5t-1.5 -40v-50.5v-950v-50.5t1.5 -40t4.5 -34.5t9 -25t14.5 -21t21.5 -12.5t30.5 -10t40.5 -3.5v-45h-483z" />
    <glyph glyph-name="Idieresis" unicode="&#xcf;" horiz-adv-x="573" 
d="M221 1567q-36 0 -63 30t-27 72t27 72.5t63 30.5q40 0 68 -35q28 35 67 35q37 0 62.5 -30t25.5 -73t-25.5 -72.5t-62.5 -29.5q-39 0 -67 35q-28 -35 -68 -35zM528 1389q-23 -1 -40.5 -3.5t-30.5 -10t-21.5 -12.5t-14.5 -21t-9 -25t-4.5 -34.5t-1.5 -40v-50.5v-950v-50.5
t1.5 -40t4.5 -34.5t9 -25t14.5 -21t21.5 -12.5t30.5 -10t40.5 -3.5v-45h-483v45q26 1 44.5 5.5t32 10t22 19.5t13 24.5t6.5 36.5t2.5 44t0.5 57v950q0 39 -0.5 57t-2.5 44t-6.5 36.5t-13 24.5t-22 19.5t-32 10t-44.5 5.5v45h483v-45z" />
    <glyph glyph-name="Eth" unicode="&#xd0;" horiz-adv-x="1159" 
d="M555 1434q104 0 202 -49.5t175 -138.5t123.5 -227t46.5 -302q0 -132 -30.5 -248t-83.5 -200.5t-123 -146t-149.5 -92t-162.5 -30.5h-508v45q24 1 41.5 3.5t31 9.5t22 12.5t14.5 20.5t9 25t5 34.5t2 40.5v51v446h-119v57h119v447v51t-2 40.5t-5 34.5t-9 25t-14.5 20.5
t-22 12.5t-31 9.5t-41.5 3.5v45h510zM557 53q75 0 129 45t86.5 133t48 208t15.5 278t-15.5 278t-48 207.5t-86.5 132.5t-129 45h-61q-52 0 -69 -27.5t-17 -107.5v-500h202v-57h-202v-500q0 -30 1 -46t5.5 -36t13 -29.5t25 -16.5t41.5 -7h61z" />
    <glyph glyph-name="Ntilde" unicode="&#xd1;" horiz-adv-x="1128" 
d="M649 1567q-41 0 -110 43t-97 43q-55 0 -63 -84h-21q3 209 117 209q34 0 71 -22t71.5 -44t62.5 -22q58 0 65 84h23q-7 -207 -119 -207zM31 0v45q27 1 48.5 6t38 11.5t29 21.5t20.5 26t13.5 35.5t8.5 40.5t4.5 50t1.5 54.5v63.5v801q0 32 -0.5 48.5t-3.5 45t-9 44t-18 36
t-29.5 31.5t-44 19.5t-61.5 9.5v45h356l457 -897l71 -134v676v6q0 74 -1.5 107.5t-10 79.5t-27 65t-52.5 34.5t-87 17.5v45h381v-45q-50 -2 -82 -17.5t-49.5 -35t-25.5 -66.5t-9.5 -81t-1.5 -110v-1087h-35l-591 1063l-89 153h-2v-854v-57.5t1.5 -50t4 -46t6.5 -39t11 -35
t17 -27t23.5 -23t30.5 -15.5t39.5 -11.5t49.5 -4.5v-45h-383z" />
    <glyph glyph-name="Ograve" unicode="&#xd2;" horiz-adv-x="1157" 
d="M651 1563q-116 53 -188 112t-72 109q0 30 23.5 48.5t62.5 18.5q38 0 68 -12q5 -62 36.5 -136.5t90.5 -139.5h-21zM580 -20q-77 0 -153 32t-142.5 95.5t-118 150.5t-81.5 206t-30 253t30 253t81.5 206t118 150.5t142.5 95.5t153 32q76 0 150.5 -32t140.5 -95.5t117 -150.5
t80.5 -206t29.5 -253t-29.5 -253t-80.5 -206t-117 -150.5t-140.5 -95.5t-150.5 -32zM580 33q61 0 106.5 33.5t73.5 91t45 147t23 187t6 225.5t-6 225.5t-23 187t-45 147t-73.5 91t-106.5 33.5q-77 0 -129.5 -49.5t-79.5 -146.5t-38 -212.5t-11 -275.5t11 -275.5t38 -212.5
t79.5 -146.5t129.5 -49.5z" />
    <glyph glyph-name="Oacute" unicode="&#xd3;" horiz-adv-x="1157" 
d="M487 1563q114 125 127 276q30 12 68 12q40 0 63 -18.5t23 -48.5q0 -49 -71 -107t-187 -114h-23zM580 -20q-77 0 -153 32t-142.5 95.5t-118 150.5t-81.5 206t-30 253t30 253t81.5 206t118 150.5t142.5 95.5t153 32q76 0 150.5 -32t140.5 -95.5t117 -150.5t80.5 -206
t29.5 -253t-29.5 -253t-80.5 -206t-117 -150.5t-140.5 -95.5t-150.5 -32zM580 33q61 0 106.5 33.5t73.5 91t45 147t23 187t6 225.5t-6 225.5t-23 187t-45 147t-73.5 91t-106.5 33.5q-77 0 -129.5 -49.5t-79.5 -146.5t-38 -212.5t-11 -275.5t11 -275.5t38 -212.5t79.5 -146.5
t129.5 -49.5z" />
    <glyph glyph-name="Ocircumflex" unicode="&#xd4;" horiz-adv-x="1157" 
d="M356 1567q117 138 183 264h86q90 -162 180 -264h-27q-96 57 -221 166q-93 -101 -174 -166h-27zM580 -20q-77 0 -153 32t-142.5 95.5t-118 150.5t-81.5 206t-30 253t30 253t81.5 206t118 150.5t142.5 95.5t153 32q76 0 150.5 -32t140.5 -95.5t117 -150.5t80.5 -206
t29.5 -253t-29.5 -253t-80.5 -206t-117 -150.5t-140.5 -95.5t-150.5 -32zM580 33q61 0 106.5 33.5t73.5 91t45 147t23 187t6 225.5t-6 225.5t-23 187t-45 147t-73.5 91t-106.5 33.5q-77 0 -129.5 -49.5t-79.5 -146.5t-38 -212.5t-11 -275.5t11 -275.5t38 -212.5t79.5 -146.5
t129.5 -49.5z" />
    <glyph glyph-name="Otilde" unicode="&#xd5;" horiz-adv-x="1157" 
d="M666 1567q-41 0 -110 43t-97 43q-56 0 -64 -84h-20q3 209 117 209q34 0 70.5 -22t71 -44t62.5 -22q59 0 66 84h22q-7 -207 -118 -207zM580 -20q-77 0 -153 32t-142.5 95.5t-118 150.5t-81.5 206t-30 253t30 253t81.5 206t118 150.5t142.5 95.5t153 32q76 0 150.5 -32
t140.5 -95.5t117 -150.5t80.5 -206t29.5 -253t-29.5 -253t-80.5 -206t-117 -150.5t-140.5 -95.5t-150.5 -32zM580 33q61 0 106.5 33.5t73.5 91t45 147t23 187t6 225.5t-6 225.5t-23 187t-45 147t-73.5 91t-106.5 33.5q-77 0 -129.5 -49.5t-79.5 -146.5t-38 -212.5
t-11 -275.5t11 -275.5t38 -212.5t79.5 -146.5t129.5 -49.5z" />
    <glyph glyph-name="Odieresis" unicode="&#xd6;" horiz-adv-x="1157" 
d="M512 1567q-36 0 -63 30t-27 72t27 72.5t63 30.5q40 0 68 -35q28 35 67 35q37 0 62.5 -30t25.5 -73t-25.5 -72.5t-62.5 -29.5q-39 0 -67 35q-28 -35 -68 -35zM580 1454q76 0 150.5 -32t140.5 -95.5t117 -150.5t80.5 -206t29.5 -253t-29.5 -253t-80.5 -206t-117 -150.5
t-140.5 -95.5t-150.5 -32q-77 0 -153 32t-142.5 95.5t-118 150.5t-81.5 206t-30 253t30 253t81.5 206t118 150.5t142.5 95.5t153 32zM580 33q61 0 106.5 33.5t73.5 91t45 147t23 187t6 225.5t-6 225.5t-23 187t-45 147t-73.5 91t-106.5 33.5q-77 0 -129.5 -49.5
t-79.5 -146.5t-38 -212.5t-11 -275.5t11 -275.5t38 -212.5t79.5 -146.5t129.5 -49.5z" />
    <glyph glyph-name="multiply" unicode="&#xd7;" horiz-adv-x="866" 
d="M197 213l-43 57l235 301l-235 301l43 58l235 -301l236 301l45 -58l-236 -301l236 -301l-45 -57l-236 301z" />
    <glyph glyph-name="Oslash" unicode="&#xd8;" horiz-adv-x="1163" 
d="M915 1284q88 -100 138.5 -244t50.5 -323q0 -134 -30 -253t-81 -206t-117.5 -150.5t-142 -95.5t-151.5 -32q-162 0 -301 133q-7 -12 -74 -138l-33 41l74 134q-88 100 -138.5 244t-50.5 323q0 167 46 309t120.5 233.5t167.5 143t189 51.5q163 0 299 -133q3 5 73 137l35 -41
zM326 717q0 -240 24 -381q85 154 449 829q-59 236 -217 236q-61 0 -106.5 -34t-74 -92t-45.5 -147.5t-23.5 -187t-6.5 -223.5zM582 33q75 0 127 49.5t79 145.5t38.5 213t11.5 276q0 234 -25 381q-306 -562 -448 -830q56 -235 217 -235z" />
    <glyph glyph-name="Ugrave" unicode="&#xd9;" horiz-adv-x="1097" 
d="M621 1563q-117 53 -189 112.5t-72 108.5q0 30 23.5 48.5t62.5 18.5q38 0 68 -12q5 -62 36.5 -136.5t90.5 -139.5h-20zM555 -20q-219 0 -314.5 139.5t-95.5 429.5v643v45t-1 37t-3 32.5t-6 24.5t-10 21.5t-15 14.5t-21 12t-28 6t-36 4v45h487v-45q-28 -1 -48 -5.5t-34 -10
t-23 -19.5t-14 -24.5t-7 -36.5t-2.5 -44t-0.5 -57v-668q0 -69 3 -121t11.5 -110.5t26 -99.5t44.5 -76t68.5 -52.5t96.5 -17.5q116 0 190 118.5t74 360.5v553v63.5t-1.5 54.5t-4.5 50t-9 40.5t-14.5 36t-21.5 26.5t-30 21t-39.5 11.5t-51.5 6.5v45h369v-45q-24 -1 -43.5 -4.5
t-34.5 -11.5t-27 -15.5t-20.5 -23.5t-14.5 -27t-10 -35t-6 -39t-3 -46.5t-1 -50v-57.5v-553q0 -101 -10.5 -181t-37 -150t-69 -116t-108.5 -72.5t-154 -26.5z" />
    <glyph glyph-name="Uacute" unicode="&#xda;" horiz-adv-x="1097" 
d="M457 1563q114 125 127 276q30 12 67 12q40 0 63 -18.5t23 -48.5q0 -49 -71 -107t-187 -114h-22zM555 -20q-219 0 -314.5 139.5t-95.5 429.5v643v45t-1 37t-3 32.5t-6 24.5t-10 21.5t-15 14.5t-21 12t-28 6t-36 4v45h487v-45q-28 -1 -48 -5.5t-34 -10t-23 -19.5t-14 -24.5
t-7 -36.5t-2.5 -44t-0.5 -57v-668q0 -69 3 -121t11.5 -110.5t26 -99.5t44.5 -76t68.5 -52.5t96.5 -17.5q116 0 190 118.5t74 360.5v553v63.5t-1.5 54.5t-4.5 50t-9 40.5t-14.5 36t-21.5 26.5t-30 21t-39.5 11.5t-51.5 6.5v45h369v-45q-24 -1 -43.5 -4.5t-34.5 -11.5
t-27 -15.5t-20.5 -23.5t-14.5 -27t-10 -35t-6 -39t-3 -46.5t-1 -50v-57.5v-553q0 -101 -10.5 -181t-37 -150t-69 -116t-108.5 -72.5t-154 -26.5z" />
    <glyph glyph-name="Ucircumflex" unicode="&#xdb;" horiz-adv-x="1097" 
d="M326 1567q114 135 182 264h86q90 -162 180 -264h-26q-99 59 -222 166q-93 -101 -174 -166h-26zM555 -20q-219 0 -314.5 139.5t-95.5 429.5v643v45t-1 37t-3 32.5t-6 24.5t-10 21.5t-15 14.5t-21 12t-28 6t-36 4v45h487v-45q-28 -1 -48 -5.5t-34 -10t-23 -19.5t-14 -24.5
t-7 -36.5t-2.5 -44t-0.5 -57v-668q0 -69 3 -121t11.5 -110.5t26 -99.5t44.5 -76t68.5 -52.5t96.5 -17.5q116 0 190 118.5t74 360.5v553v63.5t-1.5 54.5t-4.5 50t-9 40.5t-14.5 36t-21.5 26.5t-30 21t-39.5 11.5t-51.5 6.5v45h369v-45q-24 -1 -43.5 -4.5t-34.5 -11.5
t-27 -15.5t-20.5 -23.5t-14.5 -27t-10 -35t-6 -39t-3 -46.5t-1 -50v-57.5v-553q0 -101 -10.5 -181t-37 -150t-69 -116t-108.5 -72.5t-154 -26.5z" />
    <glyph glyph-name="Udieresis" unicode="&#xdc;" horiz-adv-x="1097" 
d="M481 1567q-36 0 -63 30t-27 72t27 72.5t63 30.5q40 0 68 -35q28 35 67 35q37 0 63 -30t26 -73t-26 -72.5t-63 -29.5q-39 0 -67 35q-28 -35 -68 -35zM725 1434h369v-45q-24 -1 -43.5 -4.5t-34.5 -11.5t-27 -15.5t-20.5 -23.5t-14.5 -27t-10 -35t-6 -39t-3 -46.5t-1 -50
v-57.5v-553q0 -101 -10.5 -181t-37 -150t-69 -116t-108.5 -72.5t-154 -26.5q-219 0 -314.5 139.5t-95.5 429.5v643v45t-1 37t-3 32.5t-6 24.5t-10 21.5t-15 14.5t-21 12t-28 6t-36 4v45h487v-45q-28 -1 -48 -5.5t-34 -10t-23 -19.5t-14 -24.5t-7 -36.5t-2.5 -44t-0.5 -57
v-668q0 -69 3 -121t11.5 -110.5t26 -99.5t44.5 -76t68.5 -52.5t96.5 -17.5q116 0 190 118.5t74 360.5v553v63.5t-1.5 54.5t-4.5 50t-9 40.5t-14.5 36t-21.5 26.5t-30 21t-39.5 11.5t-51.5 6.5v45z" />
    <glyph glyph-name="Yacute" unicode="&#xdd;" horiz-adv-x="1091" 
d="M811 1784q0 -49 -71 -107t-187 -114h-23q114 125 127 276q30 12 68 12q40 0 63 -18.5t23 -48.5zM739 1434h363v-45q-30 -2 -53 -8t-41.5 -14.5t-34.5 -27t-28 -36.5t-26.5 -51.5t-25.5 -63.5t-29 -82l-200 -567v-297q0 -39 0.5 -57t2.5 -44t7.5 -36.5t15 -24.5
t24.5 -19.5t36 -10t51 -5.5v-45h-516v45q26 1 45.5 3.5t34.5 10t25 13t16.5 20.5t10 25t5.5 34.5t2 40v50.5v295l-221 606q-20 56 -30.5 83t-26 60.5t-27.5 47.5t-30.5 28.5t-39.5 19.5t-51 7v45h532v-45q-110 -4 -120 -62t40 -180q1 -3 1 -4l112 -338l66 -199h2l174 500
q18 51 27 77.5t18.5 62t9 52.5t-5 37.5t-19.5 29.5t-38 16t-58 8v45z" />
    <glyph glyph-name="Thorn" unicode="&#xde;" horiz-adv-x="1042" 
d="M535 297h-127v-55v-3q0 -105 12 -135q18 -44 85 -54q22 -4 52 -5v-45h-514v45q27 1 46.5 5.5t33 10t22 19.5t13.5 24.5t7 36.5t2.5 44t0.5 57v950q0 39 -0.5 57t-2.5 44t-7 36.5t-13.5 24.5t-22 19.5t-33 10t-46.5 5.5v45h514v-45q-25 -1 -44.5 -4t-34.5 -6t-26 -11.5
t-18.5 -14.5t-12.5 -21t-7.5 -24.5t-4 -32t-1.5 -36.5v-44v-3v-55h127q77 0 143 -12.5t126 -43t101.5 -77.5t66.5 -120t25 -167t-25 -167t-66.5 -120t-101.5 -77.5t-126 -43t-143 -12.5zM535 1079h-127v-725h127q36 0 62 6t55.5 27.5t48 59.5t30.5 106.5t12 163.5
q0 96 -13 165.5t-31.5 106.5t-48.5 58.5t-55 26.5t-60 5z" />
    <glyph glyph-name="germandbls" unicode="&#xdf;" horiz-adv-x="983" 
d="M711 666q38 -24 58 -37.5t52 -39.5t49.5 -50.5t36.5 -59t27 -77.5t8 -95q0 -149 -84 -238t-219 -89q-109 0 -171 60.5t-62 166.5q0 60 22 101.5t59 41.5q27 0 47.5 -22t28.5 -54q-53 -56 -53 -118q0 -58 37 -92.5t96 -34.5q73 0 127.5 52t54.5 136q0 45 -13.5 80
t-44.5 65t-61 51t-83 52q-40 22 -68.5 43.5t-60 55t-47 80t-13.5 101.5q1 59 25 111.5t57.5 93t66.5 84t56 104.5t23 134q0 108 -44 156.5t-104 48.5q-164 0 -164 -355v-1122h-307v45q21 0 35 2.5t24 12.5t14.5 19t7 34t3 44t0.5 62v748l-6 -2l-80 20l86 16v66
q0 207 102 333t269 126q118 0 195 -72t77 -186q0 -63 -23.5 -114.5t-57 -85t-66.5 -63.5t-56.5 -67t-23.5 -80q0 -15 2 -28.5t9 -26.5t11 -22t17.5 -21.5t19 -18t25 -19.5t25 -17.5t30 -19.5t29.5 -19z" />
    <glyph glyph-name="agrave" unicode="&#xe0;" horiz-adv-x="899" 
d="M567 1180q-104 69 -181 155.5t-77 137.5q0 28 25 50.5t63 22.5q34 0 66 -14q8 -70 41 -166t86 -186h-23zM854 340h27v-141q0 -114 -41 -162q-50 -57 -148 -57q-90 0 -131 71q-33 51 -33 156v33q-7 -29 -16.5 -57.5t-31.5 -67t-49.5 -67t-72.5 -48.5t-98 -20
q-99 0 -158 72t-59 190q0 132 80 215q58 58 155 92.5t250 66.5v129q0 130 -32 188t-101 58q-70 0 -106 -55q-21 -37 -21 -72q0 -80 76 -162q-12 -43 -48.5 -69.5t-82.5 -26.5q-61 0 -93 48.5t-32 117.5q0 124 92 196t232 72q155 0 246.5 -83.5t91.5 -268.5v-483q0 -63 8 -94
q18 -35 43 -35q31 0 45 39q8 23 8 92v133zM369 94q65 0 107 86.5t52 208.5v180q-133 -30 -198 -114q-56 -70 -56 -181q0 -79 25 -129.5t70 -50.5z" />
    <glyph glyph-name="aacute" unicode="&#xe1;" horiz-adv-x="899" 
d="M590 1473q0 -52 -77.5 -139t-180.5 -154h-23q54 92 87.5 187.5t39.5 164.5q32 14 66 14q39 0 63.5 -22.5t24.5 -50.5zM854 340h27v-141q0 -114 -41 -162q-50 -57 -148 -57q-90 0 -131 71q-33 51 -33 156v33q-7 -29 -16.5 -57.5t-31.5 -67t-49.5 -67t-72.5 -48.5t-98 -20
q-99 0 -158 72t-59 190q0 132 80 215q58 58 155 92.5t250 66.5v129q0 130 -32 188t-101 58q-70 0 -106 -55q-21 -37 -21 -72q0 -80 76 -162q-12 -43 -48.5 -69.5t-82.5 -26.5q-61 0 -93 48.5t-32 117.5q0 124 92 196t232 72q155 0 246.5 -83.5t91.5 -268.5v-483q0 -63 8 -94
q18 -35 43 -35q31 0 45 39q8 23 8 92v133zM369 94q65 0 107 86.5t52 208.5v180q-133 -30 -198 -114q-56 -70 -56 -181q0 -79 25 -129.5t70 -50.5z" />
    <glyph glyph-name="acircumflex" unicode="&#xe2;" horiz-adv-x="899" 
d="M428 1411q-10 -14 -36 -50.5t-41.5 -58.5t-42.5 -55.5t-54 -62.5h-25q116 186 181 336h86q81 -188 180 -336h-29q-87 76 -219 227zM854 340h27v-141q0 -114 -41 -162q-50 -57 -148 -57q-90 0 -131 71q-33 51 -33 156v33q-7 -29 -16.5 -57.5t-31.5 -67t-49.5 -67
t-72.5 -48.5t-98 -20q-99 0 -158 72t-59 190q0 132 80 215q58 58 155 92.5t250 66.5v129q0 130 -32 188t-101 58q-70 0 -106 -55q-21 -37 -21 -72q0 -80 76 -162q-12 -43 -48.5 -69.5t-82.5 -26.5q-61 0 -93 48.5t-32 117.5q0 124 92 196t232 72q155 0 246.5 -83.5
t91.5 -268.5v-483q0 -63 8 -94q18 -35 43 -35q31 0 45 39q8 23 8 92v133zM369 94q65 0 107 86.5t52 208.5v180q-133 -30 -198 -114q-56 -70 -56 -181q0 -79 25 -129.5t70 -50.5z" />
    <glyph glyph-name="atilde" unicode="&#xe3;" horiz-adv-x="899" 
d="M330 1333q-56 0 -64 -84h-20q3 209 116 209q42 0 107 -43t98 -43q59 0 66 84h22q-7 -209 -118 -209q-41 0 -110 43t-97 43zM854 340h27v-141q0 -114 -41 -162q-50 -57 -148 -57q-90 0 -131 71q-33 51 -33 156v33q-7 -29 -16.5 -57.5t-31.5 -67t-49.5 -67t-72.5 -48.5
t-98 -20q-99 0 -158 72t-59 190q0 132 80 215q58 58 155 92.5t250 66.5v129q0 130 -32 188t-101 58q-70 0 -106 -55q-21 -37 -21 -72q0 -80 76 -162q-12 -43 -48.5 -69.5t-82.5 -26.5q-61 0 -93 48.5t-32 117.5q0 124 92 196t232 72q155 0 246.5 -83.5t91.5 -268.5v-483
q0 -63 8 -94q18 -35 43 -35q31 0 45 39q8 23 8 92v133zM369 94q65 0 107 86.5t52 208.5v180q-133 -30 -198 -114q-56 -70 -56 -181q0 -79 25 -129.5t70 -50.5z" />
    <glyph glyph-name="adieresis" unicode="&#xe4;" horiz-adv-x="899" 
d="M383 1239q-36 0 -63 29.5t-27 72.5q0 41 27.5 72t62.5 31q42 0 68 -37q26 37 67 37q37 0 62.5 -30t25.5 -73q0 -44 -25.5 -73t-62.5 -29q-43 0 -67 35q-24 -35 -68 -35zM854 340h27v-141q0 -114 -41 -162q-50 -57 -148 -57q-90 0 -131 71q-33 51 -33 156v33
q-7 -29 -16.5 -57.5t-31.5 -67t-49.5 -67t-72.5 -48.5t-98 -20q-99 0 -158 72t-59 190q0 132 80 215q58 58 155 92.5t250 66.5v129q0 130 -32 188t-101 58q-70 0 -106 -55q-21 -37 -21 -72q0 -80 76 -162q-12 -43 -48.5 -69.5t-82.5 -26.5q-61 0 -93 48.5t-32 117.5
q0 124 92 196t232 72q155 0 246.5 -83.5t91.5 -268.5v-483q0 -63 8 -94q18 -35 43 -35q31 0 45 39q8 23 8 92v133zM369 94q65 0 107 86.5t52 208.5v180q-133 -30 -198 -114q-56 -70 -56 -181q0 -79 25 -129.5t70 -50.5z" />
    <glyph glyph-name="aring" unicode="&#xe5;" horiz-adv-x="899" 
d="M451 1151q-60 0 -106 52.5t-46 121.5q0 67 46 118.5t106 51.5q57 0 102 -51.5t45 -118.5q0 -69 -45 -121.5t-102 -52.5zM451 1452q-44 0 -70.5 -37.5t-26.5 -89.5q0 -56 26.5 -93.5t70.5 -37.5q41 0 67.5 38t26.5 93q0 52 -27 89.5t-67 37.5zM854 340h27v-141
q0 -114 -41 -162q-50 -57 -148 -57q-90 0 -131 71q-33 51 -33 156v33q-7 -29 -16.5 -57.5t-31.5 -67t-49.5 -67t-72.5 -48.5t-98 -20q-99 0 -158 72t-59 190q0 132 80 215q58 58 155 92.5t250 66.5v129q0 130 -32 188t-101 58q-70 0 -106 -55q-21 -37 -21 -72q0 -80 76 -162
q-12 -43 -48.5 -69.5t-82.5 -26.5q-61 0 -93 48.5t-32 117.5q0 124 92 196t232 72q155 0 246.5 -83.5t91.5 -268.5v-483q0 -63 8 -94q18 -35 43 -35q31 0 45 39q8 23 8 92v133zM369 94q65 0 107 86.5t52 208.5v180q-133 -30 -198 -114q-56 -70 -56 -181q0 -79 25 -129.5
t70 -50.5z" />
    <glyph glyph-name="ae" unicode="&#xe6;" horiz-adv-x="1292" 
d="M1212 342h29q-2 -56 -15 -107.5t-40 -98.5t-64.5 -81t-92.5 -54.5t-120 -20.5q-128 0 -224 79t-144 220q-72 -299 -281 -299q-99 0 -158 72t-59 190q0 132 80 215q58 58 155 92.5t250 66.5v129q0 130 -32 188t-101 58q-70 0 -106 -55q-21 -37 -21 -72q0 -80 76 -162
q-12 -43 -48.5 -69.5t-82.5 -26.5q-61 0 -93 48.5t-32 117.5q0 124 92 196t232 72q157 0 250 -104q101 104 231 104q170 0 258 -133t88 -372h-489v-25q0 -71 4 -128t13 -112.5t25.5 -96t40.5 -72.5t58.5 -48t79.5 -16q106 0 171 89.5t70 215.5zM891 991q-129 0 -141 -407
h256q1 91 -3 158t-16 127t-36 91t-60 31zM369 94q65 0 107 86.5t52 208.5v180q-72 -17 -117.5 -43.5t-80.5 -70.5q-56 -70 -56 -181q0 -79 25 -129.5t70 -50.5z" />
    <glyph glyph-name="ccedilla" unicode="&#xe7;" horiz-adv-x="831" 
d="M784 352q-2 -73 -22.5 -137t-59 -117t-101.5 -84.5t-144 -33.5l-29 -97q38 15 78 15q67 0 113.5 -45.5t46.5 -126.5q0 -86 -51.5 -134.5t-127.5 -48.5q-49 0 -97 20.5t-81 57.5l8 31q57 -47 113 -47q45 0 73.5 34.5t28.5 96.5q0 55 -23.5 84.5t-59.5 29.5q-19 0 -37 -6
l-19 31l39 105q-174 4 -278.5 149.5t-104.5 380.5q0 240 112.5 385t307.5 145q130 0 218.5 -77.5t88.5 -210.5q0 -85 -36.5 -139t-96.5 -54q-40 0 -69.5 28t-41.5 72q37 39 63 94.5t26 100.5q0 64 -39 100.5t-97 36.5q-192 0 -192 -481q0 -109 8.5 -187.5t31 -147
t66.5 -103.5t109 -35q110 0 175.5 90.5t70.5 224.5h30z" />
    <glyph glyph-name="egrave" unicode="&#xe8;" horiz-adv-x="841" 
d="M539 1180q-104 69 -181 155.5t-77 137.5q0 28 25 50.5t63 22.5q33 0 65 -14q8 -70 41 -166t86 -186h-22zM762 342h31q-2 -71 -23 -134t-61 -115t-105.5 -82.5t-148.5 -30.5q-184 0 -295 145t-111 385q0 243 110 386.5t277 143.5q177 0 266 -132t89 -373h-498v-25
q0 -107 9 -186t32.5 -147.5t69 -104t112.5 -35.5q110 0 175.5 88t70.5 217zM436 991q-131 0 -143 -407h262q1 94 -3 161.5t-16.5 126.5t-37 89t-62.5 30z" />
    <glyph glyph-name="eacute" unicode="&#xe9;" horiz-adv-x="841" 
d="M561 1473q0 -52 -77.5 -139t-180.5 -154h-22q54 92 87.5 187.5t39.5 164.5q32 14 65 14q39 0 63.5 -22.5t24.5 -50.5zM762 342h31q-2 -71 -23 -134t-61 -115t-105.5 -82.5t-148.5 -30.5q-184 0 -295 145t-111 385q0 243 110 386.5t277 143.5q177 0 266 -132t89 -373h-498
v-25q0 -107 9 -186t32.5 -147.5t69 -104t112.5 -35.5q110 0 175.5 88t70.5 217zM436 991q-131 0 -143 -407h262q1 94 -3 161.5t-16.5 126.5t-37 89t-62.5 30z" />
    <glyph glyph-name="ecircumflex" unicode="&#xea;" horiz-adv-x="841" 
d="M401 1411q-10 -14 -36 -50.5t-41.5 -58.5t-42.5 -55.5t-54 -62.5h-24q112 180 180 336h86q81 -188 180 -336h-28q-91 80 -220 227zM762 342h31q-2 -71 -23 -134t-61 -115t-105.5 -82.5t-148.5 -30.5q-184 0 -295 145t-111 385q0 243 110 386.5t277 143.5q177 0 266 -132
t89 -373h-498v-25q0 -107 9 -186t32.5 -147.5t69 -104t112.5 -35.5q110 0 175.5 88t70.5 217zM436 991q-131 0 -143 -407h262q1 94 -3 161.5t-16.5 126.5t-37 89t-62.5 30z" />
    <glyph glyph-name="edieresis" unicode="&#xeb;" horiz-adv-x="841" 
d="M356 1239q-36 0 -63 29.5t-27 72.5q0 41 27.5 72t62.5 31q42 0 68 -37q26 37 68 37q37 0 62.5 -30t25.5 -73q0 -44 -25.5 -73t-62.5 -29q-44 0 -68 35q-24 -35 -68 -35zM762 342h31q-2 -71 -23 -134t-61 -115t-105.5 -82.5t-148.5 -30.5q-184 0 -295 145t-111 385
q0 243 110 386.5t277 143.5q177 0 266 -132t89 -373h-498v-25q0 -107 9 -186t32.5 -147.5t69 -104t112.5 -35.5q110 0 175.5 88t70.5 217zM436 991q-131 0 -143 -407h262q1 94 -3 161.5t-16.5 126.5t-37 89t-62.5 30z" />
    <glyph glyph-name="igrave" unicode="&#xec;" horiz-adv-x="475" 
d="M350 1180q-99 68 -171.5 151.5t-72.5 134.5q0 33 28 56.5t67 23.5q30 0 65 -14q0 -69 27 -164t78 -188h-21zM45 0v45q61 0 73.5 30t12.5 144v582q0 30 -0.5 45.5t-3 40t-8.5 37t-16.5 26.5t-27.5 19t-40 4v47l311 12l14 -12l-6 -297v-504q0 -114 12 -144t72 -30v-45h-393
z" />
    <glyph glyph-name="iacute" unicode="&#xed;" horiz-adv-x="475" 
d="M106 1180q50 94 77.5 188.5t29.5 163.5q32 14 63 14q39 0 67 -23.5t28 -56.5q0 -51 -72 -134.5t-170 -151.5h-23zM45 0v45q61 0 73.5 30t12.5 144v582q0 30 -0.5 45.5t-3 40t-8.5 37t-16.5 26.5t-27.5 19t-40 4v47l311 12l14 -12l-6 -297v-504q0 -114 12 -144t72 -30v-45
h-393z" />
    <glyph glyph-name="icircumflex" unicode="&#xee;" horiz-adv-x="475" 
d="M66 1184q86 172 131 336h84q48 -172 129 -336h-27q-58 68 -164 227q-89 -169 -127 -227h-26zM45 0v45q61 0 73.5 30t12.5 144v582q0 30 -0.5 45.5t-3 40t-8.5 37t-16.5 26.5t-27.5 19t-40 4v47l311 12l14 -12l-6 -297v-504q0 -114 12 -144t72 -30v-45h-393z" />
    <glyph glyph-name="idieresis" unicode="&#xef;" horiz-adv-x="475" 
d="M127 1239q-36 0 -63 29.5t-27 72.5q0 41 27.5 72t62.5 31q37 0 63.5 -31t26.5 -72q0 -42 -27 -72t-63 -30zM348 1239q-36 0 -62 29.5t-26 72.5q0 41 26.5 72t61.5 31q37 0 63.5 -31t26.5 -72q0 -42 -26.5 -72t-63.5 -30zM45 0v45q61 0 73.5 30t12.5 144v582
q0 30 -0.5 45.5t-3 40t-8.5 37t-16.5 26.5t-27.5 19t-40 4v47l311 12l14 -12l-6 -297v-504q0 -114 12 -144t72 -30v-45h-393z" />
    <glyph glyph-name="eth" unicode="&#xf0;" horiz-adv-x="917" 
d="M559 1362q148 -125 223.5 -329t75.5 -470q0 -274 -115 -428.5t-288 -154.5q-171 0 -288.5 146t-117.5 384t117.5 384t288.5 146q66 0 131 -59q-26 174 -94 291l-109 -142l-25 37l109 144q-72 101 -195 147l7 45q138 -37 247 -117l105 140l24 -39zM455 29q161 0 161 481
t-161 481q-162 0 -162 -481t162 -481z" />
    <glyph glyph-name="ntilde" unicode="&#xf1;" horiz-adv-x="991" 
d="M377 1333q-56 0 -64 -84h-20q3 209 117 209q34 0 70.5 -21.5t71 -43t62.5 -21.5q59 0 66 84h22q-7 -209 -118 -209q-41 0 -110 43t-97 43zM879 219q0 -113 12 -143.5t70 -30.5v-45h-394v45q23 0 37.5 2.5t24.5 12.5t15 19t7.5 34t3 44t0.5 62v520q0 100 -21.5 152.5
t-74.5 52.5q-57 0 -110.5 -72.5t-94.5 -207.5v-445q0 -113 12.5 -143.5t73.5 -30.5v-45h-395v45q21 0 35 2.5t24 12.5t14.5 19t7 34t3 44t0.5 62v582q0 36 -0.5 54.5t-5.5 46t-14.5 40.5t-28.5 23.5t-47 9.5v45l303 12l16 -12l-8 -281q47 136 127.5 218.5t177.5 82.5
q106 0 168 -88.5t62 -246.5v-486z" />
    <glyph glyph-name="ograve" unicode="&#xf2;" horiz-adv-x="909" 
d="M571 1180q-104 69 -181 155.5t-77 137.5q0 28 25 50.5t63 22.5q34 0 66 -14q8 -70 41 -166t86 -186h-23zM455 -20q-171 0 -288.5 146t-117.5 384t117.5 384t288.5 146t287 -146t116 -384t-116 -384t-287 -146zM455 29q161 0 161 481t-161 481q-162 0 -162 -481t162 -481z
" />
    <glyph glyph-name="oacute" unicode="&#xf3;" horiz-adv-x="909" 
d="M313 1180q54 92 87.5 187.5t39.5 164.5q32 14 66 14q39 0 63.5 -22.5t24.5 -50.5q0 -52 -77.5 -139t-180.5 -154h-23zM455 -20q-171 0 -288.5 146t-117.5 384t117.5 384t288.5 146t287 -146t116 -384t-116 -384t-287 -146zM455 29q161 0 161 481t-161 481
q-162 0 -162 -481t162 -481z" />
    <glyph glyph-name="ocircumflex" unicode="&#xf4;" horiz-adv-x="909" 
d="M236 1184q112 180 180 336h86q81 -188 180 -336h-29q-87 76 -219 227q-10 -14 -36 -50.5t-41.5 -58.5t-42.5 -55.5t-54 -62.5h-24zM455 -20q-171 0 -288.5 146t-117.5 384t117.5 384t288.5 146t287 -146t116 -384t-116 -384t-287 -146zM455 29q161 0 161 481t-161 481
q-162 0 -162 -481t162 -481z" />
    <glyph glyph-name="otilde" unicode="&#xf5;" horiz-adv-x="909" 
d="M541 1247q-41 0 -110 43t-97 43q-56 0 -64 -84h-20q3 209 117 209q41 0 106 -43t98 -43q59 0 66 84h22q-7 -209 -118 -209zM455 -20q-171 0 -288.5 146t-117.5 384t117.5 384t288.5 146t287 -146t116 -384t-116 -384t-287 -146zM455 29q161 0 161 481t-161 481
q-162 0 -162 -481t162 -481z" />
    <glyph glyph-name="odieresis" unicode="&#xf6;" horiz-adv-x="909" 
d="M389 1239q-36 0 -63 29.5t-27 72.5q0 41 27.5 72t62.5 31q42 0 68 -37q26 37 67 37q37 0 62.5 -30t25.5 -73q0 -44 -25.5 -73t-62.5 -29q-43 0 -67 35q-24 -35 -68 -35zM455 1040q171 0 287 -146t116 -384t-116 -384t-287 -146t-288.5 146t-117.5 384t117.5 384
t288.5 146zM455 29q161 0 161 481t-161 481q-162 0 -162 -481t162 -481z" />
    <glyph glyph-name="divide" unicode="&#xf7;" horiz-adv-x="880" 
d="M440 854q-30 0 -51.5 26t-21.5 64t22 66t51 28q28 0 50 -28t22 -66q0 -37 -22 -63.5t-50 -26.5zM76 530v82h729v-82h-729zM440 104q-29 0 -51 27.5t-22 65.5t21.5 65t51.5 27q28 0 50 -27t22 -65t-22 -65.5t-50 -27.5z" />
    <glyph glyph-name="oslash" unicode="&#xf8;" horiz-adv-x="909" 
d="M737 899q121 -150 121 -389q0 -238 -116 -384t-287 -146q-146 0 -258 112q-44 -65 -70 -110l-35 24l80 117q-121 150 -121 387q0 119 32.5 219.5t87.5 168t128.5 105t155.5 37.5q149 0 256 -110l73 110l33 -24q-9 -13 -37 -53.5t-43 -63.5zM293 510q0 -121 8 -197
q195 289 301 451q-36 227 -147 227q-162 0 -162 -481zM455 29q85 0 123 122t38 359q0 122 -8 201q-130 -193 -301 -449q35 -233 148 -233z" />
    <glyph glyph-name="ugrave" unicode="&#xf9;" horiz-adv-x="980" 
d="M608 1180q-104 69 -181 155.5t-77 137.5q0 28 25 50.5t63 22.5q34 0 66 -14q8 -70 41 -166t86 -186h-23zM856 219q0 -35 0.5 -51.5t3 -41.5t8 -36t15 -23.5t25.5 -17t38 -4.5v-45h-297l-12 23v247q-47 -131 -123 -210.5t-172 -79.5q-102 0 -164.5 89t-62.5 248v484
q0 113 -12.5 143.5t-73.5 30.5v45h313l-4 -277v-458q0 -108 22 -160.5t74 -52.5q55 0 106.5 72t92.5 206v457q0 38 -0.5 56t-3.5 42t-9.5 33t-18.5 19.5t-30 13.5t-45 4v45h332l-2 -277v-524z" />
    <glyph glyph-name="uacute" unicode="&#xfa;" horiz-adv-x="980" 
d="M631 1473q0 -52 -77.5 -139t-180.5 -154h-23q54 92 87.5 187.5t39.5 164.5q32 14 66 14q39 0 63.5 -22.5t24.5 -50.5zM856 219q0 -35 0.5 -51.5t3 -41.5t8 -36t15 -23.5t25.5 -17t38 -4.5v-45h-297l-12 23v247q-47 -131 -123 -210.5t-172 -79.5q-102 0 -164.5 89
t-62.5 248v484q0 113 -12.5 143.5t-73.5 30.5v45h313l-4 -277v-458q0 -108 22 -160.5t74 -52.5q55 0 106.5 72t92.5 206v457q0 38 -0.5 56t-3.5 42t-9.5 33t-18.5 19.5t-30 13.5t-45 4v45h332l-2 -277v-524z" />
    <glyph glyph-name="ucircumflex" unicode="&#xfb;" horiz-adv-x="980" 
d="M469 1411q-10 -14 -36 -50.5t-41.5 -58.5t-42.5 -55.5t-54 -62.5h-25q116 186 181 336h86q81 -188 180 -336h-29q-87 76 -219 227zM856 219q0 -35 0.5 -51.5t3 -41.5t8 -36t15 -23.5t25.5 -17t38 -4.5v-45h-297l-12 23v247q-47 -131 -123 -210.5t-172 -79.5
q-102 0 -164.5 89t-62.5 248v484q0 113 -12.5 143.5t-73.5 30.5v45h313l-4 -277v-458q0 -108 22 -160.5t74 -52.5q55 0 106.5 72t92.5 206v457q0 38 -0.5 56t-3.5 42t-9.5 33t-18.5 19.5t-30 13.5t-45 4v45h332l-2 -277v-524z" />
    <glyph glyph-name="udieresis" unicode="&#xfc;" horiz-adv-x="980" 
d="M424 1239q-36 0 -63 29.5t-27 72.5q0 41 27.5 72t62.5 31q42 0 68 -37q26 37 67 37q37 0 62.5 -30t25.5 -73q0 -44 -25.5 -73t-62.5 -29q-43 0 -67 35q-24 -35 -68 -35zM856 219q0 -35 0.5 -51.5t3 -41.5t8 -36t15 -23.5t25.5 -17t38 -4.5v-45h-297l-12 23v247
q-47 -131 -123 -210.5t-172 -79.5q-102 0 -164.5 89t-62.5 248v484q0 113 -12.5 143.5t-73.5 30.5v45h313l-4 -277v-458q0 -108 22 -160.5t74 -52.5q55 0 106.5 72t92.5 206v457q0 38 -0.5 56t-3.5 42t-9.5 33t-18.5 19.5t-30 13.5t-45 4v45h332l-2 -277v-524z" />
    <glyph glyph-name="yacute" unicode="&#xfd;" horiz-adv-x="845" 
d="M635 1473q0 -52 -77.5 -139t-180.5 -154h-23q54 92 87.5 187.5t39.5 164.5q32 14 66 14q39 0 63.5 -22.5t24.5 -50.5zM573 1020h285v-45q-24 0 -42 -4.5t-34 -18.5t-26.5 -28.5t-24 -46.5t-23 -60t-26.5 -80l-317 -973q-38 -115 -87 -169t-100 -54q-69 0 -120.5 58
t-51.5 147q0 75 32.5 125.5t84.5 50.5q45 1 71 -25.5t35 -66.5q-108 -92 -108 -168q0 -33 17 -52.5t44 -19.5q90 0 148 181l76 237l-240 727q-51 155 -79 197.5t-93 42.5v45h438v-45q-72 0 -76.5 -48.5t33.5 -164.5q5 -19 8 -29l68 -250l43 -170h2l133 422l18 58.5
t13.5 48.5t8 42.5t-0.5 32t-9 27t-20.5 17t-32.5 11.5t-47 3v45z" />
    <glyph glyph-name="thorn" unicode="&#xfe;" horiz-adv-x="929" 
d="M565 1040q95 0 166.5 -65.5t108.5 -179.5t37 -260q0 -112 -22.5 -211t-65 -176.5t-110.5 -122.5t-153 -45q-81 0 -128 33.5t-72 95.5v-334v-43.5t1.5 -34.5t5 -30t9.5 -22t14.5 -17.5t22 -10.5t31 -8t41.5 -2v-45h-439v45q63 3 76.5 36t13.5 138v1487q0 30 -0.5 45.5
t-3 40t-8 37.5t-15 26.5t-25.5 19t-38 5.5v47l303 12l17 -12l-6 -250l-7 -471q33 136 97.5 204t148.5 68zM475 35q36 0 62.5 21t50 73.5t35.5 153.5t12 249q0 85 -2.5 145.5t-10 122t-20.5 99t-36.5 61t-55.5 23.5q-54 0 -104 -79.5t-80 -225.5v-324q0 -138 40 -228.5
t109 -90.5z" />
    <glyph glyph-name="ydieresis" unicode="&#xff;" horiz-adv-x="845" 
d="M428 1239q-36 0 -63 29.5t-27 72.5q0 41 27.5 72t62.5 31q42 0 68 -37q26 37 67 37q37 0 62.5 -30t25.5 -73q0 -44 -25.5 -73t-62.5 -29q-43 0 -67 35q-24 -35 -68 -35zM573 1020h285v-45q-24 0 -42 -4.5t-34 -18.5t-26.5 -28.5t-24 -46.5t-23 -60t-26.5 -80l-317 -973
q-38 -115 -87 -169t-100 -54q-69 0 -120.5 58t-51.5 147q0 75 32.5 125.5t84.5 50.5q45 1 71 -25.5t35 -66.5q-108 -92 -108 -168q0 -33 17 -52.5t44 -19.5q90 0 148 181l76 237l-240 727q-51 155 -79 197.5t-93 42.5v45h438v-45q-72 0 -76.5 -48.5t33.5 -164.5q5 -19 8 -29
l68 -250l43 -170h2l133 422l18 58.5t13.5 48.5t8 42.5t-0.5 32t-9 27t-20.5 17t-32.5 11.5t-47 3v45z" />
    <glyph glyph-name="Amacron" unicode="&#x100;" horiz-adv-x="1101" 
d="M776 1573q-104 8 -225 8t-225 -8v82q136 -8 225 -8t225 8v-82zM922 293q15 -48 23 -72t19.5 -55t21 -45t23 -31t29 -23.5t35.5 -12.5t47 -9v-45h-551v45q51 4 80.5 15.5t43 28t13 48.5t-7.5 64t-22 86q-1 4 -2 6l-41 149h-350l-25 -80q-16 -51 -24.5 -80t-16.5 -64.5
t-8.5 -54.5t2 -41t13.5 -33t28.5 -21.5t43 -15.5t60.5 -7v-45h-385v45q35 3 59.5 10t46 25.5t35 36.5t30.5 60t28.5 78t32.5 107l241 803l91 281h34zM299 500h319l-116 436l-27 125h-4z" />
    <glyph glyph-name="amacron" unicode="&#x101;" horiz-adv-x="899" 
d="M676 1245q-140 8 -225 8q-86 0 -226 -8v88q99 -8 226 -8q129 0 225 8v-88zM854 340h27v-141q0 -114 -41 -162q-50 -57 -148 -57q-90 0 -131 71q-33 51 -33 156v33q-7 -29 -16.5 -57.5t-31.5 -67t-49.5 -67t-72.5 -48.5t-98 -20q-99 0 -158 72t-59 190q0 132 80 215
q58 58 155 92.5t250 66.5v129q0 130 -32 188t-101 58q-70 0 -106 -55q-21 -37 -21 -72q0 -80 76 -162q-12 -43 -48.5 -69.5t-82.5 -26.5q-61 0 -93 48.5t-32 117.5q0 124 92 196t232 72q155 0 246.5 -83.5t91.5 -268.5v-483q0 -63 8 -94q18 -35 43 -35q31 0 45 39q8 23 8 92
v133zM369 94q65 0 107 86.5t52 208.5v180q-133 -30 -198 -114q-56 -70 -56 -181q0 -79 25 -129.5t70 -50.5z" />
    <glyph glyph-name="Abreve" unicode="&#x102;" horiz-adv-x="1101" 
d="M551 1563q-80 0 -138.5 62t-68.5 167h23q28 -96 184 -96q154 0 180 96h25q-10 -104 -67 -166.5t-138 -62.5zM922 293q15 -48 23 -72t19.5 -55t21 -45t23 -31t29 -23.5t35.5 -12.5t47 -9v-45h-551v45q51 4 80.5 15.5t43 28t13 48.5t-7.5 64t-22 86q-1 4 -2 6l-41 149h-350
l-25 -80q-16 -51 -24.5 -80t-16.5 -64.5t-8.5 -54.5t2 -41t13.5 -33t28.5 -21.5t43 -15.5t60.5 -7v-45h-385v45q35 3 59.5 10t46 25.5t35 36.5t30.5 60t28.5 78t32.5 107l241 803l91 281h34zM299 500h319l-116 436l-27 125h-4z" />
    <glyph glyph-name="abreve" unicode="&#x103;" horiz-adv-x="899" 
d="M451 1225q-79 0 -138 77.5t-69 204.5h22q15 -66 64 -104.5t121 -38.5t119 38.5t61 104.5h24q-10 -126 -67 -204t-137 -78zM854 340h27v-141q0 -114 -41 -162q-50 -57 -148 -57q-90 0 -131 71q-33 51 -33 156v33q-7 -29 -16.5 -57.5t-31.5 -67t-49.5 -67t-72.5 -48.5
t-98 -20q-99 0 -158 72t-59 190q0 132 80 215q58 58 155 92.5t250 66.5v129q0 130 -32 188t-101 58q-70 0 -106 -55q-21 -37 -21 -72q0 -80 76 -162q-12 -43 -48.5 -69.5t-82.5 -26.5q-61 0 -93 48.5t-32 117.5q0 124 92 196t232 72q155 0 246.5 -83.5t91.5 -268.5v-483
q0 -63 8 -94q18 -35 43 -35q31 0 45 39q8 23 8 92v133zM369 94q65 0 107 86.5t52 208.5v180q-133 -30 -198 -114q-56 -70 -56 -181q0 -79 25 -129.5t70 -50.5z" />
    <glyph glyph-name="Aogonek" unicode="&#x104;" horiz-adv-x="1101" 
d="M1171 -254l19 -12q-35 -98 -91.5 -148.5t-119.5 -50.5q-61 0 -102 35.5t-41 103.5q0 31 14.5 65t30.5 58.5t52 59t54 50t62 51t53 42.5h-533v45q51 4 80.5 15.5t43 28t13 48.5t-7.5 64t-22 86q-1 4 -2 6l-41 149h-350l-25 -80q-16 -51 -24.5 -80t-16.5 -64.5t-8.5 -54.5
t2 -41t13.5 -33t28.5 -21.5t43 -15.5t60.5 -7v-45h-385v45q35 3 59.5 10t46 25.5t35 36.5t30.5 60t28.5 78t32.5 107l241 803l91 281h34l353 -1153q15 -48 23 -72t19.5 -55t21 -45t23 -31t29 -23.5t35.5 -12.5t47 -9v-45q-70 -71 -110.5 -157t-40.5 -144q0 -38 18.5 -63
t52.5 -25q33 0 67.5 32.5t63.5 102.5zM299 500h319l-116 436l-27 125h-4z" />
    <glyph glyph-name="aogonek" unicode="&#x105;" horiz-adv-x="899" 
d="M868 -231l19 -13q-35 -98 -91.5 -148t-119.5 -50q-61 0 -102.5 35.5t-41.5 103.5q0 40 19 80t59 81t67.5 65t78.5 65q-27 -8 -64 -8q-90 0 -131 71q-33 51 -33 156v33q-7 -29 -16.5 -57.5t-31.5 -67t-49.5 -67t-72.5 -48.5t-98 -20q-99 0 -158 72t-59 190q0 132 80 215
q58 58 155 92.5t250 66.5v129q0 130 -32 188t-101 58q-70 0 -106 -55q-21 -37 -21 -72q0 -80 76 -162q-12 -43 -48.5 -69.5t-82.5 -26.5q-61 0 -93 48.5t-32 117.5q0 124 92 196t232 72q155 0 246.5 -83.5t91.5 -268.5v-483q0 -63 8 -94q18 -35 43 -35q31 0 45 39q8 23 8 92
v133h27v-141q0 -114 -41 -162q-12 -15 -37 -29q-64 -69 -100.5 -150.5t-36.5 -136.5q0 -38 18.5 -63t52.5 -25q32 0 67 33t64 103zM369 94q65 0 107 86.5t52 208.5v180q-133 -30 -198 -114q-56 -70 -56 -181q0 -79 25 -129.5t70 -50.5z" />
    <glyph glyph-name="Cacute" unicode="&#x106;" horiz-adv-x="1050" 
d="M500 1563q114 125 127 276q30 12 67 12q40 0 63 -18.5t23 -48.5q0 -49 -71 -107t-187 -114h-22zM578 -20q-100 0 -193.5 51.5t-167 143.5t-118 233.5t-44.5 308.5q0 164 48.5 306t126.5 234.5t173.5 144.5t192.5 52q94 0 182 -51q23 -13 48.5 -33t41.5 -31.5t27 -11.5
q23 0 34 26.5t11 100.5h29l6 -575h-33q-5 87 -26.5 174t-60.5 167.5t-104 130.5t-147 50t-139 -52t-87.5 -150t-43 -213.5t-12.5 -268.5q0 -102 4.5 -183t15.5 -161t31 -138.5t50 -104.5t74 -69.5t101 -23.5q83 0 147.5 43t104.5 116.5t62.5 161t27.5 187.5h37
q-3 -77 -16.5 -151t-44 -150.5t-74 -133.5t-112 -93.5t-152.5 -36.5z" />
    <glyph glyph-name="cacute" unicode="&#x107;" horiz-adv-x="831" 
d="M324 1180q54 92 87.5 187.5t39.5 164.5q32 14 65 14q39 0 63.5 -22.5t24.5 -50.5q0 -52 -77.5 -139t-180.5 -154h-22zM444 -20q-181 0 -288 145t-107 385t112.5 385t307.5 145q130 0 218.5 -77.5t88.5 -210.5q0 -85 -36.5 -139t-96.5 -54q-40 0 -69.5 28t-41.5 72
q37 39 63 94.5t26 100.5q0 64 -39 100.5t-97 36.5q-192 0 -192 -481q0 -109 8.5 -187.5t31 -147t66.5 -103.5t109 -35q110 0 175.5 90.5t70.5 224.5h30q-2 -75 -23.5 -140t-61.5 -118t-105.5 -83.5t-149.5 -30.5z" />
    <glyph glyph-name="Ccircumflex" unicode="&#x108;" horiz-adv-x="1050" 
d="M369 1567q114 135 182 264h86q90 -162 180 -264h-26q-99 59 -222 166q-93 -101 -174 -166h-26zM578 -20q-100 0 -193.5 51.5t-167 143.5t-118 233.5t-44.5 308.5q0 164 48.5 306t126.5 234.5t173.5 144.5t192.5 52q94 0 182 -51q23 -13 48.5 -33t41.5 -31.5t27 -11.5
q23 0 34 26.5t11 100.5h29l6 -575h-33q-5 87 -26.5 174t-60.5 167.5t-104 130.5t-147 50t-139 -52t-87.5 -150t-43 -213.5t-12.5 -268.5q0 -102 4.5 -183t15.5 -161t31 -138.5t50 -104.5t74 -69.5t101 -23.5q83 0 147.5 43t104.5 116.5t62.5 161t27.5 187.5h37
q-3 -77 -16.5 -151t-44 -150.5t-74 -133.5t-112 -93.5t-152.5 -36.5z" />
    <glyph glyph-name="ccircumflex" unicode="&#x109;" horiz-adv-x="831" 
d="M244 1184q112 180 180 336h86q81 -188 180 -336h-28q-91 80 -220 227q-10 -14 -36 -50.5t-41.5 -58.5t-42.5 -55.5t-54 -62.5h-24zM444 -20q-181 0 -288 145t-107 385t112.5 385t307.5 145q130 0 218.5 -77.5t88.5 -210.5q0 -85 -36.5 -139t-96.5 -54q-40 0 -69.5 28
t-41.5 72q37 39 63 94.5t26 100.5q0 64 -39 100.5t-97 36.5q-192 0 -192 -481q0 -109 8.5 -187.5t31 -147t66.5 -103.5t109 -35q110 0 175.5 90.5t70.5 224.5h30q-2 -75 -23.5 -140t-61.5 -118t-105.5 -83.5t-149.5 -30.5z" />
    <glyph glyph-name="Cdotaccent" unicode="&#x10a;" horiz-adv-x="1050" 
d="M594 1567q-36 0 -63 30t-27 72t27 72.5t63 30.5t62 -30.5t26 -72.5q0 -43 -25.5 -72.5t-62.5 -29.5zM578 -20q-100 0 -193.5 51.5t-167 143.5t-118 233.5t-44.5 308.5q0 164 48.5 306t126.5 234.5t173.5 144.5t192.5 52q94 0 182 -51q23 -13 48.5 -33t41.5 -31.5
t27 -11.5q23 0 34 26.5t11 100.5h29l6 -575h-33q-5 87 -26.5 174t-60.5 167.5t-104 130.5t-147 50t-139 -52t-87.5 -150t-43 -213.5t-12.5 -268.5q0 -102 4.5 -183t15.5 -161t31 -138.5t50 -104.5t74 -69.5t101 -23.5q83 0 147.5 43t104.5 116.5t62.5 161t27.5 187.5h37
q-3 -77 -16.5 -151t-44 -150.5t-74 -133.5t-112 -93.5t-152.5 -36.5z" />
    <glyph glyph-name="cdotaccent" unicode="&#x10b;" horiz-adv-x="831" 
d="M465 1239q-36 0 -63 29.5t-27 72.5q0 41 27.5 72t62.5 31q36 0 62 -30.5t26 -72.5q0 -43 -26 -72.5t-62 -29.5zM444 -20q-181 0 -288 145t-107 385t112.5 385t307.5 145q130 0 218.5 -77.5t88.5 -210.5q0 -85 -36.5 -139t-96.5 -54q-40 0 -69.5 28t-41.5 72
q37 39 63 94.5t26 100.5q0 64 -39 100.5t-97 36.5q-192 0 -192 -481q0 -109 8.5 -187.5t31 -147t66.5 -103.5t109 -35q110 0 175.5 90.5t70.5 224.5h30q-2 -75 -23.5 -140t-61.5 -118t-105.5 -83.5t-149.5 -30.5z" />
    <glyph glyph-name="Ccaron" unicode="&#x10c;" horiz-adv-x="1050" 
d="M549 1567q-86 158 -180 264h26q94 -55 221 -166q67 75 175 166h26q-109 -131 -182 -264h-86zM578 -20q-100 0 -193.5 51.5t-167 143.5t-118 233.5t-44.5 308.5q0 164 48.5 306t126.5 234.5t173.5 144.5t192.5 52q94 0 182 -51q23 -13 48.5 -33t41.5 -31.5t27 -11.5
q23 0 34 26.5t11 100.5h29l6 -575h-33q-5 87 -26.5 174t-60.5 167.5t-104 130.5t-147 50t-139 -52t-87.5 -150t-43 -213.5t-12.5 -268.5q0 -102 4.5 -183t15.5 -161t31 -138.5t50 -104.5t74 -69.5t101 -23.5q83 0 147.5 43t104.5 116.5t62.5 161t27.5 187.5h37
q-3 -77 -16.5 -151t-44 -150.5t-74 -133.5t-112 -93.5t-152.5 -36.5z" />
    <glyph glyph-name="ccaron" unicode="&#x10d;" horiz-adv-x="831" 
d="M422 1184q-76 179 -178 336h24q99 -89 221 -228q96 140 173 228h28q-114 -178 -182 -336h-86zM444 -20q-181 0 -288 145t-107 385t112.5 385t307.5 145q130 0 218.5 -77.5t88.5 -210.5q0 -85 -36.5 -139t-96.5 -54q-40 0 -69.5 28t-41.5 72q37 39 63 94.5t26 100.5
q0 64 -39 100.5t-97 36.5q-192 0 -192 -481q0 -109 8.5 -187.5t31 -147t66.5 -103.5t109 -35q110 0 175.5 90.5t70.5 224.5h30q-2 -75 -23.5 -140t-61.5 -118t-105.5 -83.5t-149.5 -30.5z" />
    <glyph glyph-name="Dcaron" unicode="&#x10e;" horiz-adv-x="1157" 
d="M473 1567q-86 158 -180 264h26q97 -57 222 -166q70 78 174 166h26q-109 -131 -182 -264h-86zM43 0v45q24 1 41.5 3.5t31 9.5t22 12.5t14.5 20.5t9 25t5 34.5t2 40.5v51v950v51t-2 40.5t-5 34.5t-9 25t-14.5 20.5t-22 12.5t-31 9.5t-41.5 3.5v45h510q104 0 202 -49.5
t175 -138.5t123.5 -227t46.5 -302q0 -132 -30.5 -248t-83.5 -200.5t-123 -146t-149.5 -92t-162.5 -30.5h-508zM494 53h61q75 0 129 45t86.5 133t48 208t15.5 278t-15 278t-47.5 207.5t-86.5 132.5t-128 45h-63q-52 0 -69 -27.5t-17 -107.5v-1057q0 -30 1 -46t5.5 -36
t13 -29.5t25 -16.5t41.5 -7z" />
    <glyph glyph-name="dcaron" unicode="&#x10f;" horiz-adv-x="1294" 
d="M825 219q0 -43 0.5 -62t3 -44t7 -34t14.5 -19t24 -12.5t35 -2.5v-45h-288l-13 16v222q-30 -132 -88 -195t-147 -63q-150 0 -236 139.5t-86 363.5q0 152 38.5 276t120 202.5t193.5 78.5q150 0 203 -143l-4 379q-2 88 -14 116q-24 54 -107 50v47l338 12l12 -12l-6 -238
v-1032zM1264 1450q54 0 86 -44.5t32 -111.5q0 -85 -50.5 -167t-143.5 -142l-17 23q73 54 105.5 116.5t9.5 94.5q-5 15 -26.5 26.5t-44 19t-40.5 29.5t-18 56q0 43 30.5 71.5t76.5 28.5zM432 39q54 0 99.5 76.5t70.5 226.5v324q0 138 -39.5 227.5t-109.5 89.5q-27 0 -49 -12
t-43.5 -45t-35.5 -87t-23 -144t-9 -210q0 -446 139 -446z" />
    <glyph glyph-name="Dcroat" unicode="&#x110;" horiz-adv-x="1159" 
d="M555 1434q104 0 202 -49.5t175 -138.5t123.5 -227t46.5 -302q0 -132 -30.5 -248t-83.5 -200.5t-123 -146t-149.5 -92t-162.5 -30.5h-508v45q24 1 41.5 3.5t31 9.5t22 12.5t14.5 20.5t9 25t5 34.5t2 40.5v51v446h-119v57h119v447v51t-2 40.5t-5 34.5t-9 25t-14.5 20.5
t-22 12.5t-31 9.5t-41.5 3.5v45h510zM557 53q75 0 129 45t86.5 133t48 208t15.5 278t-15.5 278t-48 207.5t-86.5 132.5t-129 45h-61q-52 0 -69 -27.5t-17 -107.5v-500h202v-57h-202v-500q0 -30 1 -46t5.5 -36t13 -29.5t25 -16.5t41.5 -7h61z" />
    <glyph glyph-name="dcroat" unicode="&#x111;" horiz-adv-x="946" 
d="M825 219q0 -43 0.5 -62t3 -44t7 -34t14.5 -19t24 -12.5t35 -2.5v-45h-286l-15 16v222q-30 -132 -88 -195t-147 -63q-150 0 -236 139.5t-86 363.5q0 152 38.5 276t120 202.5t193.5 78.5q150 0 203 -143l-4 287h-213v55h213v37q-1 30 -1 39.5t-2.5 34t-7 33t-13.5 24.5
t-22 21.5t-33 10t-46 3.5v47l340 12l14 -12l-6 -250h82v-55h-82v-965zM432 39q54 0 99.5 76.5t70.5 226.5v324q0 138 -39.5 227.5t-109.5 89.5q-27 0 -49 -12t-43.5 -45t-35.5 -87t-23 -144t-9 -210q0 -446 139 -446z" />
    <glyph glyph-name="Emacron" unicode="&#x112;" horiz-adv-x="1046" 
d="M750 1573q-104 8 -226 8q-121 0 -225 -8v82q136 -8 225 -8q90 0 226 8v-82zM926 559h30l-8 -559h-905v45q24 1 41.5 3.5t31 9.5t22 12.5t14.5 20.5t9 25t5 34.5t2 40.5v51v946q0 40 -0.5 57.5t-2.5 44t-7 37t-13.5 24.5t-22 19.5t-33 10t-46.5 5.5v48h891l8 -486h-35
q-10 218 -85 323t-191 105h-125q-67 0 -82.5 -31t-15.5 -151v-410h84q132 0 176.5 58.5t50.5 234.5h31v-645h-31q-6 178 -50 236.5t-177 58.5h-84v-489v-49t1.5 -38.5t4 -32.5t7 -23t11.5 -18.5t17.5 -10.5t24 -7.5t32.5 -1.5h96q301 0 324 502z" />
    <glyph glyph-name="emacron" unicode="&#x113;" horiz-adv-x="841" 
d="M649 1245q-140 8 -225 8t-225 -8v88q99 -8 225 -8q129 0 225 8v-88zM762 342h31q-2 -71 -23 -134t-61 -115t-105.5 -82.5t-148.5 -30.5q-184 0 -295 145t-111 385q0 243 110 386.5t277 143.5q177 0 266 -132t89 -373h-498v-25q0 -107 9 -186t32.5 -147.5t69 -104
t112.5 -35.5q110 0 175.5 88t70.5 217zM436 991q-131 0 -143 -407h262q1 94 -3 161.5t-16.5 126.5t-37 89t-62.5 30z" />
    <glyph glyph-name="Ebreve" unicode="&#x114;" horiz-adv-x="1046" 
d="M524 1563q-80 0 -138.5 62t-68.5 167h23q28 -96 184 -96q155 0 181 96h24q-10 -104 -67 -166.5t-138 -62.5zM926 559h30l-8 -559h-905v45q24 1 41.5 3.5t31 9.5t22 12.5t14.5 20.5t9 25t5 34.5t2 40.5v51v946q0 40 -0.5 57.5t-2.5 44t-7 37t-13.5 24.5t-22 19.5t-33 10
t-46.5 5.5v48h891l8 -486h-35q-10 218 -85 323t-191 105h-125q-67 0 -82.5 -31t-15.5 -151v-410h84q132 0 176.5 58.5t50.5 234.5h31v-645h-31q-6 178 -50 236.5t-177 58.5h-84v-489v-49t1.5 -38.5t4 -32.5t7 -23t11.5 -18.5t17.5 -10.5t24 -7.5t32.5 -1.5h96q301 0 324 502
z" />
    <glyph glyph-name="ebreve" unicode="&#x115;" horiz-adv-x="841" 
d="M424 1225q-79 0 -138 77.5t-69 204.5h23q15 -66 63.5 -104.5t120.5 -38.5t119 38.5t61 104.5h25q-10 -125 -67.5 -203.5t-137.5 -78.5zM762 342h31q-2 -71 -23 -134t-61 -115t-105.5 -82.5t-148.5 -30.5q-184 0 -295 145t-111 385q0 243 110 386.5t277 143.5
q177 0 266 -132t89 -373h-498v-25q0 -107 9 -186t32.5 -147.5t69 -104t112.5 -35.5q110 0 175.5 88t70.5 217zM436 991q-131 0 -143 -407h262q1 94 -3 161.5t-16.5 126.5t-37 89t-62.5 30z" />
    <glyph glyph-name="Edotaccent" unicode="&#x116;" horiz-adv-x="1046" 
d="M524 1567q-36 0 -63 30t-27 72t27 72.5t63 30.5t62 -30.5t26 -72.5q0 -43 -25.5 -72.5t-62.5 -29.5zM926 559h30l-8 -559h-905v45q24 1 41.5 3.5t31 9.5t22 12.5t14.5 20.5t9 25t5 34.5t2 40.5v51v946q0 40 -0.5 57.5t-2.5 44t-7 37t-13.5 24.5t-22 19.5t-33 10
t-46.5 5.5v48h891l8 -486h-35q-10 218 -85 323t-191 105h-125q-67 0 -82.5 -31t-15.5 -151v-410h84q132 0 176.5 58.5t50.5 234.5h31v-645h-31q-6 178 -50 236.5t-177 58.5h-84v-489v-49t1.5 -38.5t4 -32.5t7 -23t11.5 -18.5t17.5 -10.5t24 -7.5t32.5 -1.5h96q301 0 324 502
z" />
    <glyph glyph-name="edotaccent" unicode="&#x117;" horiz-adv-x="841" 
d="M424 1239q-36 0 -63 29.5t-27 72.5q0 41 27.5 72t62.5 31q36 0 62 -30.5t26 -72.5q0 -43 -26 -72.5t-62 -29.5zM762 342h31q-2 -71 -23 -134t-61 -115t-105.5 -82.5t-148.5 -30.5q-184 0 -295 145t-111 385q0 243 110 386.5t277 143.5q177 0 266 -132t89 -373h-498v-25
q0 -107 9 -186t32.5 -147.5t69 -104t112.5 -35.5q110 0 175.5 88t70.5 217zM436 991q-131 0 -143 -407h262q1 94 -3 161.5t-16.5 126.5t-37 89t-62.5 30z" />
    <glyph glyph-name="Eogonek" unicode="&#x118;" horiz-adv-x="1046" 
d="M1001 -254l19 -12q-35 -98 -91.5 -148.5t-119.5 -50.5q-61 0 -102 35.5t-41 103.5q0 31 14.5 65t30.5 58.5t52 59t54 50t62 51t53 42.5h-889v45q24 1 41.5 3.5t31 9.5t22 12.5t14.5 20.5t9 25t5 34.5t2 40.5v51v946q0 40 -0.5 57.5t-2.5 44t-7 37t-13.5 24.5t-22 19.5
t-33 10t-46.5 5.5v48h891l8 -486h-35q-10 218 -85 323t-191 105h-125q-67 0 -82.5 -31t-15.5 -151v-410h84q132 0 176.5 58.5t50.5 234.5h31v-645h-31q-6 178 -50 236.5t-177 58.5h-84v-489v-49t1.5 -38.5t4 -32.5t7 -23t11.5 -18.5t17.5 -10.5t24 -7.5t32.5 -1.5h96
q301 0 324 502h30l-8 -559h2q-70 -71 -110.5 -157t-40.5 -144q0 -38 18.5 -63t52.5 -25q33 0 67.5 32.5t63.5 102.5z" />
    <glyph glyph-name="eogonek" unicode="&#x119;" horiz-adv-x="841" 
d="M573 -334q33 0 68 32.5t64 102.5l18 -12q-35 -98 -91.5 -148.5t-119.5 -50.5q-61 0 -102 36t-41 104q0 67 51 130t137 134q-43 -14 -102 -14q-184 0 -295 145t-111 385q0 243 110 386.5t277 143.5q177 0 266 -132t89 -373h-498v-25q0 -107 9 -186t32.5 -147.5t69 -104
t112.5 -35.5q110 0 175.5 88t70.5 217h31q-3 -104 -46.5 -191.5t-125.5 -132.5q-56 -66 -87.5 -139.5t-31.5 -124.5q0 -38 18.5 -63t52.5 -25zM436 991q-131 0 -143 -407h262q1 94 -3 161.5t-16.5 126.5t-37 89t-62.5 30z" />
    <glyph glyph-name="Ecaron" unicode="&#x11a;" horiz-adv-x="1046" 
d="M567 1567h-86q-86 158 -180 264h27q94 -55 221 -166q70 78 174 166h27q-112 -134 -183 -264zM926 559h30l-8 -559h-905v45q24 1 41.5 3.5t31 9.5t22 12.5t14.5 20.5t9 25t5 34.5t2 40.5v51v946q0 40 -0.5 57.5t-2.5 44t-7 37t-13.5 24.5t-22 19.5t-33 10t-46.5 5.5v48
h891l8 -486h-35q-10 218 -85 323t-191 105h-125q-67 0 -82.5 -31t-15.5 -151v-410h84q132 0 176.5 58.5t50.5 234.5h31v-645h-31q-6 178 -50 236.5t-177 58.5h-84v-489v-49t1.5 -38.5t4 -32.5t7 -23t11.5 -18.5t17.5 -10.5t24 -7.5t32.5 -1.5h96q301 0 324 502z" />
    <glyph glyph-name="ecaron" unicode="&#x11b;" horiz-adv-x="841" 
d="M467 1184h-86q-76 179 -178 336h24q104 -94 222 -228q100 146 172 228h28q-114 -178 -182 -336zM762 342h31q-2 -71 -23 -134t-61 -115t-105.5 -82.5t-148.5 -30.5q-184 0 -295 145t-111 385q0 243 110 386.5t277 143.5q177 0 266 -132t89 -373h-498v-25q0 -107 9 -186
t32.5 -147.5t69 -104t112.5 -35.5q110 0 175.5 88t70.5 217zM436 991q-131 0 -143 -407h262q1 94 -3 161.5t-16.5 126.5t-37 89t-62.5 30z" />
    <glyph glyph-name="Gcircumflex" unicode="&#x11c;" horiz-adv-x="1126" 
d="M365 1567q114 135 182 264h86q90 -162 180 -264h-27q-96 57 -221 166q-93 -101 -174 -166h-26zM553 -20q-73 0 -145 32t-135.5 95.5t-112 150.5t-77 206t-28.5 253q0 164 48.5 306t126.5 234.5t173.5 144.5t192.5 52q98 0 180 -51q20 -12 47.5 -33t45 -32t30.5 -11
q21 0 31.5 26.5t11.5 100.5h27l8 -575h-35q-3 68 -16.5 137.5t-40.5 139.5t-64.5 124t-94 87.5t-122.5 33.5q-82 0 -138.5 -52t-87 -149.5t-43.5 -214t-13 -268.5q0 -126 6 -223t21.5 -186.5t41.5 -147.5t68.5 -92.5t99.5 -34.5q99 0 154 89.5t55 231.5v131q0 29 -0.5 42.5
t-2 34.5t-5.5 29.5t-11.5 22t-18.5 19t-27 12t-38 9t-51 3.5v43h486v-43q-22 -1 -38 -3.5t-28.5 -9t-20.5 -12t-13.5 -19t-8.5 -22t-4.5 -29.5t-1.5 -34.5v-42.5v-200l2 -305h-29l-118 266q-25 -57 -51.5 -101t-61.5 -83.5t-79 -60.5t-95 -21z" />
    <glyph glyph-name="gcircumflex" unicode="&#x11d;" horiz-adv-x="858" 
d="M444 1440q-5 -7 -23 -33.5t-26 -38t-25.5 -35.5t-30 -40t-31 -37.5t-36.5 -41.5h-26q112 180 180 336h86q81 -188 180 -336h-28q-95 83 -220 226zM788 766q-54 0 -69 59q37 57 37 103q0 28 -11.5 45.5t-31.5 17.5q-25 0 -45 -26t-21 -68q45 -77 45 -195
q0 -157 -82 -248.5t-237 -91.5h-121q-44 0 -70 -23t-26 -60q0 -72 73 -72h314q130 0 195 -68t65 -223q0 -184 -114.5 -279.5t-340.5 -95.5q-180 0 -271 72t-91 174q0 53 16 95t63.5 77.5t124.5 44.5v4q-69 16 -99 69t-30 118q0 80 47.5 138t137.5 58h8v2q-97 25 -147 104
t-50 205q0 156 81.5 247t234.5 91q176 0 256 -116q6 54 36 87t83 33q59 0 94 -45t35 -110q0 -52 -24 -87.5t-65 -35.5zM373 412q58 0 84 71.5t26 218.5q0 291 -110 291q-107 0 -107 -291q0 -290 107 -290zM580 -16h-322q-75 0 -126.5 -44t-51.5 -141q0 -106 74 -156.5
t194 -50.5q173 0 278 66.5t105 191.5q0 45 -12 73.5t-36 41t-46.5 16t-56.5 3.5z" />
    <glyph glyph-name="Gbreve" unicode="&#x11e;" horiz-adv-x="1126" 
d="M588 1563q-80 0 -138.5 62t-68.5 167h22q28 -96 185 -96q154 0 180 96h25q-10 -104 -67 -166.5t-138 -62.5zM553 -20q-73 0 -145 32t-135.5 95.5t-112 150.5t-77 206t-28.5 253q0 164 48.5 306t126.5 234.5t173.5 144.5t192.5 52q98 0 180 -51q20 -12 47.5 -33t45 -32
t30.5 -11q21 0 31.5 26.5t11.5 100.5h27l8 -575h-35q-3 68 -16.5 137.5t-40.5 139.5t-64.5 124t-94 87.5t-122.5 33.5q-82 0 -138.5 -52t-87 -149.5t-43.5 -214t-13 -268.5q0 -126 6 -223t21.5 -186.5t41.5 -147.5t68.5 -92.5t99.5 -34.5q99 0 154 89.5t55 231.5v131
q0 29 -0.5 42.5t-2 34.5t-5.5 29.5t-11.5 22t-18.5 19t-27 12t-38 9t-51 3.5v43h486v-43q-22 -1 -38 -3.5t-28.5 -9t-20.5 -12t-13.5 -19t-8.5 -22t-4.5 -29.5t-1.5 -34.5v-42.5v-200l2 -305h-29l-118 266q-25 -57 -51.5 -101t-61.5 -83.5t-79 -60.5t-95 -21z" />
    <glyph glyph-name="gbreve" unicode="&#x11f;" horiz-adv-x="858" 
d="M377 1225q-79 0 -138 77.5t-69 204.5h23q15 -66 63.5 -104.5t120.5 -38.5t119 38.5t61 104.5h25q-10 -125 -67.5 -203.5t-137.5 -78.5zM788 766q-54 0 -69 59q37 57 37 103q0 28 -11.5 45.5t-31.5 17.5q-25 0 -45 -26t-21 -68q45 -77 45 -195q0 -157 -82 -248.5
t-237 -91.5h-121q-44 0 -70 -23t-26 -60q0 -72 73 -72h314q130 0 195 -68t65 -223q0 -184 -114.5 -279.5t-340.5 -95.5q-180 0 -271 72t-91 174q0 53 16 95t63.5 77.5t124.5 44.5v4q-69 16 -99 69t-30 118q0 80 47.5 138t137.5 58h8v2q-97 25 -147 104t-50 205
q0 156 81.5 247t234.5 91q176 0 256 -116q6 54 36 87t83 33q59 0 94 -45t35 -110q0 -52 -24 -87.5t-65 -35.5zM373 412q58 0 84 71.5t26 218.5q0 291 -110 291q-107 0 -107 -291q0 -290 107 -290zM580 -16h-322q-75 0 -126.5 -44t-51.5 -141q0 -106 74 -156.5t194 -50.5
q173 0 278 66.5t105 191.5q0 45 -12 73.5t-36 41t-46.5 16t-56.5 3.5z" />
    <glyph glyph-name="Gdotaccent" unicode="&#x120;" horiz-adv-x="1126" 
d="M588 1567q-36 0 -63 30t-27 72t27 72.5t63 30.5t62 -30.5t26 -72.5q0 -43 -25.5 -72.5t-62.5 -29.5zM553 -20q-73 0 -145 32t-135.5 95.5t-112 150.5t-77 206t-28.5 253q0 164 48.5 306t126.5 234.5t173.5 144.5t192.5 52q98 0 180 -51q20 -12 47.5 -33t45 -32t30.5 -11
q21 0 31.5 26.5t11.5 100.5h27l8 -575h-35q-3 68 -16.5 137.5t-40.5 139.5t-64.5 124t-94 87.5t-122.5 33.5q-82 0 -138.5 -52t-87 -149.5t-43.5 -214t-13 -268.5q0 -126 6 -223t21.5 -186.5t41.5 -147.5t68.5 -92.5t99.5 -34.5q99 0 154 89.5t55 231.5v131q0 29 -0.5 42.5
t-2 34.5t-5.5 29.5t-11.5 22t-18.5 19t-27 12t-38 9t-51 3.5v43h486v-43q-22 -1 -38 -3.5t-28.5 -9t-20.5 -12t-13.5 -19t-8.5 -22t-4.5 -29.5t-1.5 -34.5v-42.5v-200l2 -305h-29l-118 266q-25 -57 -51.5 -101t-61.5 -83.5t-79 -60.5t-95 -21z" />
    <glyph glyph-name="gdotaccent" unicode="&#x121;" horiz-adv-x="858" 
d="M377 1239q-36 0 -63 29.5t-27 72.5q0 41 27.5 72t62.5 31q36 0 62 -30.5t26 -72.5q0 -43 -26 -72.5t-62 -29.5zM788 766q-54 0 -69 59q37 57 37 103q0 28 -11.5 45.5t-31.5 17.5q-25 0 -45 -26t-21 -68q45 -77 45 -195q0 -157 -82 -248.5t-237 -91.5h-121q-44 0 -70 -23
t-26 -60q0 -72 73 -72h314q130 0 195 -68t65 -223q0 -184 -114.5 -279.5t-340.5 -95.5q-180 0 -271 72t-91 174q0 53 16 95t63.5 77.5t124.5 44.5v4q-69 16 -99 69t-30 118q0 80 47.5 138t137.5 58h8v2q-97 25 -147 104t-50 205q0 156 81.5 247t234.5 91q176 0 256 -116
q6 54 36 87t83 33q59 0 94 -45t35 -110q0 -52 -24 -87.5t-65 -35.5zM373 412q58 0 84 71.5t26 218.5q0 291 -110 291q-107 0 -107 -291q0 -290 107 -290zM580 -16h-322q-75 0 -126.5 -44t-51.5 -141q0 -106 74 -156.5t194 -50.5q173 0 278 66.5t105 191.5q0 45 -12 73.5
t-36 41t-46.5 16t-56.5 3.5z" />
    <glyph glyph-name="uni0122" unicode="&#x122;" horiz-adv-x="1126" 
d="M553 -20q-73 0 -145 32t-135.5 95.5t-112 150.5t-77 206t-28.5 253q0 164 48.5 306t126.5 234.5t173.5 144.5t192.5 52q98 0 180 -51q20 -12 47.5 -33t45 -32t30.5 -11q21 0 31.5 26.5t11.5 100.5h27l8 -575h-35q-3 68 -16.5 137.5t-40.5 139.5t-64.5 124t-94 87.5
t-122.5 33.5q-82 0 -138.5 -52t-87 -149.5t-43.5 -214t-13 -268.5q0 -126 6 -223t21.5 -186.5t41.5 -147.5t68.5 -92.5t99.5 -34.5q99 0 154 89.5t55 231.5v131q0 29 -0.5 42.5t-2 34.5t-5.5 29.5t-11.5 22t-18.5 19t-27 12t-38 9t-51 3.5v43h486v-43q-22 -1 -38 -3.5
t-28.5 -9t-20.5 -12t-13.5 -19t-8.5 -22t-4.5 -29.5t-1.5 -34.5v-42.5v-200l2 -305h-29l-118 266q-25 -57 -51.5 -101t-61.5 -83.5t-79 -60.5t-95 -21zM498 -508l-13 25q46 39 72.5 84.5t26.5 83.5q0 30 -43 49q-3 2 -14 7t-15.5 7.5t-13 10t-12.5 15t-7.5 20t-3.5 28.5
q0 39 25 65.5t59 26.5q42 0 69 -41.5t27 -101.5q0 -74 -41.5 -147t-115.5 -132z" />
    <glyph glyph-name="uni0123" unicode="&#x123;" horiz-adv-x="858" 
d="M514 1180q-42 0 -69 41.5t-27 99.5q0 75 41.5 148.5t115.5 132.5l15 -25q-55 -49 -81.5 -109t-10.5 -86q4 -15 30 -25.5t48 -30t22 -56.5q0 -38 -25 -64t-59 -26zM788 766q-54 0 -69 59q37 57 37 103q0 28 -11.5 45.5t-31.5 17.5q-25 0 -45 -26t-21 -68q45 -77 45 -195
q0 -157 -82 -248.5t-237 -91.5h-121q-44 0 -70 -23t-26 -60q0 -72 73 -72h314q130 0 195 -68t65 -223q0 -184 -114.5 -279.5t-340.5 -95.5q-180 0 -271 72t-91 174q0 53 16 95t63.5 77.5t124.5 44.5v4q-69 16 -99 69t-30 118q0 80 47.5 138t137.5 58h8v2q-97 25 -147 104
t-50 205q0 156 81.5 247t234.5 91q176 0 256 -116q6 54 36 87t83 33q59 0 94 -45t35 -110q0 -52 -24 -87.5t-65 -35.5zM373 412q58 0 84 71.5t26 218.5q0 291 -110 291q-107 0 -107 -291q0 -290 107 -290zM580 -16h-322q-75 0 -126.5 -44t-51.5 -141q0 -106 74 -156.5
t194 -50.5q173 0 278 66.5t105 191.5q0 45 -12 73.5t-36 41t-46.5 16t-56.5 3.5z" />
    <glyph glyph-name="Hcircumflex" unicode="&#x124;" horiz-adv-x="1234" 
d="M596 1733q-93 -101 -174 -166h-27q117 138 183 264h86q90 -162 180 -264h-27q-96 57 -221 166zM1190 1389q-26 -1 -44.5 -5.5t-32 -10t-22 -19.5t-13 -24.5t-6.5 -36.5t-2.5 -44t-0.5 -57v-950v-51t1.5 -40.5t4.5 -34.5t9 -25t14.5 -20.5t21.5 -12.5t30 -9.5t40 -3.5v-45
h-481v45q20 1 36 4t28 6t21 11.5t15 14t10 21.5t6 24.5t3 32.5t1 37v46v481h-421v-481v-41.5t1 -34.5t2 -31t4 -24t7.5 -21t11 -15t14.5 -13t20 -8t26 -6.5t32 -2.5v-45h-483v45q24 1 41.5 3.5t31 9.5t22 12.5t14.5 20.5t9 25t5 34.5t2 40.5v51v950q0 39 -0.5 57t-2.5 44
t-7 36.5t-13.5 24.5t-22 19.5t-33 10t-46.5 5.5v45h483v-45q-20 -1 -35 -4t-27.5 -6t-21 -11.5l-14.5 -14.5t-9.5 -21t-6 -24t-3.5 -31.5t-1 -36.5v-44v-4v-412h421v412v45t-1 37t-3 32.5t-6 24.5t-10 21.5t-15 14.5t-21 12t-28 6t-36 4v45h481v-45z" />
    <glyph glyph-name="hcircumflex" unicode="&#x125;" horiz-adv-x="976" 
d="M203 1835q-93 -101 -174 -166h-27q114 135 182 264h86q88 -159 181 -264h-27q-96 57 -221 166zM864 219q0 -43 0.5 -62t3 -44t7 -34t14.5 -19t24 -12.5t35 -2.5v-45h-391v45q21 0 35 2.5t24 12.5t14.5 19t7 34t3 44t0.5 62v520q0 101 -21 153t-75 52q-57 0 -109.5 -72
t-95.5 -208v-445q0 -113 12.5 -143.5t73.5 -30.5v-45h-393v45q21 0 35 2.5t24 12.5t14.5 19t7 34t3 44t0.5 62v1049q0 30 -0.5 45.5t-3 40t-8 37.5t-15 26.5t-25.5 19t-38 5.5v47l307 12l12 -12l-6 -262l-6 -477q48 134 127.5 212t175.5 78q104 0 165.5 -88.5t61.5 -246.5
v-486z" />
    <glyph glyph-name="Hbar" unicode="&#x126;" horiz-adv-x="1245" 
d="M1188 1389q-22 -1 -38 -3.5t-28.5 -10t-20.5 -13t-13.5 -20.5t-8.5 -25t-4.5 -34.5t-1.5 -40v-50.5v-82h101v-59h-101v-809v-51t1.5 -40.5t4.5 -34.5t8.5 -25t13.5 -20.5t20.5 -12.5t28.5 -9.5t38 -3.5v-45h-473v45q18 1 32 2.5t25 6.5t19.5 8t15 13t10.5 15t7 21t4 24
t2 31t1 34.5v41.5v481h-419v-481v-41.5t1 -34.5t2 -31t4 -24t7.5 -21t11 -15t14.5 -13t20 -8t26 -6.5t32 -2.5v-45h-473v45q22 1 38 3.5t28.5 9.5t20.5 12.5t13.5 20.5t8.5 25t4.5 34.5t1.5 40.5v51v809h-102v59h102v82v50.5t-1.5 40t-4.5 34.5t-8.5 25t-13.5 20.5t-20.5 13
t-28.5 10t-38 3.5v45h473v-45q-20 -1 -35 -4t-27.5 -6t-21 -11.5l-14.5 -14.5t-9.5 -21t-6 -24t-3.5 -31.5t-1 -36.5v-44v-4v-82h419v82v50.5t-1.5 40t-4.5 34.5t-8.5 25t-13.5 21t-20.5 12.5t-29 10t-38.5 3.5v45h473v-45zM831 780v271h-419v-271h419z" />
    <glyph glyph-name="hbar" unicode="&#x127;" horiz-adv-x="976" 
d="M864 219q0 -43 0.5 -62t3 -44t7 -34t14.5 -19t24 -12.5t35 -2.5v-45h-391v45q21 0 35 2.5t24 12.5t14.5 19t7 34t3 44t0.5 62v520q0 101 -21 153t-75 52q-57 0 -109.5 -72t-95.5 -208v-445q0 -113 12.5 -143.5t73.5 -30.5v-45h-393v45q21 0 35 2.5t24 12.5t14.5 19t7 34
t3 44t0.5 62v971h-84v55h84v23q0 30 -0.5 45.5t-3 40t-8 37.5t-15 26.5t-25.5 19t-38 5.5v47l307 12l12 -12l-6 -244h268v-55h-268l-6 -440q48 134 127.5 212t175.5 78q104 0 165.5 -88.5t61.5 -246.5v-486z" />
    <glyph glyph-name="Itilde" unicode="&#x128;" horiz-adv-x="573" 
d="M375 1567q-41 0 -110 43t-97 43q-56 0 -64 -84h-20q3 209 117 209q34 0 71 -22t71.5 -44t62.5 -22q58 0 65 84h23q-7 -207 -119 -207zM45 0v45q26 1 44.5 5.5t32 10t22 19.5t13 24.5t6.5 36.5t2.5 44t0.5 57v950q0 39 -0.5 57t-2.5 44t-6.5 36.5t-13 24.5t-22 19.5
t-32 10t-44.5 5.5v45h483v-45q-23 -1 -40.5 -3.5t-30.5 -10t-21.5 -12.5t-14.5 -21t-9 -25t-4.5 -34.5t-1.5 -40v-50.5v-950v-50.5t1.5 -40t4.5 -34.5t9 -25t14.5 -21t21.5 -12.5t30.5 -10t40.5 -3.5v-45h-483z" />
    <glyph glyph-name="itilde" unicode="&#x129;" horiz-adv-x="475" 
d="M315 1247q-37 0 -94.5 43t-83.5 43q-18 0 -32 -19.5t-17 -64.5h-22q3 209 98 209q36 0 93 -43t85 -43q18 0 32 19.5t17 64.5h25q-6 -209 -101 -209zM45 0v45q61 0 73.5 30t12.5 144v582q0 30 -0.5 45.5t-3 40t-8.5 37t-16.5 26.5t-27.5 19t-40 4v47l311 12l14 -12
l-6 -297v-504q0 -114 12 -144t72 -30v-45h-393z" />
    <glyph glyph-name="Imacron" unicode="&#x12a;" horiz-adv-x="573" 
d="M63 1573v82q136 -8 226 -8q89 0 225 8v-82q-104 8 -225 8q-122 0 -226 -8zM45 0v45q26 1 44.5 5.5t32 10t22 19.5t13 24.5t6.5 36.5t2.5 44t0.5 57v950q0 39 -0.5 57t-2.5 44t-6.5 36.5t-13 24.5t-22 19.5t-32 10t-44.5 5.5v45h483v-45q-23 -1 -40.5 -3.5t-30.5 -10
t-21.5 -12.5t-14.5 -21t-9 -25t-4.5 -34.5t-1.5 -40v-50.5v-950v-50.5t1.5 -40t4.5 -34.5t9 -25t14.5 -21t21.5 -12.5t30.5 -10t40.5 -3.5v-45h-483z" />
    <glyph glyph-name="imacron" unicode="&#x12b;" horiz-adv-x="475" 
d="M76 1245v88q68 -8 164 -8q95 0 163 8v-88q-102 8 -163 8q-62 0 -164 -8zM45 0v45q61 0 73.5 30t12.5 144v582q0 30 -0.5 45.5t-3 40t-8.5 37t-16.5 26.5t-27.5 19t-40 4v47l311 12l14 -12l-6 -297v-504q0 -114 12 -144t72 -30v-45h-393z" />
    <glyph glyph-name="Ibreve" unicode="&#x12c;" horiz-adv-x="573" 
d="M289 1563q-80 0 -138.5 62t-68.5 167h22q28 -96 185 -96q154 0 180 96h25q-10 -104 -67 -166.5t-138 -62.5zM45 0v45q26 1 44.5 5.5t32 10t22 19.5t13 24.5t6.5 36.5t2.5 44t0.5 57v950q0 39 -0.5 57t-2.5 44t-6.5 36.5t-13 24.5t-22 19.5t-32 10t-44.5 5.5v45h483v-45
q-23 -1 -40.5 -3.5t-30.5 -10t-21.5 -12.5t-14.5 -21t-9 -25t-4.5 -34.5t-1.5 -40v-50.5v-950v-50.5t1.5 -40t4.5 -34.5t9 -25t14.5 -21t21.5 -12.5t30.5 -10t40.5 -3.5v-45h-483z" />
    <glyph glyph-name="ibreve" unicode="&#x12d;" horiz-adv-x="475" 
d="M242 1225q-65 0 -113.5 78t-54.5 204h20q9 -66 48 -104.5t100 -38.5q58 0 96 38.5t47 104.5h21q-6 -126 -53.5 -204t-110.5 -78zM45 0v45q61 0 73.5 30t12.5 144v582q0 30 -0.5 45.5t-3 40t-8.5 37t-16.5 26.5t-27.5 19t-40 4v47l311 12l14 -12l-6 -297v-504
q0 -114 12 -144t72 -30v-45h-393z" />
    <glyph glyph-name="Iogonek" unicode="&#x12e;" horiz-adv-x="573" 
d="M580 -254l18 -12q-35 -98 -91.5 -148.5t-119.5 -50.5q-61 0 -102 35.5t-41 103.5q0 31 14.5 65t30.5 58.5t52 59t54 50t62 51t53 42.5h-465v45q26 1 44.5 5.5t32 10t22 19.5t13 24.5t6.5 36.5t2.5 44t0.5 57v950q0 39 -0.5 57t-2.5 44t-6.5 36.5t-13 24.5t-22 19.5
t-32 10t-44.5 5.5v45h483v-45q-23 -1 -40.5 -3.5t-30.5 -10t-21.5 -12.5t-14.5 -21t-9 -25t-4.5 -34.5t-1.5 -40v-50.5v-950v-50.5t1.5 -40t4.5 -34.5t9 -25t14.5 -21t21.5 -12.5t30.5 -10t40.5 -3.5v-45q-70 -71 -110.5 -157t-40.5 -144q0 -38 19 -63t53 -25
q33 0 67.5 32.5t63.5 102.5z" />
    <glyph glyph-name="iogonek" unicode="&#x12f;" horiz-adv-x="475" 
d="M242 1206q-59 0 -99.5 45t-40.5 109q0 63 40 107t100 44q62 0 101.5 -43t39.5 -108q0 -64 -39.5 -109t-101.5 -45zM492 -254l18 -12q-35 -98 -91.5 -148.5t-119.5 -50.5q-61 0 -102 35.5t-41 103.5q0 31 14.5 65t30.5 58.5t52 59t54 50t62 51t53 42.5h-377v45
q61 0 73.5 30t12.5 144v582q0 30 -0.5 45.5t-3 40t-8.5 37t-16.5 26.5t-27.5 19t-40 4v47l313 12l12 -12l-6 -295v-506q0 -114 12 -144t72 -30v-45h2q-70 -71 -110.5 -157t-40.5 -144q0 -38 18.5 -63t52.5 -25q33 0 68 32.5t64 102.5z" />
    <glyph glyph-name="Idotaccent" unicode="&#x130;" horiz-adv-x="573" 
d="M289 1567q-36 0 -63 30t-27 72t27 72.5t63 30.5t62 -30.5t26 -72.5q0 -43 -25.5 -72.5t-62.5 -29.5zM45 0v45q26 1 44.5 5.5t32 10t22 19.5t13 24.5t6.5 36.5t2.5 44t0.5 57v950q0 39 -0.5 57t-2.5 44t-6.5 36.5t-13 24.5t-22 19.5t-32 10t-44.5 5.5v45h483v-45
q-23 -1 -40.5 -3.5t-30.5 -10t-21.5 -12.5t-14.5 -21t-9 -25t-4.5 -34.5t-1.5 -40v-50.5v-950v-50.5t1.5 -40t4.5 -34.5t9 -25t14.5 -21t21.5 -12.5t30.5 -10t40.5 -3.5v-45h-483z" />
    <glyph glyph-name="dotlessi" unicode="&#x131;" horiz-adv-x="475" 
d="M45 0v45q61 0 73.5 30t12.5 144v582q0 30 -0.5 45.5t-3 40t-8.5 37t-16.5 26.5t-27.5 19t-40 4v47l311 12l14 -12l-6 -297v-504q0 -114 12 -144t72 -30v-45h-393z" />
    <glyph glyph-name="IJ" unicode="&#x132;" horiz-adv-x="1406" 
d="M45 0v45q26 1 44.5 5.5t32 10t22 19.5t13 24.5t6.5 36.5t2.5 44t0.5 57v950q0 39 -0.5 57t-2.5 44t-6.5 36.5t-13 24.5t-22 19.5t-32 10t-44.5 5.5v45h483v-45q-23 -1 -40.5 -3.5t-30.5 -10t-21.5 -12.5t-14.5 -21t-9 -25t-4.5 -34.5t-1.5 -40v-50.5v-950v-50.5t1.5 -40
t4.5 -34.5t9 -25t14.5 -21t21.5 -12.5t30.5 -10t40.5 -3.5v-45h-483zM870 -20q-130 0 -211 80.5t-81 222.5q0 90 37.5 147t97.5 57q40 0 68.5 -29t39.5 -75q-36 -43 -62 -102t-26 -105q0 -68 39.5 -107.5t97.5 -39.5q31 0 54.5 12t45.5 43.5t34 95.5t12 158v854v45t-1.5 37
t-4 32.5t-6.5 25t-11 21t-17 14.5t-23.5 12t-31 6t-40.5 4v45h495v-45q-26 -1 -44.5 -5.5t-32 -10t-22 -19.5t-13 -24.5t-6.5 -36.5t-2.5 -44t-0.5 -57v-715q0 -110 -23.5 -200t-70 -156.5t-121 -103.5t-170.5 -37z" />
    <glyph glyph-name="ij" unicode="&#x133;" horiz-adv-x="940" 
d="M242 1206q-59 0 -99.5 45t-40.5 109q0 63 40 107t100 44q62 0 101.5 -43t39.5 -108q0 -64 -39.5 -109t-101.5 -45zM729 1206q-59 0 -99 45t-40 109t39 107.5t100 43.5q63 0 102 -43.5t39 -107.5q0 -65 -39 -109.5t-102 -44.5zM45 0v45q61 0 73.5 30t12.5 144v582
q0 30 -0.5 45.5t-3 40t-8.5 37t-16.5 26.5t-27.5 19t-40 4v47l313 12l12 -12l-6 -295v-506q0 -114 12 -144t72 -30v-45h-393zM537 -461q-98 0 -159 56.5t-61 152.5q0 70 30.5 115t82.5 45q67 0 92 -80q-65 -76 -65 -145q0 -42 18.5 -68.5t50.5 -26.5q29 0 48.5 23t28.5 67
t12 87t3 102v934q0 36 -1 54.5t-7.5 46t-19.5 40.5t-38.5 22.5t-62.5 8.5v47l345 12l14 -12l-4 -297v-762q0 -190 -83.5 -306t-223.5 -116z" />
    <glyph glyph-name="Jcircumflex" unicode="&#x134;" horiz-adv-x="833" 
d="M338 1567q114 135 182 264h86q90 -162 180 -264h-26q-96 57 -221 166q-93 -101 -174 -166h-27zM297 -20q-131 0 -212 80.5t-81 222.5q0 90 37.5 147t97.5 57q40 0 69 -29t40 -75q-36 -43 -62 -102t-26 -105q0 -68 39.5 -107.5t97.5 -39.5q31 0 54.5 12t45.5 43.5
t33.5 95.5t11.5 158v854v45t-1.5 37t-4 32.5t-6.5 25t-11 21t-17 14.5t-23.5 12t-31 6t-40.5 4v45h496v-45q-26 -1 -44.5 -5.5t-32 -10t-22 -19.5t-13 -24.5t-6.5 -36.5t-2.5 -44t-0.5 -57v-715q0 -110 -23.5 -200t-70 -156.5t-121 -103.5t-170.5 -37z" />
    <glyph glyph-name="jcircumflex" unicode="&#x135;" horiz-adv-x="464" 
d="M61 1184q88 176 132 336h83q46 -167 130 -336h-27q-58 68 -164 227q-89 -169 -127 -227h-27zM61 -461q-98 0 -158.5 56.5t-60.5 152.5q0 70 30.5 115t82.5 45q67 0 92 -80q-65 -76 -65 -145q0 -42 18.5 -68.5t50.5 -26.5q29 0 48.5 23t28.5 67t12 87t3 102v934
q0 36 -1 54.5t-7.5 46t-19.5 40.5t-38.5 22.5t-62.5 8.5v47l344 12l15 -12l-4 -293v-766q0 -190 -84 -306t-224 -116z" />
    <glyph glyph-name="uni0136" unicode="&#x136;" horiz-adv-x="1130" 
d="M963 252q22 -53 38.5 -84t40.5 -61.5t55 -45t72 -16.5v-45h-524v45q30 1 51 8t33 15.5t16 26t4 31t-8 39t-13.5 41t-18.5 46.5l-205 500q-30 -32 -96 -90v-420v-45.5t1 -37.5t3.5 -32.5t6.5 -24.5t11 -21t16 -14.5t22.5 -11.5t30 -6t38.5 -4v-45h-494v45q24 1 41.5 3.5
t31 9.5t22 12.5t14.5 20.5t9 25t5 34.5t2 40.5v51v950v51t-2 40.5t-5 34.5t-9 25t-14.5 20.5t-22 12.5t-31 9.5t-41.5 3.5v45h494v-45q-22 -1 -38.5 -4t-30 -6t-22.5 -11.5t-16 -14.5t-11 -21t-6.5 -24.5t-3.5 -32.5t-1 -37.5v-45.5v-463q149 132 279 316t130 270
q0 20 -7 34.5t-17 22t-29 11.5t-34.5 5t-41.5 1v45h397v-45q-81 0 -131 -41q-37 -28 -73 -76.5t-101 -155.5q-32 -54 -112 -166zM559 -86q42 0 69 -41.5t27 -101.5q0 -74 -41.5 -147t-115.5 -132l-13 25q46 39 72.5 84.5t26.5 83.5q0 30 -43 49q-3 2 -14 7t-15.5 7.5t-13 10
t-12.5 15t-7.5 20t-3.5 28.5q0 39 25 65.5t59 26.5z" />
    <glyph glyph-name="uni0137" unicode="&#x137;" horiz-adv-x="935" 
d="M799 236q41 -104 76.5 -147.5t95.5 -43.5v-45h-445v45q32 0 49 6t24 18.5t3.5 34t-13 49.5t-24.5 68l-6 15l-119 309q-50 -51 -100 -88v-238q0 -113 12.5 -143.5t73.5 -30.5v-45h-393v45q21 0 35 2.5t24 12.5t14.5 19t7 34t3 44t0.5 62v1049q0 30 -0.5 45.5t-3 40
t-8 37.5t-15 26.5t-25.5 19t-38 5.5v47l305 12l14 -12l-6 -252l-6 -727q114 84 221 218.5t107 195.5q0 19 -8.5 30t-30 15.5t-34.5 5t-46 0.5v45h346v-45q-69 0 -111 -29q-20 -14 -43.5 -40.5t-39.5 -48.5t-50 -73q-20 -30 -41 -57zM463 -86q42 0 69 -41.5t27 -101.5
q0 -74 -42 -147t-116 -132l-12 25q46 39 72 84.5t26 83.5q0 30 -43 49q-3 1 -14 6.5t-15.5 8t-13 10t-12 15t-7 20t-3.5 28.5q0 39 25 65.5t59 26.5z" />
    <glyph glyph-name="kgreenlandic" unicode="&#x138;" horiz-adv-x="950" 
d="M811 236q44 -108 78.5 -149.5t93.5 -41.5v-45h-442v45q73 0 76.5 38.5t-37.5 134.5q-5 12 -7 18l-122 307q-31 -32 -97 -86v-238q0 -43 0.5 -62t3 -44t7 -34t14.5 -19t24 -12.5t35 -2.5v-45h-393v45q21 0 35 2.5t24 12.5t14.5 19t7 34t3 44t0.5 62v582q0 36 -0.5 54.5
t-5.5 46t-14.5 40.5t-28.5 23.5t-47 9.5v45l309 12l12 -12l-10 -512q115 84 223.5 219.5t108.5 196.5q0 19 -8.5 30t-30 15.5t-34.5 5t-46 0.5v45h344v-45q-71 0 -113 -29q-39 -28 -129 -160q-5 -7 -49 -71z" />
    <glyph glyph-name="Lacute" unicode="&#x139;" horiz-adv-x="985" 
d="M197 1563q114 125 127 276q30 12 67 12q40 0 63 -18.5t23 -48.5q0 -49 -71 -107t-187 -114h-22zM43 0v45q24 1 41.5 3.5t31 9.5t22 12.5t14.5 20.5t9 25t5 34.5t2 40.5v51v946q0 40 -0.5 57.5t-2.5 44t-7 37t-13.5 24.5t-22 19.5t-33 10t-46.5 5.5v48h522v-48
q-27 -1 -47 -4t-36 -6t-27.5 -11.5t-19.5 -14.5t-13 -21t-8 -24.5t-4.5 -32t-1.5 -36.5v-45v-1.5v-1.5v-950v-49t1.5 -38.5t4 -32.5t7 -23t11.5 -18.5t17.5 -10.5t24 -7.5t32.5 -1.5h78q102 0 169 52t107.5 175.5t48.5 325.5h33l-6 -610h-893z" />
    <glyph glyph-name="lacute" unicode="&#x13a;" horiz-adv-x="462" 
d="M141 1620q114 125 127 276q33 13 68 13q40 0 63 -19t23 -49q0 -49 -71 -107t-187 -114h-23zM37 0v45q60 0 72 30t12 144v1049q0 30 -0.5 45.5t-3 40t-9 37t-16.5 26.5t-27.5 19t-41.5 4v49l313 12l14 -12l-6 -313v-957q0 -114 12 -144t70 -30v-45h-389z" />
    <glyph glyph-name="uni013B" unicode="&#x13b;" horiz-adv-x="985" 
d="M43 0v45q24 1 41.5 3.5t31 9.5t22 12.5t14.5 20.5t9 25t5 34.5t2 40.5v51v946q0 40 -0.5 57.5t-2.5 44t-7 37t-13.5 24.5t-22 19.5t-33 10t-46.5 5.5v48h522v-48q-27 -1 -47 -4t-36 -6t-27.5 -11.5t-19.5 -14.5t-13 -21t-8 -24.5t-4.5 -32t-1.5 -36.5v-45v-1.5v-1.5v-950
v-49t1.5 -38.5t4 -32.5t7 -23t11.5 -18.5t17.5 -10.5t24 -7.5t32.5 -1.5h78q102 0 169 52t107.5 175.5t48.5 325.5h33l-6 -610h-893zM426 -508l-12 25q46 39 72 84.5t26 83.5q0 30 -43 49q-3 2 -14 7t-15.5 7.5t-13 10t-12.5 15t-7.5 20t-3.5 28.5q0 39 25 65.5t59 26.5
q42 0 69.5 -41.5t27.5 -101.5q0 -74 -42 -147t-116 -132z" />
    <glyph glyph-name="uni013C" unicode="&#x13c;" horiz-adv-x="462" 
d="M37 0v45q60 0 72 30t12 144v1049q0 30 -0.5 45.5t-3 40t-9 37t-16.5 26.5t-27.5 19t-41.5 4v49l313 12l14 -12l-6 -313v-957q0 -114 12 -144t70 -30v-45h-389zM166 -508l-12 25q46 39 72 84.5t26 83.5q0 30 -43 49q-3 2 -14 7t-15.5 7.5t-13 10t-12.5 15t-7.5 20
t-3.5 28.5q0 39 25 65.5t59 26.5q42 0 69.5 -41.5t27.5 -101.5q0 -74 -42 -147t-116 -132z" />
    <glyph glyph-name="Lcaron" unicode="&#x13d;" horiz-adv-x="985" 
d="M795 924l-19 24q83 61 119.5 133t9.5 109q-4 14 -21 24.5t-37 18t-40 18.5t-33.5 32.5t-13.5 53.5q0 50 34.5 82.5t86.5 32.5q61 0 99 -51t38 -125q0 -97 -58 -190.5t-165 -161.5zM43 0v45q24 1 41.5 3.5t31 9.5t22 12.5t14.5 20.5t9 25t5 34.5t2 40.5v51v946
q0 40 -0.5 57.5t-2.5 44t-7 37t-13.5 24.5t-22 19.5t-33 10t-46.5 5.5v48h522v-48q-27 -1 -47 -4t-36 -6t-27.5 -11.5t-19.5 -14.5t-13 -21t-8 -24.5t-4.5 -32t-1.5 -36.5v-45v-1.5v-1.5v-950v-49t1.5 -38.5t4 -32.5t7 -23t11.5 -18.5t17.5 -10.5t24 -7.5t32.5 -1.5h78
q102 0 169 52t107.5 175.5t48.5 325.5h33l-6 -610h-893z" />
    <glyph glyph-name="lcaron" unicode="&#x13e;" horiz-adv-x="565" 
d="M37 0v45q60 0 72 30t12 144v1049q0 30 -0.5 45.5t-3 40t-9 37t-16.5 26.5t-27.5 19t-41.5 4v49l313 12l14 -12l-6 -313v-957q0 -114 12 -144t70 -30v-45h-389zM496 1016l-17 24q73 52 105.5 115t9.5 96q-5 14 -26.5 25t-44 18.5t-40.5 29.5t-18 56q0 43 30 72t76 29
q53 0 86 -44.5t33 -109.5q0 -85 -50.5 -168t-143.5 -143z" />
    <glyph glyph-name="Ldot" unicode="&#x13f;" horiz-adv-x="985" 
d="M43 0v45q24 1 41.5 3.5t31 9.5t22 12.5t14.5 20.5t9 25t5 34.5t2 40.5v51v946q0 40 -0.5 57.5t-2.5 44t-7 37t-13.5 24.5t-22 19.5t-33 10t-46.5 5.5v48h522v-48q-27 -1 -47 -4t-36 -6t-27.5 -11.5t-19.5 -14.5t-13 -21t-8 -24.5t-4.5 -32t-1.5 -36.5v-45v-1.5v-1.5v-950
v-49t1.5 -38.5t4 -32.5t7 -23t11.5 -18.5t17.5 -10.5t24 -7.5t32.5 -1.5h78q102 0 169 52t107.5 175.5t48.5 325.5h33l-6 -610h-893zM705 674q-52 0 -84.5 34.5t-32.5 84.5q0 51 33 85.5t84 34.5t83.5 -34.5t32.5 -85.5t-32 -85t-84 -34z" />
    <glyph glyph-name="ldot" unicode="&#x140;" horiz-adv-x="571" 
d="M37 0v45q60 0 72 30t12 144v1049q0 30 -0.5 45.5t-3 40t-9 37t-16.5 26.5t-27.5 19t-41.5 4v49l313 12l14 -12l-6 -313v-957q0 -114 12 -144t70 -30v-45h-389zM526 616q-50 0 -83 34.5t-33 84.5q0 52 33 87.5t83 35.5q52 0 84.5 -35.5t32.5 -87.5q0 -50 -32.5 -84.5
t-84.5 -34.5z" />
    <glyph glyph-name="Lslash" unicode="&#x141;" horiz-adv-x="989" 
d="M911 610h35l-6 -610h-891v45q86 4 104.5 40t18.5 157v288l-111 -75v65l111 76v592q0 40 -0.5 57.5t-2.5 44t-7 37t-13 24.5t-22 19.5t-32.5 10t-45.5 5.5v48h520v-48q-27 -1 -47 -4t-36 -6t-27.5 -11.5t-19.5 -14.5t-13 -21t-8 -24.5t-4.5 -32t-1.5 -36.5v-45v-1.5v-1.5
v-410l295 221v-65l-295 -221v-475v-49t1.5 -38.5t4 -32.5t7 -23t11.5 -18.5t17.5 -10.5t24 -7.5t32.5 -1.5h80q153 0 232 128.5t89 424.5z" />
    <glyph glyph-name="lslash" unicode="&#x142;" horiz-adv-x="503" 
d="M469 907l-102 -76v-612q0 -114 12 -144t70 -30v-45h-392v45q60 0 72 30t12 144v436l-106 -75v57l106 76v555q0 30 -0.5 45.5t-3 40t-8.5 37t-16.5 26.5t-27.5 19t-40 4v49l313 12l15 -12l-6 -313v-285l102 76v-60z" />
    <glyph glyph-name="Nacute" unicode="&#x143;" horiz-adv-x="1128" 
d="M471 1563q114 125 127 276q30 12 68 12q40 0 63 -18.5t23 -48.5q0 -49 -71 -107t-187 -114h-23zM31 0v45q27 1 48.5 6t38 11.5t29 21.5t20.5 26t13.5 35.5t8.5 40.5t4.5 50t1.5 54.5v63.5v801q0 32 -0.5 48.5t-3.5 45t-9 44t-18 36t-29.5 31.5t-44 19.5t-61.5 9.5v45h356
l457 -897l71 -134v676v6q0 74 -1.5 107.5t-10 79.5t-27 65t-52.5 34.5t-87 17.5v45h381v-45q-50 -2 -82 -17.5t-49.5 -35t-25.5 -66.5t-9.5 -81t-1.5 -110v-1087h-35l-591 1063l-89 153h-2v-854v-57.5t1.5 -50t4 -46t6.5 -39t11 -35t17 -27t23.5 -23t30.5 -15.5t39.5 -11.5
t49.5 -4.5v-45h-383z" />
    <glyph glyph-name="nacute" unicode="&#x144;" horiz-adv-x="991" 
d="M637 1473q0 -52 -77.5 -139t-180.5 -154h-23q54 92 87.5 187.5t39.5 164.5q32 14 66 14q39 0 63.5 -22.5t24.5 -50.5zM879 219q0 -113 12 -143.5t70 -30.5v-45h-394v45q23 0 37.5 2.5t24.5 12.5t15 19t7.5 34t3 44t0.5 62v520q0 100 -21.5 152.5t-74.5 52.5
q-57 0 -110.5 -72.5t-94.5 -207.5v-445q0 -113 12.5 -143.5t73.5 -30.5v-45h-395v45q21 0 35 2.5t24 12.5t14.5 19t7 34t3 44t0.5 62v582q0 36 -0.5 54.5t-5.5 46t-14.5 40.5t-28.5 23.5t-47 9.5v45l303 12l16 -12l-8 -281q47 136 127.5 218.5t177.5 82.5q106 0 168 -88.5
t62 -246.5v-486z" />
    <glyph glyph-name="uni0145" unicode="&#x145;" horiz-adv-x="1128" 
d="M31 0v45q27 1 48.5 6t38 11.5t29 21.5t20.5 26t13.5 35.5t8.5 40.5t4.5 50t1.5 54.5v63.5v801q0 32 -0.5 48.5t-3.5 45t-9 44t-18 36t-29.5 31.5t-44 19.5t-61.5 9.5v45h356l457 -897l71 -134v676v6q0 74 -1.5 107.5t-10 79.5t-27 65t-52.5 34.5t-87 17.5v45h381v-45
q-50 -2 -82 -17.5t-49.5 -35t-25.5 -66.5t-9.5 -81t-1.5 -110v-1087h-35l-591 1063l-89 153h-2v-854v-57.5t1.5 -50t4 -46t6.5 -39t11 -35t17 -27t23.5 -23t30.5 -15.5t39.5 -11.5t49.5 -4.5v-45h-383zM496 -508l-13 25q46 39 72.5 84.5t26.5 83.5q0 30 -43 49q-3 2 -14 7
t-15.5 7.5t-13 10t-12.5 15t-7.5 20t-3.5 28.5q0 39 25 65.5t59 26.5q42 0 69 -41.5t27 -101.5q0 -74 -41.5 -147t-115.5 -132z" />
    <glyph glyph-name="uni0146" unicode="&#x146;" horiz-adv-x="991" 
d="M879 219q0 -113 12 -143.5t70 -30.5v-45h-394v45q23 0 37.5 2.5t24.5 12.5t15 19t7.5 34t3 44t0.5 62v520q0 100 -21.5 152.5t-74.5 52.5q-57 0 -110.5 -72.5t-94.5 -207.5v-445q0 -113 12.5 -143.5t73.5 -30.5v-45h-395v45q21 0 35 2.5t24 12.5t14.5 19t7 34t3 44
t0.5 62v582q0 36 -0.5 54.5t-5.5 46t-14.5 40.5t-28.5 23.5t-47 9.5v45l303 12l16 -12l-8 -281q47 136 127.5 218.5t177.5 82.5q106 0 168 -88.5t62 -246.5v-486zM492 -86q42 0 69 -41.5t27 -101.5q0 -74 -42 -147t-116 -132l-12 25q46 39 72 84.5t26 83.5q0 30 -43 49
q-3 1 -14 6.5t-15.5 8t-13 10t-12 15t-7 20t-3.5 28.5q0 39 25 65.5t59 26.5z" />
    <glyph glyph-name="Ncaron" unicode="&#x147;" horiz-adv-x="1128" 
d="M520 1567q-86 158 -180 264h27q94 -55 221 -166q70 78 174 166h26q-109 -131 -182 -264h-86zM31 0v45q27 1 48.5 6t38 11.5t29 21.5t20.5 26t13.5 35.5t8.5 40.5t4.5 50t1.5 54.5v63.5v801q0 32 -0.5 48.5t-3.5 45t-9 44t-18 36t-29.5 31.5t-44 19.5t-61.5 9.5v45h356
l457 -897l71 -134v676v6q0 74 -1.5 107.5t-10 79.5t-27 65t-52.5 34.5t-87 17.5v45h381v-45q-50 -2 -82 -17.5t-49.5 -35t-25.5 -66.5t-9.5 -81t-1.5 -110v-1087h-35l-591 1063l-89 153h-2v-854v-57.5t1.5 -50t4 -46t6.5 -39t11 -35t17 -27t23.5 -23t30.5 -15.5t39.5 -11.5
t49.5 -4.5v-45h-383z" />
    <glyph glyph-name="ncaron" unicode="&#x148;" horiz-adv-x="991" 
d="M541 1184h-86q-75 175 -179 336h25q99 -89 221 -228q100 146 172 228h29q-114 -178 -182 -336zM879 219q0 -113 12 -143.5t70 -30.5v-45h-394v45q23 0 37.5 2.5t24.5 12.5t15 19t7.5 34t3 44t0.5 62v520q0 100 -21.5 152.5t-74.5 52.5q-57 0 -110.5 -72.5t-94.5 -207.5
v-445q0 -113 12.5 -143.5t73.5 -30.5v-45h-395v45q21 0 35 2.5t24 12.5t14.5 19t7 34t3 44t0.5 62v582q0 36 -0.5 54.5t-5.5 46t-14.5 40.5t-28.5 23.5t-47 9.5v45l303 12l16 -12l-8 -281q47 136 127.5 218.5t177.5 82.5q106 0 168 -88.5t62 -246.5v-486z" />
    <glyph glyph-name="Omacron" unicode="&#x14c;" horiz-adv-x="1157" 
d="M354 1573v82q136 -8 226 -8q89 0 225 8v-82q-104 8 -225 8q-122 0 -226 -8zM580 -20q-77 0 -153 32t-142.5 95.5t-118 150.5t-81.5 206t-30 253t30 253t81.5 206t118 150.5t142.5 95.5t153 32q76 0 150.5 -32t140.5 -95.5t117 -150.5t80.5 -206t29.5 -253t-29.5 -253
t-80.5 -206t-117 -150.5t-140.5 -95.5t-150.5 -32zM580 33q61 0 106.5 33.5t73.5 91t45 147t23 187t6 225.5t-6 225.5t-23 187t-45 147t-73.5 91t-106.5 33.5q-77 0 -129.5 -49.5t-79.5 -146.5t-38 -212.5t-11 -275.5t11 -275.5t38 -212.5t79.5 -146.5t129.5 -49.5z" />
    <glyph glyph-name="omacron" unicode="&#x14d;" horiz-adv-x="909" 
d="M231 1245v88q99 -8 226 -8q129 0 225 8v-88q-140 8 -225 8q-86 0 -226 -8zM455 -20q-171 0 -288.5 146t-117.5 384t117.5 384t288.5 146t287 -146t116 -384t-116 -384t-287 -146zM455 29q161 0 161 481t-161 481q-162 0 -162 -481t162 -481z" />
    <glyph glyph-name="Obreve" unicode="&#x14e;" horiz-adv-x="1157" 
d="M580 1563q-80 0 -138.5 62t-68.5 167h22q28 -96 185 -96q154 0 180 96h24q-10 -104 -66.5 -166.5t-137.5 -62.5zM580 -20q-77 0 -153 32t-142.5 95.5t-118 150.5t-81.5 206t-30 253t30 253t81.5 206t118 150.5t142.5 95.5t153 32q76 0 150.5 -32t140.5 -95.5t117 -150.5
t80.5 -206t29.5 -253t-29.5 -253t-80.5 -206t-117 -150.5t-140.5 -95.5t-150.5 -32zM580 33q61 0 106.5 33.5t73.5 91t45 147t23 187t6 225.5t-6 225.5t-23 187t-45 147t-73.5 91t-106.5 33.5q-77 0 -129.5 -49.5t-79.5 -146.5t-38 -212.5t-11 -275.5t11 -275.5t38 -212.5
t79.5 -146.5t129.5 -49.5z" />
    <glyph glyph-name="obreve" unicode="&#x14f;" horiz-adv-x="909" 
d="M455 1225q-79 0 -138 77.5t-69 204.5h22q15 -66 64 -104.5t121 -38.5t119 38.5t61 104.5h24q-10 -126 -67 -204t-137 -78zM455 -20q-171 0 -288.5 146t-117.5 384t117.5 384t288.5 146t287 -146t116 -384t-116 -384t-287 -146zM455 29q161 0 161 481t-161 481
q-162 0 -162 -481t162 -481z" />
    <glyph glyph-name="Ohungarumlaut" unicode="&#x150;" horiz-adv-x="1157" 
d="M309 1573q55 71 89 146t40 130q37 13 66 13q38 0 63 -18.5t25 -41.5q0 -39 -78.5 -107t-181.5 -122h-23zM565 1573q54 73 87.5 147.5t39.5 128.5q37 13 66 13q39 0 63.5 -18.5t24.5 -41.5q0 -40 -78.5 -107.5t-183.5 -121.5h-19zM580 -20q-77 0 -153 32t-142.5 95.5
t-118 150.5t-81.5 206t-30 253t30 253t81.5 206t118 150.5t142.5 95.5t153 32q76 0 150.5 -32t140.5 -95.5t117 -150.5t80.5 -206t29.5 -253t-29.5 -253t-80.5 -206t-117 -150.5t-140.5 -95.5t-150.5 -32zM580 33q61 0 106.5 33.5t73.5 91t45 147t23 187t6 225.5t-6 225.5
t-23 187t-45 147t-73.5 91t-106.5 33.5q-77 0 -129.5 -49.5t-79.5 -146.5t-38 -212.5t-11 -275.5t11 -275.5t38 -212.5t79.5 -146.5t129.5 -49.5z" />
    <glyph glyph-name="ohungarumlaut" unicode="&#x151;" horiz-adv-x="909" 
d="M186 1180q54 90 87.5 185.5t41.5 166.5q28 14 64 14q39 0 63.5 -22.5t24.5 -50.5q0 -52 -77 -138t-181 -155h-23zM440 1180q110 182 129 352q28 14 64 14q39 0 64.5 -22.5t25.5 -50.5q0 -51 -78 -137t-182 -156h-23zM455 -20q-171 0 -288.5 146t-117.5 384t117.5 384
t288.5 146t287 -146t116 -384t-116 -384t-287 -146zM455 29q161 0 161 481t-161 481q-162 0 -162 -481t162 -481z" />
    <glyph glyph-name="OE" unicode="&#x152;" horiz-adv-x="1656" 
d="M1532 559h35l-6 -559h-930q-92 0 -177 30.5t-157 91.5t-125.5 146t-84 200.5t-30.5 248.5t30.5 248.5t84 200.5t125.5 146t157 91.5t177 30.5h913l6 -486h-32q-11 223 -87 325.5t-190 102.5h-125q-67 0 -81.5 -30.5t-14.5 -151.5v-410h80q67 0 105.5 10t67.5 41.5
t41 88.5t15 153h29v-645h-29q-3 97 -15 153.5t-40.5 89t-67.5 42.5t-106 10h-80v-489v-49t1.5 -38.5t3.5 -32.5t7 -23t11.5 -18.5t17 -10.5t24 -7.5t31.5 -1.5h96q148 0 230.5 125t89.5 377zM778 242v946v45.5t-1.5 38t-4 33t-7.5 25t-12.5 21.5t-18 14.5t-25.5 11t-34 5
t-44 2.5q-55 0 -99.5 -17t-76 -46.5t-55 -76.5t-38 -100t-23.5 -124t-12 -142.5t-3 -160.5q0 -105 4.5 -185.5t16.5 -160.5t34 -136t55 -100t82.5 -66t114.5 -22q25 0 44 2.5t34 5t25.5 11t18 14.5t12.5 21.5t7.5 25t4 32.5t1.5 37.5v45.5z" />
    <glyph glyph-name="oe" unicode="&#x153;" horiz-adv-x="1406" 
d="M1327 342h29q-2 -71 -23 -134t-60 -115t-104.5 -82.5t-148.5 -30.5q-178 0 -287 147q-115 -147 -278 -147q-171 0 -288.5 146t-117.5 384t117.5 384t288.5 146q163 0 276 -145q104 145 268 145q177 0 266 -132t89 -373h-498v-25q0 -108 9 -187t32.5 -147t69.5 -103.5
t114 -35.5q109 0 175 87.5t71 217.5zM455 29q161 0 161 481t-161 481q-162 0 -162 -481t162 -481zM999 991q-70 0 -104 -102.5t-39 -304.5h264q0 96 -4 162t-16.5 126t-37.5 89.5t-63 29.5z" />
    <glyph glyph-name="Racute" unicode="&#x154;" horiz-adv-x="1110" 
d="M743 1784q0 -49 -71 -107t-187 -114h-22q114 125 127 276q30 12 67 12q40 0 63 -18.5t23 -48.5zM1057 371h24v-166q0 -113 -45 -166q-56 -59 -157 -59q-105 0 -150 71q-35 51 -35 172v164q0 157 -46 216t-150 59h-90v-420v-45t1.5 -37t4 -32.5t6.5 -25t11 -21t17 -14.5
t23.5 -12t31 -6t40.5 -4v-45h-500v45q27 1 46.5 5.5t33 10t22 19.5t13.5 24.5t7 36.5t2.5 44t0.5 57v950v51t-2 40.5t-5 34.5t-9 25t-14.5 20.5t-22 12.5t-31 9.5t-41.5 3.5v45h496q440 0 440 -379q0 -74 -25 -137t-62.5 -105t-85.5 -73.5t-90 -47.5t-79 -22
q149 -31 228 -114.5t79 -211.5v-127q0 -68 12 -96q15 -37 43 -37q36 0 48 39q10 38 10 94v154zM408 717h131q91 0 137.5 77.5t46.5 260.5q0 124 -23 197t-61.5 100.5t-99.5 27.5h-45q-53 0 -69.5 -28t-16.5 -107v-528z" />
    <glyph glyph-name="racute" unicode="&#x155;" horiz-adv-x="790" 
d="M537 1473q0 -52 -77.5 -139t-180.5 -154h-23q54 92 87.5 187.5t39.5 164.5q32 14 66 14q39 0 63.5 -22.5t24.5 -50.5zM602 1040q78 0 127 -61.5t49 -161.5q0 -85 -39.5 -142t-101.5 -57q-34 0 -66 26t-43 61q70 103 70 190q-3 76 -53 76q-59 0 -112 -113t-79 -295v-344
q0 -42 0.5 -61.5t3.5 -44.5t8.5 -34t16.5 -19t27 -12.5t41 -2.5v-45h-406v45q21 0 35 2.5t24 12.5t14.5 19t7 34t3 44t0.5 62v582q0 36 -0.5 54.5t-5.5 46t-14.5 40.5t-28.5 23.5t-47 9.5v45l303 12l16 -12l-6 -348q33 177 94 272.5t162 95.5z" />
    <glyph glyph-name="uni0156" unicode="&#x156;" horiz-adv-x="1110" 
d="M1057 371h24v-166q0 -113 -45 -166q-56 -59 -157 -59q-105 0 -150 71q-35 51 -35 172v164q0 157 -46 216t-150 59h-90v-420v-45t1.5 -37t4 -32.5t6.5 -25t11 -21t17 -14.5t23.5 -12t31 -6t40.5 -4v-45h-500v45q27 1 46.5 5.5t33 10t22 19.5t13.5 24.5t7 36.5t2.5 44
t0.5 57v950v51t-2 40.5t-5 34.5t-9 25t-14.5 20.5t-22 12.5t-31 9.5t-41.5 3.5v45h496q440 0 440 -379q0 -74 -25 -137t-62.5 -105t-85.5 -73.5t-90 -47.5t-79 -22q149 -31 228 -114.5t79 -211.5v-127q0 -68 12 -96q15 -37 43 -37q36 0 48 39q10 38 10 94v154zM408 717h131
q91 0 137.5 77.5t46.5 260.5q0 124 -23 197t-61.5 100.5t-99.5 27.5h-45q-53 0 -69.5 -28t-16.5 -107v-528zM551 -86q42 0 69 -41.5t27 -101.5q0 -74 -42 -147t-116 -132l-12 25q46 39 72 84.5t26 83.5q0 30 -43 49q-3 1 -14 6.5t-15.5 8t-13 10t-12 15t-7 20t-3.5 28.5
q0 39 25 65.5t59 26.5z" />
    <glyph glyph-name="uni0157" unicode="&#x157;" horiz-adv-x="790" 
d="M602 1040q78 0 127 -61.5t49 -161.5q0 -85 -39.5 -142t-101.5 -57q-34 0 -66 26t-43 61q70 103 70 190q-3 76 -53 76q-59 0 -112 -113t-79 -295v-344q0 -42 0.5 -61.5t3.5 -44.5t8.5 -34t16.5 -19t27 -12.5t41 -2.5v-45h-406v45q21 0 35 2.5t24 12.5t14.5 19t7 34t3 44
t0.5 62v582q0 36 -0.5 54.5t-5.5 46t-14.5 40.5t-28.5 23.5t-47 9.5v45l303 12l16 -12l-6 -348q33 177 94 272.5t162 95.5zM391 -86q42 0 69 -41.5t27 -101.5q0 -74 -41.5 -147t-115.5 -132l-13 25q46 39 72.5 84.5t26.5 83.5q0 30 -43 49q-3 2 -14 7t-15.5 7.5t-13 10
t-12.5 15t-7.5 20t-3.5 28.5q0 39 25 65.5t59 26.5z" />
    <glyph glyph-name="Rcaron" unicode="&#x158;" horiz-adv-x="1110" 
d="M600 1567h-86q-86 158 -180 264h26q97 -57 222 -166q70 78 174 166h26q-109 -131 -182 -264zM1057 371h24v-166q0 -113 -45 -166q-56 -59 -157 -59q-105 0 -150 71q-35 51 -35 172v164q0 157 -46 216t-150 59h-90v-420v-45t1.5 -37t4 -32.5t6.5 -25t11 -21t17 -14.5
t23.5 -12t31 -6t40.5 -4v-45h-500v45q27 1 46.5 5.5t33 10t22 19.5t13.5 24.5t7 36.5t2.5 44t0.5 57v950v51t-2 40.5t-5 34.5t-9 25t-14.5 20.5t-22 12.5t-31 9.5t-41.5 3.5v45h496q440 0 440 -379q0 -74 -25 -137t-62.5 -105t-85.5 -73.5t-90 -47.5t-79 -22
q149 -31 228 -114.5t79 -211.5v-127q0 -68 12 -96q15 -37 43 -37q36 0 48 39q10 38 10 94v154zM408 717h131q91 0 137.5 77.5t46.5 260.5q0 124 -23 197t-61.5 100.5t-99.5 27.5h-45q-53 0 -69.5 -28t-16.5 -107v-528z" />
    <glyph glyph-name="rcaron" unicode="&#x159;" horiz-adv-x="790" 
d="M440 1184h-86q-76 179 -178 336h25q99 -89 221 -228q100 146 172 228h29q-117 -183 -183 -336zM602 1040q78 0 127 -61.5t49 -161.5q0 -85 -39.5 -142t-101.5 -57q-34 0 -66 26t-43 61q70 103 70 190q-3 76 -53 76q-59 0 -112 -113t-79 -295v-344q0 -42 0.5 -61.5
t3.5 -44.5t8.5 -34t16.5 -19t27 -12.5t41 -2.5v-45h-406v45q21 0 35 2.5t24 12.5t14.5 19t7 34t3 44t0.5 62v582q0 36 -0.5 54.5t-5.5 46t-14.5 40.5t-28.5 23.5t-47 9.5v45l303 12l16 -12l-6 -348q33 177 94 272.5t162 95.5z" />
    <glyph glyph-name="Sacute" unicode="&#x15a;" horiz-adv-x="983" 
d="M397 1563q114 125 127 276q30 12 68 12q40 0 63 -18.5t23 -48.5q0 -49 -71 -107t-187 -114h-23zM88 -20l-6 577h33q7 -140 53 -256t135.5 -191t206.5 -75q114 0 188 72.5t74 199.5q0 34 -9.5 64.5t-22.5 54.5t-40 48.5t-49 41.5t-63 40t-68.5 37t-77.5 38
q-44 21 -60 28.5t-55.5 28t-55.5 32t-47 34.5t-45 41.5t-34 47t-28.5 58t-15.5 67t-7 79.5q0 177 107 280q55 64 128 95.5t150 31.5q92 0 176 -43q27 -14 58 -35t49.5 -33t30.5 -12q22 0 33 26.5t14 96.5h26l8 -530h-32q-5 93 -30.5 176t-69 151t-111.5 108t-152 40
q-99 0 -166 -66t-67 -166q0 -52 17.5 -92t63 -74t77.5 -52t106 -53q20 -10 31 -15q54 -26 84.5 -41t76.5 -42t72.5 -50t58 -57.5t48 -71t28 -85.5t11.5 -106q0 -193 -121 -317q-128 -131 -291 -131q-97 0 -197 51q-24 13 -60 35t-54.5 31t-30.5 9q-47 0 -47 -126h-31z" />
    <glyph glyph-name="sacute" unicode="&#x15b;" horiz-adv-x="763" 
d="M242 1180q54 92 87.5 187.5t39.5 164.5q32 14 65 14q39 0 63.5 -22.5t24.5 -50.5q0 -52 -77.5 -139t-180.5 -154h-22zM68 -20l8 428h28q2 -84 23 -151t51.5 -108.5t70.5 -69.5t78 -39t76 -11q70 0 123.5 47t53.5 127q0 45 -18 79t-56.5 59t-76.5 40.5t-99 34.5
q-59 19 -101.5 41.5t-80 58.5t-56.5 90.5t-18 126.5q0 166 112 246q80 61 191 61q84 0 160 -41q17 -10 36 -24.5t30 -22.5t18 -8q13 0 16.5 17.5t5.5 78.5h27l4 -368h-29q-12 148 -85.5 232.5t-180.5 84.5q-80 0 -136.5 -43t-56.5 -125q0 -33 11 -59t27 -43.5t46.5 -33.5
t57.5 -26t71 -24q61 -19 99 -34t83.5 -42t71 -59t43 -82.5t17.5 -114.5q0 -171 -129 -264q-88 -59 -181 -59q-104 0 -192 55q-14 9 -29 19.5t-23 16t-15.5 9.5t-12.5 4q-19 0 -27.5 -23t-11.5 -81h-24z" />
    <glyph glyph-name="Scircumflex" unicode="&#x15c;" horiz-adv-x="983" 
d="M268 1567q117 138 183 264h86q90 -162 180 -264h-27q-96 57 -221 166q-93 -101 -174 -166h-27zM88 -20l-6 577h33q7 -140 53 -256t135.5 -191t206.5 -75q114 0 188 72.5t74 199.5q0 34 -9.5 64.5t-22.5 54.5t-40 48.5t-49 41.5t-63 40t-68.5 37t-77.5 38q-44 21 -60 28.5
t-55.5 28t-55.5 32t-47 34.5t-45 41.5t-34 47t-28.5 58t-15.5 67t-7 79.5q0 177 107 280q55 64 128 95.5t150 31.5q92 0 176 -43q27 -14 58 -35t49.5 -33t30.5 -12q22 0 33 26.5t14 96.5h26l8 -530h-32q-5 93 -30.5 176t-69 151t-111.5 108t-152 40q-99 0 -166 -66t-67 -166
q0 -52 17.5 -92t63 -74t77.5 -52t106 -53q20 -10 31 -15q54 -26 84.5 -41t76.5 -42t72.5 -50t58 -57.5t48 -71t28 -85.5t11.5 -106q0 -193 -121 -317q-128 -131 -291 -131q-97 0 -197 51q-24 13 -60 35t-54.5 31t-30.5 9q-47 0 -47 -126h-31z" />
    <glyph glyph-name="scircumflex" unicode="&#x15d;" horiz-adv-x="763" 
d="M162 1184q112 180 180 336h86q81 -188 180 -336h-28q-91 80 -220 227q-10 -14 -36 -50.5t-41.5 -58.5t-42.5 -55.5t-54 -62.5h-24zM68 -20l8 428h28q2 -84 23 -151t51.5 -108.5t70.5 -69.5t78 -39t76 -11q70 0 123.5 47t53.5 127q0 45 -18 79t-56.5 59t-76.5 40.5
t-99 34.5q-59 19 -101.5 41.5t-80 58.5t-56.5 90.5t-18 126.5q0 166 112 246q80 61 191 61q84 0 160 -41q17 -10 36 -24.5t30 -22.5t18 -8q13 0 16.5 17.5t5.5 78.5h27l4 -368h-29q-12 148 -85.5 232.5t-180.5 84.5q-80 0 -136.5 -43t-56.5 -125q0 -33 11 -59t27 -43.5
t46.5 -33.5t57.5 -26t71 -24q61 -19 99 -34t83.5 -42t71 -59t43 -82.5t17.5 -114.5q0 -171 -129 -264q-88 -59 -181 -59q-104 0 -192 55q-14 9 -29 19.5t-23 16t-15.5 9.5t-12.5 4q-19 0 -27.5 -23t-11.5 -81h-24z" />
    <glyph glyph-name="Scedilla" unicode="&#x15e;" horiz-adv-x="983" 
d="M541 881q54 -26 84.5 -41t76.5 -42t72.5 -50t58 -57.5t48 -71t28 -85.5t11.5 -106q0 -193 -121 -317q-128 -131 -291 -131h-10l-29 -97q38 15 78 15q67 0 113.5 -45.5t46.5 -126.5q0 -86 -51.5 -134.5t-127.5 -48.5q-49 0 -97 20.5t-81 57.5l8 31q57 -47 113 -47
q45 0 73.5 34.5t28.5 96.5q0 54 -24 84t-60 30q-18 0 -36 -6l-19 31l39 107q-76 5 -162 49q-24 13 -60 35t-54.5 31t-30.5 9q-47 0 -47 -126h-31l-6 577h33q7 -140 53 -256t135.5 -191t206.5 -75q114 0 188 72.5t74 199.5q0 34 -9.5 64.5t-22.5 54.5t-40 48.5t-49 41.5
t-63 40t-68.5 37t-77.5 38q-44 21 -60 28.5t-55.5 28t-55.5 32t-47 34.5t-45 41.5t-34 47t-28.5 58t-15.5 67t-7 79.5q0 177 107 280q55 64 128 95.5t150 31.5q92 0 176 -43q27 -14 58 -35t49.5 -33t30.5 -12q22 0 33 26.5t14 96.5h26l8 -530h-32q-5 93 -30.5 176t-69 151
t-111.5 108t-152 40q-99 0 -166 -66t-67 -166q0 -52 17.5 -92t63 -74t77.5 -52t106 -53q20 -10 31 -15z" />
    <glyph glyph-name="scedilla" unicode="&#x15f;" horiz-adv-x="763" 
d="M403 -20h-14l-29 -97q38 15 78 15q67 0 113.5 -45.5t46.5 -126.5q0 -86 -51 -134.5t-127 -48.5q-49 0 -97 20.5t-81 57.5l8 31q57 -47 112 -47q45 0 74 34.5t29 96.5q0 54 -24 84t-60 30q-19 0 -37 -6l-18 31l41 107q-82 7 -156 53q-14 9 -29 19.5t-23 16t-15.5 9.5
t-12.5 4q-19 0 -27.5 -23t-11.5 -81h-24l8 428h28q2 -84 23 -151t51.5 -108.5t70.5 -69.5t78 -39t76 -11q70 0 123.5 47t53.5 127q0 45 -18 79t-56.5 59t-76.5 40.5t-99 34.5q-59 19 -101.5 41.5t-80 58.5t-56.5 90.5t-18 126.5q0 166 112 246q80 61 191 61q84 0 160 -41
q17 -10 36 -24.5t30 -22.5t18 -8q13 0 16.5 17.5t5.5 78.5h27l4 -368h-29q-12 148 -85.5 232.5t-180.5 84.5q-80 0 -136.5 -43t-56.5 -125q0 -33 11 -59t27 -43.5t46.5 -33.5t57.5 -26t71 -24q61 -19 99 -34t83.5 -42t71 -59t43 -82.5t17.5 -114.5q0 -171 -129 -264
q-88 -59 -181 -59z" />
    <glyph glyph-name="Scaron" unicode="&#x160;" horiz-adv-x="983" 
d="M449 1567q-85 155 -181 264h27q94 -55 221 -166q70 78 174 166h27q-109 -131 -182 -264h-86zM88 -20l-6 577h33q7 -140 53 -256t135.5 -191t206.5 -75q114 0 188 72.5t74 199.5q0 34 -9.5 64.5t-22.5 54.5t-40 48.5t-49 41.5t-63 40t-68.5 37t-77.5 38q-44 21 -60 28.5
t-55.5 28t-55.5 32t-47 34.5t-45 41.5t-34 47t-28.5 58t-15.5 67t-7 79.5q0 177 107 280q55 64 128 95.5t150 31.5q92 0 176 -43q27 -14 58 -35t49.5 -33t30.5 -12q22 0 33 26.5t14 96.5h26l8 -530h-32q-5 93 -30.5 176t-69 151t-111.5 108t-152 40q-99 0 -166 -66t-67 -166
q0 -52 17.5 -92t63 -74t77.5 -52t106 -53q20 -10 31 -15q54 -26 84.5 -41t76.5 -42t72.5 -50t58 -57.5t48 -71t28 -85.5t11.5 -106q0 -193 -121 -317q-128 -131 -291 -131q-97 0 -197 51q-24 13 -60 35t-54.5 31t-30.5 9q-47 0 -47 -126h-31z" />
    <glyph glyph-name="scaron" unicode="&#x161;" horiz-adv-x="763" 
d="M340 1184q-76 179 -178 336h24q104 -94 222 -228q100 146 172 228h28q-114 -178 -182 -336h-86zM68 -20l8 428h28q2 -84 23 -151t51.5 -108.5t70.5 -69.5t78 -39t76 -11q70 0 123.5 47t53.5 127q0 45 -18 79t-56.5 59t-76.5 40.5t-99 34.5q-59 19 -101.5 41.5t-80 58.5
t-56.5 90.5t-18 126.5q0 166 112 246q80 61 191 61q84 0 160 -41q17 -10 36 -24.5t30 -22.5t18 -8q13 0 16.5 17.5t5.5 78.5h27l4 -368h-29q-12 148 -85.5 232.5t-180.5 84.5q-80 0 -136.5 -43t-56.5 -125q0 -33 11 -59t27 -43.5t46.5 -33.5t57.5 -26t71 -24q61 -19 99 -34
t83.5 -42t71 -59t43 -82.5t17.5 -114.5q0 -171 -129 -264q-88 -59 -181 -59q-104 0 -192 55q-14 9 -29 19.5t-23 16t-15.5 9.5t-12.5 4q-19 0 -27.5 -23t-11.5 -81h-24z" />
    <glyph glyph-name="uni0162" unicode="&#x162;" horiz-adv-x="1038" 
d="M254 0v45q25 1 43.5 4t33.5 6t25.5 11.5t18 14.5t12 21t7 24.5t4 32.5t1.5 37.5v45.5v1134h-77q-101 0 -171.5 -115t-80.5 -356h-31l6 529h948l6 -529h-30q-4 127 -27.5 222t-60 147.5t-77 77t-85.5 24.5h-78v-1134v-45.5t1.5 -37.5t4 -32.5t7 -24.5t12 -21t18 -14.5
t25 -11.5t33 -6t42.5 -4v-45h-530zM453 -508l-13 25q46 39 72.5 84.5t26.5 83.5q0 30 -43 49q-3 2 -14 7t-15.5 7.5t-13 10t-12.5 15t-7.5 20t-3.5 28.5q0 39 25 65.5t59 26.5q42 0 69 -41.5t27 -101.5q0 -74 -41.5 -147t-115.5 -132z" />
    <glyph glyph-name="uni0163" unicode="&#x163;" horiz-adv-x="555" 
d="M518 958l-176 7v-719q0 -89 14 -127q17 -47 62 -47q47 0 61 57q13 45 13 119v166h26v-183q0 -131 -47 -182q-32 -36 -75.5 -52.5t-82.5 -16.5q-111 0 -157 90q-33 62 -33 180v715h-111v55h62q208 0 243 375h25v-375l176 6v-68zM270 -86q42 0 69.5 -41.5t27.5 -101.5
q0 -74 -42 -147t-116 -132l-12 25q46 39 72 84.5t26 83.5q0 30 -43 49q-3 2 -14 7t-15.5 7.5t-13 10t-12.5 15t-7.5 20t-3.5 28.5q0 39 25 65.5t59 26.5z" />
    <glyph glyph-name="Tcaron" unicode="&#x164;" horiz-adv-x="1038" 
d="M477 1567q-86 158 -180 264h27q94 -55 221 -166q70 78 174 166h26q-109 -131 -182 -264h-86zM254 0v45q25 1 43.5 4t33.5 6t25.5 11.5t18 14.5t12 21t7 24.5t4 32.5t1.5 37.5v45.5v1134h-77q-101 0 -171.5 -115t-80.5 -356h-31l6 529h948l6 -529h-30q-4 127 -27.5 222
t-60 147.5t-77 77t-85.5 24.5h-78v-1134v-45.5t1.5 -37.5t4 -32.5t7 -24.5t12 -21t18 -14.5t25 -11.5t33 -6t42.5 -4v-45h-530z" />
    <glyph glyph-name="tcaron" unicode="&#x165;" horiz-adv-x="737" 
d="M707 1509q53 0 85.5 -44.5t32.5 -110.5q0 -85 -50.5 -167.5t-143.5 -142.5l-17 23q73 54 105.5 116.5t9.5 94.5q-5 15 -26.5 26.5t-44 19t-40.5 29.5t-18 56q0 43 30.5 71.5t76.5 28.5zM342 1395v-375l176 6v-68l-176 7v-719q0 -89 14 -127q17 -47 62 -47q47 0 61 57
q13 45 13 119v166h26v-183q0 -131 -47 -182q-32 -36 -75.5 -52.5t-82.5 -16.5q-111 0 -157 90q-33 62 -33 180v715h-111v55h62q208 0 243 375h25z" />
    <glyph glyph-name="Tbar" unicode="&#x166;" horiz-adv-x="1024" 
d="M979 1434l8 -529h-33q-4 127 -27 221.5t-59 147t-76.5 77.5t-86.5 25h-74v-645h182v-57h-182v-432v-45.5t1.5 -37.5t4 -32.5t7 -24.5t12 -21t18 -14.5t25.5 -11.5t33.5 -6t43.5 -4v-45h-528v45q24 1 42.5 4t33 6t25 11.5t18 14.5t12 21t7 24.5t4 32.5t1.5 37.5v45.5v432
h-178v57h178v645h-69q-100 0 -171 -113.5t-81 -357.5h-31l6 529h934z" />
    <glyph glyph-name="tbar" unicode="&#x167;" horiz-adv-x="559" 
d="M524 958l-176 7v-334h150v-56h-150v-329q0 -88 14 -129q16 -45 62 -45q22 0 38.5 16t22.5 41q13 47 13 119v153h26v-170q0 -128 -49 -182q-61 -69 -164 -69q-101 0 -149 90q-35 66 -35 180v325h-98v56h98v334h-111v55h62q214 0 244 375h26v-375l176 6v-68z" />
    <glyph glyph-name="Utilde" unicode="&#x168;" horiz-adv-x="1097" 
d="M635 1567q-41 0 -110 43t-97 43q-55 0 -63 -84h-21q3 209 117 209q34 0 71 -22t71.5 -44t62.5 -22q58 0 65 84h23q-7 -207 -119 -207zM555 -20q-219 0 -314.5 139.5t-95.5 429.5v643v45t-1 37t-3 32.5t-6 24.5t-10 21.5t-15 14.5t-21 12t-28 6t-36 4v45h487v-45
q-28 -1 -48 -5.5t-34 -10t-23 -19.5t-14 -24.5t-7 -36.5t-2.5 -44t-0.5 -57v-668q0 -69 3 -121t11.5 -110.5t26 -99.5t44.5 -76t68.5 -52.5t96.5 -17.5q116 0 190 118.5t74 360.5v553v63.5t-1.5 54.5t-4.5 50t-9 40.5t-14.5 36t-21.5 26.5t-30 21t-39.5 11.5t-51.5 6.5v45
h369v-45q-24 -1 -43.5 -4.5t-34.5 -11.5t-27 -15.5t-20.5 -23.5t-14.5 -27t-10 -35t-6 -39t-3 -46.5t-1 -50v-57.5v-553q0 -101 -10.5 -181t-37 -150t-69 -116t-108.5 -72.5t-154 -26.5z" />
    <glyph glyph-name="utilde" unicode="&#x169;" horiz-adv-x="980" 
d="M371 1333q-56 0 -64 -84h-20q3 209 116 209q34 0 71 -21.5t71.5 -43t62.5 -21.5q59 0 66 84h22q-7 -209 -118 -209q-41 0 -110 43t-97 43zM856 219q0 -35 0.5 -51.5t3 -41.5t8 -36t15 -23.5t25.5 -17t38 -4.5v-45h-297l-12 23v247q-47 -131 -123 -210.5t-172 -79.5
q-102 0 -164.5 89t-62.5 248v484q0 113 -12.5 143.5t-73.5 30.5v45h313l-4 -277v-458q0 -108 22 -160.5t74 -52.5q55 0 106.5 72t92.5 206v457q0 38 -0.5 56t-3.5 42t-9.5 33t-18.5 19.5t-30 13.5t-45 4v45h332l-2 -277v-524z" />
    <glyph glyph-name="Umacron" unicode="&#x16a;" horiz-adv-x="1097" 
d="M324 1573v82q136 -8 225 -8t225 8v-82q-104 8 -225 8t-225 -8zM555 -20q-219 0 -314.5 139.5t-95.5 429.5v643v45t-1 37t-3 32.5t-6 24.5t-10 21.5t-15 14.5t-21 12t-28 6t-36 4v45h487v-45q-28 -1 -48 -5.5t-34 -10t-23 -19.5t-14 -24.5t-7 -36.5t-2.5 -44t-0.5 -57
v-668q0 -69 3 -121t11.5 -110.5t26 -99.5t44.5 -76t68.5 -52.5t96.5 -17.5q116 0 190 118.5t74 360.5v553v63.5t-1.5 54.5t-4.5 50t-9 40.5t-14.5 36t-21.5 26.5t-30 21t-39.5 11.5t-51.5 6.5v45h369v-45q-24 -1 -43.5 -4.5t-34.5 -11.5t-27 -15.5t-20.5 -23.5t-14.5 -27
t-10 -35t-6 -39t-3 -46.5t-1 -50v-57.5v-553q0 -101 -10.5 -181t-37 -150t-69 -116t-108.5 -72.5t-154 -26.5z" />
    <glyph glyph-name="umacron" unicode="&#x16b;" horiz-adv-x="980" 
d="M717 1245q-140 8 -225 8q-86 0 -226 -8v88q99 -8 226 -8q129 0 225 8v-88zM856 219q0 -35 0.5 -51.5t3 -41.5t8 -36t15 -23.5t25.5 -17t38 -4.5v-45h-297l-12 23v247q-47 -131 -123 -210.5t-172 -79.5q-102 0 -164.5 89t-62.5 248v484q0 113 -12.5 143.5t-73.5 30.5v45
h313l-4 -277v-458q0 -108 22 -160.5t74 -52.5q55 0 106.5 72t92.5 206v457q0 38 -0.5 56t-3.5 42t-9.5 33t-18.5 19.5t-30 13.5t-45 4v45h332l-2 -277v-524z" />
    <glyph glyph-name="Ubreve" unicode="&#x16c;" horiz-adv-x="1097" 
d="M549 1563q-80 0 -138.5 62t-68.5 167h23q28 -96 184 -96q154 0 180 96h25q-10 -104 -67 -166.5t-138 -62.5zM555 -20q-219 0 -314.5 139.5t-95.5 429.5v643v45t-1 37t-3 32.5t-6 24.5t-10 21.5t-15 14.5t-21 12t-28 6t-36 4v45h487v-45q-28 -1 -48 -5.5t-34 -10
t-23 -19.5t-14 -24.5t-7 -36.5t-2.5 -44t-0.5 -57v-668q0 -69 3 -121t11.5 -110.5t26 -99.5t44.5 -76t68.5 -52.5t96.5 -17.5q116 0 190 118.5t74 360.5v553v63.5t-1.5 54.5t-4.5 50t-9 40.5t-14.5 36t-21.5 26.5t-30 21t-39.5 11.5t-51.5 6.5v45h369v-45q-24 -1 -43.5 -4.5
t-34.5 -11.5t-27 -15.5t-20.5 -23.5t-14.5 -27t-10 -35t-6 -39t-3 -46.5t-1 -50v-57.5v-553q0 -101 -10.5 -181t-37 -150t-69 -116t-108.5 -72.5t-154 -26.5z" />
    <glyph glyph-name="ubreve" unicode="&#x16d;" horiz-adv-x="980" 
d="M492 1225q-79 0 -138 77.5t-69 204.5h22q15 -66 64 -104.5t121 -38.5t119 38.5t61 104.5h24q-10 -126 -67 -204t-137 -78zM856 219q0 -35 0.5 -51.5t3 -41.5t8 -36t15 -23.5t25.5 -17t38 -4.5v-45h-297l-12 23v247q-47 -131 -123 -210.5t-172 -79.5q-102 0 -164.5 89
t-62.5 248v484q0 113 -12.5 143.5t-73.5 30.5v45h313l-4 -277v-458q0 -108 22 -160.5t74 -52.5q55 0 106.5 72t92.5 206v457q0 38 -0.5 56t-3.5 42t-9.5 33t-18.5 19.5t-30 13.5t-45 4v45h332l-2 -277v-524z" />
    <glyph glyph-name="Uring" unicode="&#x16e;" horiz-adv-x="1097" 
d="M551 1532q-60 0 -106 52.5t-46 121.5q0 67 46 118.5t106 51.5q57 0 102 -51.5t45 -118.5q0 -69 -45 -121.5t-102 -52.5zM551 1579q41 0 66.5 36.5t25.5 90.5q0 49 -26 86t-66 37q-43 0 -69.5 -36t-26.5 -87q0 -55 26.5 -91t69.5 -36zM555 -20q-219 0 -314.5 139.5
t-95.5 429.5v643v45t-1 37t-3 32.5t-6 24.5t-10 21.5t-15 14.5t-21 12t-28 6t-36 4v45h487v-45q-28 -1 -48 -5.5t-34 -10t-23 -19.5t-14 -24.5t-7 -36.5t-2.5 -44t-0.5 -57v-668q0 -69 3 -121t11.5 -110.5t26 -99.5t44.5 -76t68.5 -52.5t96.5 -17.5q116 0 190 118.5
t74 360.5v553v63.5t-1.5 54.5t-4.5 50t-9 40.5t-14.5 36t-21.5 26.5t-30 21t-39.5 11.5t-51.5 6.5v45h369v-45q-24 -1 -43.5 -4.5t-34.5 -11.5t-27 -15.5t-20.5 -23.5t-14.5 -27t-10 -35t-6 -39t-3 -46.5t-1 -50v-57.5v-553q0 -101 -10.5 -181t-37 -150t-69 -116
t-108.5 -72.5t-154 -26.5z" />
    <glyph glyph-name="uring" unicode="&#x16f;" horiz-adv-x="980" 
d="M494 1151q-60 0 -106 52.5t-46 121.5q0 67 46 118.5t106 51.5q57 0 102 -51.5t45 -118.5q0 -69 -45 -121.5t-102 -52.5zM494 1452q-44 0 -70.5 -37.5t-26.5 -89.5q0 -56 26.5 -93.5t70.5 -37.5q41 0 67.5 38t26.5 93q0 52 -27 89.5t-67 37.5zM856 219q0 -35 0.5 -51.5
t3 -41.5t8 -36t15 -23.5t25.5 -17t38 -4.5v-45h-297l-12 23v247q-47 -131 -123 -210.5t-172 -79.5q-102 0 -164.5 89t-62.5 248v484q0 113 -12.5 143.5t-73.5 30.5v45h313l-4 -277v-458q0 -108 22 -160.5t74 -52.5q55 0 106.5 72t92.5 206v457q0 38 -0.5 56t-3.5 42t-9.5 33
t-18.5 19.5t-30 13.5t-45 4v45h332l-2 -277v-524z" />
    <glyph glyph-name="Uhungarumlaut" unicode="&#x170;" horiz-adv-x="1097" 
d="M279 1573q55 71 89 146t40 130q37 13 65 13q38 0 63 -18.5t25 -41.5q0 -39 -78.5 -107t-181.5 -122h-22zM535 1573q54 73 87.5 147.5t39.5 128.5q37 13 65 13q39 0 63.5 -18.5t24.5 -41.5q0 -40 -78.5 -107.5t-183.5 -121.5h-18zM555 -20q-219 0 -314.5 139.5
t-95.5 429.5v643v45t-1 37t-3 32.5t-6 24.5t-10 21.5t-15 14.5t-21 12t-28 6t-36 4v45h487v-45q-28 -1 -48 -5.5t-34 -10t-23 -19.5t-14 -24.5t-7 -36.5t-2.5 -44t-0.5 -57v-668q0 -69 3 -121t11.5 -110.5t26 -99.5t44.5 -76t68.5 -52.5t96.5 -17.5q116 0 190 118.5
t74 360.5v553v63.5t-1.5 54.5t-4.5 50t-9 40.5t-14.5 36t-21.5 26.5t-30 21t-39.5 11.5t-51.5 6.5v45h369v-45q-24 -1 -43.5 -4.5t-34.5 -11.5t-27 -15.5t-20.5 -23.5t-14.5 -27t-10 -35t-6 -39t-3 -46.5t-1 -50v-57.5v-553q0 -101 -10.5 -181t-37 -150t-69 -116
t-108.5 -72.5t-154 -26.5z" />
    <glyph glyph-name="uhungarumlaut" unicode="&#x171;" horiz-adv-x="980" 
d="M504 1473q0 -52 -77 -138t-181 -155h-23q54 90 87.5 185.5t41.5 166.5q28 14 64 14q39 0 63.5 -22.5t24.5 -50.5zM500 1180h-23q110 182 129 352q28 14 64 14q39 0 64.5 -22.5t25.5 -50.5q0 -51 -78 -137t-182 -156zM856 219q0 -35 0.5 -51.5t3 -41.5t8 -36t15 -23.5
t25.5 -17t38 -4.5v-45h-297l-12 23v247q-47 -131 -123 -210.5t-172 -79.5q-102 0 -164.5 89t-62.5 248v484q0 113 -12.5 143.5t-73.5 30.5v45h313l-4 -277v-458q0 -108 22 -160.5t74 -52.5q55 0 106.5 72t92.5 206v457q0 38 -0.5 56t-3.5 42t-9.5 33t-18.5 19.5t-30 13.5
t-45 4v45h332l-2 -277v-524z" />
    <glyph glyph-name="Uogonek" unicode="&#x172;" horiz-adv-x="1097" 
d="M725 1434h369v-45q-24 -1 -43.5 -4.5t-34.5 -11.5t-27 -15.5t-20.5 -23.5t-14.5 -27t-10 -35t-6 -39t-3 -46.5t-1 -50v-57.5v-553q0 -193 -44 -321t-147 -185q-63 -68 -99 -147.5t-36 -134.5q0 -38 19 -63t53 -25q33 0 67.5 32.5t63.5 102.5l18 -12q-35 -98 -91.5 -148.5
t-119.5 -50.5q-61 0 -102 35.5t-41 103.5q0 39 18.5 78.5t55.5 79t66 65.5t77 64q-59 -20 -137 -20q-219 0 -314.5 139.5t-95.5 429.5v643v45t-1 37t-3 32.5t-6 24.5t-10 21.5t-15 14.5t-21 12t-28 6t-36 4v45h487v-45q-28 -1 -48 -5.5t-34 -10t-23 -19.5t-14 -24.5
t-7 -36.5t-2.5 -44t-0.5 -57v-668q0 -69 3 -121t11.5 -110.5t26 -99.5t44.5 -76t68.5 -52.5t96.5 -17.5q116 0 190 118.5t74 360.5v553v63.5t-1.5 54.5t-4.5 50t-9 40.5t-14.5 36t-21.5 26.5t-30 21t-39.5 11.5t-51.5 6.5v45z" />
    <glyph glyph-name="uogonek" unicode="&#x173;" horiz-adv-x="980" 
d="M997 -254l19 -12q-35 -98 -91.5 -148.5t-119.5 -50.5q-61 0 -102 35.5t-41 103.5q0 31 14.5 65t30.5 58.5t52 59t54 50t62 51t53 42.5h-279l-12 23v247q-47 -131 -123 -210.5t-172 -79.5q-102 0 -164.5 89t-62.5 248v484q0 113 -12.5 143.5t-73.5 30.5v45h313l-4 -277
v-458q0 -108 22 -160.5t74 -52.5q55 0 106.5 72t92.5 206v457q0 38 -0.5 56t-3.5 42t-9.5 33t-18.5 19.5t-30 13.5t-45 4v45h332l-2 -277v-524q0 -35 0.5 -51.5t3 -41.5t8 -36t15 -23.5t25.5 -17t38 -4.5v-45q-70 -71 -110.5 -157t-40.5 -144q0 -38 18.5 -63t52.5 -25
q33 0 67.5 32.5t63.5 102.5z" />
    <glyph glyph-name="Wcircumflex" unicode="&#x174;" horiz-adv-x="1607" 
d="M784 1733q-93 -101 -174 -166h-26q114 135 182 264h86q90 -162 180 -264h-26q-99 59 -222 166zM1260 1434h374v-45q-54 -5 -87.5 -18.5t-59 -49t-41 -79t-37.5 -126.5l-303 -1134h-37l-268 960l-264 -960h-37l-322 1159q-15 54 -23 81.5t-21 60t-24.5 47t-30 29.5
t-41.5 21t-56 9v45h512v-45q-38 -3 -59.5 -13.5t-31.5 -27t-8.5 -45t8 -61t18.5 -82.5q3 -13 5 -19l143 -625l25 -125h4l174 651l-27 99q-38 137 -57 173q-30 56 -91 70q-13 3 -28 5v45h529v-45q-35 -2 -59 -8.5t-40.5 -14.5t-24 -24t-11 -30t0 -41t7.5 -48t13 -60
q3 -14 5 -22l146 -623l26 -125h4l189 721q37 140 37 179q1 61 -52 81q-29 11 -79 15v45z" />
    <glyph glyph-name="wcircumflex" unicode="&#x175;" horiz-adv-x="1269" 
d="M416 1184q112 180 180 336h86q81 -188 180 -336h-28q-91 80 -220 227q-10 -14 -36 -50.5t-41.5 -58.5t-42.5 -55.5t-54 -62.5h-24zM397 -18l-237 753q-15 49 -23 73.5t-19.5 56.5t-19.5 45t-19 29.5t-22.5 22t-26.5 9.5t-34 4v45h412v-45q-22 0 -36 -5t-20.5 -18.5
t-8 -27.5t3 -41t10 -49.5t16.5 -61.5l80 -285l32 -151h2l187 684h92l143 -541l39 -145h2l121 401q39 129 39 167q0 56 -55 69q-20 4 -49 4v45h274v-45q-28 0 -48.5 -8.5t-35.5 -22t-30 -47t-26 -65.5t-30 -95l-238 -755h-24l-162 589l-47 185h-2l-215 -774h-25z" />
    <glyph glyph-name="Ycircumflex" unicode="&#x176;" horiz-adv-x="1091" 
d="M602 1733q-93 -101 -174 -166h-27q117 138 183 264h86q90 -162 180 -264h-27q-96 57 -221 166zM739 1434h363v-45q-30 -2 -53 -8t-41.5 -14.5t-34.5 -27t-28 -36.5t-26.5 -51.5t-25.5 -63.5t-29 -82l-200 -567v-297q0 -39 0.5 -57t2.5 -44t7.5 -36.5t15 -24.5t24.5 -19.5
t36 -10t51 -5.5v-45h-516v45q26 1 45.5 3.5t34.5 10t25 13t16.5 20.5t10 25t5.5 34.5t2 40v50.5v295l-221 606q-20 56 -30.5 83t-26 60.5t-27.5 47.5t-30.5 28.5t-39.5 19.5t-51 7v45h532v-45q-110 -4 -120 -62t40 -180q1 -3 1 -4l112 -338l66 -199h2l174 500q18 51 27 77.5
t18.5 62t9 52.5t-5 37.5t-19.5 29.5t-38 16t-58 8v45z" />
    <glyph glyph-name="ycircumflex" unicode="&#x177;" horiz-adv-x="845" 
d="M473 1411q-10 -14 -36 -50.5t-41.5 -58.5t-42.5 -55.5t-54 -62.5h-25q116 186 181 336h86q81 -188 180 -336h-29q-87 76 -219 227zM573 1020h285v-45q-24 0 -42 -4.5t-34 -18.5t-26.5 -28.5t-24 -46.5t-23 -60t-26.5 -80l-317 -973q-38 -115 -87 -169t-100 -54
q-69 0 -120.5 58t-51.5 147q0 75 32.5 125.5t84.5 50.5q45 1 71 -25.5t35 -66.5q-108 -92 -108 -168q0 -33 17 -52.5t44 -19.5q90 0 148 181l76 237l-240 727q-51 155 -79 197.5t-93 42.5v45h438v-45q-72 0 -76.5 -48.5t33.5 -164.5q5 -19 8 -29l68 -250l43 -170h2l133 422
l18 58.5t13.5 48.5t8 42.5t-0.5 32t-9 27t-20.5 17t-32.5 11.5t-47 3v45z" />
    <glyph glyph-name="Ydieresis" unicode="&#x178;" horiz-adv-x="1091" 
d="M557 1567q-36 0 -63 30t-27 72t27 72.5t63 30.5q40 0 68 -35q28 35 67 35q37 0 62.5 -30t25.5 -73t-25.5 -72.5t-62.5 -29.5q-39 0 -67 35q-28 -35 -68 -35zM739 1434h363v-45q-30 -2 -53 -8t-41.5 -14.5t-34.5 -27t-28 -36.5t-26.5 -51.5t-25.5 -63.5t-29 -82l-200 -567
v-297q0 -39 0.5 -57t2.5 -44t7.5 -36.5t15 -24.5t24.5 -19.5t36 -10t51 -5.5v-45h-516v45q26 1 45.5 3.5t34.5 10t25 13t16.5 20.5t10 25t5.5 34.5t2 40v50.5v295l-221 606q-20 56 -30.5 83t-26 60.5t-27.5 47.5t-30.5 28.5t-39.5 19.5t-51 7v45h532v-45q-110 -4 -120 -62
t40 -180q1 -3 1 -4l112 -338l66 -199h2l174 500q18 51 27 77.5t18.5 62t9 52.5t-5 37.5t-19.5 29.5t-38 16t-58 8v45z" />
    <glyph glyph-name="Zacute" unicode="&#x179;" horiz-adv-x="980" 
d="M397 1563q114 125 127 276q30 12 68 12q40 0 63 -18.5t23 -48.5q0 -49 -71 -107t-187 -114h-23zM59 0l-8 39l592 1337h-260q-113 0 -185.5 -115.5t-82.5 -355.5h-31l6 529h803l8 -39l-590 -1338h242q99 0 166 50.5t109 175t49 327.5h34l-8 -610h-844z" />
    <glyph glyph-name="zacute" unicode="&#x17a;" horiz-adv-x="792" 
d="M256 1180q54 92 87.5 187.5t39.5 164.5q32 14 66 14q39 0 63.5 -22.5t24.5 -50.5q0 -52 -77.5 -139t-180.5 -154h-23zM41 0l-2 33l385 829l55 107h-149q-82 0 -128 -29t-70 -100t-32 -205h-28l16 385h635l2 -33l-375 -827l-55 -109h141q55 0 91 4.5t67.5 20t49.5 40
t32.5 68.5t22 101t12.5 143h28l-20 -428h-678z" />
    <glyph glyph-name="Zdotaccent" unicode="&#x17b;" horiz-adv-x="980" 
d="M492 1567q-36 0 -63.5 30t-27.5 72t27.5 72.5t63.5 30.5t62 -30.5t26 -72.5q0 -43 -25.5 -72.5t-62.5 -29.5zM59 0l-8 39l592 1337h-260q-113 0 -185.5 -115.5t-82.5 -355.5h-31l6 529h803l8 -39l-590 -1338h242q99 0 166 50.5t109 175t49 327.5h34l-8 -610h-844z" />
    <glyph glyph-name="zdotaccent" unicode="&#x17c;" horiz-adv-x="792" 
d="M397 1239q-36 0 -63 29.5t-27 72.5q0 41 27.5 72t62.5 31q36 0 62 -30.5t26 -72.5q0 -43 -26 -72.5t-62 -29.5zM41 0l-2 33l385 829l55 107h-149q-82 0 -128 -29t-70 -100t-32 -205h-28l16 385h635l2 -33l-375 -827l-55 -109h141q55 0 91 4.5t67.5 20t49.5 40t32.5 68.5
t22 101t12.5 143h28l-20 -428h-678z" />
    <glyph glyph-name="Zcaron" unicode="&#x17d;" horiz-adv-x="980" 
d="M449 1567q-85 155 -181 264h27q94 -55 221 -166q70 78 174 166h27q-109 -131 -182 -264h-86zM59 0l-8 39l592 1337h-260q-113 0 -185.5 -115.5t-82.5 -355.5h-31l6 529h803l8 -39l-590 -1338h242q99 0 166 50.5t109 175t49 327.5h34l-8 -610h-844z" />
    <glyph glyph-name="zcaron" unicode="&#x17e;" horiz-adv-x="792" 
d="M354 1184q-76 179 -178 336h25q99 -89 221 -228q100 146 172 228h29q-117 -183 -183 -336h-86zM41 0l-2 33l385 829l55 107h-149q-82 0 -128 -29t-70 -100t-32 -205h-28l16 385h635l2 -33l-375 -827l-55 -109h141q55 0 91 4.5t67.5 20t49.5 40t32.5 68.5t22 101t12.5 143
h28l-20 -428h-678z" />
    <glyph glyph-name="florin" unicode="&#x192;" horiz-adv-x="761" 
d="M588 1376q73 0 111 -56t38 -126q0 -62 -27 -107t-71 -45q-28 0 -49 18.5t-27 49.5q74 91 74 162q0 30 -13.5 47.5t-37.5 17.5q-16 0 -29.5 -11t-24.5 -35.5t-19.5 -51.5t-16 -73t-13 -85t-11.5 -102t-9.5 -109.5t-9.5 -121.5l174 2v-45l-178 4q-1 -17 -17 -226
q-17 -206 -42.5 -360.5t-66 -280.5t-101 -192t-140.5 -66q-72 0 -111 54.5t-39 123.5q0 61 28 108.5t71 47.5q59 0 75 -74q-73 -73 -73 -153q0 -30 13 -48t36 -18q67 0 102 227q19 121 43 452l13 169q7 101 22 236h-151l2 39h155q18 149 44 260t63.5 196t91 128.5
t121.5 43.5z" />
    <glyph glyph-name="AEacute" unicode="&#x1fc;" horiz-adv-x="1601" 
d="M1096 1784q0 -49 -71 -107t-187 -114h-23q114 125 127 276q30 12 68 12q40 0 63 -18.5t23 -48.5zM1481 559h32l-6 -559h-913v45q22 1 38.5 4t30 6t22.5 11.5t16 14.5t11 21t6.5 24.5t3.5 32.5t1 37.5v45.5v473h-268l-154 -369q-65 -154 -74 -195q-15 -67 30 -89
q32 -15 101 -17v-45h-391v45q52 2 86.5 15t66.5 51.5t57 88.5t65 144l432 1024q-36 15 -150 18v48h967l6 -486h-35q-9 219 -84 323.5t-190 104.5h-125q-67 0 -82.5 -31.5t-15.5 -150.5v-422h82q91 0 136.5 23.5t67 84t25.5 183.5h29v-643h-29q-5 127 -28 189.5t-67.5 84
t-133.5 21.5h-82v-477v-49t1.5 -38.5t4 -32.5t7 -23t11.5 -18.5t17.5 -10.5t24 -7.5t32.5 -1.5h94q304 0 324 502zM479 772h244v463q0 69 -10 94z" />
    <glyph glyph-name="aeacute" unicode="&#x1fd;" horiz-adv-x="1292" 
d="M786 1473q0 -52 -77.5 -139t-180.5 -154h-22q54 92 87.5 187.5t39.5 164.5q32 14 65 14q39 0 63.5 -22.5t24.5 -50.5zM1212 342h29q-2 -56 -15 -107.5t-40 -98.5t-64.5 -81t-92.5 -54.5t-120 -20.5q-128 0 -224 79t-144 220q-72 -299 -281 -299q-99 0 -158 72t-59 190
q0 132 80 215q58 58 155 92.5t250 66.5v129q0 130 -32 188t-101 58q-70 0 -106 -55q-21 -37 -21 -72q0 -80 76 -162q-12 -43 -48.5 -69.5t-82.5 -26.5q-61 0 -93 48.5t-32 117.5q0 124 92 196t232 72q157 0 250 -104q101 104 231 104q170 0 258 -133t88 -372h-489v-25
q0 -71 4 -128t13 -112.5t25.5 -96t40.5 -72.5t58.5 -48t79.5 -16q106 0 171 89.5t70 215.5zM891 991q-129 0 -141 -407h256q1 91 -3 158t-16 127t-36 91t-60 31zM369 94q65 0 107 86.5t52 208.5v180q-72 -17 -117.5 -43.5t-80.5 -70.5q-56 -70 -56 -181q0 -79 25 -129.5
t70 -50.5z" />
    <glyph glyph-name="Oslashacute" unicode="&#x1fe;" horiz-adv-x="1163" 
d="M770 1784q0 -49 -71 -107t-187 -114h-23q114 125 127 276q30 12 68 12q40 0 63 -18.5t23 -48.5zM915 1284q88 -100 138.5 -244t50.5 -323q0 -134 -30 -253t-81 -206t-117.5 -150.5t-142 -95.5t-151.5 -32q-162 0 -301 133q-7 -12 -74 -138l-33 41l74 134
q-88 100 -138.5 244t-50.5 323q0 167 46 309t120.5 233.5t167.5 143t189 51.5q163 0 299 -133q3 5 73 137l35 -41zM326 717q0 -240 24 -381q85 154 449 829q-59 236 -217 236q-61 0 -106.5 -34t-74 -92t-45.5 -147.5t-23.5 -187t-6.5 -223.5zM582 33q75 0 127 49.5t79 145.5
t38.5 213t11.5 276q0 234 -25 381q-306 -562 -448 -830q56 -235 217 -235z" />
    <glyph glyph-name="oslashacute" unicode="&#x1ff;" horiz-adv-x="909" 
d="M594 1473q0 -52 -77.5 -139t-180.5 -154h-23q54 92 87.5 187.5t39.5 164.5q32 14 66 14q39 0 63.5 -22.5t24.5 -50.5zM737 899q121 -150 121 -389q0 -238 -116 -384t-287 -146q-146 0 -258 112q-44 -65 -70 -110l-35 24l80 117q-121 150 -121 387q0 119 32.5 219.5
t87.5 168t128.5 105t155.5 37.5q149 0 256 -110l73 110l33 -24q-9 -13 -37 -53.5t-43 -63.5zM293 510q0 -121 8 -197q195 289 301 451q-36 227 -147 227q-162 0 -162 -481zM455 29q85 0 123 122t38 359q0 122 -8 201q-130 -193 -301 -449q35 -233 148 -233z" />
    <glyph glyph-name="uni0218" unicode="&#x218;" horiz-adv-x="983" 
d="M88 -20l-6 577h33q7 -140 53 -256t135.5 -191t206.5 -75q114 0 188 72.5t74 199.5q0 34 -9.5 64.5t-22.5 54.5t-40 48.5t-49 41.5t-63 40t-68.5 37t-77.5 38q-44 21 -60 28.5t-55.5 28t-55.5 32t-47 34.5t-45 41.5t-34 47t-28.5 58t-15.5 67t-7 79.5q0 177 107 280
q55 64 128 95.5t150 31.5q92 0 176 -43q27 -14 58 -35t49.5 -33t30.5 -12q22 0 33 26.5t14 96.5h26l8 -530h-32q-5 93 -30.5 176t-69 151t-111.5 108t-152 40q-99 0 -166 -66t-67 -166q0 -52 17.5 -92t63 -74t77.5 -52t106 -53q20 -10 31 -15q54 -26 84.5 -41t76.5 -42
t72.5 -50t58 -57.5t48 -71t28 -85.5t11.5 -106q0 -193 -121 -317q-128 -131 -291 -131q-97 0 -197 51q-24 13 -60 35t-54.5 31t-30.5 9q-47 0 -47 -126h-31zM424 -508l-12 25q46 39 72 84.5t26 83.5q0 30 -43 49q-3 2 -14 7t-15.5 7.5t-13 10t-12.5 15t-7.5 20t-3.5 28.5
q0 39 25 65.5t59 26.5q42 0 69.5 -41.5t27.5 -101.5q0 -74 -42 -147t-116 -132z" />
    <glyph glyph-name="uni0219" unicode="&#x219;" horiz-adv-x="763" 
d="M68 -20l8 428h28q2 -84 23 -151t51.5 -108.5t70.5 -69.5t78 -39t76 -11q70 0 123.5 47t53.5 127q0 45 -18 79t-56.5 59t-76.5 40.5t-99 34.5q-59 19 -101.5 41.5t-80 58.5t-56.5 90.5t-18 126.5q0 166 112 246q80 61 191 61q84 0 160 -41q17 -10 36 -24.5t30 -22.5t18 -8
q13 0 16.5 17.5t5.5 78.5h27l4 -368h-29q-12 148 -85.5 232.5t-180.5 84.5q-80 0 -136.5 -43t-56.5 -125q0 -33 11 -59t27 -43.5t46.5 -33.5t57.5 -26t71 -24q61 -19 99 -34t83.5 -42t71 -59t43 -82.5t17.5 -114.5q0 -171 -129 -264q-88 -59 -181 -59q-104 0 -192 55
q-14 9 -29 19.5t-23 16t-15.5 9.5t-12.5 4q-19 0 -27.5 -23t-11.5 -81h-24zM315 -508l-12 25q46 39 72 84.5t26 83.5q0 30 -43 49q-3 1 -14 6.5t-15.5 8t-13 10t-12 15t-7 20t-3.5 28.5q0 39 25 65.5t59 26.5q42 0 69 -41.5t27 -101.5q0 -74 -42 -147t-116 -132z" />
    <glyph glyph-name="uni0237" unicode="&#x237;" horiz-adv-x="464" 
d="M61 -461q-98 0 -158.5 56.5t-60.5 152.5q0 70 30.5 115t82.5 45q67 0 92 -80q-65 -76 -65 -145q0 -42 18.5 -68.5t50.5 -26.5q29 0 48.5 23t28.5 67t12 87t3 102v934q0 36 -1 54.5t-7.5 46t-19.5 40.5t-38.5 22.5t-62.5 8.5v47l344 12l15 -12l-4 -293v-766
q0 -190 -84 -306t-224 -116z" />
    <glyph glyph-name="gravecomb" unicode="&#x300;" 
d="M-82 1180q-104 69 -181 155.5t-77 137.5q0 28 25 50.5t63 22.5q34 0 66 -14q8 -70 41 -166t86 -186h-23z" />
    <glyph glyph-name="acutecomb" unicode="&#x301;" 
d="M-340 1180q54 92 87.5 187.5t39.5 164.5q32 14 66 14q39 0 63.5 -22.5t24.5 -50.5q0 -52 -77.5 -139t-180.5 -154h-23z" />
    <glyph glyph-name="uni0302" unicode="&#x302;" 
d="M-516 1184q112 174 182 336h86q81 -188 180 -336h-28q-87 76 -219 227q-10 -14 -36 -50.5t-41.5 -58.5t-42.5 -55.5t-54 -62.5h-27z" />
    <glyph glyph-name="tildecomb" unicode="&#x303;" 
d="M-250 1247q-41 0 -110 43t-97 43q-55 0 -63 -84h-21q3 209 117 209q42 0 107 -43t98 -43q58 0 65 84h23q-7 -209 -119 -209z" />
    <glyph glyph-name="uni0304" unicode="&#x304;" 
d="M-516 1245v88q101 -8 227 -8q130 0 226 8v-88q-140 8 -226 8q-83 0 -227 -8z" />
    <glyph glyph-name="uni0306" unicode="&#x306;" 
d="M-283 1225q-79 0 -137.5 77.5t-68.5 204.5h22q15 -66 63.5 -104.5t120.5 -38.5t119.5 38.5t61.5 104.5h24q-10 -125 -67.5 -203.5t-137.5 -78.5z" />
    <glyph glyph-name="uni0307" unicode="&#x307;" 
d="M-129 1239q-36 0 -63 29.5t-27 72.5q0 41 27.5 72t62.5 31q36 0 62 -30.5t26 -72.5q0 -43 -26 -72.5t-62 -29.5z" />
    <glyph glyph-name="uni0308" unicode="&#x308;" 
d="M-225 1444q37 0 62.5 -30t25.5 -73q0 -44 -25.5 -73t-62.5 -29q-44 0 -68 35q-24 -35 -67 -35q-36 0 -63.5 29.5t-27.5 72.5q0 41 27.5 72t63.5 31q41 0 67 -37q26 37 68 37z" />
    <glyph glyph-name="uni030A" unicode="&#x30a;" 
d="M-199 1151q-60 0 -105.5 52.5t-45.5 121.5q0 68 45.5 119t105.5 51q57 0 102.5 -51.5t45.5 -118.5q0 -69 -45.5 -121.5t-102.5 -52.5zM-199 1194q41 0 68 38t27 93q0 52 -27 89.5t-68 37.5q-44 0 -70 -37.5t-26 -89.5q0 -56 26 -93.5t70 -37.5z" />
    <glyph glyph-name="uni030B" unicode="&#x30b;" 
d="M-567 1180q54 90 87.5 185.5t41.5 166.5q28 14 63 14q39 0 63.5 -22.5t24.5 -50.5q0 -52 -77 -138t-181 -155h-22zM-313 1180q110 182 129 352q28 14 63 14q39 0 64.5 -22.5t25.5 -50.5q0 -51 -78 -137t-182 -156h-22z" />
    <glyph glyph-name="uni030C" unicode="&#x30c;" 
d="M-336 1184q-78 183 -180 336h27q99 -89 221 -228q100 146 172 228h28q-114 -178 -182 -336h-86z" />
    <glyph glyph-name="uni0327" unicode="&#x327;" 
d="M-238 -457q-49 0 -97 20.5t-81 57.5l8 31q57 -47 113 -47q45 0 73.5 34.5t28.5 96.5q0 55 -23.5 84.5t-59.5 29.5q-19 0 -37 -6l-19 31l47 125h23l-35 -117q37 15 78 15q67 0 113.5 -45.5t46.5 -126.5q0 -86 -51.5 -134.5t-127.5 -48.5z" />
    <glyph glyph-name="uni0328" unicode="&#x328;" 
d="M-246 -465q-61 0 -102 35.5t-41 103.5q0 31 14.5 65t30.5 58.5t52 59t54 50t62 51t53 42.5h19q-70 -71 -111 -157t-41 -144q0 -38 19 -63t53 -25q33 0 67.5 32.5t63.5 102.5l18 -12q-35 -98 -91.5 -148.5t-119.5 -50.5z" />
    <glyph glyph-name="uni03BC" unicode="&#x3bc;" horiz-adv-x="1013" 
d="M885 219q0 -35 0.5 -51.5t3 -41.5t8.5 -36t16 -23.5t26.5 -17t39.5 -4.5v-45h-303l-10 14v258q-48 -132 -127.5 -212t-178.5 -80q-69 0 -122 39t-82 114v-526h-31v1194q0 43 -0.5 62t-3 44t-7.5 34t-15 19t-24.5 12.5t-37.5 2.5v45h319l-4 -248v-487q0 -213 101 -213
q116 0 206 284v451q0 35 -0.5 49t-2 37.5t-6 32t-11.5 21t-19.5 16.5t-29.5 8t-41 4v45h340l-4 -240v-561z" />
    <glyph glyph-name="pi" unicode="&#x3c0;" horiz-adv-x="940" 
d="M164 0v915h-162v105h909v-105h-155v-667q0 -201 155 -201v-47q-86 0 -136 62t-50 186v667h-530v-915h-31z" />
    <glyph glyph-name="Wgrave" unicode="&#x1e80;" horiz-adv-x="1607" 
d="M877 1563q-117 53 -189 112.5t-72 108.5q0 30 23.5 48.5t62.5 18.5q38 0 68 -12q5 -62 36.5 -136.5t90.5 -139.5h-20zM1260 1434h374v-45q-54 -5 -87.5 -18.5t-59 -49t-41 -79t-37.5 -126.5l-303 -1134h-37l-268 960l-264 -960h-37l-322 1159q-15 54 -23 81.5t-21 60
t-24.5 47t-30 29.5t-41.5 21t-56 9v45h512v-45q-38 -3 -59.5 -13.5t-31.5 -27t-8.5 -45t8 -61t18.5 -82.5q3 -13 5 -19l143 -625l25 -125h4l174 651l-27 99q-38 137 -57 173q-30 56 -91 70q-13 3 -28 5v45h529v-45q-35 -2 -59 -8.5t-40.5 -14.5t-24 -24t-11 -30t0 -41
t7.5 -48t13 -60q3 -14 5 -22l146 -623l26 -125h4l189 721q37 140 37 179q1 61 -52 81q-29 11 -79 15v45z" />
    <glyph glyph-name="wgrave" unicode="&#x1e81;" horiz-adv-x="1269" 
d="M754 1180q-104 69 -181 155.5t-77 137.5q0 28 25 50.5t63 22.5q33 0 65 -14q8 -70 41 -166t86 -186h-22zM397 -18l-237 753q-15 49 -23 73.5t-19.5 56.5t-19.5 45t-19 29.5t-22.5 22t-26.5 9.5t-34 4v45h412v-45q-22 0 -36 -5t-20.5 -18.5t-8 -27.5t3 -41t10 -49.5
t16.5 -61.5l80 -285l32 -151h2l187 684h92l143 -541l39 -145h2l121 401q39 129 39 167q0 56 -55 69q-20 4 -49 4v45h274v-45q-28 0 -48.5 -8.5t-35.5 -22t-30 -47t-26 -65.5t-30 -95l-238 -755h-24l-162 589l-47 185h-2l-215 -774h-25z" />
    <glyph glyph-name="Wacute" unicode="&#x1e82;" horiz-adv-x="1607" 
d="M993 1784q0 -49 -71 -107t-187 -114h-22q114 125 127 276q30 12 67 12q40 0 63 -18.5t23 -48.5zM1260 1434h374v-45q-54 -5 -87.5 -18.5t-59 -49t-41 -79t-37.5 -126.5l-303 -1134h-37l-268 960l-264 -960h-37l-322 1159q-15 54 -23 81.5t-21 60t-24.5 47t-30 29.5
t-41.5 21t-56 9v45h512v-45q-38 -3 -59.5 -13.5t-31.5 -27t-8.5 -45t8 -61t18.5 -82.5q3 -13 5 -19l143 -625l25 -125h4l174 651l-27 99q-38 137 -57 173q-30 56 -91 70q-13 3 -28 5v45h529v-45q-35 -2 -59 -8.5t-40.5 -14.5t-24 -24t-11 -30t0 -41t7.5 -48t13 -60
q3 -14 5 -22l146 -623l26 -125h4l189 721q37 140 37 179q1 61 -52 81q-29 11 -79 15v45z" />
    <glyph glyph-name="wacute" unicode="&#x1e83;" horiz-adv-x="1269" 
d="M496 1180q54 92 87.5 187.5t39.5 164.5q32 14 65 14q39 0 63.5 -22.5t24.5 -50.5q0 -52 -77.5 -139t-180.5 -154h-22zM397 -18l-237 753q-15 49 -23 73.5t-19.5 56.5t-19.5 45t-19 29.5t-22.5 22t-26.5 9.5t-34 4v45h412v-45q-22 0 -36 -5t-20.5 -18.5t-8 -27.5t3 -41
t10 -49.5t16.5 -61.5l80 -285l32 -151h2l187 684h92l143 -541l39 -145h2l121 401q39 129 39 167q0 56 -55 69q-20 4 -49 4v45h274v-45q-28 0 -48.5 -8.5t-35.5 -22t-30 -47t-26 -65.5t-30 -95l-238 -755h-24l-162 589l-47 185h-2l-215 -774h-25z" />
    <glyph glyph-name="Wdieresis" unicode="&#x1e84;" horiz-adv-x="1607" 
d="M739 1567q-36 0 -63 30t-27 72t27 72.5t63 30.5q40 0 68 -35q28 35 67 35q37 0 63 -30t26 -73t-26 -72.5t-63 -29.5q-39 0 -67 35q-28 -35 -68 -35zM1260 1434h374v-45q-54 -5 -87.5 -18.5t-59 -49t-41 -79t-37.5 -126.5l-303 -1134h-37l-268 960l-264 -960h-37
l-322 1159q-15 54 -23 81.5t-21 60t-24.5 47t-30 29.5t-41.5 21t-56 9v45h512v-45q-38 -3 -59.5 -13.5t-31.5 -27t-8.5 -45t8 -61t18.5 -82.5q3 -13 5 -19l143 -625l25 -125h4l174 651l-27 99q-38 137 -57 173q-30 56 -91 70q-13 3 -28 5v45h529v-45q-35 -2 -59 -8.5
t-40.5 -14.5t-24 -24t-11 -30t0 -41t7.5 -48t13 -60q3 -14 5 -22l146 -623l26 -125h4l189 721q37 140 37 179q1 61 -52 81q-29 11 -79 15v45z" />
    <glyph glyph-name="wdieresis" unicode="&#x1e85;" horiz-adv-x="1269" 
d="M569 1239q-36 0 -63 29.5t-27 72.5q0 41 27.5 72t62.5 31q42 0 68 -37q26 37 68 37q37 0 62.5 -30t25.5 -73q0 -44 -25.5 -73t-62.5 -29q-44 0 -68 35q-24 -35 -68 -35zM1006 1020h274v-45q-28 0 -48.5 -8.5t-35.5 -22t-30 -47t-26 -65.5t-30 -95l-238 -755h-24l-162 589
l-47 185h-2l-215 -774h-25l-237 753q-15 49 -23 73.5t-19.5 56.5t-19.5 45t-19 29.5t-22.5 22t-26.5 9.5t-34 4v45h412v-45q-22 0 -36 -5t-20.5 -18.5t-8 -27.5t3 -41t10 -49.5t16.5 -61.5l80 -285l32 -151h2l187 684h92l143 -541l39 -145h2l121 401q39 129 39 167
q0 56 -55 69q-20 4 -49 4v45z" />
    <glyph glyph-name="Ygrave" unicode="&#x1ef2;" horiz-adv-x="1091" 
d="M694 1563q-116 53 -188 112t-72 109q0 30 23.5 48.5t62.5 18.5q38 0 68 -12q5 -62 36.5 -136.5t90.5 -139.5h-21zM739 1434h363v-45q-30 -2 -53 -8t-41.5 -14.5t-34.5 -27t-28 -36.5t-26.5 -51.5t-25.5 -63.5t-29 -82l-200 -567v-297q0 -39 0.5 -57t2.5 -44t7.5 -36.5
t15 -24.5t24.5 -19.5t36 -10t51 -5.5v-45h-516v45q26 1 45.5 3.5t34.5 10t25 13t16.5 20.5t10 25t5.5 34.5t2 40v50.5v295l-221 606q-20 56 -30.5 83t-26 60.5t-27.5 47.5t-30.5 28.5t-39.5 19.5t-51 7v45h532v-45q-110 -4 -120 -62t40 -180q1 -3 1 -4l112 -338l66 -199h2
l174 500q18 51 27 77.5t18.5 62t9 52.5t-5 37.5t-19.5 29.5t-38 16t-58 8v45z" />
    <glyph glyph-name="ygrave" unicode="&#x1ef3;" horiz-adv-x="845" 
d="M612 1180q-104 69 -181 155.5t-77 137.5q0 28 25 50.5t63 22.5q34 0 66 -14q8 -70 41 -166t86 -186h-23zM573 1020h285v-45q-24 0 -42 -4.5t-34 -18.5t-26.5 -28.5t-24 -46.5t-23 -60t-26.5 -80l-317 -973q-38 -115 -87 -169t-100 -54q-69 0 -120.5 58t-51.5 147
q0 75 32.5 125.5t84.5 50.5q45 1 71 -25.5t35 -66.5q-108 -92 -108 -168q0 -33 17 -52.5t44 -19.5q90 0 148 181l76 237l-240 727q-51 155 -79 197.5t-93 42.5v45h438v-45q-72 0 -76.5 -48.5t33.5 -164.5q5 -19 8 -29l68 -250l43 -170h2l133 422l18 58.5t13.5 48.5t8 42.5
t-0.5 32t-9 27t-20.5 17t-32.5 11.5t-47 3v45z" />
    <glyph glyph-name="endash" unicode="&#x2013;" horiz-adv-x="794" 
d="M72 537v69h651v-69h-651z" />
    <glyph glyph-name="emdash" unicode="&#x2014;" horiz-adv-x="1429" 
d="M72 537v69h1286v-69h-1286z" />
    <glyph glyph-name="quoteleft" unicode="&#x2018;" horiz-adv-x="452" 
d="M248 893q-72 0 -117 60t-45 149q0 115 68.5 224t193.5 190l21 -29q-96 -74 -138.5 -158.5t-13.5 -126.5q6 -19 34.5 -34t58.5 -25.5t54.5 -40t24.5 -76.5q0 -57 -40.5 -95t-100.5 -38z" />
    <glyph glyph-name="quoteright" unicode="&#x2019;" horiz-adv-x="473" 
d="M125 858l-21 31q97 71 139.5 156t12.5 129q-5 16 -25.5 28t-44.5 21.5t-48 22t-40 38.5t-16 64q0 57 41 96t102 39q72 0 117 -60.5t45 -148.5q0 -113 -68 -224t-194 -192z" />
    <glyph glyph-name="quotesinglbase" unicode="&#x201a;" horiz-adv-x="538" 
d="M152 -354l-21 28q99 72 143 158t15 129q-7 21 -37.5 35.5t-61.5 24t-56 38.5t-25 76q0 60 43 103t104 43q74 0 121 -62t47 -153q0 -117 -71.5 -227t-200.5 -193z" />
    <glyph glyph-name="quotedblleft" unicode="&#x201c;" horiz-adv-x="983" 
d="M326 893q-72 0 -117 60t-45 149q0 115 68.5 224t193.5 190l23 -29q-98 -72 -140.5 -157.5t-13.5 -127.5q6 -19 34.5 -34t58.5 -25.5t54.5 -40t24.5 -76.5q0 -57 -40.5 -95t-100.5 -38zM705 893q-73 0 -117.5 59.5t-44.5 149.5q0 115 68.5 224t193.5 190l22 -29
q-98 -74 -140.5 -158t-12.5 -127q6 -20 35 -35.5t58.5 -25.5t54 -39.5t24.5 -75.5q0 -57 -40.5 -95t-100.5 -38z" />
    <glyph glyph-name="quotedblright" unicode="&#x201d;" horiz-adv-x="825" 
d="M113 858l-23 31q96 74 139.5 157.5t12.5 127.5q-6 19 -35 34t-58.5 25t-54 39.5t-24.5 75.5q0 57 40 96t101 39q72 0 117 -60.5t45 -148.5q0 -114 -68 -224.5t-192 -191.5zM489 858l-22 31q97 73 140.5 157.5t13.5 127.5q-7 19 -36 34t-58.5 25t-53.5 39.5t-24 75.5
q0 57 39.5 96t99.5 39q73 0 118.5 -60.5t45.5 -148.5q0 -115 -69 -225t-194 -191z" />
    <glyph glyph-name="quotedblbase" unicode="&#x201e;" horiz-adv-x="1001" 
d="M188 -354l-20 28q97 72 141 158t15 129q-7 21 -37.5 35.5t-61 24t-55.5 38.5t-25 76q0 60 43.5 103t104.5 43q74 0 120 -62t46 -153q0 -117 -71 -227t-200 -193zM575 -354l-18 28q98 71 142 157t14 130q-6 21 -36 35.5t-61 24t-56 38.5t-25 76q0 61 42.5 103.5
t104.5 42.5q74 0 120 -62t46 -153q0 -116 -71.5 -226.5t-201.5 -193.5z" />
    <glyph glyph-name="dagger" unicode="&#x2020;" horiz-adv-x="692" 
d="M336 -35q-4 278 -16.5 480.5t-22.5 304t-10 149.5q0 41 23 117.5t26 154.5q-48 -3 -85 -19t-61.5 -31t-46.5 -15q-28 0 -48.5 20.5t-20.5 61.5q0 40 20.5 60t48.5 20q22 0 46.5 -15.5t61.5 -32.5t85 -20q-3 63 -16.5 110t-26 78t-12.5 58q0 35 17 62.5t48 27.5
q33 0 50.5 -26.5t15.5 -63.5q0 -26 -12.5 -57.5t-26 -78.5t-15.5 -110q49 3 86 20t61 32.5t46 15.5q28 0 49 -20t21 -60q0 -41 -21 -61.5t-49 -20.5q-22 0 -46 15t-61 31t-86 19q2 -78 25 -155.5t23 -118.5q0 -45 -10.5 -148t-22 -304t-13.5 -480h-24z" />
    <glyph glyph-name="daggerdbl" unicode="&#x2021;" horiz-adv-x="692" 
d="M346 80q-31 0 -48 28t-17 62q0 27 12.5 57.5t26 77.5t16.5 109q-38 -1 -70 -11.5t-48.5 -22.5t-36.5 -22t-38 -10q-28 0 -48.5 20t-20.5 60t20.5 61t48.5 21q22 0 46.5 -15t61.5 -32.5t85 -20.5q-3 90 -19 200.5t-16 164.5q0 56 16 165.5t19 198.5q-48 -3 -85 -19
t-61.5 -31t-46.5 -15q-28 0 -48.5 20.5t-20.5 61.5q0 40 20.5 60t48.5 20q22 0 46.5 -15.5t61.5 -32.5t85 -20q-3 63 -16.5 110t-26 78t-12.5 58q0 35 17 62.5t48 27.5q33 0 50.5 -26.5t15.5 -63.5q0 -26 -12.5 -57.5t-26 -78.5t-15.5 -110q49 3 86 20t61 32.5t46 15.5
q28 0 49 -20t21 -60q0 -41 -21 -61.5t-49 -20.5q-22 0 -46 15t-61 31t-86 19q2 -90 18.5 -200t16.5 -164q0 -52 -16.5 -162.5t-18.5 -202.5q49 3 86 20.5t61 32.5t46 15q28 0 49 -20.5t21 -61.5q0 -40 -21 -60t-49 -20q-21 0 -46 16t-61 32.5t-86 17.5q2 -62 15.5 -108.5
t26 -78t12.5 -57.5q2 -36 -16 -63t-50 -27z" />
    <glyph glyph-name="bullet" unicode="&#x2022;" horiz-adv-x="825" 
d="M340 485q-95 0 -158 65t-63 159q0 96 63.5 162.5t157.5 66.5q95 0 157 -66t62 -163q0 -95 -61 -159.5t-158 -64.5z" />
    <glyph glyph-name="ellipsis" unicode="&#x2026;" horiz-adv-x="1603" 
d="M231 -23q-65 0 -107 43.5t-42 106.5q0 64 42.5 109t106.5 45q63 0 104.5 -45t41.5 -109t-41 -107t-105 -43zM754 -23q-65 0 -106.5 43.5t-41.5 106.5q0 64 42 109t106 45q63 0 104 -45t41 -109t-40.5 -107t-104.5 -43zM1276 -23q-65 0 -106.5 43.5t-41.5 106.5
q0 64 42 109t106 45q63 0 104 -45t41 -109t-40.5 -107t-104.5 -43z" />
    <glyph glyph-name="perthousand" unicode="&#x2030;" horiz-adv-x="1615" 
d="M217 -23l-59 37q405 726 708 1409l60 -37q-421 -774 -709 -1409zM307 707q-98 0 -173 100t-75 254t75 254t173 100t172 -100t74 -254t-74 -254t-172 -100zM307 752q60 0 84.5 78.5t24.5 230.5t-24.5 230.5t-84.5 78.5q-62 0 -86 -77.5t-24 -231.5q0 -156 24 -232.5
t86 -76.5zM776 -20q-98 0 -172 100t-74 254t74 254t172 100t171 -100t73 -254t-73 -254t-171 -100zM1319 -20q-97 0 -170.5 100t-73.5 254t73.5 254t170.5 100q98 0 173 -100t75 -254t-75 -254t-173 -100zM776 25q61 0 85 77.5t24 231.5q0 151 -24 229t-85 78
q-62 0 -86 -77.5t-24 -229.5q0 -154 24 -231.5t86 -77.5zM1319 25q61 0 86 78t25 231q0 151 -25 229t-86 78t-85 -77.5t-24 -229.5q0 -154 24 -231.5t85 -77.5z" />
    <glyph glyph-name="guilsinglleft" unicode="&#x2039;" horiz-adv-x="421" 
d="M311 150l-243 385l243 385l19 -15l-146 -370l146 -371z" />
    <glyph glyph-name="guilsinglright" unicode="&#x203a;" horiz-adv-x="421" 
d="M113 150l-21 14l148 371l-148 370l21 15l241 -385z" />
    <glyph glyph-name="fraction" unicode="&#x2044;" horiz-adv-x="204" 
d="M-223 -39l-60 37q373 702 707 1475l61 -37q-347 -649 -708 -1475z" />
    <glyph glyph-name="uni2070" unicode="&#x2070;" horiz-adv-x="571" 
d="M285 1014q-98 0 -172 115t-74 274q0 162 74 276.5t172 114.5q101 0 175.5 -114.5t74.5 -276.5q0 -160 -74.5 -274.5t-175.5 -114.5zM285 1047q100 0 100 356q0 184 -24 271t-76 87q-51 0 -75 -87t-24 -271q0 -356 99 -356z" />
    <glyph glyph-name="uni2074" unicode="&#x2074;" horiz-adv-x="505" 
d="M477 1214h-84v-59q0 -26 0.5 -37t4.5 -26.5t12 -21.5t23 -11t38 -6v-29h-299v29q31 1 48.5 7t25 21t9 28.5t1.5 45.5v59h-252v31l369 549h20v-551l84 8v-37zM41 1251l215 -8v336z" />
    <glyph glyph-name="uni2075" unicode="&#x2075;" horiz-adv-x="520" 
d="M254 1487q97 0 163 -64.5t66 -165.5q0 -113 -79 -178t-175 -65q-51 0 -90 18t-61 46.5t-32.5 60t-10.5 63.5q0 47 23.5 83t60.5 36q27 0 45 -21t24 -57q-28 -21 -49.5 -52t-21.5 -58q0 -43 32 -67t72 -24q119 0 119 213q0 203 -123 203q-42 0 -80 -24.5t-57 -69.5l-17 10
q7 15 15 25l39 385h16q145 -66 232 -66q43 0 62 16t26 60h14q-7 -89 -23.5 -133t-43 -58t-78.5 -14q-85 0 -203 27l-17 -184q58 55 152 55z" />
    <glyph glyph-name="uni2076" unicode="&#x2076;" horiz-adv-x="536" 
d="M317 1487q78 0 127.5 -62t49.5 -163q0 -111 -65 -179.5t-161 -68.5q-98 0 -162.5 101t-64.5 276q0 171 75.5 287t200.5 116q66 0 117 -43.5t51 -116.5q0 -45 -21 -73.5t-56 -28.5q-26 0 -45 18t-23 49q66 53 66 95q0 32 -27.5 50.5t-65.5 18.5q-36 0 -62 -21.5t-40 -55
t-22 -88t-10 -105.5t-1 -123q12 56 49.5 86.5t89.5 30.5zM266 1044q88 0 88 203q0 96 -18 149.5t-53 53.5q-45 0 -73 -58t-28 -143q0 -205 84 -205z" />
    <glyph glyph-name="uni2077" unicode="&#x2077;" horiz-adv-x="491" 
d="M496 1784q-15 -34 -64 -140.5t-62 -139.5t-39 -102t-34 -113t-8 -89q0 -80 35 -137q-13 -23 -37.5 -36t-50.5 -13q-40 0 -64.5 30.5t-24.5 83.5q0 54 27.5 116.5t64.5 117t94.5 145.5t98.5 176q-67 -79 -143 -79q-33 0 -91 14t-83 14q-39 0 -56 -20q-13 -17 -24 -117
l-15 2l25 287h18l-16 -158h2q29 172 125 172q32 0 63 -17t52 -38t48 -38t52 -17q34 0 66 43l18 53h23z" />
    <glyph glyph-name="uni2078" unicode="&#x2078;" horiz-adv-x="526" 
d="M334 1473q76 -46 115.5 -95t39.5 -131q0 -108 -69 -170.5t-170 -62.5q-87 0 -150 49t-63 139q0 64 34.5 115t100.5 78q-109 76 -109 190q0 97 59.5 153t149.5 56q77 0 133 -43t56 -117q0 -55 -36 -96t-91 -65zM268 1763q-53 0 -89 -28t-36 -78t33.5 -80.5t128.5 -85.5
l10 -6q33 29 51.5 71t18.5 84q0 58 -30.5 90.5t-86.5 32.5zM260 1044q59 0 102.5 35t43.5 97q0 55 -37.5 90.5t-126.5 85.5q-5 3 -24 13t-28 17q-37 -29 -56 -78.5t-19 -101.5q0 -74 38 -116t107 -42z" />
    <glyph glyph-name="uni2079" unicode="&#x2079;" horiz-adv-x="534" 
d="M266 1794q100 0 165 -101t65 -276q0 -111 -33 -202t-96.5 -146t-147.5 -55q-66 0 -117 43.5t-51 116.5q0 44 21 73t55 29q26 0 46 -18.5t24 -49.5q-66 -52 -66 -94q0 -32 27.5 -51t64.5 -19q30 0 53.5 14.5t38 44t24 63.5t14 84t6 94t1.5 104q-12 -61 -50 -94t-93 -33
q-76 0 -125 63t-49 162q0 113 64 180.5t159 67.5zM254 1358q44 0 72 57.5t28 143.5q0 204 -84 204q-90 0 -90 -202q0 -96 19 -149.5t55 -53.5z" />
    <glyph glyph-name="uni2080" unicode="&#x2080;" horiz-adv-x="571" 
d="M285 -338q-98 0 -172 115t-74 274q0 162 74 276.5t172 114.5q101 0 175.5 -114.5t74.5 -276.5q0 -160 -74.5 -274.5t-175.5 -114.5zM285 -305q100 0 100 356q0 184 -24 271.5t-76 87.5q-51 0 -75 -87t-24 -272q0 -356 99 -356z" />
    <glyph glyph-name="uni2081" unicode="&#x2081;" horiz-adv-x="374" 
d="M266 -199q0 -31 2 -44.5t11 -28.5t29.5 -20.5t56.5 -6.5v-29h-334v29q36 1 56.5 6.5t29.5 20.5t10.5 28.5t1.5 44.5v535q-58 -17 -96 -23l-4 25q69 13 127.5 42t89.5 62h20v-641z" />
    <glyph glyph-name="uni2082" unicode="&#x2082;" horiz-adv-x="534" 
d="M477 -51l19 -2q-6 -67 -14 -112.5t-23 -88t-40.5 -63.5t-62.5 -21q-33 0 -66 20t-55.5 44.5t-50 44.5t-51.5 20q-33 0 -57 -33q-8 -39 -8 -86h-25q0 49 10 91t22 69t38 59t41.5 46.5t48.5 44.5q36 34 55 55t40.5 52.5t30.5 67.5t9 81q0 174 -107 174q-43 0 -75.5 -29.5
t-32.5 -67.5q0 -35 24.5 -69t59.5 -58q-4 -39 -24.5 -60.5t-49.5 -21.5q-38 0 -64 39t-26 93q0 77 57 140.5t164 63.5q100 0 160.5 -51.5t60.5 -148.5q0 -27 -6 -52t-14 -43.5t-24.5 -37.5t-29.5 -31.5t-37 -29t-39 -25.5t-43.5 -26t-43.5 -26q-117 -71 -162 -174
q29 30 71.5 48t84.5 18q30 0 82.5 -16.5t78.5 -16.5q36 0 51 26.5t23 92.5z" />
    <glyph glyph-name="uni2083" unicode="&#x2083;" horiz-adv-x="528" 
d="M285 74q84 -18 144 -69.5t60 -139.5q0 -94 -68.5 -148.5t-182.5 -54.5q-101 0 -151 58t-50 130q0 47 23.5 83t60.5 36q27 0 46.5 -21t25.5 -57q-29 -21 -52.5 -50.5t-23.5 -57.5q0 -44 33.5 -67t78.5 -23q57 0 86 43.5t29 140.5q0 116 -39 154t-125 14v39q13 2 58 -2
q55 9 78.5 52.5t23.5 125.5q0 152 -98 152q-43 0 -78 -23t-35 -61q0 -41 64 -105q-3 -30 -22.5 -50.5t-47.5 -20.5q-33 0 -53.5 30.5t-20.5 77.5q0 83 57.5 132.5t145.5 49.5q38 0 75.5 -10t71.5 -30t55 -56t21 -82t-17.5 -81.5t-48 -56.5t-60.5 -33t-64 -19z" />
    <glyph glyph-name="uni2084" unicode="&#x2084;" horiz-adv-x="505" 
d="M477 -137h-84v-60q0 -26 0.5 -37t4.5 -26.5t12 -21.5t23 -11t38 -6v-29h-299v29q31 1 48.5 7t25 21t9 28.5t1.5 45.5v60h-252v31l369 548h20v-551l84 9v-37zM41 -100l215 -9v336z" />
    <glyph glyph-name="uni2085" unicode="&#x2085;" horiz-adv-x="520" 
d="M254 135q97 0 163 -64t66 -165q0 -113 -79 -178.5t-175 -65.5q-51 0 -90 18t-61 46.5t-32.5 60t-10.5 63.5q0 47 23.5 83t60.5 36q27 0 45 -21t24 -57q-28 -21 -49.5 -52t-21.5 -58q0 -42 32 -66t72 -24q119 0 119 213q0 99 -29 150.5t-94 51.5q-42 0 -80 -24.5
t-57 -69.5l-17 11q6 12 15 24l39 385h16q143 -65 232 -65q43 0 62 15.5t26 59.5h14q-7 -89 -23.5 -132.5t-43 -57.5t-78.5 -14q-90 0 -203 26l-17 -184q58 55 152 55z" />
    <glyph glyph-name="uni2086" unicode="&#x2086;" horiz-adv-x="536" 
d="M317 135q78 0 127.5 -62t49.5 -163q0 -111 -65 -179.5t-161 -68.5q-98 0 -162.5 101t-64.5 276q0 171 75.5 287t200.5 116q66 0 117 -43.5t51 -115.5q0 -45 -21 -74t-56 -29q-25 0 -44.5 18.5t-23.5 49.5q66 53 66 94q0 32 -27.5 51t-65.5 19q-36 0 -62 -21.5t-40 -55
t-22 -88.5t-10 -106t-1 -123q12 56 49.5 86.5t89.5 30.5zM266 -307q88 0 88 203q0 95 -18 148.5t-53 53.5q-45 0 -73 -57.5t-28 -142.5q0 -205 84 -205z" />
    </font>
</defs>
</svg>
