<svg width="182" height="56" viewBox="0 0 182 56" fill="none" xmlns="http://www.w3.org/2000/svg">
<g clip-path="url(#clip0_0_142)">
<path d="M28.073 25.3306C27.223 25.5977 26.3387 25.7399 25.4478 25.7528C24.0656 25.8018 22.6982 26.0551 21.3901 26.5043C18.5061 27.3908 18.7368 29.33 19.1613 30.7113C19.1737 30.7515 20.6391 34.6594 26.029 33.0027C28.7593 32.1634 29.2626 29.487 29.7942 26.6505C29.9458 25.8432 30.0997 25.0263 30.3093 24.2443C29.6395 24.745 28.8806 25.1136 28.073 25.3306Z" fill="white"/>
<path d="M33.3901 21.939C32.2037 22.9887 31.8322 24.9167 31.448 26.9639C31.3568 27.4462 31.2627 27.9392 31.1563 28.4324C31.8941 28.4564 32.6303 28.3493 33.3307 28.1162C36.1158 27.2601 36.4571 23.9652 36.1166 22.8575C35.8909 22.123 35.6302 21.298 33.3901 21.939Z" fill="white"/>
<path d="M19.2466 54.2307L19.2506 54.2295C19.6804 53.703 20.3845 53.4865 21.0357 53.6808L22.3298 54.0666C22.6555 54.1639 23.0078 54.0556 23.2227 53.7921L24.0774 52.7458C24.5071 52.2193 25.2113 52.0029 25.8625 52.1971L27.1565 52.583C27.4823 52.6802 27.8346 52.5719 28.0495 52.3085L28.9042 51.2621C29.3339 50.7357 30.038 50.5192 30.6893 50.7134L31.9833 51.0993C32.3091 51.1966 32.6614 51.0883 32.8763 50.8248L33.731 49.7785C34.1607 49.252 34.8648 49.0355 35.5161 49.2298L36.8101 49.6156C37.1359 49.7129 37.4881 49.6046 37.703 49.3411L38.5577 48.2948C38.9874 47.7683 39.6916 47.5519 40.3428 47.7461L41.6369 48.132C41.9626 48.2292 42.3149 48.1209 42.5298 47.8575L43.3845 46.8111C43.8135 46.2837 44.5183 46.067 45.1696 46.2624L46.4636 46.6483C46.7894 46.7456 47.1417 46.6373 47.3566 46.3738L48.2113 45.3275C48.6409 44.8014 49.3446 44.5851 49.9956 44.779C50.166 44.8317 50.3516 44.7855 50.4774 44.6591C50.6032 44.5326 50.6485 44.3467 50.5949 44.1766L50.0341 42.3521L17.8556 52.2432L18.4164 54.0677C18.4682 54.2369 18.609 54.3639 18.7827 54.398C18.9563 54.4321 19.1347 54.3678 19.2466 54.2307Z" fill="white"/>
<path d="M8.81735 9.4229L7.80972 10.6562C7.38002 11.1827 6.67586 11.3992 6.02462 11.205C5.85479 11.1528 5.67004 11.1988 5.54447 11.3245C5.41891 11.4502 5.37308 11.6349 5.42536 11.8047L5.98619 13.6293L38.1646 3.73815L37.6038 1.91363C37.552 1.74441 37.4112 1.61746 37.2376 1.58336C37.0639 1.54926 36.8856 1.61354 36.7736 1.7506C36.3439 2.27709 35.6397 2.49354 34.9885 2.29931L33.4596 1.84829C33.2741 1.79259 33.0734 1.8543 32.9512 2.00457L31.9436 3.23791C31.5139 3.76441 30.8097 3.98085 30.1585 3.78662L28.6328 3.33196C28.4474 3.27625 28.2466 3.33797 28.1244 3.48824L27.1168 4.72158C26.6871 5.24807 25.9829 5.46452 25.3317 5.27029L23.8061 4.81562C23.6206 4.75992 23.4198 4.82163 23.2977 4.9719L22.29 6.20525C21.8603 6.73174 21.1562 6.94818 20.5049 6.75395L18.9793 6.29929C18.7938 6.24358 18.5931 6.3053 18.4709 6.45557L17.4633 7.68891C17.0335 8.21541 16.3294 8.43185 15.6782 8.23762L14.1525 7.78296C13.9671 7.72725 13.7663 7.78896 13.6441 7.93923L12.6365 9.17258C12.2068 9.69907 11.5026 9.91552 10.8514 9.72129L9.32577 9.26662C9.14029 9.21091 8.93952 9.27263 8.81735 9.4229Z" fill="white"/>
<path d="M24.7949 17.5324C16.8066 19.9879 11.7562 26.6734 13.5292 32.4414C15.3022 38.2094 23.2358 40.9039 31.2241 38.4484C39.2124 35.9929 44.2628 29.3074 42.4898 23.5394C40.7168 17.7714 32.7832 15.0769 24.7949 17.5324ZM33.8254 29.7246C32.8265 30.0574 31.7692 30.1785 30.7209 30.0801C30.0855 32.0804 28.9762 33.8565 26.5226 34.6107C20.6098 36.4282 18.0015 32.6691 17.5515 31.205C16.6094 28.14 17.8296 25.8367 20.8946 24.8946C22.3384 24.4038 23.8463 24.1271 25.3703 24.0735C26.1191 24.0612 26.8623 23.9424 27.5776 23.7208C28.5887 23.4483 29.5023 22.8959 30.2133 22.127C30.9095 21.3693 31.7631 20.7734 32.7142 20.3809C33.7118 20.0743 36.7365 19.1446 37.7257 22.3624C38.3463 24.3816 37.5742 28.5723 33.8254 29.7246Z" fill="white"/>
<path d="M38.8363 5.29215L6.30391 15.2921C6.6758 21.5217 7.75052 27.6894 9.50761 33.6776C11.4162 39.6194 13.9914 45.326 17.1841 50.6884L49.7165 40.6885C49.3446 34.4588 48.2699 28.2911 46.5128 22.3029C44.6042 16.3611 42.029 10.6545 38.8363 5.29215ZM31.7194 40.0572C22.8462 42.7847 13.966 39.5887 11.921 32.9358C9.87601 26.2829 15.4279 18.6508 24.3011 15.9233C33.1743 13.1959 42.0545 16.3918 44.0994 23.0447C46.1444 29.6976 40.5926 37.3297 31.7194 40.0572Z" fill="white"/>
</g>
<path d="M66.929 38.8928C67.0957 38.8928 67.2862 38.8452 67.5006 38.7499C67.7387 38.6547 67.9531 38.5118 68.1436 38.3212C68.358 38.1307 68.5247 37.8925 68.6438 37.6067C68.7867 37.3209 68.8581 36.9875 68.8581 36.6064V16.386C68.8581 16.0049 68.7867 15.6715 68.6438 15.3856C68.5247 15.0998 68.358 14.8617 68.1436 14.6711C67.9531 14.4806 67.7387 14.3377 67.5006 14.2424C67.2862 14.1472 67.0957 14.0995 66.929 14.0995V13.9924H77.2178C77.8847 13.9924 78.5635 14.04 79.2542 14.1353C79.9449 14.2067 80.5998 14.3615 81.2191 14.5997C81.8621 14.814 82.4456 15.1118 82.9696 15.4928C83.5174 15.8739 83.9937 16.3621 84.3986 16.9576C84.8035 17.5768 85.1012 18.2913 85.2917 19.1011C85.5061 19.887 85.6013 20.6968 85.5775 21.5304C85.5775 22.3402 85.4465 23.138 85.1845 23.924C84.9464 24.6861 84.5891 25.353 84.1128 25.9246C83.6603 26.4724 83.1244 26.9249 82.5052 27.2821C81.9097 27.6394 81.2667 27.9252 80.576 28.1395C79.9091 28.3301 79.2065 28.4611 78.4682 28.5325C77.7537 28.604 77.063 28.6397 76.3962 28.6397L71.5375 28.604V36.6064C71.5375 36.9875 71.5971 37.3209 71.7162 37.6067C71.8591 37.8925 72.0258 38.1307 72.2163 38.3212C72.4307 38.5118 72.645 38.6547 72.8594 38.7499C73.0737 38.8452 73.2762 38.8928 73.4667 38.8928V39H66.929V38.8928ZM71.5375 26.2104C71.5375 26.9725 71.7162 27.5084 72.0734 27.818C72.4545 28.1038 72.9189 28.2467 73.4667 28.2467H75.7888C76.67 28.2467 77.4798 28.1515 78.2181 27.9609C78.9803 27.7704 79.7067 27.4131 80.3974 26.8892C81.1119 26.3414 81.6597 25.5792 82.0407 24.6027C82.4456 23.6024 82.6719 22.5664 82.7195 21.4947C82.7671 20.3991 82.6242 19.3511 82.2908 18.3508C81.9812 17.3267 81.4929 16.505 80.8261 15.8858C80.1592 15.2904 79.3733 14.8855 78.4682 14.6711C77.5632 14.4568 76.7296 14.3496 75.9675 14.3496H73.4667C72.9189 14.3496 72.4545 14.5044 72.0734 14.814C71.7162 15.0998 71.5375 15.6238 71.5375 16.386V26.2104ZM91.142 30.9618C91.142 29.7472 91.3325 28.6159 91.7136 27.5679C92.0947 26.52 92.6306 25.615 93.3212 24.8528C94.0357 24.0669 94.8931 23.4595 95.8935 23.0308C96.8938 22.6021 98.0251 22.3878 99.2873 22.3878C100.597 22.3878 101.764 22.6021 102.788 23.0308C103.813 23.4357 104.67 24.0192 105.361 24.7814C106.075 25.5197 106.611 26.4128 106.968 27.4608C107.326 28.5087 107.504 29.6757 107.504 30.9618C107.504 32.2241 107.314 33.3792 106.933 34.4272C106.575 35.4513 106.039 36.3325 105.325 37.0708C104.634 37.8092 103.777 38.3808 102.753 38.7856C101.752 39.1905 100.609 39.393 99.3231 39.393C98.037 39.393 96.8819 39.1905 95.8577 38.7856C94.8574 38.3808 94 37.8092 93.2855 37.0708C92.5948 36.3325 92.059 35.4513 91.6779 34.4272C91.3206 33.3792 91.142 32.2241 91.142 30.9618ZM98.9658 22.8879C98.0131 22.8879 97.2034 23.0904 96.5365 23.4953C95.8935 23.9002 95.3695 24.4241 94.9646 25.0672C94.5835 25.7102 94.2977 26.4366 94.1072 27.2464C93.9405 28.0562 93.8571 28.866 93.8571 29.6757C93.8571 30.5569 93.9524 31.5334 94.1429 32.6052C94.3335 33.6769 94.6431 34.6892 95.0718 35.6418C95.5243 36.5707 96.1197 37.3566 96.858 37.9997C97.5964 38.6427 98.5252 38.9643 99.6446 38.9643C100.597 38.9643 101.407 38.7856 102.074 38.4284C102.741 38.0711 103.277 37.5948 103.682 36.9994C104.086 36.3802 104.372 35.6776 104.539 34.8916C104.729 34.1056 104.825 33.2959 104.825 32.4623C104.825 31.5811 104.729 30.5927 104.539 29.4971C104.348 28.3777 104.027 27.3298 103.574 26.3533C103.146 25.3768 102.55 24.5551 101.788 23.8882C101.05 23.2214 100.109 22.8879 98.9658 22.8879ZM112.698 22.7808C114.485 22.5902 115.771 22.0663 116.557 21.2089C117.343 20.3514 117.831 19.1606 118.021 17.6363H118.271L118.236 22.7808H121.844V23.1023H118.236V35.0345C118.236 35.6061 118.331 36.1301 118.521 36.6064C118.736 37.0589 119.057 37.4162 119.486 37.6782C119.724 37.8211 119.998 37.9163 120.308 37.964C120.617 38.0116 120.927 38.0235 121.237 37.9997C121.57 37.9759 121.88 37.9282 122.165 37.8568C122.475 37.7615 122.737 37.6544 122.951 37.5353V37.6424C122.594 38.1426 122.058 38.5237 121.344 38.7856C120.629 39.0476 119.855 39.1786 119.022 39.1786C118.593 39.1786 118.164 39.1191 117.736 39C117.331 38.8571 116.961 38.6308 116.628 38.3212C116.318 38.0116 116.056 37.6067 115.842 37.1066C115.652 36.6064 115.556 35.9872 115.556 35.2489V24.7814C115.556 24.1621 115.473 23.7334 115.306 23.4953C115.139 23.2333 114.711 23.1023 114.02 23.1023H112.698V22.7808ZM130.49 32.3194C131.3 31.6763 132.086 31.1762 132.848 30.8189C133.634 30.4617 134.396 30.1282 135.134 29.8186C135.896 29.509 136.551 29.2113 137.099 28.9255C137.647 28.6397 138.088 28.342 138.421 28.0324C138.754 27.6989 138.993 27.3298 139.135 26.9249C139.302 26.4962 139.386 25.996 139.386 25.4244C139.386 25.0195 139.302 24.6385 139.135 24.2812C138.993 23.924 138.766 23.6263 138.457 23.3881C138.147 23.1261 137.754 22.9356 137.278 22.8165C136.801 22.6974 136.23 22.6855 135.563 22.7808C134.396 22.9475 133.277 23.5429 132.205 24.567C131.157 25.5673 130.216 26.7582 129.382 28.1395V25.2101C129.74 24.7576 130.157 24.3646 130.633 24.0311C131.133 23.6739 131.657 23.3881 132.205 23.1737C132.753 22.9356 133.312 22.7569 133.884 22.6379C134.479 22.5188 135.051 22.4473 135.599 22.4235C137.552 22.3759 139.076 22.7927 140.171 23.6739C141.267 24.5551 141.815 26.0318 141.815 28.1038V36.1777C141.815 36.654 141.886 37.0947 142.029 37.4995C142.196 37.8806 142.589 38.0592 143.208 38.0354C143.351 38.0354 143.506 38.0116 143.673 37.964C143.839 37.8925 143.994 37.7853 144.137 37.6424V37.8211C143.923 38.2021 143.577 38.5237 143.101 38.7856C142.625 39.0476 142.077 39.1786 141.458 39.1786C141.029 39.1786 140.672 39.0953 140.386 38.9285C140.1 38.7618 139.862 38.5594 139.671 38.3212C139.505 38.0831 139.386 37.8449 139.314 37.6067C139.243 37.3447 139.207 37.1304 139.207 36.9637C138.85 37.3685 138.469 37.7258 138.064 38.0354C137.683 38.3212 137.242 38.5713 136.742 38.7856C136.266 39 135.706 39.1548 135.063 39.2501C134.444 39.3692 133.717 39.4168 132.884 39.393C132.264 39.3692 131.693 39.2739 131.169 39.1072C130.645 38.9643 130.216 38.7499 129.883 38.4641C129.525 38.1545 129.251 37.7973 129.061 37.3924C128.894 36.9875 128.799 36.5469 128.775 36.0705C128.751 35.3798 128.894 34.6892 129.204 33.9985C129.513 33.3078 129.942 32.7481 130.49 32.3194ZM131.597 35.4275C131.597 36.5945 131.895 37.4638 132.491 38.0354C133.11 38.5832 133.8 38.869 134.563 38.8928C135.039 38.9166 135.539 38.8452 136.063 38.6785C136.611 38.4879 137.111 38.2498 137.564 37.964C138.016 37.6782 138.385 37.3447 138.671 36.9637C138.981 36.5588 139.135 36.1539 139.135 35.749V28.4611C138.302 28.7469 137.444 29.0922 136.563 29.4971C135.682 29.902 134.872 30.3783 134.134 30.9261C133.396 31.4739 132.788 32.1169 132.312 32.8553C131.836 33.5936 131.597 34.451 131.597 35.4275ZM148.415 22.7808C150.201 22.5902 151.487 22.0663 152.273 21.2089C153.059 20.3514 153.548 19.1606 153.738 17.6363H153.988L153.952 22.7808H157.561V23.1023H153.952V35.0345C153.952 35.6061 154.048 36.1301 154.238 36.6064C154.453 37.0589 154.774 37.4162 155.203 37.6782C155.441 37.8211 155.715 37.9163 156.025 37.964C156.334 38.0116 156.644 38.0235 156.953 37.9997C157.287 37.9759 157.596 37.9282 157.882 37.8568C158.192 37.7615 158.454 37.6544 158.668 37.5353V37.6424C158.311 38.1426 157.775 38.5237 157.061 38.7856C156.346 39.0476 155.572 39.1786 154.738 39.1786C154.31 39.1786 153.881 39.1191 153.452 39C153.047 38.8571 152.678 38.6308 152.345 38.3212C152.035 38.0116 151.773 37.6067 151.559 37.1066C151.368 36.6064 151.273 35.9872 151.273 35.2489V24.7814C151.273 24.1621 151.19 23.7334 151.023 23.4953C150.856 23.2333 150.428 23.1023 149.737 23.1023H148.415V22.7808ZM163.901 30.9618C163.901 29.7472 164.092 28.6159 164.473 27.5679C164.854 26.52 165.39 25.615 166.081 24.8528C166.795 24.0669 167.653 23.4595 168.653 23.0308C169.653 22.6021 170.784 22.3878 172.047 22.3878C173.357 22.3878 174.524 22.6021 175.548 23.0308C176.572 23.4357 177.429 24.0192 178.12 24.7814C178.835 25.5197 179.37 26.4128 179.728 27.4608C180.085 28.5087 180.264 29.6757 180.264 30.9618C180.264 32.2241 180.073 33.3792 179.692 34.4272C179.335 35.4513 178.799 36.3325 178.084 37.0708C177.394 37.8092 176.536 38.3808 175.512 38.7856C174.512 39.1905 173.369 39.393 172.082 39.393C170.796 39.393 169.641 39.1905 168.617 38.7856C167.617 38.3808 166.759 37.8092 166.045 37.0708C165.354 36.3325 164.818 35.4513 164.437 34.4272C164.08 33.3792 163.901 32.2241 163.901 30.9618ZM171.725 22.8879C170.773 22.8879 169.963 23.0904 169.296 23.4953C168.653 23.9002 168.129 24.4241 167.724 25.0672C167.343 25.7102 167.057 26.4366 166.867 27.2464C166.7 28.0562 166.616 28.866 166.616 29.6757C166.616 30.5569 166.712 31.5334 166.902 32.6052C167.093 33.6769 167.402 34.6892 167.831 35.6418C168.284 36.5707 168.879 37.3566 169.617 37.9997C170.356 38.6427 171.285 38.9643 172.404 38.9643C173.357 38.9643 174.166 38.7856 174.833 38.4284C175.5 38.0711 176.036 37.5948 176.441 36.9994C176.846 36.3802 177.132 35.6776 177.298 34.8916C177.489 34.1056 177.584 33.2959 177.584 32.4623C177.584 31.5811 177.489 30.5927 177.298 29.4971C177.108 28.3777 176.786 27.3298 176.334 26.3533C175.905 25.3768 175.31 24.5551 174.547 23.8882C173.809 23.2214 172.868 22.8879 171.725 22.8879Z" fill="white"/>
<path d="M66.929 38.8928V37.8928H65.929V38.8928H66.929ZM67.5006 38.7499L67.1292 37.8214L67.1117 37.8285L67.0944 37.8361L67.5006 38.7499ZM68.1436 38.3212L67.4793 37.5738L67.4573 37.5933L67.4365 37.6141L68.1436 38.3212ZM68.6438 37.6067L67.7494 37.1595L67.734 37.1903L67.7207 37.2221L68.6438 37.6067ZM68.6438 15.3856L67.7207 15.7703L67.734 15.8021L67.7494 15.8329L68.6438 15.3856ZM68.1436 14.6711L67.4365 15.3783L67.4573 15.399L67.4793 15.4186L68.1436 14.6711ZM67.5006 14.2424L67.0944 15.1563L67.1117 15.1639L67.1292 15.1709L67.5006 14.2424ZM66.929 14.0995H65.929V15.0995H66.929V14.0995ZM66.929 13.9924V12.9924H65.929V13.9924H66.929ZM79.2542 14.1353L79.1175 15.1259L79.1344 15.1282L79.1513 15.13L79.2542 14.1353ZM81.2191 14.5997L80.8601 15.533L80.8813 15.5412L80.9028 15.5484L81.2191 14.5997ZM82.9696 15.4928L82.3814 16.3016L82.3899 16.3077L82.3985 16.3137L82.9696 15.4928ZM84.3986 16.9576L85.2356 16.4103L85.2306 16.4027L85.2255 16.3952L84.3986 16.9576ZM85.2917 19.1011L84.3183 19.3301L84.3223 19.3472L84.327 19.3642L85.2917 19.1011ZM85.5775 21.5304L84.5779 21.5018L84.5775 21.5161V21.5304H85.5775ZM85.1845 23.924L84.2359 23.6077L84.2329 23.6167L84.2301 23.6257L85.1845 23.924ZM84.1128 25.9246L83.3446 25.2844L83.3418 25.2877L84.1128 25.9246ZM82.5052 27.2821L82.0054 26.416L81.998 26.4202L81.9907 26.4246L82.5052 27.2821ZM80.576 28.1395L80.8507 29.1011L80.8616 29.098L80.8724 29.0946L80.576 28.1395ZM78.4682 28.5325L78.3719 27.5372L78.3687 27.5375L78.4682 28.5325ZM76.3962 28.6397L76.3888 29.6397H76.3962V28.6397ZM71.5375 28.604L71.5449 27.604L70.5375 27.5966V28.604H71.5375ZM71.7162 37.6067L70.7931 37.9913L70.8063 38.0231L70.8217 38.0539L71.7162 37.6067ZM72.2163 38.3212L71.5092 39.0283L71.53 39.0491L71.5519 39.0686L72.2163 38.3212ZM72.8594 38.7499L72.4532 39.6637H72.4532L72.8594 38.7499ZM73.4667 38.8928H74.4667V37.8928H73.4667V38.8928ZM73.4667 39V40H74.4667V39H73.4667ZM66.929 39H65.929V40H66.929V39ZM72.0734 27.818L71.4185 28.5737L71.4452 28.5968L71.4734 28.618L72.0734 27.818ZM78.2181 27.9609L77.9756 26.9907L77.9683 26.9926L78.2181 27.9609ZM80.3974 26.8892L81.0018 27.6859L81.0058 27.6828L80.3974 26.8892ZM82.0407 24.6027L81.1137 24.2275L81.1092 24.2392L82.0407 24.6027ZM82.7195 21.4947L83.7185 21.5391L83.7186 21.5381L82.7195 21.4947ZM82.2908 18.3508L81.3336 18.6402L81.3377 18.6537L81.3421 18.6671L82.2908 18.3508ZM80.8261 15.8858L81.5065 15.153L81.4994 15.1464L81.4921 15.1399L80.8261 15.8858ZM78.4682 14.6711L78.2377 15.6442L78.4682 14.6711ZM72.0734 14.814L72.6981 15.5949L72.704 15.5902L72.0734 14.814ZM66.929 39.8928C67.2804 39.8928 67.6129 39.7943 67.9067 39.6637L67.0944 37.8361C67.0302 37.8646 66.984 37.8795 66.9544 37.887C66.9248 37.8944 66.9176 37.8928 66.929 37.8928V39.8928ZM67.872 39.6784C68.2422 39.5303 68.5694 39.3097 68.8507 39.0283L67.4365 37.6141C67.3368 37.7138 67.2353 37.779 67.1292 37.8214L67.872 39.6784ZM68.808 39.0686C69.1435 38.7704 69.3946 38.4047 69.5669 37.9913L67.7207 37.2221C67.6548 37.3803 67.5724 37.491 67.4793 37.5738L68.808 39.0686ZM69.5382 38.0539C69.7627 37.605 69.8581 37.1131 69.8581 36.6064H67.8581C67.8581 36.8619 67.8107 37.0368 67.7494 37.1595L69.5382 38.0539ZM69.8581 36.6064V16.386H67.8581V36.6064H69.8581ZM69.8581 16.386C69.8581 15.8793 69.7627 15.3874 69.5382 14.9384L67.7494 15.8329C67.8107 15.9555 67.8581 16.1305 67.8581 16.386H69.8581ZM69.5669 15.001C69.3946 14.5876 69.1435 14.222 68.808 13.9237L67.4793 15.4186C67.5724 15.5014 67.6548 15.6121 67.7207 15.7703L69.5669 15.001ZM68.8507 13.964C68.5694 13.6827 68.2422 13.4621 67.872 13.314L67.1292 15.1709C67.2353 15.2134 67.3368 15.2786 67.4365 15.3783L68.8507 13.964ZM67.9067 13.3286C67.6129 13.1981 67.2804 13.0995 66.929 13.0995V15.0995C66.9176 15.0995 66.9248 15.098 66.9544 15.1054C66.984 15.1128 67.0302 15.1277 67.0944 15.1563L67.9067 13.3286ZM67.929 14.0995V13.9924H65.929V14.0995H67.929ZM66.929 14.9924H77.2178V12.9924H66.929V14.9924ZM77.2178 14.9924C77.837 14.9924 78.4701 15.0366 79.1175 15.1259L79.3908 13.1446C78.6569 13.0434 77.9324 12.9924 77.2178 12.9924V14.9924ZM79.1513 15.13C79.7584 15.1928 80.3269 15.328 80.8601 15.533L81.578 13.6663C80.8728 13.3951 80.1314 13.2207 79.3571 13.1406L79.1513 15.13ZM80.9028 15.5484C81.4531 15.7318 81.9442 15.9836 82.3814 16.3016L83.5578 14.6841C82.9471 14.24 82.2711 13.8963 81.5353 13.651L80.9028 15.5484ZM82.3985 16.3137C82.8382 16.6196 83.2301 17.0175 83.5717 17.5199L85.2255 16.3952C84.7573 15.7067 84.1965 15.1282 83.5407 14.6719L82.3985 16.3137ZM83.5616 17.5048C83.8955 18.0154 84.1511 18.6196 84.3183 19.3301L86.2651 18.872C86.0513 17.963 85.7115 17.1382 85.2356 16.4103L83.5616 17.5048ZM84.327 19.3642C84.5148 20.0529 84.599 20.7643 84.5779 21.5018L86.5771 21.5589C86.6037 20.6293 86.4974 19.7211 86.2565 18.838L84.327 19.3642ZM84.5775 21.5304C84.5775 22.2302 84.4647 22.9214 84.2359 23.6077L86.1332 24.2402C86.4284 23.3547 86.5775 22.4501 86.5775 21.5304H84.5775ZM84.2301 23.6257C84.0281 24.272 83.731 24.8206 83.3446 25.2844L84.881 26.5648C85.4472 25.8853 85.8647 25.1002 86.139 24.2222L84.2301 23.6257ZM83.3418 25.2877C82.9658 25.7429 82.522 26.118 82.0054 26.416L83.0049 28.1483C83.7268 27.7318 84.3548 27.2018 84.8838 26.5615L83.3418 25.2877ZM81.9907 26.4246C81.4666 26.7391 80.8971 26.9928 80.2796 27.1845L80.8724 29.0946C81.6363 28.8575 82.3529 28.5397 83.0197 28.1396L81.9907 26.4246ZM80.3013 27.178C79.6966 27.3508 79.054 27.4712 78.3719 27.5372L78.5645 29.5279C79.3591 29.451 80.1217 29.3094 80.8507 29.1011L80.3013 27.178ZM78.3687 27.5375C77.6848 27.6059 77.0274 27.6397 76.3962 27.6397V29.6397C77.0987 29.6397 77.8226 29.6021 78.5677 29.5276L78.3687 27.5375ZM76.4035 27.6397L71.5449 27.604L71.5302 29.6039L76.3888 29.6397L76.4035 27.6397ZM70.5375 28.604V36.6064H72.5375V28.604H70.5375ZM70.5375 36.6064C70.5375 37.0899 70.613 37.559 70.7931 37.9913L72.6392 37.2221C72.5812 37.0828 72.5375 36.885 72.5375 36.6064H70.5375ZM70.8217 38.0539C71.004 38.4185 71.23 38.7492 71.5092 39.0283L72.9234 37.6141C72.8215 37.5122 72.7141 37.3665 72.6106 37.1595L70.8217 38.0539ZM71.5519 39.0686C71.8268 39.3129 72.1265 39.5185 72.4532 39.6637L73.2655 37.8361C73.1635 37.7908 73.0345 37.7106 72.8807 37.5738L71.5519 39.0686ZM72.4532 39.6637C72.7666 39.803 73.1078 39.8928 73.4667 39.8928V37.8928C73.4445 37.8928 73.3808 37.8873 73.2655 37.8361L72.4532 39.6637ZM72.4667 38.8928V39H74.4667V38.8928H72.4667ZM73.4667 38H66.929V40H73.4667V38ZM67.929 39V38.8928H65.929V39H67.929ZM70.5375 26.2104C70.5375 27.0884 70.738 27.9839 71.4185 28.5737L72.7283 27.0623C72.6943 27.0329 72.5375 26.8567 72.5375 26.2104H70.5375ZM71.4734 28.618C72.0528 29.0526 72.7363 29.2467 73.4667 29.2467V27.2467C73.1015 27.2467 72.8561 27.1551 72.6734 27.018L71.4734 28.618ZM73.4667 29.2467H75.7888V27.2467H73.4667V29.2467ZM75.7888 29.2467C76.7416 29.2467 77.6366 29.1438 78.468 28.9292L77.9683 26.9926C77.3231 27.1591 76.5985 27.2467 75.7888 27.2467V29.2467ZM78.4607 28.9311C79.3669 28.7045 80.2146 28.283 81.0018 27.6859L79.793 26.0925C79.1988 26.5433 78.5937 26.8363 77.9756 26.9908L78.4607 28.9311ZM81.0058 27.6828C81.8877 27.0067 82.5359 26.0846 82.9723 24.9663L81.1092 24.2392C80.7834 25.0739 80.3361 25.6761 79.7889 26.0956L81.0058 27.6828ZM82.9677 24.9779C83.415 23.8729 83.6658 22.7251 83.7185 21.5391L81.7205 21.4503C81.6779 22.4078 81.4763 23.332 81.1138 24.2276L82.9677 24.9779ZM83.7186 21.5381C83.7713 20.3255 83.6131 19.1553 83.2395 18.0346L81.3421 18.6671C81.6354 19.547 81.763 20.4727 81.7205 21.4512L83.7186 21.5381ZM83.248 18.0615C82.8962 16.8977 82.3246 15.9126 81.5065 15.153L80.1456 16.6186C80.6613 17.0975 81.0662 17.7558 81.3336 18.6402L83.248 18.0615ZM81.4921 15.1399C80.6961 14.4291 79.7588 13.9491 78.6987 13.6981L78.2377 15.6442C78.9877 15.8219 79.6223 16.1516 80.1601 16.6317L81.4921 15.1399ZM78.6987 13.6981C77.734 13.4696 76.822 13.3496 75.9675 13.3496V15.3496C76.6372 15.3496 77.3923 15.444 78.2377 15.6442L78.6987 13.6981ZM75.9675 13.3496H73.4667V15.3496H75.9675V13.3496ZM73.4667 13.3496C72.7174 13.3496 72.0229 13.5666 71.4428 14.0379L72.704 15.5902C72.8861 15.4422 73.1204 15.3496 73.4667 15.3496V13.3496ZM71.4487 14.0332C70.7337 14.6052 70.5375 15.5183 70.5375 16.386H72.5375C72.5375 16.0763 72.5747 15.8712 72.618 15.744C72.6589 15.6242 72.6968 15.596 72.6981 15.5949L71.4487 14.0332ZM70.5375 16.386V26.2104H72.5375V16.386H70.5375ZM91.7136 27.5679L90.7738 27.2262L91.7136 27.5679ZM93.3212 24.8528L92.5813 24.1802L92.5803 24.1813L93.3212 24.8528ZM95.8935 23.0308L95.4995 22.1117L95.8935 23.0308ZM102.788 23.0308L102.402 23.9533L102.411 23.9571L102.421 23.9608L102.788 23.0308ZM105.361 24.7814L104.62 25.4529L104.631 25.465L104.642 25.4768L105.361 24.7814ZM106.968 27.4608L107.915 27.1381V27.1381L106.968 27.4608ZM106.933 34.4272L105.993 34.0854L105.988 34.0978L106.933 34.4272ZM105.325 37.0708L104.606 36.3754L104.6 36.3815L104.595 36.3877L105.325 37.0708ZM102.753 38.7856L102.385 37.8557L102.377 37.8587L102.753 38.7856ZM95.8577 38.7856L95.4825 39.7126L95.4901 39.7156L95.8577 38.7856ZM93.2855 37.0708L92.5552 37.754L92.561 37.7602L92.5669 37.7663L93.2855 37.0708ZM91.6779 34.4272L90.7314 34.7498L90.7358 34.7629L90.7407 34.7759L91.6779 34.4272ZM96.5365 23.4953L96.0175 22.6405L96.0106 22.6447L96.0037 22.649L96.5365 23.4953ZM94.9646 25.0672L94.1184 24.5344L94.1112 24.5458L94.1043 24.5574L94.9646 25.0672ZM94.1072 27.2464L93.1338 27.0174L93.1306 27.031L93.1277 27.0448L94.1072 27.2464ZM95.0718 35.6418L94.1599 36.0522L94.1661 36.0661L94.1728 36.0798L95.0718 35.6418ZM96.858 37.9997L96.2013 38.7538L96.858 37.9997ZM102.074 38.4284L102.546 39.3099L102.074 38.4284ZM103.682 36.9994L104.508 37.5617L104.514 37.5542L104.519 37.5466L103.682 36.9994ZM104.539 34.8916L103.567 34.656L103.564 34.67L103.561 34.6841L104.539 34.8916ZM104.539 29.4971L103.553 29.6649L103.554 29.6684L104.539 29.4971ZM103.574 26.3533L102.659 26.7553L102.663 26.7646L102.667 26.7737L103.574 26.3533ZM101.788 23.8882L101.118 24.6303L101.124 24.6356L101.13 24.6408L101.788 23.8882ZM92.142 30.9618C92.142 29.8533 92.3156 28.8387 92.6534 27.9097L90.7738 27.2262C90.3495 28.393 90.142 29.641 90.142 30.9618H92.142ZM92.6534 27.9097C92.9939 26.9732 93.4656 26.1827 94.0622 25.5243L92.5803 24.1813C91.7955 25.0473 91.1954 26.0668 90.7738 27.2262L92.6534 27.9097ZM94.0612 25.5255C94.6769 24.8482 95.4154 24.3237 96.2874 23.95L95.4995 22.1117C94.3709 22.5954 93.3946 23.2856 92.5813 24.1802L94.0612 25.5255ZM96.2874 23.95C97.1449 23.5825 98.139 23.3878 99.2873 23.3878V21.3878C97.9111 21.3878 96.6426 21.6218 95.4995 22.1117L96.2874 23.95ZM99.2873 23.3878C100.488 23.3878 101.52 23.5841 102.402 23.9533L103.175 22.1084C102.008 21.6202 100.706 21.3878 99.2873 21.3878V23.3878ZM102.421 23.9608C103.313 24.3134 104.039 24.8123 104.62 25.4529L106.102 24.1099C105.301 23.2261 104.313 22.5581 103.156 22.1009L102.421 23.9608ZM104.642 25.4768C105.246 26.1011 105.708 26.864 106.022 27.7834L107.915 27.1381C107.514 25.9616 106.904 24.9383 106.079 24.086L104.642 25.4768ZM106.022 27.7834C106.338 28.7122 106.504 29.7681 106.504 30.9618H108.504C108.504 29.5833 108.313 28.3052 107.915 27.1381L106.022 27.7834ZM106.504 30.9618C106.504 32.1228 106.329 33.1605 105.993 34.0854L107.872 34.7689C108.298 33.598 108.504 32.3254 108.504 30.9618H106.504ZM105.988 34.0978C105.676 34.9928 105.214 35.7471 104.606 36.3754L106.044 37.7663C106.864 36.918 107.474 35.9098 107.877 34.7565L105.988 34.0978ZM104.595 36.3877C104.014 37.0085 103.284 37.5003 102.385 37.8557L103.12 39.7156C104.27 39.2612 105.255 38.6098 106.055 37.754L104.595 36.3877ZM102.377 37.8587C101.517 38.207 100.505 38.393 99.3231 38.393V40.393C100.714 40.393 101.988 40.174 103.128 39.7126L102.377 37.8587ZM99.3231 38.393C98.142 38.393 97.1146 38.2072 96.2254 37.8557L95.4901 39.7156C96.6491 40.1738 97.9319 40.393 99.3231 40.393V38.393ZM96.2329 37.8587C95.3553 37.5035 94.6167 37.0084 94.0041 36.3754L92.5669 37.7663C93.3833 38.6099 94.3595 39.258 95.4825 39.7126L96.2329 37.8587ZM94.0158 36.3877C93.4226 35.7536 92.9538 34.9886 92.6151 34.0784L90.7407 34.7759C91.1641 35.914 91.767 36.9114 92.5552 37.754L94.0158 36.3877ZM92.6244 34.1045C92.3071 33.1739 92.142 32.1295 92.142 30.9618H90.142C90.142 32.3187 90.3341 33.5846 90.7314 34.7498L92.6244 34.1045ZM98.9658 21.8879C97.8706 21.8879 96.8722 22.1216 96.0175 22.6405L97.0555 24.3501C97.5346 24.0592 98.1557 23.8879 98.9658 23.8879V21.8879ZM96.0037 22.649C95.234 23.1336 94.603 23.7647 94.1184 24.5344L95.8108 25.6C96.136 25.0835 96.5529 24.6667 97.0693 24.3415L96.0037 22.649ZM94.1043 24.5574C93.666 25.297 93.345 26.1198 93.1338 27.0174L95.0806 27.4755C95.2505 26.7534 95.501 26.1235 95.8249 25.577L94.1043 24.5574ZM93.1277 27.0448C92.9476 27.9195 92.8571 28.7968 92.8571 29.6757H94.8571C94.8571 28.9351 94.9333 28.1929 95.0867 27.4481L93.1277 27.0448ZM92.8571 29.6757C92.8571 30.6274 92.9598 31.6636 93.1584 32.7802L95.1275 32.4302C94.9449 31.4033 94.8571 30.4865 94.8571 29.6757H92.8571ZM93.1584 32.7802C93.3627 33.9297 93.6959 35.0213 94.1599 36.0522L95.9837 35.2315C95.5902 34.357 95.3042 33.4242 95.1275 32.4302L93.1584 32.7802ZM94.1728 36.0798C94.6807 37.1224 95.3563 38.0178 96.2013 38.7538L97.5148 37.2456C96.8831 36.6954 96.3679 36.0189 95.9708 35.2039L94.1728 36.0798ZM96.2013 38.7538C97.1476 39.578 98.3206 39.9643 99.6446 39.9643V37.9643C98.7298 37.9643 98.0451 37.7075 97.5148 37.2456L96.2013 38.7538ZM99.6446 39.9643C100.72 39.9643 101.701 39.7626 102.546 39.3099L101.602 37.5469C101.113 37.8087 100.474 37.9643 99.6446 37.9643V39.9643ZM102.546 39.3099C103.348 38.8804 104.008 38.2974 104.508 37.5617L102.855 36.4371C102.545 36.8922 102.134 37.2619 101.602 37.5469L102.546 39.3099ZM104.519 37.5466C104.997 36.8153 105.327 35.9956 105.517 35.0991L103.561 34.6841C103.417 35.3595 103.176 35.945 102.845 36.4521L104.519 37.5466ZM105.511 35.1272C105.721 34.2618 105.825 33.3728 105.825 32.4623H103.825C103.825 33.219 103.738 33.9495 103.567 34.656L105.511 35.1272ZM105.825 32.4623C105.825 31.511 105.722 30.464 105.524 29.3258L103.554 29.6684C103.737 30.7214 103.825 31.6511 103.825 32.4623H105.825ZM105.525 29.3293C105.32 28.1274 104.973 26.994 104.482 25.9328L102.667 26.7737C103.08 27.6656 103.377 28.628 103.553 29.6649L105.525 29.3293ZM104.49 25.9513C104.006 24.8478 103.325 23.9042 102.447 23.1357L101.13 24.6408C101.776 25.206 102.286 25.9058 102.659 26.7553L104.49 25.9513ZM102.458 23.1461C101.509 22.2886 100.317 21.8879 98.9658 21.8879V23.8879C99.9008 23.8879 100.591 24.1541 101.118 24.6303L102.458 23.1461ZM112.698 22.7808L112.592 21.7864L111.698 21.8818V22.7808H112.698ZM116.557 21.2089L115.819 20.5331L116.557 21.2089ZM118.021 17.6363V16.6363H117.139L117.029 17.5123L118.021 17.6363ZM118.271 17.6363L119.271 17.6433L119.278 16.6363H118.271V17.6363ZM118.236 22.7808L117.236 22.7738L117.229 23.7808H118.236V22.7808ZM121.844 22.7808H122.844V21.7808H121.844V22.7808ZM121.844 23.1023V24.1023H122.844V23.1023H121.844ZM118.236 23.1023V22.1023H117.236V23.1023H118.236ZM118.521 36.6064L117.593 36.9778L117.604 37.0065L117.618 37.0345L118.521 36.6064ZM119.486 37.6782L118.965 38.5315L118.972 38.5357L119.486 37.6782ZM121.237 37.9997L121.165 37.0022L121.16 37.0026L121.237 37.9997ZM122.165 37.8568L122.408 38.8269L122.434 38.8204L122.46 38.8126L122.165 37.8568ZM122.951 37.5353H123.951V35.8358L122.466 36.6611L122.951 37.5353ZM122.951 37.6424L123.765 38.2237L123.951 37.9629V37.6424H122.951ZM121.344 38.7856L120.999 37.8468L121.344 38.7856ZM117.736 39L117.403 39.943L117.435 39.9544L117.468 39.9635L117.736 39ZM116.628 38.3212L115.921 39.0283L115.934 39.0414L115.948 39.054L116.628 38.3212ZM115.842 37.1066L114.908 37.4626L114.915 37.4817L114.923 37.5005L115.842 37.1066ZM115.306 23.4953L114.463 24.0321L114.474 24.0507L114.487 24.0687L115.306 23.4953ZM112.698 23.1023H111.698V24.1023H112.698V23.1023ZM112.804 23.7751C114.706 23.5722 116.274 22.9971 117.294 21.8846L115.819 20.5331C115.267 21.1354 114.263 21.6082 112.592 21.7864L112.804 23.7751ZM117.294 21.8846C118.259 20.8319 118.805 19.4252 119.014 17.7604L117.029 17.5123C116.856 18.896 116.426 19.871 115.819 20.5331L117.294 21.8846ZM118.021 18.6363H118.271V16.6363H118.021V18.6363ZM117.271 17.6294L117.236 22.7738L119.236 22.7877L119.271 17.6433L117.271 17.6294ZM118.236 23.7808H121.844V21.7808H118.236V23.7808ZM120.844 22.7808V23.1023H122.844V22.7808H120.844ZM121.844 22.1023H118.236V24.1023H121.844V22.1023ZM117.236 23.1023V35.0345H119.236V23.1023H117.236ZM117.236 35.0345C117.236 35.7188 117.35 36.3706 117.593 36.9778L119.45 36.235C119.312 35.8896 119.236 35.4934 119.236 35.0345H117.236ZM117.618 37.0345C117.916 37.6636 118.37 38.1683 118.965 38.5314L120.007 36.8249C119.744 36.664 119.556 36.4543 119.425 36.1783L117.618 37.0345ZM118.972 38.5357C119.334 38.7533 119.734 38.8875 120.156 38.9523L120.46 36.9756C120.262 36.9452 120.114 36.8889 120.001 36.8207L118.972 38.5357ZM120.156 38.9523C120.54 39.0115 120.927 39.0265 121.313 38.9967L121.16 37.0026C120.927 37.0205 120.694 37.0117 120.46 36.9756L120.156 38.9523ZM121.308 38.9972C121.691 38.9697 122.059 38.9142 122.408 38.8269L121.923 36.8867C121.7 36.9423 121.449 36.982 121.165 37.0022L121.308 38.9972ZM122.46 38.8126C122.816 38.7029 123.146 38.5711 123.437 38.4094L122.466 36.6611C122.328 36.7376 122.134 36.8201 121.871 36.901L122.46 38.8126ZM121.951 37.5353V37.6424H123.951V37.5353H121.951ZM122.138 37.0612C121.923 37.3623 121.57 37.6374 120.999 37.8468L121.688 39.7245C122.546 39.4099 123.266 38.9229 123.765 38.2237L122.138 37.0612ZM120.999 37.8468C120.405 38.0646 119.749 38.1786 119.022 38.1786V40.1786C119.961 40.1786 120.853 40.0306 121.688 39.7245L120.999 37.8468ZM119.022 38.1786C118.687 38.1786 118.348 38.1323 118.003 38.0365L117.468 39.9635C117.98 40.1059 118.499 40.1786 119.022 40.1786V38.1786ZM118.068 38.057C117.8 37.9623 117.548 37.8106 117.308 37.5884L115.948 39.054C116.375 39.4511 116.861 39.7519 117.403 39.943L118.068 38.057ZM117.335 37.6141C117.134 37.4134 116.937 37.1233 116.761 36.7126L114.923 37.5005C115.176 38.0902 115.502 38.6098 115.921 39.0283L117.335 37.6141ZM116.777 36.7506C116.642 36.3983 116.556 35.9085 116.556 35.2489H114.556C114.556 36.0659 114.661 36.8145 114.908 37.4626L116.777 36.7506ZM116.556 35.2489V24.7814H114.556V35.2489H116.556ZM116.556 24.7814C116.556 24.1435 116.484 23.4343 116.125 22.9218L114.487 24.0687C114.46 24.0303 114.485 24.0467 114.512 24.1863C114.538 24.3178 114.556 24.5116 114.556 24.7814H116.556ZM116.15 22.9584C115.892 22.5534 115.495 22.349 115.152 22.2442C114.806 22.1386 114.417 22.1023 114.02 22.1023V24.1023C114.314 24.1023 114.484 24.1315 114.567 24.1569C114.653 24.183 114.554 24.1752 114.463 24.0321L116.15 22.9584ZM114.02 22.1023H112.698V24.1023H114.02V22.1023ZM113.698 23.1023V22.7808H111.698V23.1023H113.698ZM130.49 32.3194L131.106 33.1069L131.112 33.1025L130.49 32.3194ZM132.848 30.8189L132.434 29.9085L132.423 29.9135L132.848 30.8189ZM135.134 29.8186L134.758 28.8921L134.748 28.8964L135.134 29.8186ZM137.099 28.9255L137.562 29.8121L137.099 28.9255ZM138.421 28.0324L139.101 28.7652L139.115 28.7526L139.128 28.7395L138.421 28.0324ZM139.135 26.9249L138.203 26.5624L138.198 26.5772L138.192 26.5921L139.135 26.9249ZM139.135 24.2812L138.207 24.6526L138.217 24.6787L138.229 24.7041L139.135 24.2812ZM138.457 23.3881L137.811 24.1515L137.829 24.1665L137.847 24.1807L138.457 23.3881ZM137.278 22.8165L137.035 23.7866L137.278 22.8165ZM135.563 22.7808L135.704 23.7707L135.563 22.7808ZM132.205 24.567L132.895 25.2904L132.896 25.29L132.205 24.567ZM129.382 28.1395H128.382V31.7322L130.239 28.6562L129.382 28.1395ZM129.382 25.2101L128.598 24.5904L128.382 24.8629V25.2101H129.382ZM130.633 24.0311L131.206 24.8504L131.214 24.8449L130.633 24.0311ZM132.205 23.1737L132.569 24.105L132.586 24.0982L132.603 24.0908L132.205 23.1737ZM133.884 22.6379L133.688 21.6572L133.68 21.6589L133.884 22.6379ZM135.599 22.4235L135.574 21.4238L135.565 21.424L135.555 21.4245L135.599 22.4235ZM142.029 37.4995L141.086 37.8324L141.098 37.8669L141.113 37.9004L142.029 37.4995ZM143.208 38.0354V37.0354H143.189L143.17 37.0362L143.208 38.0354ZM143.673 37.964L143.947 38.9255L144.008 38.9081L144.066 38.8831L143.673 37.964ZM144.137 37.6424H145.137V35.2282L143.43 36.9353L144.137 37.6424ZM144.137 37.8211L145.009 38.3113L145.137 38.083V37.8211H144.137ZM143.101 38.7856L142.619 37.9094L143.101 38.7856ZM140.386 38.9286L139.882 39.7923L140.386 38.9286ZM139.671 38.3212L138.852 38.8947L138.87 38.9209L138.89 38.9459L139.671 38.3212ZM139.314 37.6067L138.349 37.8698L138.353 37.882L138.356 37.8941L139.314 37.6067ZM139.207 36.9637H140.207V34.3189L138.457 36.302L139.207 36.9637ZM138.064 38.0354L138.664 38.8355L138.671 38.8298L138.064 38.0354ZM136.742 38.7856L136.348 37.8665L136.34 37.87L136.331 37.8737L136.742 38.7856ZM135.063 39.2501L134.916 38.2609L134.895 38.264L134.874 38.2681L135.063 39.2501ZM132.884 39.393L132.845 40.3923L132.855 40.3926L132.884 39.393ZM131.169 39.1072L131.472 38.1543L131.452 38.1479L131.432 38.1424L131.169 39.1072ZM129.883 38.4641L129.228 39.2198L129.232 39.2234L129.883 38.4641ZM129.061 37.3924L128.136 37.7731L128.146 37.7959L128.156 37.8182L129.061 37.3924ZM128.775 36.0705L127.776 36.105L127.776 36.1127L127.776 36.1205L128.775 36.0705ZM129.204 33.9985L130.116 34.4075L129.204 33.9985ZM132.491 38.0354L131.798 38.7568L131.813 38.7709L131.828 38.7844L132.491 38.0354ZM134.563 38.8928L134.613 37.8941L134.603 37.8936L134.594 37.8933L134.563 38.8928ZM136.063 38.6785L136.366 39.6314L136.379 39.6274L136.392 39.623L136.063 38.6785ZM137.564 37.964L137.03 37.1185L137.564 37.964ZM138.671 36.9637L137.877 36.3562L137.871 36.3637L138.671 36.9637ZM139.135 28.4611H140.135V27.0611L138.811 27.5151L139.135 28.4611ZM136.563 29.4971L136.981 30.4058L136.563 29.4971ZM134.134 30.9261L133.538 30.123L134.134 30.9261ZM132.312 32.8553L133.152 33.3974L132.312 32.8553ZM131.112 33.1025C131.874 32.4972 132.594 32.0422 133.272 31.7244L132.423 29.9135C131.577 30.3102 130.725 30.8554 129.868 31.5363L131.112 33.1025ZM133.262 31.7293C134.039 31.3758 134.792 31.0463 135.521 30.7408L134.748 28.8964C133.999 29.2101 133.228 29.5476 132.434 29.9086L133.262 31.7293ZM135.511 30.7451C136.293 30.4272 136.978 30.1164 137.562 29.8121L136.637 28.0389C136.124 28.3062 135.5 28.5908 134.758 28.8922L135.511 30.7451ZM137.562 29.8121C138.162 29.4986 138.684 29.1528 139.101 28.7652L137.74 27.2996C137.491 27.5312 137.131 27.7807 136.637 28.0389L137.562 29.8121ZM139.128 28.7395C139.557 28.311 139.881 27.8168 140.078 27.2577L138.192 26.5921C138.104 26.8428 137.952 27.0869 137.714 27.3253L139.128 28.7395ZM140.067 27.2873C140.289 26.7188 140.386 26.091 140.386 25.4244H138.386C138.386 25.9011 138.316 26.2736 138.203 26.5624L140.067 27.2873ZM140.386 25.4244C140.386 24.8775 140.272 24.3516 140.042 23.8583L138.229 24.7041C138.332 24.9253 138.386 25.1616 138.386 25.4244H140.386ZM140.064 23.9098C139.853 23.3835 139.516 22.9412 139.066 22.5955L137.847 24.1807C138.017 24.3113 138.132 24.4644 138.207 24.6526L140.064 23.9098ZM139.103 22.6247C138.654 22.2452 138.114 21.9949 137.52 21.8463L137.035 23.7866C137.394 23.8763 137.64 24.007 137.811 24.1515L139.103 22.6247ZM137.52 21.8463C136.881 21.6866 136.172 21.6836 135.422 21.7908L135.704 23.7707C136.288 23.6874 136.722 23.7082 137.035 23.7866L137.52 21.8463ZM135.422 21.7908C134 21.9939 132.697 22.7132 131.514 23.844L132.896 25.29C133.856 24.3726 134.792 23.9011 135.704 23.7707L135.422 21.7908ZM131.514 23.8437C130.395 24.9117 129.401 26.1741 128.526 27.6229L130.239 28.6562C131.032 27.3423 131.918 26.2229 132.895 25.2904L131.514 23.8437ZM130.382 28.1395V25.2101H128.382V28.1395H130.382ZM130.167 25.8297C130.464 25.4543 130.809 25.1284 131.206 24.8504L130.059 23.2119C129.504 23.6007 129.016 24.0608 128.598 24.5904L130.167 25.8297ZM131.214 24.8449C131.65 24.5334 132.102 24.2879 132.569 24.105L131.84 22.2425C131.212 22.4882 130.616 22.8143 130.052 23.2174L131.214 24.8449ZM132.603 24.0908C133.09 23.8792 133.585 23.7217 134.088 23.6168L133.68 21.6589C133.04 21.7922 132.415 21.9919 131.806 22.2567L132.603 24.0908ZM134.08 23.6184C134.63 23.5084 135.151 23.4439 135.642 23.4226L135.555 21.4245C134.951 21.4507 134.328 21.5292 133.688 21.6573L134.08 23.6184ZM135.623 23.4232C137.431 23.3791 138.694 23.7687 139.545 24.4531L140.798 22.8947C139.458 21.8166 137.672 21.3726 135.574 21.4238L135.623 23.4232ZM139.545 24.4531C140.309 25.068 140.815 26.1867 140.815 28.1038H142.815C142.815 25.8769 142.225 24.0423 140.798 22.8947L139.545 24.4531ZM140.815 28.1038V36.1777H142.815V28.1038H140.815ZM140.815 36.1777C140.815 36.7551 140.902 37.3095 141.086 37.8324L142.972 37.1667C142.871 36.8798 142.815 36.553 142.815 36.1777H140.815ZM141.113 37.9004C141.522 38.8355 142.452 39.0653 143.247 39.0347L143.17 37.0362C143.066 37.0402 142.99 37.0348 142.937 37.0268C142.885 37.0188 142.864 37.0094 142.863 37.0089C142.863 37.0089 142.867 37.011 142.875 37.0165C142.883 37.022 142.893 37.0298 142.904 37.0403C142.926 37.0629 142.94 37.0857 142.945 37.0987L141.113 37.9004ZM143.208 39.0354C143.461 39.0354 143.71 38.9934 143.947 38.9255L143.398 37.0024C143.302 37.0298 143.241 37.0354 143.208 37.0354V39.0354ZM144.066 38.8831C144.363 38.7561 144.621 38.5722 144.844 38.3495L143.43 36.9353C143.367 36.9985 143.316 37.0289 143.279 37.0448L144.066 38.8831ZM143.137 37.6424V37.8211H145.137V37.6424H143.137ZM143.265 37.3308C143.162 37.5141 142.972 37.7155 142.619 37.9094L143.583 39.6619C144.183 39.3318 144.683 38.8902 145.009 38.3113L143.265 37.3308ZM142.619 37.9094C142.31 38.0795 141.932 38.1786 141.458 38.1786V40.1786C142.222 40.1786 142.939 40.0158 143.583 39.6619L142.619 37.9094ZM141.458 38.1786C141.155 38.1786 140.984 38.1196 140.89 38.0648L139.882 39.7923C140.36 40.0709 140.903 40.1786 141.458 40.1786V38.1786ZM140.89 38.0648C140.701 37.9548 140.56 37.8308 140.452 37.6965L138.89 38.9459C139.164 39.288 139.499 39.5689 139.882 39.7923L140.89 38.0648ZM140.491 37.7478C140.375 37.5825 140.308 37.4398 140.272 37.3194L138.356 37.8941C138.463 38.25 138.634 38.5836 138.852 38.8947L140.491 37.7478ZM140.279 37.3436C140.218 37.1208 140.207 37.0036 140.207 36.9637H138.207C138.207 37.2572 138.267 37.5686 138.349 37.8698L140.279 37.3436ZM138.457 36.302C138.14 36.661 137.807 36.9732 137.456 37.2411L138.671 38.8298C139.131 38.4784 139.559 38.0761 139.957 37.6253L138.457 36.302ZM137.464 37.2354C137.155 37.4672 136.785 37.6792 136.348 37.8665L137.136 39.7048C137.699 39.4634 138.211 39.1752 138.664 38.8354L137.464 37.2354ZM136.331 37.8737C135.957 38.0424 135.489 38.176 134.916 38.2609L135.209 40.2393C135.922 40.1337 136.574 39.9576 137.152 39.6976L136.331 37.8737ZM134.874 38.2681C134.345 38.3698 133.695 38.4157 132.912 38.3934L132.855 40.3926C133.74 40.4178 134.542 40.3685 135.252 40.2321L134.874 38.2681ZM132.922 38.3937C132.381 38.3729 131.9 38.2905 131.472 38.1543L130.866 40.0601C131.485 40.2573 132.147 40.3654 132.845 40.3922L132.922 38.3937ZM131.432 38.1424C131.018 38.0295 130.731 37.8743 130.533 37.7049L129.232 39.2234C129.701 39.6256 130.272 39.8991 130.906 40.0719L131.432 38.1424ZM130.538 37.7084C130.28 37.4849 130.094 37.2382 129.966 36.9666L128.156 37.8182C128.409 38.3563 128.771 38.8241 129.228 39.2198L130.538 37.7084ZM129.986 37.0116C129.866 36.721 129.793 36.3934 129.774 36.0206L127.776 36.1205C127.805 36.7004 127.923 37.254 128.136 37.7731L129.986 37.0116ZM129.775 36.0361C129.756 35.512 129.863 34.9724 130.116 34.4075L128.291 33.5894C127.925 34.4059 127.746 35.2477 127.776 36.105L129.775 36.0361ZM130.116 34.4075C130.365 33.8518 130.698 33.4267 131.106 33.1069L129.874 31.5319C129.187 32.0694 128.661 32.7638 128.291 33.5894L130.116 34.4075ZM130.597 35.4275C130.597 36.7521 130.936 37.9297 131.798 38.7568L133.183 37.314C132.854 36.9979 132.597 36.4369 132.597 35.4275H130.597ZM131.828 38.7844C132.606 39.4728 133.516 39.8606 134.531 39.8923L134.594 37.8933C134.085 37.8774 133.613 37.6936 133.153 37.2864L131.828 38.7844ZM134.513 39.8916C135.125 39.9222 135.745 39.8289 136.366 39.6314L135.76 37.7255C135.333 37.8615 134.953 37.9111 134.613 37.8941L134.513 39.8916ZM136.392 39.623C137.005 39.4095 137.575 39.1392 138.098 38.8095L137.03 37.1185C136.647 37.3603 136.216 37.5664 135.735 37.734L136.392 39.623ZM138.098 38.8095C138.64 38.4667 139.104 38.0533 139.471 37.5637L137.871 36.3637C137.667 36.6361 137.392 36.8897 137.03 37.1185L138.098 38.8095ZM139.465 37.5711C139.873 37.0376 140.135 36.4249 140.135 35.749H138.135C138.135 35.8829 138.088 36.0799 137.877 36.3562L139.465 37.5711ZM140.135 35.749V28.4611H138.135V35.749H140.135ZM138.811 27.5151C137.943 27.8128 137.054 28.1709 136.146 28.5884L136.981 30.4058C137.835 30.0135 138.661 29.6809 139.46 29.407L138.811 27.5151ZM136.146 28.5884C135.205 29.0207 134.335 29.5318 133.538 30.123L134.73 31.7292C135.41 31.2249 136.159 30.7833 136.981 30.4058L136.146 28.5884ZM133.538 30.123C132.708 30.739 132.016 31.4692 131.472 32.3131L133.152 33.3974C133.56 32.7647 134.083 32.2088 134.73 31.7292L133.538 30.123ZM131.472 32.3131C130.88 33.2307 130.597 34.2808 130.597 35.4275H132.597C132.597 34.6211 132.792 33.9565 133.152 33.3974L131.472 32.3131ZM148.415 22.7808L148.309 21.7864L147.415 21.8818V22.7808H148.415ZM152.273 21.2089L151.536 20.5331L152.273 21.2089ZM153.738 17.6363V16.6363H152.855L152.746 17.5123L153.738 17.6363ZM153.988 17.6363L154.988 17.6433L154.995 16.6363H153.988V17.6363ZM153.952 22.7808L152.952 22.7738L152.946 23.7808H153.952V22.7808ZM157.561 22.7808H158.561V21.7808H157.561V22.7808ZM157.561 23.1023V24.1023H158.561V23.1023H157.561ZM153.952 23.1023V22.1023H152.952V23.1023H153.952ZM154.238 36.6064L153.31 36.9778L153.321 37.0065L153.335 37.0345L154.238 36.6064ZM155.203 37.6782L154.681 38.5315L154.688 38.5357L155.203 37.6782ZM156.953 37.9997L156.882 37.0022L156.877 37.0026L156.953 37.9997ZM157.882 37.8568L158.125 38.8269L158.151 38.8204L158.176 38.8126L157.882 37.8568ZM158.668 37.5353H159.668V35.8358L158.183 36.6611L158.668 37.5353ZM158.668 37.6424L159.482 38.2237L159.668 37.9629V37.6424H158.668ZM157.061 38.7856L156.716 37.8468L157.061 38.7856ZM153.452 39L153.119 39.943L153.152 39.9544L153.185 39.9635L153.452 39ZM152.345 38.3212L151.638 39.0283L151.651 39.0414L151.664 39.054L152.345 38.3212ZM151.559 37.1066L150.624 37.4626L150.632 37.4817L150.64 37.5005L151.559 37.1066ZM151.023 23.4953L150.179 24.0321L150.191 24.0507L150.204 24.0687L151.023 23.4953ZM148.415 23.1023H147.415V24.1023H148.415V23.1023ZM148.521 23.7751C150.423 23.5722 151.991 22.9971 153.011 21.8846L151.536 20.5331C150.984 21.1354 149.98 21.6082 148.309 21.7864L148.521 23.7751ZM153.011 21.8846C153.975 20.8319 154.522 19.4252 154.73 17.7604L152.746 17.5123C152.573 18.896 152.143 19.871 151.536 20.5331L153.011 21.8846ZM153.738 18.6363H153.988V16.6363H153.738V18.6363ZM152.988 17.6294L152.952 22.7738L154.952 22.7877L154.988 17.6433L152.988 17.6294ZM153.952 23.7808H157.561V21.7808H153.952V23.7808ZM156.561 22.7808V23.1023H158.561V22.7808H156.561ZM157.561 22.1023H153.952V24.1023H157.561V22.1023ZM152.952 23.1023V35.0345H154.952V23.1023H152.952ZM152.952 35.0345C152.952 35.7188 153.067 36.3706 153.31 36.9778L155.167 36.235C155.029 35.8896 154.952 35.4934 154.952 35.0345H152.952ZM153.335 37.0345C153.633 37.6636 154.087 38.1683 154.681 38.5314L155.724 36.8249C155.461 36.664 155.273 36.4543 155.142 36.1783L153.335 37.0345ZM154.688 38.5357C155.051 38.7533 155.451 38.8875 155.872 38.9523L156.177 36.9756C155.979 36.9452 155.831 36.8889 155.717 36.8207L154.688 38.5357ZM155.872 38.9523C156.257 39.0115 156.643 39.0265 157.03 38.9967L156.877 37.0026C156.644 37.0205 156.411 37.0117 156.177 36.9756L155.872 38.9523ZM157.025 38.9972C157.408 38.9697 157.776 38.9142 158.125 38.8269L157.64 36.8867C157.417 36.9423 157.165 36.982 156.882 37.0022L157.025 38.9972ZM158.176 38.8126C158.533 38.7029 158.863 38.5711 159.154 38.4094L158.183 36.6611C158.045 36.7376 157.851 36.8201 157.588 36.901L158.176 38.8126ZM157.668 37.5353V37.6424H159.668V37.5353H157.668ZM157.854 37.0612C157.639 37.3623 157.287 37.6374 156.716 37.8468L157.405 39.7245C158.263 39.4099 158.983 38.9229 159.482 38.2237L157.854 37.0612ZM156.716 37.8468C156.122 38.0646 155.466 38.1786 154.738 38.1786V40.1786C155.678 40.1786 156.57 40.0306 157.405 39.7245L156.716 37.8468ZM154.738 38.1786C154.404 38.1786 154.065 38.1323 153.72 38.0365L153.185 39.9635C153.697 40.1059 154.216 40.1786 154.738 40.1786V38.1786ZM153.785 38.057C153.517 37.9623 153.265 37.8106 153.025 37.5884L151.664 39.054C152.092 39.4511 152.578 39.7519 153.119 39.943L153.785 38.057ZM153.052 37.6141C152.851 37.4134 152.654 37.1233 152.478 36.7126L150.64 37.5005C150.892 38.0902 151.219 38.6098 151.638 39.0283L153.052 37.6141ZM152.493 36.7506C152.359 36.3983 152.273 35.9085 152.273 35.2489H150.273C150.273 36.0659 150.378 36.8145 150.624 37.4626L152.493 36.7506ZM152.273 35.2489V24.7814H150.273V35.2489H152.273ZM152.273 24.7814C152.273 24.1435 152.201 23.4343 151.842 22.9218L150.204 24.0687C150.177 24.0303 150.202 24.0467 150.229 24.1863C150.255 24.3178 150.273 24.5116 150.273 24.7814H152.273ZM151.867 22.9584C151.609 22.5534 151.212 22.349 150.869 22.2442C150.523 22.1386 150.134 22.1023 149.737 22.1023V24.1023C150.031 24.1023 150.201 24.1315 150.284 24.1569C150.37 24.183 150.27 24.1752 150.179 24.0321L151.867 22.9584ZM149.737 22.1023H148.415V24.1023H149.737V22.1023ZM149.415 23.1023V22.7808H147.415V23.1023H149.415ZM164.473 27.5679L163.533 27.2262L164.473 27.5679ZM166.081 24.8528L165.341 24.1802L165.34 24.1813L166.081 24.8528ZM168.653 23.0308L168.259 22.1117L168.653 23.0308ZM175.548 23.0308L175.162 23.9533L175.171 23.9571L175.18 23.9608L175.548 23.0308ZM178.12 24.7814L177.379 25.4529L177.39 25.465L177.401 25.4768L178.12 24.7814ZM179.728 27.4608L180.674 27.1381V27.1381L179.728 27.4608ZM179.692 34.4272L178.752 34.0854L178.748 34.0978L179.692 34.4272ZM178.084 37.0708L177.366 36.3754L177.36 36.3815L177.354 36.3877L178.084 37.0708ZM175.512 38.7856L175.144 37.8557L175.137 37.8587L175.512 38.7856ZM168.617 38.7856L168.242 39.7126L168.249 39.7156L168.617 38.7856ZM166.045 37.0708L165.315 37.754L165.32 37.7602L165.326 37.7663L166.045 37.0708ZM164.437 34.4272L163.491 34.7498L163.495 34.7629L163.5 34.7759L164.437 34.4272ZM169.296 23.4953L168.777 22.6405L168.77 22.6447L168.763 22.649L169.296 23.4953ZM167.724 25.0672L166.878 24.5344L166.871 24.5458L166.864 24.5574L167.724 25.0672ZM166.867 27.2464L165.893 27.0174L165.89 27.031L165.887 27.0448L166.867 27.2464ZM167.831 35.6418L166.919 36.0522L166.925 36.0661L166.932 36.0798L167.831 35.6418ZM169.617 37.9997L168.961 38.7538L169.617 37.9997ZM174.833 38.4284L175.306 39.3099L174.833 38.4284ZM176.441 36.9994L177.268 37.5617L177.273 37.5542L177.278 37.5466L176.441 36.9994ZM177.298 34.8916L176.326 34.656L176.323 34.67L176.32 34.6841L177.298 34.8916ZM177.298 29.4971L176.312 29.6649L176.313 29.6684L177.298 29.4971ZM176.334 26.3533L175.418 26.7553L175.422 26.7646L175.426 26.7737L176.334 26.3533ZM174.547 23.8882L173.877 24.6303L173.883 24.6356L173.889 24.6408L174.547 23.8882ZM164.901 30.9618C164.901 29.8533 165.075 28.8387 165.413 27.9097L163.533 27.2262C163.109 28.393 162.901 29.641 162.901 30.9618H164.901ZM165.413 27.9097C165.753 26.9732 166.225 26.1827 166.822 25.5243L165.34 24.1813C164.555 25.0473 163.955 26.0668 163.533 27.2262L165.413 27.9097ZM166.821 25.5255C167.436 24.8482 168.175 24.3237 169.047 23.95L168.259 22.1117C167.13 22.5954 166.154 23.2856 165.341 24.1802L166.821 25.5255ZM169.047 23.95C169.904 23.5825 170.898 23.3878 172.047 23.3878V21.3878C170.67 21.3878 169.402 21.6218 168.259 22.1117L169.047 23.95ZM172.047 23.3878C173.248 23.3878 174.28 23.5841 175.162 23.9533L175.934 22.1084C174.768 21.6202 173.466 21.3878 172.047 21.3878V23.3878ZM175.18 23.9608C176.072 24.3134 176.799 24.8123 177.379 25.4529L178.861 24.1099C178.06 23.2261 177.072 22.5581 175.915 22.1009L175.18 23.9608ZM177.401 25.4768C178.006 26.1011 178.468 26.864 178.781 27.7834L180.674 27.1381C180.273 25.9616 179.663 24.9383 178.839 24.086L177.401 25.4768ZM178.781 27.7834C179.098 28.7122 179.264 29.7681 179.264 30.9618H181.264C181.264 29.5833 181.072 28.3052 180.674 27.1381L178.781 27.7834ZM179.264 30.9618C179.264 32.1228 179.088 33.1605 178.752 34.0854L180.632 34.7689C181.057 33.598 181.264 32.3254 181.264 30.9618H179.264ZM178.748 34.0978C178.436 34.9928 177.974 35.7471 177.366 36.3754L178.803 37.7663C179.624 36.918 180.234 35.9098 180.636 34.7565L178.748 34.0978ZM177.354 36.3877C176.773 37.0085 176.043 37.5003 175.144 37.8557L175.88 39.7156C177.029 39.2612 178.014 38.6098 178.815 37.754L177.354 36.3877ZM175.137 37.8587C174.276 38.207 173.264 38.393 172.082 38.393V40.393C173.473 40.393 174.747 40.174 175.887 39.7126L175.137 37.8587ZM172.082 38.393C170.901 38.393 169.874 38.2072 168.985 37.8557L168.249 39.7156C169.409 40.1738 170.691 40.393 172.082 40.393V38.393ZM168.992 37.8587C168.115 37.5035 167.376 37.0084 166.763 36.3754L165.326 37.7663C166.143 38.6099 167.119 39.258 168.242 39.7126L168.992 37.8587ZM166.775 36.3877C166.182 35.7536 165.713 34.9886 165.374 34.0784L163.5 34.7759C163.924 35.914 164.526 36.9114 165.315 37.754L166.775 36.3877ZM165.384 34.1045C165.067 33.1739 164.901 32.1295 164.901 30.9618H162.901C162.901 32.3187 163.093 33.5846 163.491 34.7498L165.384 34.1045ZM171.725 21.8879C170.63 21.8879 169.632 22.1216 168.777 22.6405L169.815 24.3501C170.294 24.0592 170.915 23.8879 171.725 23.8879V21.8879ZM168.763 22.649C167.993 23.1336 167.362 23.7647 166.878 24.5344L168.57 25.6C168.895 25.0835 169.312 24.6667 169.829 24.3415L168.763 22.649ZM166.864 24.5574C166.425 25.297 166.104 26.1198 165.893 27.0174L167.84 27.4755C168.01 26.7534 168.26 26.1235 168.584 25.577L166.864 24.5574ZM165.887 27.0448C165.707 27.9195 165.616 28.7968 165.616 29.6757H167.616C167.616 28.9351 167.693 28.1929 167.846 27.4481L165.887 27.0448ZM165.616 29.6757C165.616 30.6274 165.719 31.6636 165.918 32.7802L167.887 32.4302C167.704 31.4033 167.616 30.4865 167.616 29.6757H165.616ZM165.918 32.7802C166.122 33.9297 166.455 35.0213 166.919 36.0522L168.743 35.2315C168.35 34.357 168.064 33.4242 167.887 32.4302L165.918 32.7802ZM166.932 36.0798C167.44 37.1224 168.116 38.0178 168.961 38.7538L170.274 37.2456C169.643 36.6954 169.127 36.0189 168.73 35.2039L166.932 36.0798ZM168.961 38.7538C169.907 39.578 171.08 39.9643 172.404 39.9643V37.9643C171.489 37.9643 170.804 37.7075 170.274 37.2456L168.961 38.7538ZM172.404 39.9643C173.48 39.9643 174.461 39.7626 175.306 39.3099L174.361 37.5469C173.872 37.8087 173.234 37.9643 172.404 37.9643V39.9643ZM175.306 39.3099C176.107 38.8804 176.768 38.2974 177.268 37.5617L175.614 36.4371C175.304 36.8922 174.893 37.2619 174.361 37.5469L175.306 39.3099ZM177.278 37.5466C177.756 36.8153 178.086 35.9956 178.277 35.0991L176.32 34.6841C176.177 35.3595 175.936 35.945 175.604 36.4521L177.278 37.5466ZM178.27 35.1272C178.48 34.2618 178.584 33.3728 178.584 32.4623H176.584C176.584 33.219 176.498 33.9495 176.326 34.656L178.27 35.1272ZM178.584 32.4623C178.584 31.511 178.481 30.464 178.284 29.3258L176.313 29.6684C176.496 30.7214 176.584 31.6511 176.584 32.4623H178.584ZM178.284 29.3293C178.08 28.1274 177.733 26.994 177.241 25.9328L175.426 26.7737C175.84 27.6656 176.136 28.628 176.312 29.6649L178.284 29.3293ZM177.249 25.9513C176.765 24.8478 176.084 23.9042 175.206 23.1357L173.889 24.6408C174.535 25.206 175.045 25.9058 175.418 26.7553L177.249 25.9513ZM175.218 23.1461C174.268 22.2886 173.077 21.8879 171.725 21.8879V23.8879C172.66 23.8879 173.35 24.1541 173.877 24.6303L175.218 23.1461Z" fill="white"/>
<defs>
<clipPath id="clip0_0_142">
<rect width="56" height="56" fill="white"/>
</clipPath>
</defs>
</svg>
