<svg width="99" height="30" viewBox="0 0 99 30" fill="none" xmlns="http://www.w3.org/2000/svg">
<path d="M97 13C98.1046 13 99 13.8954 99 15C99 16.1046 98.1046 17 97 17L97 13ZM0.585785 16.4142C-0.195259 15.6332 -0.195259 14.3668 0.585785 13.5858L13.3137 0.857872C14.0948 0.0768229 15.3611 0.0768227 16.1421 0.857871C16.9232 1.63892 16.9232 2.90525 16.1421 3.6863L4.82843 15L16.1421 26.3137C16.9232 27.0948 16.9232 28.3611 16.1421 29.1421C15.3611 29.9232 14.0948 29.9232 13.3137 29.1421L0.585785 16.4142ZM97 17L2 17L2 13L97 13L97 17Z" fill="#E5C6C7"/>
</svg>
