<svg width="18" height="15" viewBox="0 0 18 15" fill="none" xmlns="http://www.w3.org/2000/svg">
<path d="M1 6.48401C0.447715 6.48401 0 6.93172 0 7.48401C0 8.03629 0.447715 8.48401 1 8.48401V6.48401ZM17.7071 8.19112C18.0976 7.80059 18.0976 7.16743 17.7071 6.7769L11.3431 0.412941C10.9526 0.0224166 10.3195 0.0224166 9.92893 0.412941C9.53841 0.803465 9.53841 1.43663 9.92893 1.82715L15.5858 7.48401L9.92893 13.1409C9.53841 13.5314 9.53841 14.1646 9.92893 14.5551C10.3195 14.9456 10.9526 14.9456 11.3431 14.5551L17.7071 8.19112ZM1 8.48401H17V6.48401H1V8.48401Z" fill="#B1464A"/>
</svg>
