<svg width="115" height="27" viewBox="0 0 115 27" fill="none" xmlns="http://www.w3.org/2000/svg">
<path d="M0.928855 25.8928C1.09557 25.8928 1.28611 25.8452 1.50046 25.7499C1.73863 25.6547 1.95298 25.5118 2.14351 25.3212C2.35786 25.1307 2.52458 24.8925 2.64366 24.6067C2.78656 24.3209 2.85802 23.9875 2.85802 23.6064V3.38595C2.85802 3.00489 2.78656 2.67145 2.64366 2.38565C2.52458 2.09985 2.35786 1.86168 2.14351 1.67114C1.95298 1.48061 1.73863 1.33771 1.50046 1.24244C1.28611 1.14718 1.09557 1.09954 0.928855 1.09954V0.992366H11.2177C11.8846 0.992366 12.5634 1.04 13.254 1.13527C13.9447 1.20672 14.5997 1.36153 15.2189 1.59969C15.862 1.81405 16.4455 2.11176 16.9695 2.49282C17.5173 2.87389 17.9936 3.36214 18.3985 3.95756C18.8034 4.57679 19.1011 5.2913 19.2916 6.10107C19.506 6.88702 19.6012 7.69679 19.5774 8.53038C19.5774 9.34015 19.4464 10.138 19.1844 10.924C18.9463 11.6861 18.589 12.353 18.1127 12.9246C17.6602 13.4724 17.1243 13.9249 16.505 14.2821C15.9096 14.6394 15.2666 14.9252 14.5759 15.1395C13.909 15.3301 13.2064 15.4611 12.4681 15.5325C11.7536 15.604 11.0629 15.6397 10.396 15.6397L5.5374 15.604V23.6064C5.5374 23.9875 5.59695 24.3209 5.71603 24.6067C5.85893 24.8925 6.02565 25.1307 6.21618 25.3212C6.43053 25.5118 6.64489 25.6547 6.85924 25.7499C7.07359 25.8452 7.27603 25.8928 7.46656 25.8928V26H0.928855V25.8928ZM5.5374 13.2104C5.5374 13.9725 5.71603 14.5084 6.07328 14.818C6.45435 15.1038 6.91878 15.2467 7.46656 15.2467H9.7887C10.6699 15.2467 11.4797 15.1515 12.218 14.9609C12.9802 14.7704 13.7066 14.4131 14.3973 13.8892C15.1118 13.3414 15.6595 12.5792 16.0406 11.6027C16.4455 10.6024 16.6718 9.56641 16.7194 8.49466C16.767 7.39908 16.6241 6.35115 16.2907 5.35084C15.9811 4.32672 15.4928 3.50504 14.826 2.8858C14.1591 2.29038 13.3731 1.8855 12.4681 1.67114C11.5631 1.45679 10.7295 1.34962 9.96733 1.34962H7.46656C6.91878 1.34962 6.45435 1.50443 6.07328 1.81405C5.71603 2.09985 5.5374 2.62382 5.5374 3.38595V13.2104ZM25.1419 17.9618C25.1419 16.7472 25.3324 15.6159 25.7135 14.5679C26.0946 13.52 26.6304 12.615 27.3211 11.8528C28.0356 11.0669 28.893 10.4595 29.8933 10.0308C30.8936 9.60214 32.0249 9.38779 33.2872 9.38779C34.5971 9.38779 35.7642 9.60214 36.7883 10.0308C37.8124 10.4357 38.6698 11.0192 39.3605 11.7814C40.075 12.5197 40.6109 13.4128 40.9681 14.4608C41.3254 15.5087 41.504 16.6757 41.504 17.9618C41.504 19.2241 41.3135 20.3792 40.9324 21.4272C40.5752 22.4513 40.0393 23.3325 39.3248 24.0708C38.6341 24.8092 37.7767 25.3808 36.7526 25.7856C35.7523 26.1905 34.6091 26.393 33.323 26.393C32.0368 26.393 30.8817 26.1905 29.8576 25.7856C28.8573 25.3808 27.9999 24.8092 27.2854 24.0708C26.5947 23.3325 26.0588 22.4513 25.6778 21.4272C25.3205 20.3792 25.1419 19.2241 25.1419 17.9618ZM32.9657 9.88794C32.013 9.88794 31.2033 10.0904 30.5364 10.4953C29.8933 10.9002 29.3694 11.4241 28.9645 12.0672C28.5834 12.7102 28.2976 13.4366 28.1071 14.2464C27.9404 15.0562 27.857 15.866 27.857 16.6757C27.857 17.5569 27.9523 18.5334 28.1428 19.6052C28.3333 20.6769 28.643 21.6892 29.0717 22.6418C29.5242 23.5707 30.1196 24.3566 30.8579 24.9997C31.5962 25.6427 32.5251 25.9643 33.6445 25.9643C34.5971 25.9643 35.4069 25.7856 36.0738 25.4284C36.7407 25.0711 37.2765 24.5948 37.6814 23.9994C38.0863 23.3802 38.3721 22.6776 38.5388 21.8916C38.7294 21.1056 38.8246 20.2959 38.8246 19.4623C38.8246 18.5811 38.7294 17.5927 38.5388 16.4971C38.3483 15.3777 38.0268 14.3298 37.5742 13.3533C37.1455 12.3768 36.5501 11.5551 35.788 10.8882C35.0497 10.2214 34.1089 9.88794 32.9657 9.88794ZM46.6981 9.78076C48.4844 9.59023 49.7705 9.06626 50.5564 8.20885C51.3424 7.35145 51.8306 6.16061 52.0212 4.63634H52.2713L52.2355 9.78076H55.8438V10.1023H52.2355V22.0345C52.2355 22.6061 52.3308 23.1301 52.5213 23.6064C52.7357 24.0589 53.0572 24.4162 53.4859 24.6782C53.7241 24.8211 53.998 24.9163 54.3076 24.964C54.6172 25.0116 54.9268 25.0235 55.2364 24.9997C55.5699 24.9759 55.8795 24.9282 56.1653 24.8568C56.4749 24.7615 56.7369 24.6544 56.9513 24.5353V24.6424C56.594 25.1426 56.0581 25.5237 55.3436 25.7856C54.6291 26.0476 53.8551 26.1786 53.0215 26.1786C52.5928 26.1786 52.1641 26.1191 51.7354 26C51.3305 25.8571 50.9613 25.6308 50.6279 25.3212C50.3183 25.0116 50.0563 24.6067 49.8419 24.1066C49.6514 23.6064 49.5561 22.9872 49.5561 22.2489V11.7814C49.5561 11.1621 49.4728 10.7334 49.3061 10.4953C49.1393 10.2333 48.7106 10.1023 48.02 10.1023H46.6981V9.78076ZM64.4898 19.3194C65.2996 18.6763 66.0856 18.1762 66.8477 17.8189C67.6336 17.4617 68.3958 17.1282 69.1341 16.8186C69.8962 16.509 70.5512 16.2113 71.099 15.9255C71.6468 15.6397 72.0874 15.342 72.4208 15.0324C72.7543 14.6989 72.9924 14.3298 73.1353 13.9249C73.302 13.4962 73.3854 12.996 73.3854 12.4244C73.3854 12.0195 73.302 11.6385 73.1353 11.2812C72.9924 10.924 72.7662 10.6263 72.4565 10.3881C72.1469 10.1261 71.754 9.93557 71.2776 9.81649C70.8013 9.6974 70.2297 9.6855 69.5628 9.78076C68.3958 9.94748 67.2764 10.5429 66.2046 11.567C65.1567 12.5673 64.2159 13.7582 63.3823 15.1395V12.2101C63.7396 11.7576 64.1564 11.3646 64.6327 11.0311C65.1329 10.6739 65.6569 10.3881 66.2046 10.1737C66.7524 9.93557 67.3121 9.75695 67.8837 9.63786C68.4791 9.51878 69.0507 9.44733 69.5985 9.42351C71.5515 9.37588 73.0758 9.79267 74.1714 10.6739C75.2669 11.5551 75.8147 13.0318 75.8147 15.1038V23.1777C75.8147 23.654 75.8862 24.0947 76.0291 24.4995C76.1958 24.8806 76.5888 25.0592 77.208 25.0354C77.3509 25.0354 77.5057 25.0116 77.6724 24.964C77.8391 24.8925 77.994 24.7853 78.1369 24.6424V24.8211C77.9225 25.2021 77.5772 25.5237 77.1008 25.7856C76.6245 26.0476 76.0767 26.1786 75.4575 26.1786C75.0288 26.1786 74.6715 26.0953 74.3857 25.9285C74.0999 25.7618 73.8617 25.5594 73.6712 25.3212C73.5045 25.0831 73.3854 24.8449 73.314 24.6067C73.2425 24.3447 73.2068 24.1304 73.2068 23.9637C72.8495 24.3685 72.4685 24.7258 72.0636 25.0354C71.6825 25.3212 71.2419 25.5713 70.7417 25.7856C70.2654 26 69.7057 26.1548 69.0627 26.2501C68.4434 26.3692 67.717 26.4168 66.8834 26.393C66.2642 26.3692 65.6926 26.2739 65.1686 26.1072C64.6446 25.9643 64.2159 25.7499 63.8825 25.4641C63.5253 25.1545 63.2514 24.7973 63.0608 24.3924C62.8941 23.9875 62.7988 23.5469 62.775 23.0705C62.7512 22.3798 62.8941 21.6892 63.2037 20.9985C63.5133 20.3078 63.942 19.7481 64.4898 19.3194ZM65.5973 22.4275C65.5973 23.5945 65.895 24.4638 66.4904 25.0354C67.1097 25.5832 67.8004 25.869 68.5625 25.8928C69.0388 25.9166 69.539 25.8452 70.063 25.6785C70.6107 25.4879 71.1109 25.2498 71.5634 24.964C72.0159 24.6782 72.3851 24.3447 72.6709 23.9637C72.9805 23.5588 73.1353 23.1539 73.1353 22.749V15.4611C72.3017 15.7469 71.4443 16.0922 70.5631 16.4971C69.6819 16.902 68.8721 17.3783 68.1338 17.9261C67.3955 18.4739 66.7882 19.1169 66.3118 19.8553C65.8355 20.5936 65.5973 21.451 65.5973 22.4275ZM82.4149 9.78076C84.2012 9.59023 85.4873 9.06626 86.2733 8.20885C87.0592 7.35145 87.5475 6.16061 87.738 4.63634H87.9881L87.9523 9.78076H91.5606V10.1023H87.9523V22.0345C87.9523 22.6061 88.0476 23.1301 88.2381 23.6064C88.4525 24.0589 88.774 24.4162 89.2027 24.6782C89.4409 24.8211 89.7148 24.9163 90.0244 24.964C90.334 25.0116 90.6436 25.0235 90.9533 24.9997C91.2867 24.9759 91.5963 24.9282 91.8821 24.8568C92.1917 24.7615 92.4537 24.6544 92.6681 24.5353V24.6424C92.3108 25.1426 91.7749 25.5237 91.0604 25.7856C90.3459 26.0476 89.5719 26.1786 88.7383 26.1786C88.3096 26.1786 87.8809 26.1191 87.4522 26C87.0473 25.8571 86.6781 25.6308 86.3447 25.3212C86.0351 25.0116 85.7731 24.6067 85.5588 24.1066C85.3682 23.6064 85.273 22.9872 85.273 22.2489V11.7814C85.273 11.1621 85.1896 10.7334 85.0229 10.4953C84.8562 10.2333 84.4275 10.1023 83.7368 10.1023H82.4149V9.78076ZM97.9013 17.9618C97.9013 16.7472 98.0918 15.6159 98.4729 14.5679C98.8539 13.52 99.3898 12.615 100.08 11.8528C100.795 11.0669 101.652 10.4595 102.653 10.0308C103.653 9.60214 104.784 9.38779 106.047 9.38779C107.357 9.38779 108.524 9.60214 109.548 10.0308C110.572 10.4357 111.429 11.0192 112.12 11.7814C112.834 12.5197 113.37 13.4128 113.728 14.4608C114.085 15.5087 114.263 16.6757 114.263 17.9618C114.263 19.2241 114.073 20.3792 113.692 21.4272C113.335 22.4513 112.799 23.3325 112.084 24.0708C111.393 24.8092 110.536 25.3808 109.512 25.7856C108.512 26.1905 107.368 26.393 106.082 26.393C104.796 26.393 103.641 26.1905 102.617 25.7856C101.617 25.3808 100.759 24.8092 100.045 24.0708C99.3541 23.3325 98.8182 22.4513 98.4371 21.4272C98.0799 20.3792 97.9013 19.2241 97.9013 17.9618ZM105.725 9.88794C104.772 9.88794 103.963 10.0904 103.296 10.4953C102.653 10.9002 102.129 11.4241 101.724 12.0672C101.343 12.7102 101.057 13.4366 100.866 14.2464C100.7 15.0562 100.616 15.866 100.616 16.6757C100.616 17.5569 100.712 18.5334 100.902 19.6052C101.093 20.6769 101.402 21.6892 101.831 22.6418C102.284 23.5707 102.879 24.3566 103.617 24.9997C104.356 25.6427 105.284 25.9643 106.404 25.9643C107.357 25.9643 108.166 25.7856 108.833 25.4284C109.5 25.0711 110.036 24.5948 110.441 23.9994C110.846 23.3802 111.131 22.6776 111.298 21.8916C111.489 21.1056 111.584 20.2959 111.584 19.4623C111.584 18.5811 111.489 17.5927 111.298 16.4971C111.108 15.3777 110.786 14.3298 110.334 13.3533C109.905 12.3768 109.309 11.5551 108.547 10.8882C107.809 10.2214 106.868 9.88794 105.725 9.88794Z" fill="white"/>
<path d="M0.928855 25.8928V24.8928H-0.0711451V25.8928H0.928855ZM1.50046 25.7499L1.12907 24.8214L1.11156 24.8285L1.09432 24.8361L1.50046 25.7499ZM2.14351 25.3212L1.47915 24.5738L1.45718 24.5933L1.4364 24.6141L2.14351 25.3212ZM2.64366 24.6067L1.74924 24.1595L1.73383 24.1903L1.72059 24.2221L2.64366 24.6067ZM2.64366 2.38565L1.72059 2.77026L1.73383 2.80206L1.74924 2.83286L2.64366 2.38565ZM2.14351 1.67114L1.43641 2.37825L1.45718 2.39903L1.47915 2.41855L2.14351 1.67114ZM1.50046 1.24244L1.09432 2.15625L1.11155 2.16391L1.12907 2.17092L1.50046 1.24244ZM0.928855 1.09954H-0.0711451V2.09954H0.928855V1.09954ZM0.928855 0.992366V-0.00763416H-0.0711451V0.992366H0.928855ZM13.254 1.13527L13.1174 2.12589L13.1342 2.12821L13.1511 2.12996L13.254 1.13527ZM15.2189 1.5997L14.86 2.53304L14.8812 2.54119L14.9027 2.54838L15.2189 1.5997ZM16.9695 2.49282L16.3813 3.30156L16.3898 3.30773L16.3984 3.31373L16.9695 2.49282ZM18.3985 3.95756L19.2354 3.41031L19.2305 3.40273L19.2254 3.39525L18.3985 3.95756ZM19.2916 6.10107L18.3182 6.33011L18.3222 6.34722L18.3268 6.36419L19.2916 6.10107ZM19.5774 8.53038L18.5778 8.50182L18.5774 8.5161V8.53038H19.5774ZM19.1844 10.924L18.2357 10.6077L18.2328 10.6167L18.2299 10.6257L19.1844 10.924ZM18.1127 12.9246L17.3444 12.2844L17.3417 12.2877L18.1127 12.9246ZM16.505 14.2821L16.0053 13.416L15.9979 13.4202L15.9905 13.4246L16.505 14.2821ZM14.5759 15.1395L14.8506 16.1011L14.8615 16.098L14.8723 16.0946L14.5759 15.1395ZM12.4681 15.5325L12.3718 14.5372L12.3686 14.5375L12.4681 15.5325ZM10.396 15.6397L10.3887 16.6397H10.396V15.6397ZM5.5374 15.604L5.54476 14.604L4.5374 14.5966V15.604H5.5374ZM5.71603 24.6067L4.79295 24.9913L4.8062 25.0231L4.8216 25.0539L5.71603 24.6067ZM6.21618 25.3212L5.50908 26.0283L5.52986 26.0491L5.55182 26.0686L6.21618 25.3212ZM6.85924 25.7499L6.4531 26.6637H6.4531L6.85924 25.7499ZM7.46656 25.8928H8.46657V24.8928H7.46656V25.8928ZM7.46656 26V27H8.46657V26H7.46656ZM0.928855 26H-0.0711451V27H0.928855V26ZM6.07328 14.818L5.41835 15.5737L5.44503 15.5968L5.47328 15.618L6.07328 14.818ZM12.218 14.9609L11.9755 13.9907L11.9681 13.9926L12.218 14.9609ZM14.3973 13.8892L15.0016 14.6859L15.0057 14.6828L14.3973 13.8892ZM16.0406 11.6027L15.1136 11.2275L15.109 11.2392L16.0406 11.6027ZM16.7194 8.49466L17.7184 8.53906L17.7184 8.53809L16.7194 8.49466ZM16.2907 5.35084L15.3335 5.64023L15.3376 5.65371L15.342 5.66707L16.2907 5.35084ZM14.826 2.8858L15.5064 2.15301L15.4993 2.14637L15.492 2.13986L14.826 2.8858ZM12.4681 1.67114L12.2376 2.64422L12.4681 1.67114ZM6.07328 1.81404L6.698 2.59494L6.70388 2.59016L6.07328 1.81404ZM0.928855 26.8928C1.28024 26.8928 1.61282 26.7943 1.9066 26.6637L1.09432 24.8361C1.03013 24.8646 0.983922 24.8795 0.954258 24.887C0.924662 24.8944 0.917487 24.8928 0.928855 24.8928V26.8928ZM1.87185 26.6784C2.24206 26.5303 2.56924 26.3097 2.85062 26.0283L1.4364 24.6141C1.33671 24.7138 1.23519 24.779 1.12907 24.8214L1.87185 26.6784ZM2.80788 26.0686C3.14342 25.7704 3.39449 25.4047 3.56674 24.9913L1.72059 24.2221C1.65467 24.3803 1.5723 24.491 1.47915 24.5738L2.80788 26.0686ZM3.53809 25.0539C3.76256 24.605 3.85802 24.1131 3.85802 23.6064H1.85802C1.85802 23.8619 1.81057 24.0368 1.74924 24.1595L3.53809 25.0539ZM3.85802 23.6064V3.38595H1.85802V23.6064H3.85802ZM3.85802 3.38595C3.85802 2.87929 3.76256 2.38738 3.53809 1.93843L1.74924 2.83286C1.81057 2.95552 1.85802 3.13048 1.85802 3.38595H3.85802ZM3.56674 2.00103C3.39449 1.58764 3.14342 1.222 2.80788 0.923736L1.47915 2.41855C1.5723 2.50136 1.65467 2.61206 1.72059 2.77026L3.56674 2.00103ZM2.85062 0.964035C2.56924 0.682662 2.24206 0.462051 1.87185 0.313967L1.12907 2.17092C1.23519 2.21337 1.33671 2.27856 1.43641 2.37825L2.85062 0.964035ZM1.9066 0.328632C1.61283 0.198067 1.28024 0.0995426 0.928855 0.0995426V2.09954C0.917487 2.09954 0.924662 2.09801 0.954258 2.10541C0.983922 2.11283 1.03013 2.12772 1.09432 2.15625L1.9066 0.328632ZM1.92885 1.09954V0.992366H-0.0711451V1.09954H1.92885ZM0.928855 1.99237H11.2177V-0.00763416H0.928855V1.99237ZM11.2177 1.99237C11.8369 1.99237 12.47 2.03658 13.1174 2.12589L13.3907 0.144646C12.6568 0.0434151 11.9323 -0.00763416 11.2177 -0.00763416V1.99237ZM13.1511 2.12996C13.7582 2.19276 14.3268 2.32796 14.86 2.53304L15.5779 0.666349C14.8726 0.395091 14.1312 0.220675 13.3569 0.140575L13.1511 2.12996ZM14.9027 2.54838C15.453 2.73181 15.944 2.98355 16.3813 3.30156L17.5576 1.68409C16.947 1.23996 16.271 0.896283 15.5352 0.651011L14.9027 2.54838ZM16.3984 3.31373C16.8381 3.61963 17.23 4.01753 17.5715 4.51987L19.2254 3.39525C18.7572 2.70675 18.1964 2.12816 17.5405 1.67192L16.3984 3.31373ZM17.5615 4.5048C17.8953 5.01539 18.151 5.61958 18.3182 6.33011L20.265 5.87203C20.0511 4.96302 19.7114 4.13819 19.2354 3.41031L17.5615 4.5048ZM18.3268 6.36419C18.5147 7.05292 18.5989 7.76429 18.5778 8.50182L20.577 8.55894C20.6036 7.6293 20.4972 6.72113 20.2564 5.83795L18.3268 6.36419ZM18.5774 8.53038C18.5774 9.23018 18.4645 9.92137 18.2357 10.6077L20.1331 11.2402C20.4283 10.3547 20.5774 9.45012 20.5774 8.53038H18.5774ZM18.2299 10.6257C18.028 11.272 17.7309 11.8206 17.3444 12.2844L18.8809 13.5648C19.4471 12.8853 19.8645 12.1002 20.1389 11.2222L18.2299 10.6257ZM17.3417 12.2877C16.9657 12.7429 16.5218 13.118 16.0053 13.416L17.0048 15.1483C17.7267 14.7318 18.3546 14.2018 18.8836 13.5615L17.3417 12.2877ZM15.9905 13.4246C15.4664 13.7391 14.897 13.9928 14.2795 14.1845L14.8723 16.0946C15.6361 15.8575 16.3528 15.5397 17.0195 15.1396L15.9905 13.4246ZM14.3012 14.178C13.6965 14.3508 13.0539 14.4712 12.3718 14.5372L12.5644 16.5279C13.359 16.451 14.1215 16.3094 14.8506 16.1011L14.3012 14.178ZM12.3686 14.5375C11.6847 14.6059 11.0273 14.6397 10.396 14.6397V16.6397C11.0985 16.6397 11.8225 16.6021 12.5676 16.5276L12.3686 14.5375ZM10.4034 14.6397L5.54476 14.604L5.53005 16.6039L10.3887 16.6397L10.4034 14.6397ZM4.5374 15.604V23.6064H6.5374V15.604H4.5374ZM4.5374 23.6064C4.5374 24.0899 4.61283 24.559 4.79295 24.9913L6.63911 24.2221C6.58106 24.0828 6.5374 23.885 6.5374 23.6064H4.5374ZM4.8216 25.0539C5.00388 25.4185 5.22992 25.7492 5.50908 26.0283L6.92329 24.6141C6.82137 24.5122 6.71398 24.3665 6.61046 24.1595L4.8216 25.0539ZM5.55182 26.0686C5.82667 26.3129 6.12638 26.5185 6.4531 26.6637L7.26538 24.8361C7.16339 24.7908 7.0344 24.7106 6.88055 24.5738L5.55182 26.0686ZM6.4531 26.6637C6.76652 26.803 7.10771 26.8928 7.46656 26.8928V24.8928C7.44435 24.8928 7.38066 24.8873 7.26537 24.8361L6.4531 26.6637ZM6.46656 25.8928V26H8.46657V25.8928H6.46656ZM7.46656 25H0.928855V27H7.46656V25ZM1.92885 26V25.8928H-0.0711451V26H1.92885ZM4.5374 13.2104C4.5374 14.0884 4.73785 14.9839 5.41835 15.5737L6.72821 14.0623C6.69421 14.0329 6.5374 13.8567 6.5374 13.2104H4.5374ZM5.47328 15.618C6.05268 16.0526 6.73622 16.2467 7.46656 16.2467V14.2467C7.10133 14.2467 6.85603 14.1551 6.67328 14.018L5.47328 15.618ZM7.46656 16.2467H9.7887V14.2467H7.46656V16.2467ZM9.7887 16.2467C10.7415 16.2467 11.6364 16.1438 12.4679 15.9292L11.9681 13.9926C11.3229 14.1591 10.5984 14.2467 9.7887 14.2467V16.2467ZM12.4606 15.9311C13.3668 15.7045 14.2145 15.283 15.0016 14.6859L13.7929 13.0925C13.1986 13.5433 12.5935 13.8363 11.9755 13.9908L12.4606 15.9311ZM15.0057 14.6828C15.8876 14.0067 16.5358 13.0846 16.9722 11.9663L15.109 11.2392C14.7833 12.0739 14.336 12.6761 13.7888 13.0956L15.0057 14.6828ZM16.9676 11.9779C17.4148 10.8729 17.6657 9.72505 17.7184 8.53906L15.7204 8.45026C15.6778 9.40777 15.4762 10.332 15.1137 11.2276L16.9676 11.9779ZM17.7184 8.53809C17.7712 7.32552 17.6129 6.15534 17.2394 5.03461L15.342 5.66707C15.6353 6.54695 15.7629 7.47265 15.7203 8.45122L17.7184 8.53809ZM17.2479 5.06145C16.8961 3.89767 16.3244 2.91261 15.5064 2.15301L14.1455 3.6186C14.6612 4.09747 15.0661 4.75576 15.3335 5.64023L17.2479 5.06145ZM15.492 2.13986C14.696 1.42915 13.7586 0.949135 12.6986 0.698064L12.2376 2.64422C12.9876 2.82186 13.6222 3.15161 14.1599 3.63174L15.492 2.13986ZM12.6986 0.698064C11.7339 0.469591 10.8219 0.349617 9.96733 0.349617V2.34962C10.6371 2.34962 11.3922 2.44399 12.2376 2.64422L12.6986 0.698064ZM9.96733 0.349617H7.46656V2.34962H9.96733V0.349617ZM7.46656 0.349617C6.71732 0.349617 6.02274 0.566643 5.44269 1.03793L6.70388 2.59016C6.88597 2.44221 7.12024 2.34962 7.46656 2.34962V0.349617ZM5.44859 1.03318C4.73357 1.60519 4.5374 2.5183 4.5374 3.38595H6.5374C6.5374 3.07634 6.57454 2.8712 6.61788 2.74405C6.65875 2.62418 6.69668 2.59595 6.69798 2.59491L5.44859 1.03318ZM4.5374 3.38595V13.2104H6.5374V3.38595H4.5374ZM25.7135 14.5679L24.7737 14.2262L25.7135 14.5679ZM27.3211 11.8528L26.5812 11.1802L26.5801 11.1813L27.3211 11.8528ZM29.8933 10.0308L29.4994 9.11169L29.8933 10.0308ZM36.7883 10.0308L36.4022 10.9533L36.4114 10.9571L36.4206 10.9608L36.7883 10.0308ZM39.3605 11.7814L38.6195 12.4529L38.6305 12.465L38.6419 12.4768L39.3605 11.7814ZM40.9681 14.4608L41.9147 14.1381V14.1381L40.9681 14.4608ZM40.9324 21.4272L39.9925 21.0854L39.9882 21.0978L40.9324 21.4272ZM39.3248 24.0708L38.6062 23.3754L38.6003 23.3815L38.5945 23.3877L39.3248 24.0708ZM36.7526 25.7856L36.3849 24.8557L36.3774 24.8587L36.7526 25.7856ZM29.8576 25.7856L29.4824 26.7126L29.4899 26.7156L29.8576 25.7856ZM27.2854 24.0708L26.5551 24.754L26.5609 24.7602L26.5668 24.7663L27.2854 24.0708ZM25.6778 21.4272L24.7313 21.7498L24.7357 21.7629L24.7405 21.7759L25.6778 21.4272ZM30.5364 10.4953L30.0174 9.64048L30.0105 9.6447L30.0036 9.64903L30.5364 10.4953ZM28.9645 12.0672L28.1182 11.5344L28.1111 11.5458L28.1042 11.5574L28.9645 12.0672ZM28.1071 14.2464L27.1337 14.0174L27.1304 14.031L27.1276 14.0448L28.1071 14.2464ZM29.0717 22.6418L28.1597 23.0522L28.166 23.0661L28.1727 23.0798L29.0717 22.6418ZM30.8579 24.9997L30.2011 25.7538L30.8579 24.9997ZM36.0738 25.4284L36.546 26.3099L36.0738 25.4284ZM37.6814 23.9994L38.5084 24.5617L38.5134 24.5542L38.5184 24.5466L37.6814 23.9994ZM38.5388 21.8916L37.567 21.656L37.5636 21.67L37.5606 21.6841L38.5388 21.8916ZM38.5388 16.4971L37.553 16.6649L37.5536 16.6684L38.5388 16.4971ZM37.5742 13.3533L36.6586 13.7553L36.6627 13.7646L36.6669 13.7737L37.5742 13.3533ZM35.788 10.8882L35.1177 11.6303L35.1236 11.6356L35.1295 11.6408L35.788 10.8882ZM26.1419 17.9618C26.1419 16.8533 26.3155 15.8387 26.6533 14.9097L24.7737 14.2262C24.3494 15.393 24.1419 16.641 24.1419 17.9618H26.1419ZM26.6533 14.9097C26.9938 13.9732 27.4655 13.1827 28.0621 12.5243L26.5801 11.1813C25.7954 12.0473 25.1953 13.0668 24.7737 14.2262L26.6533 14.9097ZM28.0611 12.5255C28.6768 11.8482 29.4153 11.3237 30.2873 10.95L29.4994 9.11169C28.3708 9.5954 27.3944 10.2856 26.5812 11.1802L28.0611 12.5255ZM30.2873 10.95C31.1448 10.5825 32.1389 10.3878 33.2872 10.3878V8.38778C31.911 8.38778 30.6425 8.6218 29.4994 9.11169L30.2873 10.95ZM33.2872 10.3878C34.488 10.3878 35.5203 10.5841 36.4022 10.9533L37.1744 9.1084C36.0081 8.62016 34.7063 8.38778 33.2872 8.38778V10.3878ZM36.4206 10.9608C37.3125 11.3134 38.039 11.8123 38.6195 12.4529L40.1015 11.1099C39.3006 10.2261 38.3124 9.55807 37.156 9.10088L36.4206 10.9608ZM38.6419 12.4768C39.2461 13.1011 39.7082 13.864 40.0216 14.7834L41.9147 14.1381C41.5136 12.9616 40.9039 11.9383 40.0791 11.086L38.6419 12.4768ZM40.0216 14.7834C40.3383 15.7122 40.504 16.7681 40.504 17.9618H42.504C42.504 16.5833 42.3125 15.3052 41.9147 14.1381L40.0216 14.7834ZM40.504 17.9618C40.504 19.1228 40.329 20.1605 39.9926 21.0854L41.8722 21.7689C42.298 20.598 42.504 19.3254 42.504 17.9618H40.504ZM39.9882 21.0978C39.676 21.9928 39.2142 22.7471 38.6062 23.3754L40.0434 24.7663C40.8643 23.918 41.4743 22.9098 41.8766 21.7565L39.9882 21.0978ZM38.5945 23.3877C38.0137 24.0085 37.2838 24.5003 36.3849 24.8557L37.1202 26.7156C38.2695 26.2612 39.2545 25.6098 40.0551 24.754L38.5945 23.3877ZM36.3774 24.8587C35.5168 25.207 34.5046 25.393 33.323 25.393V27.393C34.7135 27.393 35.9877 27.174 37.1278 26.7126L36.3774 24.8587ZM33.323 25.393C32.1419 25.393 31.1144 25.2072 30.2253 24.8557L29.4899 26.7156C30.649 27.1738 31.9318 27.393 33.323 27.393V25.393ZM30.2328 24.8587C29.3552 24.5035 28.6166 24.0084 28.004 23.3754L26.5668 24.7663C27.3832 25.6099 28.3594 26.258 29.4824 26.7126L30.2328 24.8587ZM28.0157 23.3877C27.4225 22.7536 26.9536 21.9886 26.615 21.0784L24.7405 21.7759C25.164 22.914 25.7669 23.9114 26.5551 24.754L28.0157 23.3877ZM26.6243 21.1045C26.307 20.1739 26.1419 19.1295 26.1419 17.9618H24.1419C24.1419 19.3187 24.334 20.5846 24.7313 21.7498L26.6243 21.1045ZM32.9657 8.88794C31.8705 8.88794 30.872 9.1216 30.0174 9.64048L31.0554 11.3501C31.5345 11.0592 32.1556 10.8879 32.9657 10.8879V8.88794ZM30.0036 9.64903C29.2339 10.1336 28.6028 10.7647 28.1182 11.5344L29.8107 12.6C30.1359 12.0835 30.5527 11.6667 31.0692 11.3415L30.0036 9.64903ZM28.1042 11.5574C27.6659 12.297 27.3448 13.1198 27.1337 14.0174L29.0805 14.4755C29.2504 13.7534 29.5009 13.1235 29.8248 12.577L28.1042 11.5574ZM27.1276 14.0448C26.9475 14.9195 26.857 15.7968 26.857 16.6757H28.857C28.857 15.9351 28.9332 15.1929 29.0865 14.4481L27.1276 14.0448ZM26.857 16.6757C26.857 17.6274 26.9597 18.6636 27.1582 19.7802L29.1274 19.4302C28.9448 18.4033 28.857 17.4865 28.857 16.6757H26.857ZM27.1582 19.7802C27.3626 20.9297 27.6958 22.0213 28.1597 23.0522L29.9836 22.2315C29.5901 21.357 29.3041 20.4242 29.1274 19.4302L27.1582 19.7802ZM28.1727 23.0798C28.6806 24.1224 29.3562 25.0178 30.2011 25.7538L31.5147 24.2456C30.883 23.6954 30.3677 23.0189 29.9706 22.2039L28.1727 23.0798ZM30.2011 25.7538C31.1475 26.578 32.3205 26.9643 33.6445 26.9643V24.9643C32.7297 24.9643 32.045 24.7075 31.5147 24.2456L30.2011 25.7538ZM33.6445 26.9643C34.7201 26.9643 35.701 26.7626 36.546 26.3099L35.6016 24.5469C35.1128 24.8087 34.4742 24.9643 33.6445 24.9643V26.9643ZM36.546 26.3099C37.3477 25.8804 38.0081 25.2974 38.5084 24.5617L36.8545 23.4371C36.545 23.8922 36.1336 24.2619 35.6016 24.5469L36.546 26.3099ZM38.5184 24.5466C38.9966 23.8153 39.3269 22.9956 39.5171 22.0991L37.5606 21.6841C37.4173 22.3595 37.176 22.945 36.8445 23.4521L38.5184 24.5466ZM39.5107 22.1272C39.7205 21.2618 39.8246 20.3728 39.8246 19.4623H37.8246C37.8246 20.219 37.7382 20.9495 37.567 21.656L39.5107 22.1272ZM39.8246 19.4623C39.8246 18.511 39.722 17.464 39.524 16.3258L37.5536 16.6684C37.7367 17.7214 37.8246 18.6511 37.8246 19.4623H39.8246ZM39.5247 16.3293C39.3201 15.1274 38.9733 13.994 38.4816 12.9328L36.6669 13.7737C37.0802 14.6656 37.3765 15.628 37.553 16.6649L39.5247 16.3293ZM38.4899 12.9513C38.0054 11.8478 37.3249 10.9042 36.4465 10.1357L35.1295 11.6408C35.7754 12.206 36.2857 12.9058 36.6586 13.7553L38.4899 12.9513ZM36.4583 10.1461C35.5089 9.28861 34.3171 8.88794 32.9657 8.88794V10.8879C33.9007 10.8879 34.5905 11.1541 35.1177 11.6303L36.4583 10.1461ZM46.6981 9.78076L46.5921 8.7864L45.6981 8.88176V9.78076H46.6981ZM50.5564 8.20885L49.8193 7.53313L50.5564 8.20885ZM52.0212 4.63634V3.63634H51.1384L51.0289 4.5123L52.0212 4.63634ZM52.2713 4.63634L53.2712 4.64328L53.2782 3.63634H52.2713V4.63634ZM52.2355 9.78076L51.2356 9.77382L51.2286 10.7808H52.2355V9.78076ZM55.8438 9.78076H56.8438V8.78076H55.8438V9.78076ZM55.8438 10.1023V11.1023H56.8438V10.1023H55.8438ZM52.2355 10.1023V9.10229H51.2355V10.1023H52.2355ZM52.5213 23.6064L51.5929 23.9778L51.6043 24.0065L51.6176 24.0345L52.5213 23.6064ZM53.4859 24.6782L52.9644 25.5315L52.9714 25.5357L53.4859 24.6782ZM55.2364 24.9997L55.1652 24.0022L55.1598 24.0026L55.2364 24.9997ZM56.1653 24.8568L56.4078 25.8269L56.4338 25.8204L56.4594 25.8126L56.1653 24.8568ZM56.9513 24.5353H57.9513V22.8358L56.4656 23.6611L56.9513 24.5353ZM56.9513 24.6424L57.765 25.2237L57.9513 24.9629V24.6424H56.9513ZM55.3436 25.7856L54.9994 24.8468L55.3436 25.7856ZM51.7354 26L51.4026 26.943L51.4348 26.9544L51.4677 26.9635L51.7354 26ZM50.6279 25.3212L49.9208 26.0283L49.9339 26.0414L49.9474 26.054L50.6279 25.3212ZM49.8419 24.1066L48.9075 24.4626L48.9147 24.4817L48.9228 24.5005L49.8419 24.1066ZM49.3061 10.4953L48.4624 11.0321L48.4742 11.0507L48.4868 11.0687L49.3061 10.4953ZM46.6981 10.1023H45.6981V11.1023H46.6981V10.1023ZM46.8042 10.7751C48.7062 10.5722 50.2738 9.99713 51.2936 8.88458L49.8193 7.53313C49.2672 8.13539 48.2626 8.60821 46.5921 8.7864L46.8042 10.7751ZM51.2936 8.88458C52.2585 7.83191 52.8054 6.42518 53.0135 4.76037L51.0289 4.5123C50.8559 5.89604 50.4263 6.87099 49.8193 7.53313L51.2936 8.88458ZM52.0212 5.63634H52.2713V3.63634H52.0212V5.63634ZM51.2713 4.62939L51.2356 9.77382L53.2355 9.78771L53.2712 4.64328L51.2713 4.62939ZM52.2355 10.7808H55.8438V8.78076H52.2355V10.7808ZM54.8438 9.78076V10.1023H56.8438V9.78076H54.8438ZM55.8438 9.10229H52.2355V11.1023H55.8438V9.10229ZM51.2355 10.1023V22.0345H53.2355V10.1023H51.2355ZM51.2355 22.0345C51.2355 22.7188 51.35 23.3706 51.5929 23.9778L53.4498 23.235C53.3116 22.8896 53.2355 22.4934 53.2355 22.0345H51.2355ZM51.6176 24.0345C51.9156 24.6636 52.3703 25.1683 52.9645 25.5314L54.0074 23.8249C53.7442 23.664 53.5558 23.4543 53.4251 23.1783L51.6176 24.0345ZM52.9714 25.5357C53.3341 25.7533 53.7341 25.8875 54.1555 25.9523L54.4596 23.9756C54.2619 23.9452 54.1141 23.8889 54.0004 23.8207L52.9714 25.5357ZM54.1555 25.9523C54.5401 26.0115 54.9265 26.0265 55.3131 25.9967L55.1598 24.0026C54.9271 24.0205 54.6943 24.0117 54.4596 23.9756L54.1555 25.9523ZM55.3077 25.9972C55.6913 25.9697 56.0589 25.9142 56.4078 25.8269L55.9228 23.8867C55.7001 23.9423 55.4484 23.982 55.1652 24.0022L55.3077 25.9972ZM56.4594 25.8126C56.8157 25.7029 57.1459 25.5711 57.4369 25.4094L56.4656 23.6611C56.3279 23.7376 56.1342 23.8201 55.8712 23.901L56.4594 25.8126ZM55.9513 24.5353V24.6424H57.9513V24.5353H55.9513ZM56.1375 24.0612C55.9224 24.3623 55.5703 24.6374 54.9994 24.8468L55.6879 26.7245C56.546 26.4099 57.2656 25.9229 57.765 25.2237L56.1375 24.0612ZM54.9994 24.8468C54.4052 25.0646 53.7488 25.1786 53.0215 25.1786V27.1786C53.9613 27.1786 54.8531 27.0306 55.6879 26.7245L54.9994 24.8468ZM53.0215 25.1786C52.6866 25.1786 52.3479 25.1323 52.003 25.0365L51.4677 26.9635C51.9803 27.1059 52.499 27.1786 53.0215 27.1786V25.1786ZM52.0682 25.057C51.8 24.9623 51.5476 24.8106 51.3083 24.5884L49.9474 26.054C50.3751 26.4511 50.861 26.7519 51.4026 26.943L52.0682 25.057ZM51.335 24.6141C51.1343 24.4134 50.9371 24.1233 50.7611 23.7126L48.9228 24.5005C49.1755 25.0902 49.5023 25.6098 49.9208 26.0283L51.335 24.6141ZM50.7764 23.7506C50.6422 23.3983 50.5561 22.9085 50.5561 22.2489H48.5561C48.5561 23.0659 48.6606 23.8145 48.9075 24.4626L50.7764 23.7506ZM50.5561 22.2489V11.7814H48.5561V22.2489H50.5561ZM50.5561 11.7814C50.5561 11.1435 50.484 10.4343 50.1253 9.9218L48.4868 11.0687C48.4599 11.0303 48.4849 11.0467 48.512 11.1863C48.5376 11.3178 48.5561 11.5116 48.5561 11.7814H50.5561ZM50.1497 9.95839C49.892 9.5534 49.4948 9.34903 49.1517 9.24418C48.806 9.13856 48.4169 9.10229 48.02 9.10229V11.1023C48.3137 11.1023 48.4842 11.1315 48.5673 11.1569C48.6529 11.183 48.5534 11.1752 48.4624 11.0321L50.1497 9.95839ZM48.02 9.10229H46.6981V11.1023H48.02V9.10229ZM47.6981 10.1023V9.78076H45.6981V10.1023H47.6981ZM64.4898 19.3194L65.1062 20.1069L65.1117 20.1025L64.4898 19.3194ZM66.8477 17.8189L66.4339 16.9085L66.4233 16.9135L66.8477 17.8189ZM69.1341 16.8186L68.7577 15.8921L68.7474 15.8964L69.1341 16.8186ZM71.099 15.9255L71.5616 16.8121L71.099 15.9255ZM72.4208 15.0324L73.1013 15.7652L73.1148 15.7526L73.1279 15.7395L72.4208 15.0324ZM73.1353 13.9249L72.2033 13.5624L72.1976 13.5772L72.1923 13.5921L73.1353 13.9249ZM73.1353 11.2812L72.2068 11.6526L72.2173 11.6787L72.2291 11.7041L73.1353 11.2812ZM72.4566 10.3881L71.8106 11.1515L71.8284 11.1665L71.8468 11.1807L72.4566 10.3881ZM71.2776 9.81649L71.0351 10.7866L71.2776 9.81649ZM69.5628 9.78076L69.7042 10.7707L69.5628 9.78076ZM66.2046 11.567L66.8951 12.2904L66.8955 12.29L66.2046 11.567ZM63.3824 15.1395H62.3824V18.7322L64.2385 15.6562L63.3824 15.1395ZM63.3824 12.2101L62.5975 11.5904L62.3824 11.8629V12.2101H63.3824ZM64.6327 11.0311L65.2062 11.8504L65.214 11.8449L64.6327 11.0311ZM66.2046 10.1737L66.569 11.105L66.5863 11.0982L66.6034 11.0908L66.2046 10.1737ZM67.8837 9.63786L67.6876 8.65725L67.6798 8.65888L67.8837 9.63786ZM69.5985 9.42351L69.5742 8.42381L69.5646 8.42404L69.5551 8.42446L69.5985 9.42351ZM76.0291 24.4995L75.0861 24.8324L75.0983 24.8669L75.1129 24.9004L76.0291 24.4995ZM77.208 25.0354V24.0354H77.1888L77.1696 24.0362L77.208 25.0354ZM77.6724 24.964L77.9471 25.9255L78.0081 25.9081L78.0663 25.8831L77.6724 24.964ZM78.1369 24.6424H79.1369V22.2282L77.4297 23.9353L78.1369 24.6424ZM78.1369 24.8211L79.0084 25.3113L79.1369 25.083V24.8211H78.1369ZM77.1008 25.7856L76.6189 24.9094L77.1008 25.7856ZM74.3857 25.9286L73.8818 26.7923L74.3857 25.9286ZM73.6712 25.3212L72.852 25.8947L72.8703 25.9209L72.8903 25.9459L73.6712 25.3212ZM73.3139 24.6067L72.3492 24.8698L72.3525 24.882L72.3561 24.8941L73.3139 24.6067ZM73.2068 23.9637H74.2068V21.3189L72.4569 23.302L73.2068 23.9637ZM72.0636 25.0354L72.6636 25.8355L72.671 25.8298L72.0636 25.0354ZM70.7417 25.7856L70.3478 24.8665L70.3396 24.87L70.3314 24.8737L70.7417 25.7856ZM69.0627 26.2501L68.9161 25.2609L68.8949 25.264L68.8738 25.2681L69.0627 26.2501ZM66.8834 26.393L66.845 27.3923L66.8549 27.3926L66.8834 26.393ZM65.1686 26.1072L65.4718 25.1543L65.4519 25.1479L65.4317 25.1424L65.1686 26.1072ZM63.8825 25.4641L63.2276 26.2198L63.2317 26.2234L63.8825 25.4641ZM63.0608 24.3924L62.1361 24.7731L62.1455 24.7959L62.156 24.8182L63.0608 24.3924ZM62.775 23.0705L61.7756 23.105L61.7759 23.1127L61.7763 23.1205L62.775 23.0705ZM63.2037 20.9985L64.1162 21.4075L63.2037 20.9985ZM66.4904 25.0354L65.7979 25.7568L65.8126 25.7709L65.8279 25.7844L66.4904 25.0354ZM68.5625 25.8928L68.6124 24.8941L68.6031 24.8936L68.5937 24.8933L68.5625 25.8928ZM70.063 25.6785L70.3662 26.6314L70.3789 26.6274L70.3915 26.623L70.063 25.6785ZM71.5634 24.964L71.0294 24.1185L71.5634 24.964ZM72.6709 23.9637L71.8765 23.3562L71.8709 23.3637L72.6709 23.9637ZM73.1353 15.4611H74.1353V14.0611L72.811 14.5151L73.1353 15.4611ZM70.5631 16.4971L70.9806 17.4058L70.5631 16.4971ZM68.1338 17.9261L67.538 17.123L68.1338 17.9261ZM66.3118 19.8553L67.1521 20.3974L66.3118 19.8553ZM65.1117 20.1025C65.8739 19.4972 66.5942 19.0422 67.2721 18.7244L66.4233 16.9135C65.577 17.3102 64.7253 17.8554 63.8679 18.5363L65.1117 20.1025ZM67.2615 18.7293C68.0392 18.3758 68.7923 18.0463 69.5208 17.7408L68.7474 15.8964C67.9993 16.2101 67.2281 16.5476 66.4339 16.9086L67.2615 18.7293ZM69.5105 17.7451C70.293 17.4272 70.9783 17.1164 71.5616 16.8121L70.6364 15.0389C70.1241 15.3062 69.4995 15.5908 68.7577 15.8922L69.5105 17.7451ZM71.5616 16.8121C72.1623 16.4986 72.6838 16.1528 73.1013 15.7652L71.7404 14.2996C71.491 14.5312 71.1312 14.7807 70.6364 15.0389L71.5616 16.8121ZM73.1279 15.7395C73.5564 15.311 73.881 14.8168 74.0783 14.2577L72.1923 13.5921C72.1039 13.8428 71.9521 14.0869 71.7137 14.3253L73.1279 15.7395ZM74.0673 14.2873C74.2884 13.7188 74.3854 13.091 74.3854 12.4244H72.3854C72.3854 12.9011 72.3157 13.2736 72.2033 13.5624L74.0673 14.2873ZM74.3854 12.4244C74.3854 11.8775 74.2717 11.3516 74.0415 10.8583L72.2291 11.7041C72.3324 11.9253 72.3854 12.1616 72.3854 12.4244H74.3854ZM74.0638 10.9098C73.8533 10.3835 73.5157 9.94119 73.0663 9.59547L71.8468 11.1807C72.0166 11.3113 72.1316 11.4644 72.2068 11.6526L74.0638 10.9098ZM73.1025 9.62471C72.6539 9.24517 72.1142 8.99485 71.5201 8.84635L71.0351 10.7866C71.3937 10.8763 71.6399 11.007 71.8106 11.1515L73.1025 9.62471ZM71.5202 8.84635C70.881 8.68656 70.1718 8.68361 69.4214 8.79081L69.7042 10.7707C70.2876 10.6874 70.7215 10.7082 71.0351 10.7866L71.5202 8.84635ZM69.4214 8.79081C68.0001 8.99386 66.6972 9.71318 65.5138 10.844L66.8955 12.29C67.8556 11.3726 68.7915 10.9011 69.7042 10.7707L69.4214 8.79081ZM65.5142 10.8437C64.3953 11.9117 63.4004 13.1741 62.5262 14.6229L64.2385 15.6562C65.0314 14.3423 65.9181 13.2229 66.8951 12.2904L65.5142 10.8437ZM64.3823 15.1395V12.2101H62.3824V15.1395H64.3823ZM64.1672 12.8297C64.4636 12.4543 64.809 12.1284 65.2062 11.8504L64.0593 10.2119C63.5038 10.6007 63.0156 11.0608 62.5975 11.5904L64.1672 12.8297ZM65.214 11.8449C65.65 11.5334 66.1015 11.2879 66.569 11.105L65.8402 9.2425C65.2122 9.48824 64.6158 9.81435 64.0515 10.2174L65.214 11.8449ZM66.6034 11.0908C67.09 10.8792 67.5845 10.7217 68.0877 10.6168L67.6798 8.65888C67.0398 8.79222 66.4149 8.9919 65.8059 9.25667L66.6034 11.0908ZM68.0798 10.6184C68.6302 10.5084 69.1506 10.4439 69.642 10.4226L69.5551 8.42446C68.9509 8.45072 68.3281 8.52919 67.6876 8.65728L68.0798 10.6184ZM69.6229 10.4232C71.431 10.3791 72.6937 10.7687 73.5446 11.4531L74.7981 9.89468C73.4578 8.81664 71.672 8.37264 69.5742 8.42381L69.6229 10.4232ZM73.5446 11.4531C74.309 12.068 74.8147 13.1867 74.8147 15.1038H76.8147C76.8147 12.8769 76.2249 11.0423 74.7981 9.89468L73.5446 11.4531ZM74.8147 15.1038V23.1777H76.8147V15.1038H74.8147ZM74.8147 23.1777C74.8147 23.7551 74.9016 24.3095 75.0861 24.8324L76.9721 24.1667C76.8708 23.8798 76.8147 23.553 76.8147 23.1777H74.8147ZM75.1129 24.9004C75.5221 25.8355 76.4516 26.0653 77.2464 26.0347L77.1696 24.0362C77.0654 24.0402 76.9895 24.0348 76.9372 24.0268C76.885 24.0188 76.8635 24.0094 76.8626 24.0089C76.8625 24.0089 76.8672 24.011 76.8752 24.0165C76.8833 24.022 76.8932 24.0298 76.9036 24.0403C76.9263 24.0629 76.9395 24.0857 76.9452 24.0987L75.1129 24.9004ZM77.208 26.0354C77.4611 26.0354 77.7094 25.9934 77.9471 25.9255L77.3977 24.0024C77.302 24.0298 77.2407 24.0354 77.208 24.0354V26.0354ZM78.0663 25.8831C78.3626 25.7561 78.6214 25.5722 78.844 25.3495L77.4297 23.9353C77.3665 23.9985 77.3157 24.0289 77.2785 24.0448L78.0663 25.8831ZM77.1369 24.6424V24.8211H79.1369V24.6424H77.1369ZM77.2653 24.3308C77.1622 24.5141 76.9715 24.7155 76.6189 24.9094L77.5827 26.6619C78.1828 26.3318 78.6828 25.8902 79.0084 25.3113L77.2653 24.3308ZM76.6189 24.9094C76.3097 25.0795 75.9319 25.1786 75.4575 25.1786V27.1786C76.2215 27.1786 76.9393 27.0158 77.5827 26.6619L76.6189 24.9094ZM75.4575 25.1786C75.1547 25.1786 74.9836 25.1196 74.8896 25.0648L73.8818 26.7923C74.3594 27.0709 74.9029 27.1786 75.4575 27.1786V25.1786ZM74.8896 25.0648C74.701 24.9548 74.5595 24.8308 74.4521 24.6965L72.8903 25.9459C73.164 26.288 73.4988 26.5689 73.8818 26.7923L74.8896 25.0648ZM74.4904 24.7478C74.3748 24.5825 74.3079 24.4398 74.2718 24.3194L72.3561 24.8941C72.4629 25.25 72.6342 25.5836 72.852 25.8947L74.4904 24.7478ZM74.2787 24.3436C74.218 24.1208 74.2068 24.0036 74.2068 23.9637H72.2068C72.2068 24.2572 72.267 24.5686 72.3492 24.8698L74.2787 24.3436ZM72.4569 23.302C72.1402 23.661 71.8064 23.9732 71.4561 24.2411L72.671 25.8298C73.1305 25.4784 73.5589 25.0761 73.9566 24.6253L72.4569 23.302ZM71.4636 24.2354C71.1545 24.4672 70.7849 24.6792 70.3478 24.8665L71.1357 26.7048C71.6988 26.4634 72.2105 26.1752 72.6636 25.8354L71.4636 24.2354ZM70.3314 24.8737C69.9565 25.0424 69.4893 25.176 68.9161 25.2609L69.2092 27.2393C69.9221 27.1337 70.5743 26.9576 71.1521 26.6976L70.3314 24.8737ZM68.8738 25.2681C68.3448 25.3698 67.6945 25.4157 66.912 25.3934L66.8549 27.3926C67.7395 27.4178 68.542 27.3685 69.2515 27.2321L68.8738 25.2681ZM66.9219 25.3937C66.3813 25.3729 65.8999 25.2905 65.4718 25.1543L64.8654 27.0601C65.4852 27.2573 66.147 27.3654 66.845 27.3922L66.9219 25.3937ZM65.4317 25.1424C65.0176 25.0295 64.7309 24.8743 64.5333 24.7049L63.2317 26.2234C63.7009 26.6256 64.2717 26.8991 64.9055 27.0719L65.4317 25.1424ZM64.5374 24.7084C64.2795 24.4849 64.0935 24.2382 63.9656 23.9666L62.156 24.8182C62.4092 25.3563 62.771 25.8241 63.2276 26.2198L64.5374 24.7084ZM63.9855 24.0116C63.8658 23.721 63.7924 23.3934 63.7738 23.0206L61.7763 23.1205C61.8053 23.7004 61.9224 24.254 62.1361 24.7731L63.9855 24.0116ZM63.7744 23.0361C63.7564 22.512 63.863 21.9724 64.1162 21.4075L62.2912 20.5894C61.9252 21.4059 61.7461 22.2477 61.7756 23.105L63.7744 23.0361ZM64.1162 21.4075C64.3653 20.8518 64.6974 20.4267 65.1061 20.1069L63.8735 18.5319C63.1866 19.0694 62.6613 19.7638 62.2912 20.5894L64.1162 21.4075ZM64.5973 22.4275C64.5973 23.7521 64.9364 24.9297 65.7979 25.7568L67.183 24.314C66.8537 23.9979 66.5973 23.4369 66.5973 22.4275H64.5973ZM65.8279 25.7844C66.6061 26.4728 67.5156 26.8606 68.5313 26.8923L68.5937 24.8933C68.0851 24.8774 67.6133 24.6936 67.153 24.2864L65.8279 25.7844ZM68.5126 26.8916C69.1252 26.9222 69.7454 26.8289 70.3662 26.6314L69.7598 24.7255C69.3326 24.8615 68.9525 24.9111 68.6124 24.8941L68.5126 26.8916ZM70.3915 26.623C71.0054 26.4095 71.5753 26.1392 72.0974 25.8095L71.0294 24.1185C70.6465 24.3603 70.2161 24.5664 69.7344 24.734L70.3915 26.623ZM72.0974 25.8095C72.6402 25.4667 73.1036 25.0533 73.4709 24.5637L71.8709 23.3637C71.6666 23.6361 71.3917 23.8897 71.0294 24.1185L72.0974 25.8095ZM73.4653 24.5711C73.8732 24.0376 74.1353 23.4249 74.1353 22.749H72.1353C72.1353 22.8829 72.0878 23.0799 71.8765 23.3562L73.4653 24.5711ZM74.1353 22.749V15.4611H72.1353V22.749H74.1353ZM72.811 14.5151C71.9428 14.8128 71.0543 15.1709 70.1456 15.5884L70.9806 17.4058C71.8344 17.0135 72.6607 16.6809 73.4596 16.407L72.811 14.5151ZM70.1456 15.5884C69.2049 16.0207 68.3349 16.5318 67.538 17.123L68.7296 18.7292C69.4094 18.2249 70.1589 17.7833 70.9806 17.4058L70.1456 15.5884ZM67.538 17.123C66.7077 17.739 66.016 18.4692 65.4715 19.3131L67.1521 20.3974C67.5603 19.7647 68.0833 19.2088 68.7296 18.7292L67.538 17.123ZM65.4715 19.3131C64.8795 20.2307 64.5973 21.2808 64.5973 22.4275H66.5973C66.5973 21.6211 66.7914 20.9565 67.1521 20.3974L65.4715 19.3131ZM82.4149 9.78076L82.3089 8.7864L81.4149 8.88176V9.78076H82.4149ZM86.2733 8.20885L85.5361 7.53313L86.2733 8.20885ZM87.738 4.63634V3.63634H86.8552L86.7457 4.5123L87.738 4.63634ZM87.9881 4.63634L88.988 4.64328L88.995 3.63634H87.9881V4.63634ZM87.9523 9.78076L86.9524 9.77382L86.9454 10.7808H87.9523V9.78076ZM91.5606 9.78076H92.5606V8.78076H91.5606V9.78076ZM91.5606 10.1023V11.1023H92.5606V10.1023H91.5606ZM87.9523 10.1023V9.10229H86.9523V10.1023H87.9523ZM88.2382 23.6064L87.3097 23.9778L87.3212 24.0065L87.3344 24.0345L88.2382 23.6064ZM89.2027 24.6782L88.6813 25.5315L88.6882 25.5357L89.2027 24.6782ZM90.9533 24.9997L90.882 24.0022L90.8766 24.0026L90.9533 24.9997ZM91.8821 24.8568L92.1247 25.8269L92.1506 25.8204L92.1762 25.8126L91.8821 24.8568ZM92.6681 24.5353H93.6681V22.8358L92.1824 23.6611L92.6681 24.5353ZM92.6681 24.6424L93.4818 25.2237L93.6681 24.9629V24.6424H92.6681ZM91.0604 25.7856L90.7162 24.8468L91.0604 25.7856ZM87.4522 26L87.1194 26.943L87.1516 26.9544L87.1845 26.9635L87.4522 26ZM86.3447 25.3212L85.6376 26.0283L85.6507 26.0414L85.6643 26.054L86.3447 25.3212ZM85.5588 24.1066L84.6243 24.4626L84.6316 24.4817L84.6396 24.5005L85.5588 24.1066ZM85.0229 10.4953L84.1792 11.0321L84.191 11.0507L84.2037 11.0687L85.0229 10.4953ZM82.4149 10.1023H81.4149V11.1023H82.4149V10.1023ZM82.521 10.7751C84.423 10.5722 85.9906 9.99713 87.0104 8.88458L85.5361 7.53313C84.984 8.13539 83.9794 8.60821 82.3089 8.7864L82.521 10.7751ZM87.0104 8.88458C87.9754 7.83191 88.5222 6.42518 88.7303 4.76037L86.7457 4.5123C86.5727 5.89604 86.1431 6.87099 85.5361 7.53313L87.0104 8.88458ZM87.738 5.63634H87.9881V3.63634H87.738V5.63634ZM86.9881 4.62939L86.9524 9.77382L88.9523 9.78771L88.988 4.64328L86.9881 4.62939ZM87.9523 10.7808H91.5606V8.78076H87.9523V10.7808ZM90.5606 9.78076V10.1023H92.5606V9.78076H90.5606ZM91.5606 9.10229H87.9523V11.1023H91.5606V9.10229ZM86.9523 10.1023V22.0345H88.9523V10.1023H86.9523ZM86.9523 22.0345C86.9523 22.7188 87.0668 23.3706 87.3097 23.9778L89.1666 23.235C89.0284 22.8896 88.9523 22.4934 88.9523 22.0345H86.9523ZM87.3344 24.0345C87.6324 24.6636 88.0871 25.1683 88.6813 25.5314L89.7242 23.8249C89.461 23.664 89.2726 23.4543 89.1419 23.1783L87.3344 24.0345ZM88.6882 25.5357C89.0509 25.7533 89.4509 25.8875 89.8724 25.9523L90.1765 23.9756C89.9787 23.9452 89.8309 23.8889 89.7172 23.8207L88.6882 25.5357ZM89.8724 25.9523C90.257 26.0115 90.6433 26.0265 91.03 25.9967L90.8766 24.0026C90.644 24.0205 90.4111 24.0117 90.1765 23.9756L89.8724 25.9523ZM91.0245 25.9972C91.4082 25.9697 91.7757 25.9142 92.1247 25.8269L91.6396 23.8867C91.4169 23.9423 91.1652 23.982 90.882 24.0022L91.0245 25.9972ZM92.1762 25.8126C92.5325 25.7029 92.8627 25.5711 93.1537 25.4094L92.1824 23.6611C92.0447 23.7376 91.851 23.8201 91.588 23.901L92.1762 25.8126ZM91.6681 24.5353V24.6424H93.6681V24.5353H91.6681ZM91.8543 24.0612C91.6393 24.3623 91.2871 24.6374 90.7162 24.8468L91.4047 26.7245C92.2628 26.4099 92.9824 25.9229 93.4818 25.2237L91.8543 24.0612ZM90.7162 24.8468C90.122 25.0646 89.4656 25.1786 88.7383 25.1786V27.1786C89.6781 27.1786 90.5699 27.0306 91.4047 26.7245L90.7162 24.8468ZM88.7383 25.1786C88.4034 25.1786 88.0647 25.1323 87.7198 25.0365L87.1845 26.9635C87.6971 27.1059 88.2158 27.1786 88.7383 27.1786V25.1786ZM87.785 25.057C87.5168 24.9623 87.2644 24.8106 87.0252 24.5884L85.6643 26.054C86.0919 26.4511 86.5778 26.7519 87.1194 26.943L87.785 25.057ZM87.0518 24.6141C86.8511 24.4134 86.6539 24.1233 86.4779 23.7126L84.6396 24.5005C84.8923 25.0902 85.2191 25.6098 85.6376 26.0283L87.0518 24.6141ZM86.4932 23.7506C86.3591 23.3983 86.273 22.9085 86.273 22.2489H84.273C84.273 23.0659 84.3774 23.8145 84.6243 24.4626L86.4932 23.7506ZM86.273 22.2489V11.7814H84.273V22.2489H86.273ZM86.273 11.7814C86.273 11.1435 86.2008 10.4343 85.8421 9.9218L84.2037 11.0687C84.1767 11.0303 84.2017 11.0467 84.2288 11.1863C84.2544 11.3178 84.273 11.5116 84.273 11.7814H86.273ZM85.8665 9.95839C85.6088 9.5534 85.2117 9.34903 84.8685 9.24418C84.5229 9.13856 84.1338 9.10229 83.7368 9.10229V11.1023C84.0305 11.1023 84.2011 11.1315 84.2841 11.1569C84.3697 11.183 84.2702 11.1752 84.1792 11.0321L85.8665 9.95839ZM83.7368 9.10229H82.4149V11.1023H83.7368V9.10229ZM83.4149 10.1023V9.78076H81.4149V10.1023H83.4149ZM98.4729 14.5679L97.5331 14.2262L98.4729 14.5679ZM100.08 11.8528L99.3406 11.1802L99.3395 11.1813L100.08 11.8528ZM102.653 10.0308L102.259 9.11169L102.653 10.0308ZM109.548 10.0308L109.162 10.9533L109.171 10.9571L109.18 10.9608L109.548 10.0308ZM112.12 11.7814L111.379 12.4529L111.39 12.465L111.401 12.4768L112.12 11.7814ZM113.728 14.4608L114.674 14.1381V14.1381L113.728 14.4608ZM113.692 21.4272L112.752 21.0854L112.748 21.0978L113.692 21.4272ZM112.084 24.0708L111.366 23.3754L111.36 23.3815L111.354 23.3877L112.084 24.0708ZM109.512 25.7856L109.144 24.8557L109.137 24.8587L109.512 25.7856ZM102.617 25.7856L102.242 26.7126L102.249 26.7156L102.617 25.7856ZM100.045 24.0708L99.3145 24.754L99.3203 24.7602L99.3262 24.7663L100.045 24.0708ZM98.4371 21.4272L97.4906 21.7498L97.4951 21.7629L97.4999 21.7759L98.4371 21.4272ZM103.296 10.4953L102.777 9.64048L102.77 9.6447L102.763 9.64903L103.296 10.4953ZM101.724 12.0672L100.878 11.5344L100.87 11.5458L100.864 11.5574L101.724 12.0672ZM100.866 14.2464L99.893 14.0174L99.8898 14.031L99.887 14.0448L100.866 14.2464ZM101.831 22.6418L100.919 23.0522L100.925 23.0661L100.932 23.0798L101.831 22.6418ZM103.617 24.9997L102.961 25.7538L103.617 24.9997ZM108.833 25.4284L109.305 26.3099L108.833 25.4284ZM110.441 23.9994L111.268 24.5617L111.273 24.5542L111.278 24.5466L110.441 23.9994ZM111.298 21.8916L110.326 21.656L110.323 21.67L110.32 21.6841L111.298 21.8916ZM111.298 16.4971L110.312 16.6649L110.313 16.6684L111.298 16.4971ZM110.334 13.3533L109.418 13.7553L109.422 13.7646L109.426 13.7737L110.334 13.3533ZM108.547 10.8882L107.877 11.6303L107.883 11.6356L107.889 11.6408L108.547 10.8882ZM98.9013 17.9618C98.9013 16.8533 99.0748 15.8387 99.4127 14.9097L97.5331 14.2262C97.1088 15.393 96.9013 16.641 96.9013 17.9618H98.9013ZM99.4127 14.9097C99.7532 13.9732 100.225 13.1827 100.821 12.5243L99.3395 11.1813C98.5547 12.0473 97.9547 13.0668 97.5331 14.2262L99.4127 14.9097ZM100.82 12.5255C101.436 11.8482 102.175 11.3237 103.047 10.95L102.259 9.11169C101.13 9.5954 100.154 10.2856 99.3406 11.1802L100.82 12.5255ZM103.047 10.95C103.904 10.5825 104.898 10.3878 106.047 10.3878V8.38778C104.67 8.38778 103.402 8.6218 102.259 9.11169L103.047 10.95ZM106.047 10.3878C107.247 10.3878 108.28 10.5841 109.162 10.9533L109.934 9.1084C108.767 8.62016 107.466 8.38778 106.047 8.38778V10.3878ZM109.18 10.9608C110.072 11.3134 110.798 11.8123 111.379 12.4529L112.861 11.1099C112.06 10.2261 111.072 9.55807 109.915 9.10088L109.18 10.9608ZM111.401 12.4768C112.005 13.1011 112.468 13.864 112.781 14.7834L114.674 14.1381C114.273 12.9616 113.663 11.9383 112.838 11.086L111.401 12.4768ZM112.781 14.7834C113.098 15.7122 113.263 16.7681 113.263 17.9618H115.263C115.263 16.5833 115.072 15.3052 114.674 14.1381L112.781 14.7834ZM113.263 17.9618C113.263 19.1228 113.088 20.1605 112.752 21.0854L114.632 21.7689C115.057 20.598 115.263 19.3254 115.263 17.9618H113.263ZM112.748 21.0978C112.435 21.9928 111.974 22.7471 111.366 23.3754L112.803 24.7663C113.624 23.918 114.234 22.9098 114.636 21.7565L112.748 21.0978ZM111.354 23.3877C110.773 24.0085 110.043 24.5003 109.144 24.8557L109.88 26.7156C111.029 26.2612 112.014 25.6098 112.814 24.754L111.354 23.3877ZM109.137 24.8587C108.276 25.207 107.264 25.393 106.082 25.393V27.393C107.473 27.393 108.747 27.174 109.887 26.7126L109.137 24.8587ZM106.082 25.393C104.901 25.393 103.874 25.2072 102.985 24.8557L102.249 26.7156C103.408 27.1738 104.691 27.393 106.082 27.393V25.393ZM102.992 24.8587C102.115 24.5035 101.376 24.0084 100.763 23.3754L99.3262 24.7663C100.143 25.6099 101.119 26.258 102.242 26.7126L102.992 24.8587ZM100.775 23.3877C100.182 22.7536 99.713 21.9886 99.3744 21.0784L97.4999 21.7759C97.9234 22.914 98.5263 23.9114 99.3145 24.754L100.775 23.3877ZM99.3836 21.1045C99.0664 20.1739 98.9013 19.1295 98.9013 17.9618H96.9013C96.9013 19.3187 97.0934 20.5846 97.4906 21.7498L99.3836 21.1045ZM105.725 8.88794C104.63 8.88794 103.631 9.1216 102.777 9.64048L103.815 11.3501C104.294 11.0592 104.915 10.8879 105.725 10.8879V8.88794ZM102.763 9.64903C101.993 10.1336 101.362 10.7647 100.878 11.5344L102.57 12.6C102.895 12.0835 103.312 11.6667 103.829 11.3415L102.763 9.64903ZM100.864 11.5574C100.425 12.297 100.104 13.1198 99.893 14.0174L101.84 14.4755C102.01 13.7534 102.26 13.1235 102.584 12.577L100.864 11.5574ZM99.887 14.0448C99.7069 14.9195 99.6164 15.7968 99.6164 16.6757H101.616C101.616 15.9351 101.693 15.1929 101.846 14.4481L99.887 14.0448ZM99.6164 16.6757C99.6164 17.6274 99.7191 18.6636 99.9176 19.7802L101.887 19.4302C101.704 18.4033 101.616 17.4865 101.616 16.6757H99.6164ZM99.9176 19.7802C100.122 20.9297 100.455 22.0213 100.919 23.0522L102.743 22.2315C102.349 21.357 102.063 20.4242 101.887 19.4302L99.9176 19.7802ZM100.932 23.0798C101.44 24.1224 102.116 25.0178 102.961 25.7538L104.274 24.2456C103.642 23.6954 103.127 23.0189 102.73 22.2039L100.932 23.0798ZM102.961 25.7538C103.907 26.578 105.08 26.9643 106.404 26.9643V24.9643C105.489 24.9643 104.804 24.7075 104.274 24.2456L102.961 25.7538ZM106.404 26.9643C107.479 26.9643 108.46 26.7626 109.305 26.3099L108.361 24.5469C107.872 24.8087 107.234 24.9643 106.404 24.9643V26.9643ZM109.305 26.3099C110.107 25.8804 110.767 25.2974 111.268 24.5617L109.614 23.4371C109.304 23.8922 108.893 24.2619 108.361 24.5469L109.305 26.3099ZM111.278 24.5466C111.756 23.8153 112.086 22.9956 112.276 22.0991L110.32 21.6841C110.177 22.3595 109.935 22.945 109.604 23.4521L111.278 24.5466ZM112.27 22.1272C112.48 21.2618 112.584 20.3728 112.584 19.4623H110.584C110.584 20.219 110.498 20.9495 110.326 21.656L112.27 22.1272ZM112.584 19.4623C112.584 18.511 112.481 17.464 112.283 16.3258L110.313 16.6684C110.496 17.7214 110.584 18.6511 110.584 19.4623H112.584ZM112.284 16.3293C112.079 15.1274 111.733 13.994 111.241 12.9328L109.426 13.7737C109.84 14.6656 110.136 15.628 110.312 16.6649L112.284 16.3293ZM111.249 12.9513C110.765 11.8478 110.084 10.9042 109.206 10.1357L107.889 11.6408C108.535 12.206 109.045 12.9058 109.418 13.7553L111.249 12.9513ZM109.218 10.1461C108.268 9.28861 107.076 8.88794 105.725 8.88794V10.8879C106.66 10.8879 107.35 11.1541 107.877 11.6303L109.218 10.1461Z" fill="white"/>
</svg>
